<svg width="600" height="600" viewBox="0 0 600 600" fill="none" xmlns="http://www.w3.org/2000/svg">
<path d="M392.294 83.3227C390.101 89.6018 387.111 92.1932 383.324 90.8975C380.333 89.9008 379.237 86.6118 379.835 81.0304C380.134 78.14 380.333 76.2463 380.433 75.449C380.533 73.1566 380.433 71.2629 380.034 69.7679C379.137 66.2795 376.446 63.8875 371.961 62.3925C370.765 61.9938 368.772 61.3958 365.981 60.6981L360.998 76.1466C360.5 77.7413 360.5 79.037 360.898 79.8344C361.397 80.6317 362.393 81.3294 364.088 81.8277L366.181 82.5254L365.583 84.4191L349.536 79.2363L350.134 77.3427L352.227 78.0403C355.118 78.9373 357.011 78.0403 358.008 75.2496L367.775 44.851C368.274 43.1566 368.373 41.8609 367.875 40.9639C367.377 40.0669 366.38 39.3692 364.785 38.8709L362.692 38.1732L363.29 36.2795L384.719 43.1566C388.905 44.552 392.094 46.5453 394.187 49.1367C396.38 51.9274 396.978 55.0171 395.882 58.2064C393.988 64.0868 388.506 66.2795 379.337 64.5852C383.024 67.6749 384.52 72.4589 383.722 79.037C383.423 82.027 383.323 84.1201 383.622 85.3161C383.921 86.5121 384.52 87.2098 385.417 87.5088C386.413 87.8078 387.31 87.5088 388.307 86.6118C389.304 85.7148 390.101 84.4191 390.699 82.924L392.294 83.3227ZM392.094 57.1101C393.988 51.2297 391.297 47.1433 384.021 44.851L376.845 42.5586C373.855 41.5619 371.862 42.6583 370.965 45.6483L366.779 58.4058C369.569 59.5021 371.762 60.2995 373.357 60.7978C378.24 62.3925 382.127 63.0902 384.819 62.7912C388.506 62.5918 390.898 60.6981 392.094 57.1101Z" fill="white"/>
<path d="M407.743 101.762L393.092 94.4862L393.989 92.6922L396.58 93.9879C398.773 95.0842 400.467 94.3866 401.663 91.9945L416.414 62.2935C417.61 59.9015 417.112 58.1075 414.919 57.1108L412.328 55.8151L413.225 54.0211L427.876 61.2969L426.979 63.0909L424.387 61.7952C422.195 60.6989 420.5 61.3965 419.304 63.7886L404.554 93.4896C403.358 95.8816 403.856 97.6756 406.049 98.6723L408.64 99.968L407.743 101.762Z" fill="white"/>
<path d="M446.212 112.724C444.019 115.914 441.129 117.608 437.541 117.907C433.953 118.206 430.464 117.209 426.976 114.817C424.783 113.322 423.089 111.728 421.893 110.033C420.498 108.139 419.501 105.548 418.803 102.558L413.82 105.149L412.823 104.452L421.594 90.6976L422.989 91.495C419.302 101.163 420.996 108.438 428.072 113.223C430.464 114.817 433.155 115.615 435.946 115.615C439.036 115.515 441.428 114.319 443.023 111.927C444.916 109.036 445.116 105.947 443.521 102.558C442.923 101.262 441.029 98.5714 437.74 94.485C434.75 90.6976 432.757 87.8073 431.959 85.6146C430.564 82.0265 430.863 78.7375 432.856 75.8471C434.75 73.0564 437.242 71.4617 440.431 71.0631C443.621 70.6644 446.81 71.5614 449.999 73.7541C453.986 76.4451 456.478 80.2325 457.375 85.0166L461.86 82.2259L462.956 83.0232L455.182 95.681L453.787 94.784C455.282 90.4983 455.68 86.9102 455.182 84.0199C454.584 80.6312 452.591 77.7408 449.102 75.3488C446.81 73.7541 444.418 72.9568 442.126 73.0564C439.435 73.1561 437.242 74.3521 435.647 76.6445C434.052 78.9368 434.152 81.7275 435.747 84.8172C436.245 85.7142 438.039 88.1063 441.029 91.9933C444.617 96.4784 446.71 99.6677 447.508 101.561C449.102 105.349 448.704 109.036 446.212 112.724Z" fill="white"/>
<path d="M487.973 137.642C482.989 142.725 477.906 145.217 472.524 145.316C467.142 145.416 461.96 143.024 456.976 138.14L442.624 124.087L444.019 122.692L445.415 124.087C446.611 125.283 447.707 125.881 448.704 125.881C449.7 125.881 450.797 125.283 452.092 123.987L474.219 101.463C475.514 100.167 476.112 98.9709 476.112 98.0739C476.112 97.0772 475.514 95.9808 474.219 94.7848L472.823 93.3895L474.219 91.9941L489.069 106.446C494.252 111.529 496.744 116.612 496.544 121.695C496.345 126.679 493.455 132.061 487.973 137.642ZM485.88 134.154C495.249 124.586 495.946 115.815 487.973 108.041L482.79 102.958C480.896 101.164 478.903 101.263 476.71 103.456L454.385 126.28C452.192 128.473 452.092 130.466 453.986 132.36L458.671 136.944C466.943 145.117 476.013 144.22 485.88 134.154Z" fill="white"/>
<path d="M509.103 212.492L501.728 198.738L503.422 197.841L504.22 199.336C505.515 201.728 506.911 202.526 508.406 201.728C508.804 201.529 509.502 200.732 510.598 199.436L516.08 193.057L506.911 176.213L500.532 177.11C498.24 177.409 496.745 177.808 496.047 178.107C495.15 178.605 494.651 179.403 494.751 180.399C494.851 181.496 495.449 183.09 496.645 185.383L494.951 186.28L487.774 173.124L489.469 172.227C490.764 174.021 491.96 175.117 492.957 175.516C493.754 175.815 495.25 175.815 497.442 175.516L537.509 170.233L538.505 172.027L511.396 203.722C509.402 206.014 509.203 208.705 510.798 211.595L509.103 212.492ZM517.475 191.562L533.622 172.725L509.004 176.014L517.475 191.562Z" fill="white"/>
<path d="M530.831 243.588C527.143 244.784 523.854 244.386 520.864 242.293C517.874 240.299 515.781 237.309 514.485 233.323C513.688 230.831 513.389 228.539 513.489 226.446C513.588 224.054 514.286 221.462 515.681 218.671L510.1 217.675L509.701 216.479L525.15 211.097L525.748 212.592C516.877 217.874 513.688 224.652 516.379 232.824C517.276 235.615 518.871 237.907 521.063 239.502C523.555 241.396 526.246 241.894 528.937 240.997C532.226 239.901 534.319 237.608 535.116 233.921C535.415 232.525 535.615 229.236 535.615 224.054C535.615 219.269 535.914 215.681 536.512 213.489C537.608 209.801 539.9 207.409 543.289 206.313C546.479 205.316 549.469 205.615 552.259 207.21C555.05 208.904 556.944 211.595 558.14 215.283C559.635 219.967 559.236 224.353 556.944 228.638L562.226 229.236L562.625 230.532L548.572 235.715L548.073 234.12C551.861 231.628 554.452 229.137 555.847 226.545C557.542 223.456 557.641 219.967 556.445 215.98C555.548 213.289 554.253 211.296 552.359 209.801C550.166 208.107 547.774 207.708 545.083 208.605C542.392 209.502 540.798 211.595 540.1 215.083C539.901 216.18 539.801 219.17 539.801 224.054C539.801 229.834 539.502 233.622 539.003 235.615C537.708 239.602 535.017 242.193 530.831 243.588Z" fill="white"/>
<path d="M523.555 268.505L520.665 252.359L522.559 252.06L523.057 254.95C523.456 257.342 525.05 258.339 527.642 257.841L560.233 252.06C562.824 251.562 563.921 250.166 563.522 247.774L563.024 244.884L564.917 244.585L567.808 260.731L565.914 261.03L565.416 258.14C565.017 255.748 563.422 254.751 560.831 255.249L528.24 261.03C525.648 261.528 524.552 262.924 524.951 265.316L525.449 268.206L523.555 268.505Z" fill="white"/>
<path d="M525.947 317.344L525.648 301.795H527.541V303.49C527.641 306.181 528.438 307.576 530.232 307.477C530.631 307.477 531.628 307.178 533.222 306.48L540.997 303.291L540.598 284.055L534.518 281.862C532.325 281.065 530.83 280.666 530.033 280.666C528.937 280.666 528.239 281.164 527.84 282.161C527.442 283.158 527.242 284.852 527.342 287.443H525.448L525.149 272.493H527.043C527.442 274.686 527.94 276.181 528.638 276.978C529.236 277.576 530.531 278.274 532.624 279.071L570.698 292.626V294.619L532.126 310.467C529.335 311.663 527.94 313.855 528.04 317.244L525.947 317.344ZM543.09 302.493L566.113 293.124L542.691 284.852L543.09 302.493Z" fill="white"/>
<path d="M559.337 374.054L559.835 371.264C560.334 368.772 559.138 367.177 556.347 366.579L517.377 359.004L517.676 357.41L562.925 336.778L530.334 330.4C527.443 329.802 525.849 330.798 525.35 333.29L524.852 335.981L522.958 335.582L525.849 320.732L527.742 321.131L527.244 323.921C526.746 326.413 527.942 328.008 530.732 328.606L562.925 334.885C564.52 335.184 565.616 335.084 566.214 334.685C566.812 334.287 567.311 333.29 567.61 331.795L568.108 329.004L570.002 329.403L568.307 337.974L523.756 358.207L556.746 364.685C559.536 365.184 561.131 364.287 561.629 361.795L562.128 359.104L564.022 359.503L561.131 374.353L559.337 374.054Z" fill="white"/>
<path d="M499.735 405.25L506.812 390.499L508.606 391.396L507.31 393.987C506.214 396.18 506.911 397.874 509.303 399.07L539.204 413.423C541.596 414.619 543.39 414.021 544.387 411.828L545.682 409.237L547.476 410.134L540.4 424.884L538.606 423.987L539.901 421.396C540.998 419.203 540.3 417.509 537.908 416.313L508.008 401.961C505.616 400.765 503.822 401.363 502.825 403.556L501.529 406.147L499.735 405.25Z" fill="white"/>
<path d="M508.006 471.628L509.601 469.336C511.096 467.243 510.598 465.349 508.206 463.655L475.515 441.03L476.412 439.734L526.146 439.037L498.837 420.1C496.445 418.406 494.551 418.705 493.156 420.698L491.561 422.99L489.966 421.894L498.538 409.435L500.133 410.532L498.538 412.824C497.043 414.917 497.541 416.811 499.933 418.505L526.943 437.143C528.239 438.04 529.236 438.439 530.033 438.339C530.731 438.239 531.528 437.542 532.425 436.246L534.02 433.954L535.614 435.05L530.631 442.226L481.694 442.924L509.302 462.06C511.694 463.655 513.488 463.455 514.983 461.362L516.578 459.07L518.172 460.166L509.601 472.625L508.006 471.628Z" fill="white"/>
<path d="M464.155 495.548L465.052 494.651C468.939 497.84 471.829 499.734 474.022 500.332C476.912 501.129 479.603 500.232 482.195 497.641C485.185 494.651 485.783 492.259 483.789 490.266L460.965 466.943C459.769 465.747 458.773 465.149 457.776 465.149C456.779 465.149 455.783 465.747 454.587 466.943L452.892 468.638L451.597 467.242L463.756 455.382L465.052 456.777L463.357 458.372C462.161 459.568 461.563 460.664 461.464 461.561C461.464 462.558 461.962 463.555 463.158 464.751L485.982 488.073C487.876 490.066 490.367 489.568 493.357 486.578C495.949 483.987 496.945 481.295 496.148 478.505C495.65 476.312 493.756 473.322 490.666 469.435L491.563 468.538L502.128 480.797L476.115 506.312L464.155 495.548Z" fill="white"/>
<path d="M419.303 510.798L411.329 497.044L442.425 476.014L443.522 477.608L441.927 478.705C440.532 479.602 439.734 480.598 439.535 481.595C439.336 482.492 439.734 483.788 440.731 485.283L458.671 511.794C460.366 514.186 462.259 514.685 464.651 513.09L466.645 511.794L467.741 513.389L437.243 534.02L427.974 521.761L429.07 521.063C433.156 525.15 436.346 527.442 438.538 527.941C440.731 528.339 444.02 527.143 448.107 524.253L454.685 519.768C455.98 518.871 456.778 517.974 456.977 516.977C457.176 516.08 456.877 514.884 455.881 513.489L447.907 501.728L441.13 506.313C438.738 507.907 437.542 509.402 437.542 510.897C437.442 512.392 438.439 514.585 440.432 517.475L438.937 518.472L427.974 502.226L429.469 501.23C431.462 504.22 433.156 506.014 434.452 506.412C435.748 506.811 437.641 506.213 440.033 504.618L446.811 500.034L437.94 486.877C436.944 485.382 435.947 484.485 434.95 484.386C434.053 484.186 432.857 484.585 431.462 485.582L423.289 491.064C419.502 493.655 417.409 496.446 417.209 499.336C417.11 501.529 418.107 505.017 420.2 509.901L419.303 510.798Z" fill="white"/>
<path d="M372.06 524.252C369.568 518.073 370.167 514.186 373.954 512.591C376.844 511.395 379.834 513.09 383.024 517.774C384.618 520.166 385.715 521.761 386.313 522.359C387.708 524.153 389.004 525.548 390.299 526.345C393.289 528.339 396.877 528.438 401.263 526.644C402.459 526.146 404.353 525.249 406.844 524.053L400.565 509.203C399.867 507.608 399.17 506.711 398.273 506.412C397.376 506.113 396.18 506.312 394.585 507.01L392.492 507.907L391.695 506.113L407.243 499.535L408.04 501.329L406.047 502.226C403.256 503.422 402.359 505.415 403.555 508.106L416.014 537.508C416.711 539.103 417.509 540.1 418.406 540.598C419.303 540.997 420.598 540.797 422.093 540.199L424.186 539.302L424.984 541.096L404.253 549.867C400.166 551.561 396.479 552.159 393.19 551.462C389.701 550.764 387.309 548.87 385.914 545.681C383.522 539.9 386.213 534.717 394.186 530.033C389.402 530.133 385.117 527.442 381.429 521.96C379.735 519.468 378.439 517.874 377.442 517.176C376.446 516.478 375.549 516.279 374.652 516.678C373.755 517.076 373.157 517.973 373.057 519.269C372.858 520.664 373.057 522.06 373.655 523.654L372.06 524.252ZM389.402 543.987C391.794 549.668 396.479 550.963 403.555 547.973L410.532 544.983C413.422 543.787 414.22 541.694 412.924 538.704L407.642 526.345C404.851 527.342 402.658 528.139 401.063 528.837C396.279 530.83 392.99 532.824 391.097 534.817C388.605 537.508 388.007 540.498 389.402 543.987Z" fill="white"/>
<path d="M335.084 535.117C334.286 531.33 334.984 528.041 337.276 525.25C339.569 522.459 342.658 520.665 346.745 519.768C349.336 519.17 351.629 519.071 353.622 519.37C356.014 519.669 358.506 520.665 361.197 522.26L362.791 516.778L363.987 516.479L367.874 532.426L366.379 532.924C361.894 523.556 355.516 519.868 347.143 521.662C344.253 522.26 341.861 523.655 340.067 525.748C337.974 528.14 337.276 530.632 337.874 533.423C338.672 536.811 340.765 539.104 344.353 540.2C345.748 540.599 348.937 541.097 354.12 541.596C358.904 541.994 362.393 542.692 364.486 543.489C368.074 544.984 370.167 547.376 370.964 550.865C371.662 554.154 371.064 557.044 369.17 559.635C367.177 562.227 364.386 563.921 360.599 564.718C355.815 565.815 351.429 564.918 347.442 562.326L346.346 567.509L344.951 567.808L341.064 553.257L342.658 552.858C344.751 556.845 347.044 559.635 349.536 561.23C352.426 563.124 355.914 563.622 360.001 562.725C362.791 562.127 364.884 560.931 366.479 559.237C368.373 557.243 368.971 554.851 368.373 552.061C367.775 549.27 365.781 547.476 362.393 546.479C361.396 546.18 358.406 545.881 353.522 545.383C347.741 544.885 343.954 544.187 342.16 543.489C338.373 542.293 336.08 539.403 335.084 535.117Z" fill="white"/>
<path d="M291.13 541.994L291.529 526.147L329.103 524.552L329.203 526.545L327.21 526.645C325.515 526.745 324.419 527.143 323.721 527.841C323.024 528.539 322.725 529.735 322.824 531.529L324.22 563.522C324.319 566.412 325.814 567.907 328.605 567.708L330.997 567.608L331.097 569.602L294.319 571.196L292.824 555.947L294.12 555.848C295.416 561.529 296.911 565.117 298.605 566.612C300.299 568.107 303.688 568.804 308.671 568.505L316.645 568.206C318.24 568.107 319.436 567.808 320.133 567.11C320.831 566.412 321.13 565.216 321.03 563.622L320.432 549.469L312.259 549.768C309.369 549.867 307.575 550.565 306.778 551.761C305.98 552.957 305.582 555.349 305.781 558.937L303.987 559.037L303.19 539.402L304.984 539.303C305.183 542.891 305.681 545.283 306.578 546.379C307.475 547.475 309.369 547.874 312.259 547.774L320.432 547.475L319.735 531.628C319.635 529.834 319.236 528.539 318.539 527.941C317.841 527.343 316.645 527.044 314.95 527.143L305.083 527.542C300.499 527.741 297.309 529.037 295.615 531.429C294.319 533.223 293.323 536.711 292.625 541.994H291.13Z" fill="white"/>
<path d="M247.874 535.516C249.568 530.632 252.06 527.044 255.249 524.752C258.638 522.36 262.624 521.463 267.209 522.161C273.189 522.958 277.774 525.848 280.963 530.633C284.153 535.317 285.349 540.898 284.452 547.177C283.555 553.855 280.963 559.237 276.777 563.324C272.292 567.709 266.91 569.503 260.731 568.606C256.046 567.908 252.458 565.716 250.066 562.028L247.076 566.314L245.382 566.114L247.176 548.573L248.97 548.872C249.767 559.835 253.754 565.716 261.03 566.812C266.113 567.51 270.697 565.516 274.485 560.632C277.774 556.546 279.767 551.862 280.565 546.579C281.262 541.297 280.565 536.613 278.372 532.427C275.88 527.642 271.794 524.951 266.212 524.154C262.624 523.656 259.435 524.453 256.545 526.546C253.654 528.639 251.561 531.829 250.066 536.015L247.874 535.516Z" fill="white"/>
<path d="M201.628 535.615L202.924 536.013C201.828 540.897 201.529 544.385 202.027 546.578C202.625 549.469 204.718 551.462 208.107 552.658C212.093 553.954 214.585 553.356 215.383 550.665L225.648 519.668C226.147 518.073 226.246 516.877 225.848 516.08C225.349 515.282 224.353 514.585 222.758 513.987L220.466 513.289L221.064 511.495L237.21 516.877L236.612 518.671L234.419 517.974C232.824 517.475 231.529 517.376 230.731 517.774C229.834 518.173 229.137 519.17 228.638 520.764L218.373 551.761C217.476 554.352 219.07 556.346 223.057 557.641C226.545 558.738 229.336 558.339 231.529 556.445C233.223 554.95 235.017 551.96 237.11 547.376L238.406 547.774L232.426 562.724L197.542 551.263L201.628 535.615Z" fill="white"/>
<path d="M192.956 498.738L207.607 506.013L206.71 507.807L204.119 506.512C201.926 505.415 200.232 506.113 199.036 508.505L184.385 538.206C183.189 540.598 183.687 542.392 185.88 543.389L188.471 544.684L187.574 546.478L172.923 539.203L173.82 537.409L176.411 538.704C178.604 539.801 180.298 539.103 181.494 536.711L196.145 507.01C197.341 504.618 196.843 502.824 194.65 501.827L192.059 500.532L192.956 498.738Z" fill="white"/>
<path d="M143.222 493.356C146.81 488.074 151.395 484.586 156.777 482.891C162.657 481.097 168.239 481.994 173.521 485.582C178.803 489.17 181.694 494.054 182.192 500.233C182.591 505.815 180.996 511.297 177.308 516.579C173.621 521.961 169.136 525.449 163.853 527.144C157.973 528.938 152.391 528.041 147.109 524.353C141.827 520.765 138.936 515.881 138.538 509.802C137.94 504.22 139.534 498.738 143.222 493.356ZM146.511 495.649C143.322 500.233 141.727 504.918 141.528 509.602C141.328 515.283 143.521 519.669 148.106 522.758C152.591 525.848 157.474 526.247 162.757 524.054C167.142 522.16 170.83 518.871 173.92 514.287C177.009 509.702 178.704 505.117 178.903 500.433C179.102 494.752 176.91 490.366 172.425 487.177C167.84 484.087 162.956 483.689 157.773 485.881C153.288 487.875 149.601 491.064 146.511 495.649Z" fill="white"/>
<path d="M92.0945 471.729L94.0879 473.722C95.8819 475.616 97.8752 475.516 99.8686 473.423L128.274 445.616L129.37 446.712L120.599 495.649L144.32 472.426C146.413 470.433 146.513 468.539 144.819 466.745L142.925 464.752L144.32 463.357L154.885 474.22L153.49 475.616L151.497 473.622C149.702 471.729 147.709 471.828 145.716 473.921L122.294 496.845C121.197 497.941 120.599 498.838 120.5 499.636C120.5 500.333 120.998 501.33 122.095 502.426L124.088 504.42L122.693 505.815L116.613 499.536L125.284 451.297L101.264 474.818C99.2706 476.812 99.0713 478.705 100.865 480.499L102.759 482.493L101.364 483.788L90.7988 472.925L92.0945 471.729Z" fill="white"/>
<path d="M93.9874 418.207C97.1768 416.015 100.565 415.516 103.954 416.712C107.343 417.809 110.233 420.101 112.526 423.589C114.021 425.782 114.918 427.875 115.416 429.868C116.014 432.161 116.014 434.852 115.516 437.942L121.197 437.443L121.894 438.44L108.539 447.908L107.542 446.712C114.619 439.138 115.815 431.862 111.031 424.686C109.436 422.194 107.243 420.5 104.652 419.503C101.662 418.407 99.0704 418.706 96.6784 420.201C93.7881 422.094 92.4924 424.985 92.6917 428.672C92.7914 430.068 93.5887 433.257 94.9841 438.34C96.3794 442.925 96.9774 446.413 96.9774 448.706C96.8778 452.593 95.3827 455.483 92.4924 457.476C89.7017 459.37 86.8113 459.868 83.6219 459.071C80.5322 458.174 77.8412 456.181 75.7482 452.991C73.0572 448.905 72.1601 444.52 73.1568 439.835L67.9741 440.732L67.1768 439.536L79.2366 430.666L80.1336 432.061C77.1435 435.45 75.4492 438.639 74.8512 441.53C74.1535 444.918 74.9508 448.307 77.2432 451.795C78.8379 454.088 80.6319 455.682 82.8246 456.579C85.416 457.576 87.808 457.277 90.2 455.682C92.4924 454.088 93.489 451.596 93.19 448.108C93.0904 447.011 92.293 444.121 90.9974 439.437C89.4027 433.955 88.6053 430.167 88.6053 428.174C88.406 423.888 90.2997 420.699 93.9874 418.207Z" fill="white"/>
<path d="M58.3057 354.718L64.2858 373.356L83.2226 367.376L84.02 369.868L65.0831 375.848L71.0632 394.486L68.5715 395.283L62.5914 376.645L44.0532 382.526L43.2559 380.034L61.7941 374.153L55.814 355.516L58.3057 354.718Z" fill="white"/>
<path d="M52.3258 281.263C59.4022 281.163 64.884 283.057 68.6713 286.745C72.5584 290.532 74.4521 295.814 74.5517 302.791L74.7511 322.924H72.7577V320.931C72.7577 319.236 72.359 318.04 71.6614 317.343C70.9637 316.645 69.7677 316.346 67.874 316.346L36.2793 316.545C34.4853 316.545 33.1896 316.944 32.4919 317.642C31.7943 318.339 31.4953 319.535 31.4953 321.23V323.223H29.5019L29.3026 302.492C29.2029 295.216 31.0966 289.934 34.884 286.446C38.771 283.157 44.5517 281.363 52.3258 281.263ZM51.4288 285.25C37.9737 285.349 31.2959 291.03 31.3956 302.193L31.4953 309.469C31.4953 312.06 33.0899 313.356 36.1796 313.356L68.173 313.157C71.2627 313.157 72.7577 311.761 72.7577 309.17L72.6581 302.692C72.4587 290.931 65.3823 285.15 51.4288 285.25Z" fill="white"/>
<path d="M77.6418 262.027L75.4491 278.273L73.4558 277.974L73.8544 275.083C74.1535 272.691 73.0571 271.296 70.3661 270.897L37.4757 266.512C34.7847 266.113 33.2897 267.21 32.9907 269.602L32.592 272.492L30.5986 272.193L32.7913 255.947L34.7847 256.246L34.386 259.137C34.087 261.529 35.1834 262.924 37.8744 263.323L70.7647 267.708C73.4558 268.107 74.9508 267.01 75.2498 264.618L75.6485 261.728L77.6418 262.027Z" fill="white"/>
<path d="M90.2989 214.088L85.8139 229.038L84.0198 228.54L84.5182 226.945C85.3155 224.354 84.8172 222.759 83.2225 222.261C82.8238 222.161 81.7275 222.161 80.0331 222.261L71.661 222.958L66.1793 241.397L71.362 245.284C73.2557 246.679 74.5514 247.576 75.2491 247.776C76.2458 248.075 77.1428 247.875 77.8404 246.978C78.5381 246.181 79.2358 244.586 79.9335 242.095L81.7275 242.593L77.4418 256.945L75.6477 256.447C75.9467 254.254 75.9467 252.659 75.4484 251.663C75.0497 250.865 74.0531 249.769 72.259 248.473L40.166 223.955L40.764 221.962L82.3255 218.673C85.4152 218.473 87.4085 216.679 88.3055 213.49L90.2989 214.088ZM69.568 223.058L44.7507 224.952L64.4849 240.002L69.568 223.058Z" fill="white"/>
<path d="M97.2769 176.213C100.666 178.007 102.759 180.698 103.456 184.186C104.154 187.675 103.556 191.362 101.662 195.05C100.466 197.342 99.0709 199.236 97.4762 200.631C95.6822 202.226 93.3898 203.522 90.3998 204.618L93.5892 209.302L92.9912 210.399L78.2403 203.223L78.8383 201.728C88.9048 204.319 95.8815 201.827 99.7686 194.153C101.164 191.562 101.563 188.871 101.264 186.08C100.765 182.99 99.2702 180.797 96.7785 179.402C93.6888 177.807 90.5991 178.007 87.4098 180C86.2138 180.797 83.7221 182.99 80.0344 186.578C76.6457 189.967 73.9546 192.259 71.9613 193.356C68.5726 195.15 65.2835 195.249 62.0942 193.555C59.1041 192.06 57.2104 189.668 56.5128 186.578C55.8151 183.389 56.3134 180.1 58.1074 176.711C60.3001 172.425 63.7885 169.535 68.3732 168.14L65.0842 163.954L65.6822 162.758L79.3367 169.136L78.5393 170.631C74.154 169.635 70.5659 169.635 67.6756 170.532C64.3865 171.528 61.6955 173.821 59.8018 177.608C58.5061 180.1 58.0078 182.492 58.3068 184.784C58.7055 187.475 60.1008 189.469 62.5925 190.764C65.0842 192.06 67.7752 191.661 70.6656 189.668C71.5626 189.07 73.7553 186.977 77.144 183.588C81.2304 179.502 84.1207 177.01 85.9148 176.013C89.6025 174.12 93.2902 174.219 97.2769 176.213Z" fill="white"/>
<path d="M106.245 128.473C112.923 133.656 112.624 140.932 105.348 150.599C104.451 151.795 102.557 154.387 99.6667 158.274L110.331 166.447C111.727 167.543 112.923 168.041 113.72 167.842C114.617 167.742 115.614 166.945 116.71 165.45L118.006 163.756L119.6 164.952L109.334 178.307L107.74 177.111L109.035 175.417C110.132 173.922 110.63 172.825 110.531 171.928C110.431 171.131 109.733 170.134 108.238 169.038L83.0222 149.503C81.6269 148.407 80.4308 147.908 79.4342 148.108C78.4375 148.207 77.4408 148.905 76.3445 150.3L75.0488 151.995L73.4541 150.799L85.3146 135.251C92.69 125.682 99.6667 123.39 106.245 128.473ZM103.753 131.563C100.464 129.071 97.2747 128.374 94.2847 129.669C92.1916 130.566 89.8993 132.56 87.5073 135.649L84.1186 140.134C82.1252 142.726 82.5239 144.918 85.1152 146.912L97.9724 156.779C100.663 153.589 102.657 151.197 103.753 149.802C106.145 146.712 107.54 143.623 107.839 140.633C108.138 136.945 106.843 133.955 103.753 131.563Z" fill="white"/>
<path d="M149.005 102.26C153.29 107.044 155.682 112.227 155.981 117.808C156.38 123.988 154.187 129.17 149.503 133.456C144.719 137.742 139.337 139.436 133.257 138.44C127.775 137.543 122.792 134.652 118.506 129.868C114.121 124.984 111.729 119.802 111.43 114.32C111.031 108.24 113.224 102.958 118.008 98.6721C122.792 94.3864 128.174 92.6921 134.154 93.6887C139.636 94.5858 144.619 97.4761 149.005 102.26ZM146.015 104.951C142.327 100.865 138.141 98.0741 133.556 96.8781C128.074 95.3831 123.29 96.4794 119.204 100.167C115.117 103.855 113.523 108.44 114.519 114.121C115.416 118.805 117.609 123.19 121.397 127.277C125.184 131.363 129.171 134.054 133.755 135.35C139.237 136.945 144.021 135.848 148.108 132.161C152.194 128.473 153.789 123.788 152.792 118.207C151.995 113.423 149.702 109.038 146.015 104.951Z" fill="white"/>
<path d="M196.745 88.4057C200.034 94.1864 200.034 98.0735 196.546 100.167C193.855 101.761 190.665 100.466 186.778 96.2795C184.785 94.0868 183.489 92.7911 182.891 92.1931C181.197 90.5984 179.702 89.4024 178.406 88.8044C175.217 87.2097 171.529 87.6084 167.542 90.1001C166.446 90.7977 164.752 91.8941 162.36 93.4888L170.732 107.343C171.629 108.838 172.526 109.635 173.423 109.735C174.32 109.934 175.516 109.535 177.011 108.638L178.904 107.442L179.901 109.137L165.449 117.907L164.453 116.213L166.346 115.117C168.938 113.522 169.536 111.429 168.041 108.937L151.496 81.6283C150.599 80.1333 149.602 79.2363 148.605 78.9373C147.609 78.7379 146.413 79.0369 145.017 79.8343L143.124 81.0303L142.127 79.3359L161.462 67.6748C165.25 65.3825 168.838 64.2861 172.227 64.4854C175.815 64.6848 178.406 66.2795 180.2 69.1698C183.389 74.4522 181.396 80.0336 174.22 85.8144C179.004 85.017 183.589 87.11 188.074 91.9938C190.167 94.1864 191.662 95.5818 192.659 96.1798C193.755 96.7778 194.652 96.7778 195.549 96.2795C196.446 95.7811 196.845 94.7845 196.745 93.4888C196.745 92.0934 196.346 90.6981 195.549 89.2031L196.745 88.4057ZM176.712 71.4622C173.522 66.1798 168.639 65.5818 162.16 69.4688L155.682 73.3559C152.991 74.9506 152.492 77.1433 154.187 79.8343L161.163 91.2961C163.855 89.9007 165.848 88.8044 167.343 87.9074C171.728 85.2163 174.818 82.8243 176.413 80.6316C178.506 77.7413 178.705 74.6516 176.712 71.4622Z" fill="white"/>
<path d="M248.072 79.4359L233.321 84.5189L232.723 82.7249L234.318 82.1269C236.909 81.2299 237.906 80.0339 237.308 78.3395C237.208 77.9409 236.511 77.0439 235.414 75.7482L230.032 69.3694L211.893 75.6485L211.693 82.1269C211.594 84.5189 211.693 86.014 211.992 86.8113C212.291 87.808 212.989 88.3063 214.085 88.5057C215.182 88.6053 216.876 88.2066 219.268 87.4093L219.866 89.2033L205.713 94.0871L205.115 92.293C207.109 91.2964 208.404 90.2997 208.903 89.4027C209.301 88.6053 209.6 87.21 209.7 84.9176L211.095 44.5522L212.989 43.8545L239.8 75.7482C241.793 78.0405 244.285 78.7382 247.474 77.6419L248.072 79.4359ZM228.736 67.6751L212.79 48.6385L211.992 73.4558L228.736 67.6751Z" fill="white"/>
<path d="M457.476 290.632C457.177 290.532 456.778 290.532 456.479 290.432C439.336 288.439 424.486 286.446 411.429 284.153C409.137 283.755 406.845 283.356 404.652 282.858C404.154 282.758 403.556 282.658 403.057 282.559C400.964 282.16 398.871 281.662 396.878 281.263C383.223 278.273 372.061 274.685 362.592 269.901C361.795 269.502 360.898 269.004 360.1 268.605C359.104 268.107 358.207 267.608 357.31 267.01C356.712 266.612 356.114 266.213 355.416 265.914C353.522 264.718 351.728 263.522 350.034 262.226C349.735 262.027 349.436 261.728 349.137 261.529C324.619 242.093 317.144 208.406 309.669 143.622C308.971 137.941 304.586 135.05 300.101 135.05C295.615 135.05 291.13 137.941 290.532 143.622C276.679 262.824 262.924 276.579 143.722 290.432C132.36 291.728 132.36 308.273 143.722 309.668C262.924 323.522 276.679 337.276 290.532 456.479C291.23 462.16 295.615 465.05 300.101 465.05C302.592 465.05 305.084 464.153 306.978 462.359C308.373 460.964 309.469 458.971 309.669 456.479C323.522 337.276 337.277 323.522 456.479 309.668C467.542 308.373 467.841 292.824 457.476 290.632ZM264.22 335.881C245.782 317.442 219.17 309.17 174.619 302.691C171.529 302.293 171.529 297.808 174.619 297.309C219.17 290.831 245.682 282.658 264.22 264.12C280.267 248.074 288.539 226.047 294.718 191.363C295.316 188.074 300.101 188.572 300.101 191.861V260.432C300.101 266.911 304.087 272.691 310.067 275.084C319.934 279.07 326.911 288.738 326.911 300C326.911 311.263 319.934 321.03 310.067 324.917C304.087 327.309 300.101 333.09 300.101 339.569V408.14C300.101 411.429 295.316 411.828 294.718 408.638C288.539 374.054 280.267 351.927 264.22 335.881Z" fill="white"/>
<path d="M285.448 299.999C285.448 293.421 289.733 287.939 295.713 286.145C298.305 285.348 299.999 282.956 299.999 280.265C299.999 276.178 296.112 273.188 292.125 274.384C281.162 277.773 273.089 287.939 273.089 300.099C273.089 312.258 281.062 322.424 292.125 325.813C296.012 327.009 299.999 324.019 299.999 319.932C299.999 317.241 298.205 314.849 295.713 314.052C289.833 312.059 285.448 306.577 285.448 299.999Z" fill="white"/>
<path d="M300 288.637V311.461C300 313.255 301.694 314.651 303.488 314.152C309.867 312.558 314.552 306.876 314.552 299.999C314.552 293.122 309.867 287.441 303.488 285.847C301.794 285.448 300 286.843 300 288.637Z" fill="white"/>
<path d="M300 99.0696C327.109 99.0696 353.421 104.352 378.239 114.817C402.159 124.983 423.687 139.435 442.126 157.874C460.564 176.312 475.116 197.84 485.182 221.761C495.647 246.578 500.93 272.89 500.93 300C500.93 327.109 495.647 353.422 485.182 378.239C475.016 402.159 460.564 423.688 442.126 442.126C423.687 460.565 402.159 475.116 378.239 485.182C353.421 495.648 327.109 500.93 300 500.93C272.89 500.93 246.578 495.648 221.76 485.182C197.84 475.016 176.312 460.565 157.873 442.126C139.435 423.688 124.883 402.159 114.817 378.239C104.352 353.422 99.0693 327.109 99.0693 300C99.0693 272.89 104.352 246.578 114.817 221.761C124.983 197.84 139.435 176.312 157.873 157.874C176.312 139.435 197.84 124.884 221.76 114.817C246.578 104.352 272.89 99.0696 300 99.0696ZM300 94.0862C186.279 94.0862 94.0859 186.279 94.0859 300C94.0859 413.721 186.279 506.013 300 506.013C413.72 506.013 506.013 413.82 506.013 300C506.013 186.179 413.82 94.0862 300 94.0862Z" fill="white"/>
<path d="M300 4.98339C339.867 4.98339 378.439 12.7575 414.817 28.206C450 43.0565 481.495 64.3854 508.605 91.3953C535.714 118.505 556.944 150.1 571.794 185.183C587.143 221.561 595.017 260.233 595.017 300C595.017 339.767 587.243 378.439 571.794 414.817C556.944 450 535.615 481.495 508.605 508.605C481.495 535.714 449.9 556.944 414.817 571.794C378.439 587.143 339.767 595.017 300 595.017C260.233 595.017 221.561 587.243 185.183 571.794C150 556.944 118.505 535.615 91.3953 508.605C64.2857 481.495 43.0565 449.9 28.206 414.817C12.7575 378.538 4.98339 339.867 4.98339 300C4.98339 260.133 12.7575 221.561 28.206 185.183C43.0565 150 64.3854 118.505 91.3953 91.3953C118.505 64.2857 150.1 43.0565 185.183 28.206C221.561 12.7575 260.233 4.98339 300 4.98339ZM300 0C134.352 0 0 134.352 0 300C0 465.648 134.352 600 300 600C465.648 600 600 465.648 600 300C600 134.352 465.748 0 300 0Z" fill="white"/>
<path d="M299.202 32.5913C309.668 32.5913 318.139 41.0631 318.139 51.5282C318.139 61.9933 309.668 70.4651 299.202 70.4651C288.737 70.4651 280.266 61.9933 280.266 51.5282C280.266 41.0631 288.737 32.5913 299.202 32.5913ZM299.202 27.6079C285.947 27.6079 275.282 38.372 275.282 51.5282C275.282 64.784 286.046 75.4484 299.202 75.4484C312.359 75.4484 323.123 64.6843 323.123 51.5282C323.123 38.2724 312.458 27.6079 299.202 27.6079Z" fill="white"/>
</svg>
