<svg width="602" height="602" viewBox="0 0 602 602" fill="none" xmlns="http://www.w3.org/2000/svg">
<path d="M393.6 83.6C391.4 89.9 388.4 92.5 384.6 91.2C381.6 90.2 380.5 86.9 381.1 81.3C381.4 78.4 381.6 76.5 381.7 75.7C381.8 73.4 381.7 71.5 381.3 70C380.4 66.5 377.7 64.1 373.2 62.6C372 62.2 370 61.6 367.2 60.9L362.2 76.4C361.7 78 361.7 79.3 362.1 80.1C362.6 80.9 363.6 81.6 365.3 82.1L367.4 82.8L366.8 84.7L350.7 79.5L351.3 77.6L353.4 78.3C356.3 79.2 358.2 78.3 359.2 75.5L369 45C369.5 43.3 369.6 42 369.1 41.1C368.6 40.2 367.6 39.5 366 39L363.9 38.3L364.5 36.4L386 43.3C390.2 44.7 393.4 46.7 395.5 49.3C397.7 52.1 398.3 55.2 397.2 58.4C395.3 64.3 389.8 66.5 380.6 64.8C384.3 67.9 385.8 72.7 385 79.3C384.7 82.3 384.6 84.4 384.9 85.6C385.2 86.8 385.8 87.5 386.7 87.8C387.7 88.1 388.6 87.8 389.6 86.9C390.6 86 391.4 84.7 392 83.2L393.6 83.6ZM393.4 57.3C395.3 51.4 392.6 47.3 385.3 45L378.1 42.7C375.1 41.7 373.1 42.8 372.2 45.8L368 58.6C370.8 59.7 373 60.5 374.6 61C379.5 62.6 383.4 63.3 386.1 63C389.8 62.8 392.2 60.9 393.4 57.3Z" fill="black"/>
<path d="M409.1 102.1L394.4 94.8L395.3 93L397.9 94.3C400.1 95.4 401.8 94.7 403 92.3L417.8 62.5C419 60.1 418.5 58.3 416.3 57.3L413.7 56L414.6 54.2L429.3 61.5L428.4 63.3L425.8 62C423.6 60.9 421.9 61.6 420.7 64L405.9 93.8C404.7 96.2 405.2 98 407.4 99L410 100.3L409.1 102.1Z" fill="black"/>
<path d="M447.7 113.1C445.5 116.3 442.6 118 439 118.3C435.4 118.6 431.9 117.6 428.4 115.2C426.2 113.7 424.5 112.1 423.3 110.4C421.9 108.5 420.9 105.9 420.2 102.9L415.2 105.5L414.2 104.8L423 91L424.4 91.8C420.7 101.5 422.4 108.8 429.5 113.6C431.9 115.2 434.6 116 437.4 116C440.5 115.9 442.9 114.7 444.5 112.3C446.4 109.4 446.6 106.3 445 102.9C444.4 101.6 442.5 98.9 439.2 94.8C436.2 91 434.2 88.1 433.4 85.9C432 82.3 432.3 79 434.3 76.1C436.2 73.3 438.7 71.7 441.9 71.3C445.1 70.9 448.3 71.8 451.5 74C455.5 76.7 458 80.5 458.9 85.3L463.4 82.5L464.5 83.3L456.7 96L455.3 95.1C456.8 90.8 457.2 87.2 456.7 84.3C456.1 80.9 454.1 78 450.6 75.6C448.3 74 445.9 73.2 443.6 73.3C440.9 73.4 438.7 74.6 437.1 76.9C435.5 79.2 435.6 82 437.2 85.1C437.7 86 439.5 88.4 442.5 92.3C446.1 96.8 448.2 100 449 101.9C450.6 105.7 450.2 109.4 447.7 113.1Z" fill="black"/>
<path d="M489.601 138.1C484.601 143.2 479.501 145.7 474.101 145.8C468.701 145.9 463.501 143.5 458.501 138.6L444.101 124.5L445.501 123.1L446.901 124.5C448.101 125.7 449.201 126.3 450.201 126.3C451.201 126.3 452.301 125.7 453.601 124.4L475.801 101.8C477.101 100.5 477.701 99.3 477.701 98.4C477.701 97.4 477.101 96.3 475.801 95.1L474.401 93.7L475.801 92.3L490.701 106.8C495.901 111.9 498.401 117 498.201 122.1C498.001 127.1 495.101 132.5 489.601 138.1ZM487.501 134.6C496.901 125 497.601 116.2 489.601 108.4L484.401 103.3C482.501 101.5 480.501 101.6 478.301 103.8L455.901 126.7C453.701 128.9 453.601 130.9 455.501 132.8L460.201 137.4C468.501 145.6 477.601 144.7 487.501 134.6Z" fill="black"/>
<path d="M510.8 213.2L503.4 199.4L505.1 198.5L505.9 200C507.2 202.4 508.6 203.2 510.1 202.4C510.5 202.2 511.2 201.4 512.3 200.1L517.8 193.7L508.6 176.8L502.2 177.7C499.9 178 498.4 178.4 497.7 178.7C496.8 179.2 496.3 180 496.4 181C496.5 182.1 497.1 183.7 498.3 186L496.6 186.9L489.4 173.7L491.1 172.8C492.4 174.6 493.6 175.7 494.6 176.1C495.4 176.4 496.9 176.4 499.1 176.1L539.3 170.8L540.3 172.6L513.1 204.4C511.1 206.7 510.9 209.4 512.5 212.3L510.8 213.2ZM519.2 192.2L535.4 173.3L510.7 176.6L519.2 192.2Z" fill="black"/>
<path d="M532.6 244.4C528.9 245.6 525.6 245.2 522.6 243.1C519.6 241.1 517.5 238.1 516.2 234.1C515.4 231.6 515.1 229.3 515.2 227.2C515.3 224.8 516 222.2 517.4 219.4L511.8 218.4L511.4 217.2L526.9 211.8L527.5 213.3C518.6 218.6 515.4 225.4 518.1 233.6C519 236.4 520.6 238.7 522.8 240.3C525.3 242.2 528 242.7 530.7 241.8C534 240.7 536.1 238.4 536.9 234.7C537.2 233.3 537.4 230 537.4 224.8C537.4 220 537.7 216.4 538.3 214.2C539.4 210.5 541.7 208.1 545.1 207C548.3 206 551.3 206.3 554.1 207.9C556.9 209.6 558.8 212.3 560 216C561.5 220.7 561.1 225.1 558.8 229.4L564.1 230L564.5 231.3L550.4 236.5L549.9 234.9C553.7 232.4 556.3 229.9 557.7 227.3C559.4 224.2 559.5 220.7 558.3 216.7C557.4 214 556.1 212 554.2 210.5C552 208.8 549.6 208.4 546.9 209.3C544.2 210.2 542.6 212.3 541.9 215.8C541.7 216.9 541.6 219.9 541.6 224.8C541.6 230.6 541.3 234.4 540.8 236.4C539.5 240.4 536.8 243 532.6 244.4Z" fill="black"/>
<path d="M525.3 269.4L522.4 253.2L524.3 252.9L524.8 255.8C525.2 258.2 526.8 259.2 529.4 258.7L562.1 252.9C564.7 252.4 565.8 251 565.4 248.6L564.9 245.7L566.8 245.4L569.7 261.6L567.8 261.9L567.3 259C566.9 256.6 565.3 255.6 562.7 256.1L530 261.9C527.4 262.4 526.3 263.8 526.7 266.2L527.2 269.1L525.3 269.4Z" fill="black"/>
<path d="M527.7 318.4L527.4 302.8H529.3V304.5C529.4 307.2 530.2 308.6 532 308.5C532.4 308.5 533.4 308.2 535 307.5L542.8 304.3L542.4 285L536.3 282.8C534.1 282 532.6 281.6 531.8 281.6C530.7 281.6 530 282.1 529.6 283.1C529.2 284.1 529 285.8 529.1 288.4H527.2L526.9 273.4H528.8C529.2 275.6 529.7 277.1 530.4 277.9C531 278.5 532.3 279.2 534.4 280L572.6 293.6V295.6L533.9 311.5C531.1 312.7 529.7 314.9 529.8 318.3L527.7 318.4ZM544.9 303.5L568 294.1L544.5 285.8L544.9 303.5Z" fill="black"/>
<path d="M561.201 375.3L561.701 372.5C562.201 370 561.001 368.4 558.201 367.8L519.101 360.2L519.401 358.6L564.801 337.9L532.101 331.5C529.201 330.9 527.601 331.9 527.101 334.4L526.601 337.1L524.701 336.7L527.601 321.8L529.501 322.2L529.001 325C528.501 327.5 529.701 329.1 532.501 329.7L564.801 336C566.401 336.3 567.501 336.2 568.101 335.8C568.701 335.4 569.201 334.4 569.501 332.9L570.001 330.1L571.901 330.5L570.201 339.1L525.501 359.4L558.601 365.9C561.401 366.4 563.001 365.5 563.501 363L564.001 360.3L565.901 360.7L563.001 375.6L561.201 375.3Z" fill="black"/>
<path d="M501.4 406.6L508.5 391.8L510.3 392.7L509 395.3C507.9 397.5 508.6 399.2 511 400.4L541 414.8C543.4 416 545.2 415.4 546.2 413.2L547.5 410.6L549.3 411.5L542.2 426.3L540.4 425.4L541.7 422.8C542.8 420.6 542.1 418.9 539.7 417.7L509.7 403.3C507.3 402.1 505.5 402.7 504.5 404.9L503.2 407.5L501.4 406.6Z" fill="black"/>
<path d="M509.701 473.2L511.301 470.9C512.801 468.8 512.301 466.9 509.901 465.2L477.101 442.5L478.001 441.2L527.901 440.5L500.501 421.5C498.101 419.8 496.201 420.1 494.801 422.1L493.201 424.4L491.601 423.3L500.201 410.8L501.801 411.9L500.201 414.2C498.701 416.3 499.201 418.2 501.601 419.9L528.701 438.6C530.001 439.5 531.001 439.9 531.801 439.8C532.501 439.7 533.301 439 534.201 437.7L535.801 435.4L537.401 436.5L532.401 443.7L483.301 444.4L511.001 463.6C513.401 465.2 515.201 465 516.701 462.9L518.301 460.6L519.901 461.7L511.301 474.2L509.701 473.2Z" fill="black"/>
<path d="M465.701 497.2L466.601 496.3C470.501 499.5 473.401 501.4 475.601 502C478.501 502.8 481.201 501.9 483.801 499.3C486.801 496.3 487.401 493.9 485.401 491.9L462.501 468.5C461.301 467.3 460.301 466.7 459.301 466.7C458.301 466.7 457.301 467.3 456.101 468.5L454.401 470.2L453.101 468.8L465.301 456.9L466.601 458.3L464.901 459.9C463.701 461.1 463.101 462.2 463.001 463.1C463.001 464.1 463.501 465.1 464.701 466.3L487.601 489.7C489.501 491.7 492.001 491.2 495.001 488.2C497.601 485.6 498.601 482.9 497.801 480.1C497.301 477.9 495.401 474.9 492.301 471L493.201 470.1L503.801 482.4L477.701 508L465.701 497.2Z" fill="black"/>
<path d="M420.7 512.5L412.7 498.7L443.9 477.6L445 479.2L443.4 480.3C442 481.2 441.2 482.2 441 483.2C440.8 484.1 441.2 485.4 442.2 486.9L460.2 513.5C461.9 515.9 463.8 516.4 466.2 514.8L468.2 513.5L469.3 515.1L438.7 535.8L429.4 523.5L430.5 522.8C434.6 526.9 437.8 529.2 440 529.7C442.2 530.1 445.5 528.9 449.6 526L456.2 521.5C457.5 520.6 458.3 519.7 458.5 518.7C458.7 517.8 458.4 516.6 457.4 515.2L449.4 503.4L442.6 508C440.2 509.6 439 511.1 439 512.6C438.9 514.1 439.9 516.3 441.9 519.2L440.4 520.2L429.4 503.9L430.9 502.9C432.9 505.9 434.6 507.7 435.9 508.1C437.2 508.5 439.1 507.9 441.5 506.3L448.3 501.7L439.4 488.5C438.4 487 437.4 486.1 436.4 486C435.5 485.8 434.3 486.2 432.9 487.2L424.7 492.7C420.9 495.3 418.8 498.1 418.6 501C418.5 503.2 419.5 506.7 421.6 511.6L420.7 512.5Z" fill="black"/>
<path d="M373.301 526C370.801 519.8 371.401 515.9 375.201 514.3C378.101 513.1 381.101 514.8 384.301 519.5C385.901 521.9 387.001 523.5 387.601 524.1C389.001 525.9 390.301 527.3 391.601 528.1C394.601 530.1 398.201 530.2 402.601 528.4C403.801 527.9 405.701 527 408.201 525.8L401.901 510.9C401.201 509.3 400.501 508.4 399.601 508.1C398.701 507.8 397.501 508 395.901 508.7L393.801 509.6L393.001 507.8L408.601 501.2L409.401 503L407.401 503.9C404.601 505.1 403.701 507.1 404.901 509.8L417.401 539.3C418.101 540.9 418.901 541.9 419.801 542.4C420.701 542.8 422.001 542.6 423.501 542L425.601 541.1L426.401 542.9L405.601 551.7C401.501 553.4 397.801 554 394.501 553.3C391.001 552.6 388.601 550.7 387.201 547.5C384.801 541.7 387.501 536.5 395.501 531.8C390.701 531.9 386.401 529.2 382.701 523.7C381.001 521.2 379.701 519.6 378.701 518.9C377.701 518.2 376.801 518 375.901 518.4C375.001 518.8 374.401 519.7 374.301 521C374.101 522.4 374.301 523.8 374.901 525.4L373.301 526ZM390.701 545.8C393.101 551.5 397.801 552.8 404.901 549.8L411.901 546.8C414.801 545.6 415.601 543.5 414.301 540.5L409.001 528.1C406.201 529.1 404.001 529.9 402.401 530.6C397.601 532.6 394.301 534.6 392.401 536.6C389.901 539.3 389.301 542.3 390.701 545.8Z" fill="black"/>
<path d="M336.2 536.9C335.4 533.1 336.1 529.8 338.4 527C340.7 524.2 343.8 522.4 347.9 521.5C350.5 520.9 352.8 520.8 354.8 521.1C357.2 521.4 359.7 522.4 362.4 524L364 518.5L365.2 518.2L369.1 534.2L367.6 534.7C363.1 525.3 356.7 521.6 348.3 523.4C345.4 524 343 525.4 341.2 527.5C339.1 529.9 338.4 532.4 339 535.2C339.8 538.6 341.9 540.9 345.5 542C346.9 542.4 350.1 542.9 355.3 543.4C360.1 543.8 363.6 544.5 365.7 545.3C369.3 546.8 371.4 549.2 372.2 552.7C372.9 556 372.3 558.9 370.4 561.5C368.4 564.1 365.6 565.8 361.8 566.6C357 567.7 352.6 566.8 348.6 564.2L347.5 569.4L346.1 569.7L342.2 555.1L343.8 554.7C345.9 558.7 348.2 561.5 350.7 563.1C353.6 565 357.1 565.5 361.2 564.6C364 564 366.1 562.8 367.7 561.1C369.6 559.1 370.2 556.7 369.6 553.9C369 551.1 367 549.3 363.6 548.3C362.6 548 359.6 547.7 354.7 547.2C348.9 546.7 345.1 546 343.3 545.3C339.5 544.1 337.2 541.2 336.2 536.9Z" fill="black"/>
<path d="M292.101 543.8L292.501 527.9L330.201 526.3L330.301 528.3L328.301 528.4C326.601 528.5 325.501 528.9 324.801 529.6C324.101 530.3 323.801 531.5 323.901 533.3L325.301 565.4C325.401 568.3 326.901 569.8 329.701 569.6L332.101 569.5L332.201 571.5L295.301 573.1L293.801 557.8L295.101 557.7C296.401 563.4 297.901 567 299.601 568.5C301.301 570 304.701 570.7 309.701 570.4L317.701 570.1C319.301 570 320.501 569.7 321.201 569C321.901 568.3 322.201 567.1 322.101 565.5L321.501 551.3L313.301 551.6C310.401 551.7 308.601 552.4 307.801 553.6C307.001 554.8 306.601 557.2 306.801 560.8L305.001 560.9L304.201 541.2L306.001 541.1C306.201 544.7 306.701 547.1 307.601 548.2C308.501 549.3 310.401 549.7 313.301 549.6L321.501 549.3L320.801 533.4C320.701 531.6 320.301 530.3 319.601 529.7C318.901 529.1 317.701 528.8 316.001 528.9L306.101 529.3C301.501 529.5 298.301 530.8 296.601 533.2C295.301 535 294.301 538.5 293.601 543.8H292.101Z" fill="black"/>
<path d="M248.7 537.3C250.4 532.4 252.9 528.8 256.1 526.5C259.5 524.1 263.5 523.2 268.1 523.9C274.1 524.7 278.7 527.6 281.9 532.4C285.1 537.1 286.3 542.7 285.4 549C284.5 555.7 281.9 561.1 277.7 565.2C273.2 569.6 267.8 571.4 261.6 570.5C256.9 569.8 253.3 567.6 250.9 563.9L247.9 568.2L246.2 568L248 550.4L249.8 550.7C250.6 561.7 254.6 567.6 261.9 568.7C267 569.4 271.6 567.4 275.4 562.5C278.7 558.4 280.7 553.7 281.5 548.4C282.2 543.1 281.5 538.4 279.3 534.2C276.8 529.4 272.7 526.7 267.1 525.9C263.5 525.4 260.3 526.2 257.4 528.3C254.5 530.4 252.4 533.6 250.9 537.8L248.7 537.3Z" fill="black"/>
<path d="M202.3 537.4L203.6 537.8C202.5 542.7 202.2 546.2 202.7 548.4C203.3 551.3 205.4 553.3 208.8 554.5C212.8 555.8 215.3 555.2 216.1 552.5L226.4 521.4C226.9 519.8 227 518.6 226.6 517.8C226.1 517 225.1 516.3 223.5 515.7L221.2 515L221.8 513.2L238 518.6L237.4 520.4L235.2 519.7C233.6 519.2 232.3 519.1 231.5 519.5C230.6 519.9 229.9 520.9 229.4 522.5L219.1 553.6C218.2 556.2 219.8 558.2 223.8 559.5C227.3 560.6 230.1 560.2 232.3 558.3C234 556.8 235.8 553.8 237.9 549.2L239.2 549.6L233.2 564.6L198.2 553.1L202.3 537.4Z" fill="black"/>
<path d="M193.6 500.4L208.3 507.7L207.4 509.5L204.8 508.2C202.6 507.1 200.9 507.8 199.7 510.2L185 540C183.8 542.4 184.3 544.2 186.5 545.2L189.1 546.5L188.2 548.3L173.5 541L174.4 539.2L177 540.5C179.2 541.6 180.9 540.9 182.1 538.5L196.8 508.7C198 506.3 197.5 504.5 195.3 503.5L192.7 502.2L193.6 500.4Z" fill="black"/>
<path d="M143.7 495C147.3 489.7 151.9 486.2 157.3 484.5C163.2 482.7 168.8 483.6 174.1 487.2C179.4 490.8 182.3 495.7 182.8 501.9C183.2 507.5 181.6 513 177.9 518.3C174.2 523.7 169.7 527.2 164.4 528.9C158.5 530.7 152.9 529.8 147.6 526.1C142.3 522.5 139.4 517.6 139 511.5C138.4 505.9 140 500.4 143.7 495ZM147 497.3C143.8 501.9 142.2 506.6 142 511.3C141.8 517 144 521.4 148.6 524.5C153.1 527.6 158 528 163.3 525.8C167.7 523.9 171.4 520.6 174.5 516C177.6 511.4 179.3 506.8 179.5 502.1C179.7 496.4 177.5 492 173 488.8C168.4 485.7 163.5 485.3 158.3 487.5C153.8 489.5 150.1 492.7 147 497.3Z" fill="black"/>
<path d="M92.4006 473.3L94.4006 475.3C96.2006 477.2 98.2006 477.1 100.201 475L128.701 447.1L129.801 448.2L121.001 497.3L144.801 474C146.901 472 147.001 470.1 145.301 468.3L143.401 466.3L144.801 464.9L155.401 475.8L154.001 477.2L152.001 475.2C150.201 473.3 148.201 473.4 146.201 475.5L122.701 498.5C121.601 499.6 121.001 500.5 120.901 501.3C120.901 502 121.401 503 122.501 504.1L124.501 506.1L123.101 507.5L117.001 501.2L125.701 452.8L101.601 476.4C99.6006 478.4 99.4006 480.3 101.201 482.1L103.101 484.1L101.701 485.4L91.1006 474.5L92.4006 473.3Z" fill="black"/>
<path d="M94.3004 419.6C97.5004 417.4 100.9 416.9 104.3 418.1C107.7 419.2 110.6 421.5 112.9 425C114.4 427.2 115.3 429.3 115.8 431.3C116.4 433.6 116.4 436.3 115.9 439.4L121.6 438.9L122.3 439.9L108.9 449.4L107.9 448.2C115 440.6 116.2 433.3 111.4 426.1C109.8 423.6 107.6 421.9 105 420.9C102 419.8 99.4004 420.1 97.0004 421.6C94.1004 423.5 92.8004 426.4 93.0004 430.1C93.1004 431.5 93.9004 434.7 95.3004 439.8C96.7004 444.4 97.3004 447.9 97.3004 450.2C97.2004 454.1 95.7004 457 92.8004 459C90.0004 460.9 87.1004 461.4 83.9004 460.6C80.8004 459.7 78.1004 457.7 76.0004 454.5C73.3004 450.4 72.4004 446 73.4004 441.3L68.2004 442.2L67.4004 441L79.5004 432.1L80.4004 433.5C77.4004 436.9 75.7004 440.1 75.1004 443C74.4004 446.4 75.2004 449.8 77.5004 453.3C79.1004 455.6 80.9004 457.2 83.1004 458.1C85.7004 459.1 88.1004 458.8 90.5004 457.2C92.8004 455.6 93.8004 453.1 93.5004 449.6C93.4004 448.5 92.6004 445.6 91.3004 440.9C89.7004 435.4 88.9004 431.6 88.9004 429.6C88.7004 425.3 90.6004 422.1 94.3004 419.6Z" fill="black"/>
<path d="M58.5004 355.9L64.5004 374.6L83.5004 368.6L84.3004 371.1L65.3004 377.1L71.3004 395.8L68.8004 396.6L62.8004 377.9L44.2004 383.8L43.4004 381.3L62.0004 375.4L56.0004 356.7L58.5004 355.9Z" fill="black"/>
<path d="M52.5002 282.2C59.6002 282.1 65.1002 284 68.9002 287.7C72.8002 291.5 74.7002 296.8 74.8002 303.8L75.0002 324H73.0002V322C73.0002 320.3 72.6002 319.1 71.9002 318.4C71.2002 317.7 70.0002 317.4 68.1002 317.4L36.4002 317.6C34.6002 317.6 33.3002 318 32.6002 318.7C31.9002 319.4 31.6002 320.6 31.6002 322.3V324.3H29.6002L29.4002 303.5C29.3002 296.2 31.2002 290.9 35.0002 287.4C38.9002 284.1 44.7002 282.3 52.5002 282.2ZM51.6002 286.2C38.1002 286.3 31.4002 292 31.5002 303.2L31.6002 310.5C31.6002 313.1 33.2002 314.4 36.3002 314.4L68.4002 314.2C71.5002 314.2 73.0002 312.8 73.0002 310.2L72.9002 303.7C72.7002 291.9 65.6002 286.1 51.6002 286.2Z" fill="black"/>
<path d="M77.9002 262.9L75.7002 279.2L73.7002 278.9L74.1002 276C74.4002 273.6 73.3002 272.2 70.6002 271.8L37.6002 267.4C34.9002 267 33.4002 268.1 33.1002 270.5L32.7002 273.4L30.7002 273.1L32.9002 256.8L34.9002 257.1L34.5002 260C34.2002 262.4 35.3002 263.8 38.0002 264.2L71.0002 268.6C73.7002 269 75.2002 267.9 75.5002 265.5L75.9002 262.6L77.9002 262.9Z" fill="black"/>
<path d="M90.5998 214.8L86.0998 229.8L84.2998 229.3L84.7998 227.7C85.5998 225.1 85.0998 223.5 83.4998 223C83.0998 222.9 81.9998 222.9 80.2998 223L71.8998 223.7L66.3998 242.2L71.5998 246.1C73.4998 247.5 74.7998 248.4 75.4998 248.6C76.4998 248.9 77.3998 248.7 78.0998 247.8C78.7998 247 79.4998 245.4 80.1998 242.9L81.9998 243.4L77.6998 257.8L75.8998 257.3C76.1998 255.1 76.1998 253.5 75.6998 252.5C75.2998 251.7 74.2998 250.6 72.4998 249.3L40.2998 224.7L40.8998 222.7L82.5998 219.4C85.6998 219.2 87.6998 217.4 88.5998 214.2L90.5998 214.8ZM69.7998 223.8L44.8998 225.7L64.6998 240.8L69.7998 223.8Z" fill="black"/>
<path d="M97.6003 176.8C101 178.6 103.1 181.3 103.8 184.8C104.5 188.3 103.9 192 102 195.7C100.8 198 99.4003 199.9 97.8003 201.3C96.0003 202.9 93.7003 204.2 90.7003 205.3L93.9003 210L93.3003 211.1L78.5003 203.9L79.1003 202.4C89.2003 205 96.2003 202.5 100.1 194.8C101.5 192.2 101.9 189.5 101.6 186.7C101.1 183.6 99.6003 181.4 97.1003 180C94.0003 178.4 90.9003 178.6 87.7003 180.6C86.5003 181.4 84.0003 183.6 80.3003 187.2C76.9003 190.6 74.2003 192.9 72.2003 194C68.8003 195.8 65.5003 195.9 62.3003 194.2C59.3003 192.7 57.4003 190.3 56.7003 187.2C56.0003 184 56.5003 180.7 58.3003 177.3C60.5003 173 64.0003 170.1 68.6003 168.7L65.3003 164.5L65.9003 163.3L79.6003 169.7L78.8003 171.2C74.4003 170.2 70.8003 170.2 67.9003 171.1C64.6003 172.1 61.9003 174.4 60.0003 178.2C58.7003 180.7 58.2003 183.1 58.5003 185.4C58.9003 188.1 60.3003 190.1 62.8003 191.4C65.3003 192.7 68.0003 192.3 70.9003 190.3C71.8003 189.7 74.0003 187.6 77.4003 184.2C81.5003 180.1 84.4003 177.6 86.2003 176.6C89.9003 174.7 93.6003 174.8 97.6003 176.8Z" fill="black"/>
<path d="M106.6 128.9C113.3 134.1 113 141.4 105.7 151.1C104.8 152.3 102.9 154.9 100 158.8L110.7 167C112.1 168.1 113.3 168.6 114.1 168.4C115 168.3 116 167.5 117.1 166L118.4 164.3L120 165.5L109.7 178.9L108.1 177.7L109.4 176C110.5 174.5 111 173.4 110.9 172.5C110.8 171.7 110.1 170.7 108.6 169.6L83.3002 150C81.9002 148.9 80.7002 148.4 79.7002 148.6C78.7002 148.7 77.7002 149.4 76.6002 150.8L75.3002 152.5L73.7002 151.3L85.6002 135.7C93.0002 126.1 100 123.8 106.6 128.9ZM104.1 132C100.8 129.5 97.6002 128.8 94.6002 130.1C92.5002 131 90.2002 133 87.8002 136.1L84.4002 140.6C82.4002 143.2 82.8002 145.4 85.4002 147.4L98.3002 157.3C101 154.1 103 151.7 104.1 150.3C106.5 147.2 107.9 144.1 108.2 141.1C108.5 137.4 107.2 134.4 104.1 132Z" fill="black"/>
<path d="M149.5 102.6C153.8 107.4 156.2 112.6 156.5 118.2C156.9 124.4 154.7 129.6 150 133.9C145.2 138.2 139.8 139.9 133.7 138.9C128.2 138 123.2 135.1 118.9 130.3C114.5 125.4 112.1 120.2 111.8 114.7C111.4 108.6 113.6 103.3 118.4 99C123.2 94.7 128.6 93 134.6 94C140.1 94.9 145.1 97.8 149.5 102.6ZM146.5 105.3C142.8 101.2 138.6 98.4 134 97.2C128.5 95.7 123.7 96.8 119.6 100.5C115.5 104.2 113.9 108.8 114.9 114.5C115.8 119.2 118 123.6 121.8 127.7C125.6 131.8 129.6 134.5 134.2 135.8C139.7 137.4 144.5 136.3 148.6 132.6C152.7 128.9 154.3 124.2 153.3 118.6C152.5 113.8 150.2 109.4 146.5 105.3Z" fill="black"/>
<path d="M197.401 88.7C200.701 94.5 200.701 98.4 197.201 100.5C194.501 102.1 191.301 100.8 187.401 96.6C185.401 94.4 184.101 93.1 183.501 92.5C181.801 90.9 180.301 89.7 179.001 89.1C175.801 87.5 172.101 87.9 168.101 90.4C167.001 91.1 165.301 92.2 162.901 93.8L171.301 107.7C172.201 109.2 173.101 110 174.001 110.1C174.901 110.3 176.101 109.9 177.601 109L179.501 107.8L180.501 109.5L166.001 118.3L165.001 116.6L166.901 115.5C169.501 113.9 170.101 111.8 168.601 109.3L152.001 81.9C151.101 80.4 150.101 79.5 149.101 79.2C148.101 79 146.901 79.3 145.501 80.1L143.601 81.3L142.601 79.6L162.001 67.9C165.801 65.6 169.401 64.5 172.801 64.7C176.401 64.9 179.001 66.5 180.801 69.4C184.001 74.7 182.001 80.3 174.801 86.1C179.601 85.3 184.201 87.4 188.701 92.3C190.801 94.5 192.301 95.9 193.301 96.5C194.401 97.1 195.301 97.1 196.201 96.6C197.101 96.1 197.501 95.1 197.401 93.8C197.401 92.4 197.001 91 196.201 89.5L197.401 88.7ZM177.301 71.7C174.101 66.4 169.201 65.8 162.701 69.7L156.201 73.6C153.501 75.2 153.001 77.4 154.701 80.1L161.701 91.6C164.401 90.2 166.401 89.1 167.901 88.2C172.301 85.5 175.401 83.1 177.001 80.9C179.101 78 179.301 74.9 177.301 71.7Z" fill="black"/>
<path d="M248.9 79.7L234.1 84.8L233.5 83L235.1 82.4C237.7 81.5 238.7 80.3 238.1 78.6C238 78.2 237.3 77.3 236.2 76L230.8 69.6L212.6 75.9L212.4 82.4C212.3 84.8 212.4 86.3 212.7 87.1C213 88.1 213.7 88.6 214.8 88.8C215.9 88.9 217.6 88.5 220 87.7L220.6 89.5L206.4 94.4L205.8 92.6C207.8 91.6 209.1 90.6 209.6 89.7C210 88.9 210.3 87.5 210.4 85.2L211.8 44.7L213.7 44L240.6 76C242.6 78.3 245.1 79 248.3 77.9L248.9 79.7ZM229.5 67.9L213.5 48.8L212.7 73.7L229.5 67.9Z" fill="black"/>
<path d="M459 291.6C458.7 291.5 458.3 291.5 458 291.4C440.8 289.4 425.9 287.4 412.8 285.1C410.5 284.7 408.2 284.3 406 283.8C405.5 283.7 404.9 283.6 404.4 283.5C402.3 283.1 400.2 282.6 398.2 282.2C384.5 279.2 373.3 275.6 363.8 270.8C363 270.4 362.1 269.9 361.3 269.5C360.3 269 359.4 268.5 358.5 267.9C357.9 267.5 357.3 267.1 356.6 266.8C354.7 265.6 352.9 264.4 351.2 263.1C350.9 262.9 350.6 262.6 350.3 262.4C325.7 242.9 318.2 209.1 310.7 144.1C310 138.4 305.6 135.5 301.1 135.5C296.6 135.5 292.1 138.4 291.5 144.1C277.6 263.7 263.8 277.5 144.2 291.4C132.8 292.7 132.8 309.3 144.2 310.7C263.8 324.6 277.6 338.4 291.5 458C292.2 463.7 296.6 466.6 301.1 466.6C303.6 466.6 306.1 465.7 308 463.9C309.4 462.5 310.5 460.5 310.7 458C324.6 338.4 338.4 324.6 458 310.7C469.1 309.4 469.4 293.8 459 291.6ZM265.1 337C246.6 318.5 219.9 310.2 175.2 303.7C172.1 303.3 172.1 298.8 175.2 298.3C219.9 291.8 246.5 283.6 265.1 265C281.2 248.9 289.5 226.8 295.7 192C296.3 188.7 301.1 189.2 301.1 192.5V261.3C301.1 267.8 305.1 273.6 311.1 276C321 280 328 289.7 328 301C328 312.3 321 322.1 311.1 326C305.1 328.4 301.1 334.2 301.1 340.7V409.5C301.1 412.8 296.3 413.2 295.7 410C289.5 375.3 281.2 353.1 265.1 337Z" fill="black"/>
<path d="M286.4 301C286.4 294.4 290.7 288.9 296.7 287.1C299.3 286.3 301 283.9 301 281.2C301 277.1 297.1 274.1 293.1 275.3C282.1 278.7 274 288.9 274 301.1C274 313.3 282 323.5 293.1 326.9C297 328.1 301 325.1 301 321C301 318.3 299.2 315.9 296.7 315.1C290.8 313.1 286.4 307.6 286.4 301Z" fill="black"/>
<path d="M301 289.6V312.5C301 314.3 302.7 315.7 304.5 315.2C310.9 313.6 315.6 307.9 315.6 301C315.6 294.1 310.9 288.4 304.5 286.8C302.8 286.4 301 287.8 301 289.6Z" fill="black"/>
<path d="M301 99.4C328.2 99.4 354.6 104.7 379.5 115.2C403.5 125.4 425.1 139.9 443.6 158.4C462.1 176.9 476.7 198.5 486.8 222.5C497.3 247.4 502.6 273.8 502.6 301C502.6 328.2 497.3 354.6 486.8 379.5C476.6 403.5 462.1 425.1 443.6 443.6C425.1 462.1 403.5 476.7 379.5 486.8C354.6 497.3 328.2 502.6 301 502.6C273.8 502.6 247.4 497.3 222.5 486.8C198.5 476.6 176.9 462.1 158.4 443.6C139.9 425.1 125.3 403.5 115.2 379.5C104.7 354.6 99.4004 328.2 99.4004 301C99.4004 273.8 104.7 247.4 115.2 222.5C125.4 198.5 139.9 176.9 158.4 158.4C176.9 139.9 198.5 125.3 222.5 115.2C247.4 104.7 273.8 99.4 301 99.4ZM301 94.4C186.9 94.4 94.4004 186.9 94.4004 301C94.4004 415.1 186.9 507.7 301 507.7C415.1 507.7 507.7 415.2 507.7 301C507.7 186.8 415.2 94.4 301 94.4Z" fill="black"/>
<path d="M301 5C341 5 379.7 12.8 416.2 28.3C451.5 43.2 483.1 64.6 510.3 91.7C537.5 118.9 558.8 150.6 573.7 185.8C589.1 222.3 597 261.1 597 301C597 340.9 589.2 379.7 573.7 416.2C558.8 451.5 537.4 483.1 510.3 510.3C483.1 537.5 451.4 558.8 416.2 573.7C379.7 589.1 340.9 597 301 597C261.1 597 222.3 589.2 185.8 573.7C150.5 558.8 118.9 537.4 91.7 510.3C64.5 483.1 43.2 451.4 28.3 416.2C12.8 379.8 5 341 5 301C5 261 12.8 222.3 28.3 185.8C43.2 150.5 64.6 118.9 91.7 91.7C118.9 64.5 150.6 43.2 185.8 28.3C222.3 12.8 261.1 5 301 5ZM301 0C134.8 0 0 134.8 0 301C0 467.2 134.8 602 301 602C467.2 602 602 467.2 602 301C602 134.8 467.3 0 301 0Z" fill="black"/>
<path d="M300.2 32.7C310.7 32.7 319.2 41.2 319.2 51.7C319.2 62.2 310.7 70.7 300.2 70.7C289.7 70.7 281.2 62.2 281.2 51.7C281.2 41.2 289.7 32.7 300.2 32.7ZM300.2 27.7C286.9 27.7 276.2 38.5 276.2 51.7C276.2 65 287 75.7 300.2 75.7C313.4 75.7 324.2 64.9 324.2 51.7C324.2 38.4 313.5 27.7 300.2 27.7Z" fill="black"/>
</svg>
