<svg width="1380" height="631" viewBox="0 0 1380 631" fill="none" xmlns="http://www.w3.org/2000/svg">
<rect width="1380" height="631" fill="#D40000"/>
<path d="M772.14 123.157C770.189 128.745 767.527 131.052 764.157 129.899C761.496 129.011 760.52 126.084 761.052 121.117C761.318 118.544 761.496 116.859 761.584 116.149C761.673 114.109 761.584 112.424 761.229 111.093C760.431 107.989 758.036 105.86 754.044 104.529C752.98 104.174 751.206 103.642 748.722 103.021L744.287 116.77C743.843 118.19 743.843 119.343 744.198 120.052C744.642 120.762 745.529 121.383 747.037 121.826L748.9 122.447L748.367 124.133L734.086 119.52L734.618 117.835L736.481 118.456C739.053 119.254 740.739 118.456 741.626 115.972L750.319 88.9171C750.762 87.4092 750.851 86.256 750.408 85.4577C749.964 84.6593 749.077 84.0384 747.658 83.5949L745.795 82.974L746.327 81.2886L765.399 87.4092C769.124 88.651 771.963 90.4251 773.825 92.7314C775.777 95.2152 776.309 97.965 775.333 100.804C773.648 106.037 768.769 107.989 760.609 106.481C763.891 109.23 765.221 113.488 764.512 119.343C764.245 122.004 764.157 123.867 764.423 124.931C764.689 125.996 765.221 126.616 766.019 126.883C766.907 127.149 767.705 126.883 768.592 126.084C769.479 125.286 770.189 124.133 770.721 122.802L772.14 123.157ZM771.963 99.8278C773.648 94.5942 771.253 90.9573 764.778 88.9171L758.391 86.8769C755.73 85.9899 753.956 86.9656 753.157 89.6268L749.432 100.981C751.915 101.957 753.867 102.666 755.286 103.11C759.633 104.529 763.092 105.15 765.487 104.884C768.769 104.707 770.898 103.021 771.963 99.8278Z" fill="black"/>
<path d="M785.89 139.567L772.851 133.092L773.649 131.495L775.955 132.649C777.907 133.624 779.415 133.003 780.479 130.874L793.607 104.441C794.672 102.312 794.228 100.715 792.277 99.828L789.971 98.6748L790.769 97.0781L803.808 103.554L803.01 105.15L800.704 103.997C798.752 103.021 797.244 103.642 796.18 105.771L783.052 132.205C781.987 134.334 782.431 135.931 784.382 136.818L786.688 137.971L785.89 139.567Z" fill="black"/>
<path d="M820.13 149.325C818.179 152.163 815.606 153.671 812.413 153.937C809.219 154.204 806.115 153.317 803.01 151.188C801.059 149.857 799.551 148.438 798.486 146.93C797.244 145.244 796.357 142.938 795.736 140.277L791.301 142.583L790.414 141.962L798.22 129.721L799.462 130.431C796.18 139.035 797.688 145.511 803.986 149.768C806.115 151.188 808.51 151.897 810.993 151.897C813.743 151.809 815.872 150.744 817.291 148.615C818.977 146.043 819.154 143.293 817.735 140.277C817.203 139.124 815.517 136.729 812.59 133.092C809.929 129.721 808.155 127.149 807.445 125.197C806.203 122.004 806.47 119.077 808.244 116.504C809.929 114.021 812.147 112.601 814.985 112.246C817.824 111.892 820.662 112.69 823.501 114.641C827.049 117.036 829.267 120.407 830.065 124.665L834.057 122.181L835.032 122.891L828.113 134.156L826.872 133.358C828.202 129.544 828.557 126.35 828.113 123.778C827.581 120.762 825.807 118.19 822.702 116.061C820.662 114.641 818.533 113.932 816.493 114.021C814.098 114.109 812.147 115.174 810.727 117.214C809.308 119.254 809.397 121.738 810.816 124.488C811.26 125.286 812.856 127.415 815.517 130.874C818.711 134.866 820.574 137.705 821.283 139.39C822.702 142.761 822.348 146.043 820.13 149.325Z" fill="black"/>
<path d="M857.297 171.501C852.862 176.025 848.338 178.243 843.548 178.331C838.758 178.42 834.145 176.291 829.71 171.945L816.937 159.437L818.178 158.195L819.42 159.437C820.485 160.502 821.46 161.034 822.347 161.034C823.235 161.034 824.21 160.502 825.363 159.349L845.056 139.301C846.209 138.148 846.741 137.084 846.741 136.285C846.741 135.398 846.209 134.423 845.056 133.358L843.814 132.116L845.056 130.875L858.273 143.737C862.885 148.261 865.103 152.784 864.926 157.308C864.748 161.744 862.176 166.534 857.297 171.501ZM855.434 168.396C863.772 159.881 864.393 152.075 857.297 145.156L852.684 140.632C850.999 139.035 849.225 139.124 847.273 141.076L827.404 161.389C825.452 163.34 825.363 165.114 827.049 166.8L831.218 170.88C838.58 178.154 846.652 177.356 855.434 168.396Z" fill="black"/>
<path d="M876.102 238.118L869.538 225.877L871.046 225.078L871.755 226.409C872.909 228.538 874.15 229.248 875.481 228.538C875.836 228.36 876.457 227.651 877.432 226.498L882.311 220.821L874.15 205.83L868.473 206.628C866.433 206.894 865.103 207.249 864.482 207.515C863.683 207.958 863.24 208.668 863.328 209.555C863.417 210.531 863.949 211.95 865.014 213.99L863.506 214.789L857.119 203.08L858.627 202.281C859.78 203.878 860.845 204.854 861.732 205.209C862.441 205.475 863.772 205.475 865.723 205.209L901.383 200.507L902.27 202.104L878.142 230.312C876.368 232.352 876.191 234.747 877.61 237.32L876.102 238.118ZM883.553 219.49L897.923 202.725L876.013 205.652L883.553 219.49Z" fill="black"/>
<path d="M895.44 265.794C892.158 266.858 889.231 266.503 886.57 264.64C883.909 262.866 882.046 260.205 880.893 256.657C880.183 254.439 879.917 252.399 880.006 250.536C880.094 248.408 880.715 246.101 881.957 243.618L876.99 242.73L876.635 241.666L890.384 236.876L890.916 238.207C883.021 242.908 880.183 248.94 882.578 256.214C883.376 258.697 884.796 260.737 886.747 262.157C888.965 263.842 891.36 264.286 893.755 263.487C896.682 262.512 898.545 260.471 899.254 257.189C899.521 255.947 899.698 253.02 899.698 248.408C899.698 244.15 899.964 240.956 900.496 239.005C901.472 235.723 903.512 233.594 906.528 232.618C909.367 231.731 912.028 231.997 914.511 233.417C916.995 234.925 918.681 237.32 919.745 240.602C921.076 244.771 920.721 248.674 918.681 252.488L923.382 253.02L923.737 254.173L911.229 258.786L910.786 257.367C914.157 255.149 916.463 252.931 917.705 250.625C919.213 247.875 919.302 244.771 918.237 241.223C917.439 238.828 916.286 237.053 914.6 235.723C912.649 234.215 910.52 233.86 908.125 234.658C905.73 235.457 904.311 237.32 903.69 240.424C903.512 241.4 903.423 244.061 903.423 248.408C903.423 253.552 903.157 256.923 902.714 258.697C901.561 262.245 899.166 264.552 895.44 265.794Z" fill="black"/>
<path d="M888.964 287.97L886.392 273.6L888.077 273.333L888.52 275.906C888.875 278.035 890.295 278.922 892.601 278.478L921.607 273.333C923.913 272.89 924.889 271.648 924.534 269.519L924.091 266.947L925.776 266.681L928.349 281.051L926.663 281.317L926.22 278.744C925.865 276.616 924.446 275.729 922.139 276.172L893.133 281.317C890.827 281.76 889.851 283.002 890.206 285.131L890.649 287.704L888.964 287.97Z" fill="black"/>
<path d="M891.093 331.435L890.827 317.597H892.513V319.105C892.601 321.5 893.311 322.742 894.908 322.653C895.263 322.653 896.15 322.387 897.569 321.766L904.488 318.927L904.133 301.807L898.722 299.856C896.77 299.146 895.44 298.791 894.73 298.791C893.755 298.791 893.134 299.235 892.779 300.122C892.424 301.009 892.247 302.517 892.335 304.823H890.65L890.384 291.518H892.069C892.424 293.469 892.868 294.8 893.488 295.509C894.021 296.041 895.174 296.662 897.037 297.372L930.922 309.436V311.21L896.593 325.314C894.109 326.378 892.867 328.33 892.956 331.346L891.093 331.435ZM906.351 318.218L926.841 309.879L905.996 302.517L906.351 318.218Z" fill="black"/>
<path d="M920.809 381.907L921.253 379.424C921.696 377.206 920.632 375.787 918.148 375.255L883.465 368.513L883.731 367.094L924.003 348.732L894.996 343.055C892.424 342.523 891.005 343.41 890.561 345.627L890.118 348.022L888.432 347.668L891.005 334.451L892.69 334.806L892.247 337.289C891.803 339.507 892.868 340.926 895.351 341.458L924.003 347.047C925.422 347.313 926.398 347.224 926.93 346.869C927.462 346.514 927.906 345.627 928.172 344.297L928.615 341.813L930.301 342.168L928.793 349.797L889.142 367.804L918.503 373.569C920.987 374.013 922.406 373.214 922.85 370.997L923.293 368.602L924.979 368.957L922.406 382.174L920.809 381.907Z" fill="black"/>
<path d="M867.764 409.672L874.062 396.544L875.658 397.342L874.505 399.649C873.529 401.6 874.15 403.108 876.279 404.173L902.891 416.946C905.019 418.01 906.616 417.478 907.503 415.527L908.656 413.22L910.253 414.019L903.955 427.147L902.358 426.349L903.512 424.042C904.487 422.091 903.866 420.583 901.737 419.518L875.126 406.745C872.997 405.68 871.401 406.213 870.514 408.164L869.36 410.471L867.764 409.672Z" fill="black"/>
<path d="M875.127 468.749L876.546 466.709C877.876 464.846 877.433 463.161 875.304 461.653L846.209 441.517L847.007 440.364L891.271 439.743L866.966 422.889C864.837 421.381 863.151 421.647 861.91 423.421L860.49 425.461L859.071 424.486L866.7 413.397L868.119 414.373L866.7 416.413C865.369 418.276 865.813 419.962 867.942 421.47L891.98 438.057C893.134 438.856 894.021 439.21 894.73 439.122C895.351 439.033 896.061 438.412 896.859 437.259L898.278 435.219L899.698 436.194L895.262 442.581L851.709 443.202L876.28 460.233C878.409 461.653 880.005 461.475 881.336 459.612L882.755 457.572L884.174 458.548L876.546 469.636L875.127 468.749Z" fill="black"/>
<path d="M836.097 490.038L836.895 489.24C840.354 492.078 842.927 493.763 844.878 494.296C847.451 495.005 849.846 494.207 852.152 491.901C854.813 489.24 855.345 487.111 853.571 485.337L833.258 464.58C832.194 463.515 831.307 462.983 830.42 462.983C829.533 462.983 828.646 463.515 827.581 464.58L826.073 466.088L824.92 464.846L835.742 454.29L836.895 455.532L835.387 456.951C834.323 458.016 833.79 458.991 833.702 459.79C833.702 460.677 834.145 461.564 835.21 462.628L855.523 483.385C857.208 485.159 859.426 484.716 862.087 482.055C864.393 479.748 865.28 477.353 864.571 474.869C864.127 472.918 862.442 470.257 859.692 466.797L860.49 465.999L869.893 476.91L846.741 499.618L836.097 490.038Z" fill="black"/>
<path d="M796.179 503.61L789.083 491.368L816.759 472.652L817.734 474.071L816.315 475.047C815.073 475.845 814.364 476.732 814.186 477.619C814.009 478.418 814.364 479.571 815.251 480.901L831.218 504.497C832.726 506.626 834.411 507.069 836.54 505.65L838.314 504.497L839.29 505.916L812.146 524.278L803.897 513.367L804.872 512.746C808.509 516.383 811.348 518.423 813.299 518.867C815.251 519.222 818.178 518.157 821.815 515.585L827.669 511.593C828.823 510.795 829.532 509.996 829.71 509.109C829.887 508.311 829.621 507.247 828.734 506.005L821.637 495.538L815.606 499.618C813.477 501.037 812.412 502.368 812.412 503.698C812.324 505.029 813.211 506.98 814.985 509.553L813.654 510.44L803.897 495.981L805.227 495.094C807.001 497.755 808.509 499.352 809.662 499.707C810.816 500.061 812.501 499.529 814.63 498.11L820.662 494.03L812.767 482.321C811.88 480.99 810.993 480.192 810.106 480.103C809.308 479.926 808.243 480.28 807.001 481.167L799.728 486.046C796.357 488.353 794.494 490.836 794.317 493.409C794.228 495.36 795.115 498.465 796.978 502.811L796.179 503.61Z" fill="black"/>
<path d="M754.134 515.585C751.917 510.085 752.449 506.626 755.82 505.207C758.392 504.142 761.053 505.65 763.892 509.819C765.311 511.948 766.287 513.367 766.819 513.9C768.061 515.496 769.214 516.738 770.367 517.448C773.028 519.222 776.222 519.311 780.125 517.714C781.189 517.27 782.875 516.472 785.092 515.408L779.504 502.191C778.883 500.771 778.262 499.973 777.464 499.707C776.665 499.441 775.601 499.618 774.182 500.239L772.319 501.038L771.609 499.441L785.447 493.586L786.157 495.183L784.383 495.981C781.899 497.046 781.1 498.82 782.165 501.215L793.253 527.383C793.874 528.802 794.584 529.689 795.382 530.133C796.18 530.487 797.333 530.31 798.664 529.778L800.527 528.979L801.236 530.576L782.786 538.382C779.149 539.89 775.867 540.422 772.94 539.801C769.835 539.18 767.706 537.495 766.464 534.657C764.335 529.512 766.73 524.899 773.827 520.73C769.569 520.819 765.755 518.424 762.473 513.545C760.965 511.327 759.811 509.908 758.924 509.287C758.037 508.666 757.239 508.489 756.441 508.844C755.642 509.198 755.11 509.997 755.021 511.15C754.844 512.392 755.021 513.634 755.554 515.053L754.134 515.585ZM769.569 533.149C771.698 538.205 775.867 539.358 782.165 536.697L788.374 534.036C790.947 532.971 791.656 531.108 790.503 528.447L785.802 517.448C783.318 518.335 781.367 519.045 779.947 519.665C775.69 521.44 772.762 523.214 771.077 524.988C768.859 527.383 768.327 530.044 769.569 533.149Z" fill="black"/>
<path d="M721.224 525.254C720.514 521.883 721.135 518.956 723.175 516.472C725.215 513.988 727.965 512.392 731.602 511.593C733.908 511.061 735.948 510.972 737.723 511.238C739.851 511.505 742.069 512.392 744.464 513.811L745.883 508.932L746.948 508.666L750.407 522.859L749.077 523.302C745.085 514.964 739.408 511.682 731.957 513.279C729.384 513.811 727.255 515.053 725.659 516.916C723.796 519.044 723.175 521.262 723.707 523.746C724.417 526.762 726.28 528.802 729.473 529.778C730.715 530.132 733.553 530.576 738.166 531.02C742.424 531.374 745.529 531.995 747.391 532.705C750.585 534.035 752.448 536.164 753.157 539.269C753.778 542.196 753.246 544.769 751.56 547.075C749.786 549.381 747.303 550.889 743.932 551.599C739.674 552.575 735.771 551.776 732.223 549.47L731.247 554.083L730.005 554.349L726.546 541.398L727.965 541.043C729.828 544.591 731.868 547.075 734.086 548.494C736.658 550.18 739.763 550.623 743.4 549.825C745.883 549.293 747.746 548.228 749.165 546.72C750.851 544.946 751.383 542.817 750.851 540.333C750.319 537.85 748.545 536.253 745.529 535.366C744.642 535.1 741.98 534.834 737.634 534.39C732.489 533.947 729.118 533.326 727.522 532.705C724.151 531.64 722.111 529.068 721.224 525.254Z" fill="black"/>
<path d="M682.106 531.374L682.461 517.27L715.903 515.851L715.991 517.625L714.217 517.714C712.709 517.803 711.734 518.157 711.113 518.778C710.492 519.399 710.226 520.464 710.314 522.06L711.556 550.534C711.645 553.107 712.976 554.437 715.459 554.26L717.588 554.171L717.677 555.945L684.945 557.365L683.614 543.793L684.768 543.704C685.921 548.76 687.251 551.954 688.759 553.284C690.267 554.615 693.283 555.236 697.718 554.97L704.815 554.704C706.234 554.615 707.298 554.349 707.919 553.728C708.54 553.107 708.806 552.042 708.718 550.623L708.186 538.027L700.912 538.293C698.339 538.382 696.743 539.003 696.033 540.067C695.323 541.132 694.969 543.261 695.146 546.454L693.549 546.543L692.84 529.068L694.436 528.979C694.614 532.173 695.057 534.302 695.856 535.277C696.654 536.253 698.339 536.608 700.912 536.519L708.186 536.253L707.565 522.149C707.476 520.552 707.121 519.399 706.5 518.867C705.879 518.335 704.815 518.069 703.307 518.157L694.525 518.512C690.445 518.69 687.606 519.843 686.098 521.972C684.945 523.568 684.058 526.673 683.437 531.374H682.106Z" fill="black"/>
<path d="M643.608 525.609C645.116 521.262 647.334 518.069 650.172 516.029C653.188 513.9 656.736 513.101 660.817 513.722C666.139 514.432 670.22 517.004 673.058 521.262C675.897 525.431 676.961 530.399 676.163 535.987C675.364 541.93 673.058 546.72 669.333 550.357C665.341 554.26 660.551 555.857 655.051 555.058C650.882 554.438 647.689 552.486 645.56 549.204L642.899 553.018L641.391 552.841L642.987 537.229L644.584 537.495C645.294 547.252 648.842 552.486 655.317 553.462C659.841 554.083 663.922 552.309 667.292 547.962C670.22 544.325 671.994 540.156 672.703 535.455C673.324 530.753 672.703 526.584 670.752 522.859C668.534 518.601 664.897 516.206 659.93 515.496C656.736 515.053 653.898 515.762 651.326 517.625C648.753 519.488 646.89 522.327 645.56 526.052L643.608 525.609Z" fill="black"/>
<path d="M602.449 525.697L603.603 526.052C602.627 530.399 602.361 533.503 602.804 535.455C603.336 538.027 605.199 539.801 608.215 540.866C611.763 542.019 613.981 541.487 614.691 539.092L623.827 511.505C624.271 510.085 624.359 509.021 624.005 508.311C623.561 507.602 622.674 506.981 621.255 506.449L619.214 505.828L619.747 504.231L634.117 509.021L633.585 510.618L631.633 509.997C630.214 509.553 629.061 509.465 628.351 509.819C627.553 510.174 626.932 511.061 626.488 512.48L617.352 540.067C616.553 542.374 617.973 544.148 621.521 545.301C624.625 546.277 627.109 545.922 629.061 544.237C630.569 542.906 632.165 540.245 634.028 536.165L635.181 536.519L629.859 549.825L598.812 539.624L602.449 525.697Z" fill="black"/>
<path d="M594.732 492.876L607.771 499.352L606.973 500.949L604.667 499.795C602.715 498.82 601.207 499.441 600.143 501.57L587.103 528.003C586.039 530.132 586.482 531.729 588.434 532.616L590.74 533.769L589.942 535.366L576.902 528.89L577.701 527.294L580.007 528.447C581.958 529.423 583.466 528.802 584.531 526.673L597.57 500.239C598.635 498.11 598.191 496.513 596.24 495.626L593.934 494.473L594.732 492.876Z" fill="black"/>
<path d="M550.469 488.086C553.662 483.385 557.742 480.28 562.532 478.772C567.766 477.176 572.733 477.974 577.435 481.167C582.136 484.361 584.708 488.707 585.152 494.207C585.507 499.174 584.088 504.053 580.805 508.755C577.523 513.545 573.532 516.649 568.83 518.157C563.597 519.754 558.629 518.955 553.928 515.673C549.227 512.48 546.654 508.134 546.3 502.723C545.767 497.755 547.187 492.876 550.469 488.086ZM553.396 490.127C550.557 494.207 549.138 498.376 548.961 502.545C548.783 507.601 550.735 511.504 554.815 514.254C558.807 517.004 563.153 517.359 567.855 515.407C571.758 513.722 575.04 510.795 577.79 506.714C580.539 502.634 582.047 498.554 582.225 494.384C582.402 489.328 580.451 485.425 576.459 482.587C572.379 479.837 568.032 479.482 563.419 481.434C559.428 483.208 556.146 486.046 553.396 490.127Z" fill="black"/>
<path d="M504.964 468.838L506.738 470.612C508.334 472.297 510.109 472.208 511.883 470.346L537.163 445.597L538.139 446.573L530.333 490.127L551.445 469.459C553.308 467.685 553.396 465.999 551.888 464.402L550.203 462.628L551.445 461.387L560.847 471.055L559.606 472.297L557.831 470.523C556.235 468.838 554.461 468.926 552.687 470.789L531.841 491.191C530.865 492.167 530.333 492.965 530.244 493.675C530.244 494.296 530.688 495.183 531.664 496.159L533.438 497.933L532.196 499.175L526.785 493.586L534.502 450.653L513.125 471.588C511.35 473.362 511.173 475.047 512.77 476.644L514.455 478.418L513.213 479.571L503.811 469.902L504.964 468.838Z" fill="black"/>
<path d="M506.649 421.204C509.487 419.252 512.503 418.809 515.519 419.873C518.535 420.849 521.107 422.889 523.148 425.994C524.478 427.945 525.276 429.808 525.72 431.582C526.252 433.622 526.252 436.017 525.809 438.767L530.865 438.324L531.486 439.211L519.599 447.638L518.712 446.573C525.01 439.832 526.075 433.356 521.817 426.969C520.398 424.752 518.446 423.244 516.14 422.357C513.479 421.381 511.172 421.647 509.044 422.978C506.471 424.663 505.318 427.236 505.495 430.518C505.584 431.759 506.294 434.598 507.536 439.122C508.777 443.202 509.31 446.307 509.31 448.347C509.221 451.807 507.89 454.379 505.318 456.153C502.834 457.839 500.262 458.282 497.423 457.572C494.673 456.774 492.278 455 490.416 452.161C488.021 448.525 487.222 444.622 488.109 440.452L483.497 441.251L482.787 440.186L493.52 432.292L494.319 433.534C491.658 436.55 490.15 439.388 489.617 441.96C488.996 444.976 489.706 447.992 491.746 451.097C493.166 453.137 494.762 454.556 496.714 455.355C499.02 456.242 501.149 455.976 503.278 454.557C505.318 453.137 506.205 450.92 505.939 447.815C505.85 446.839 505.141 444.267 503.987 440.098C502.568 435.219 501.859 431.848 501.859 430.074C501.681 426.26 503.367 423.421 506.649 421.204Z" fill="black"/>
<path d="M474.892 364.699L480.215 381.286L497.068 375.964L497.778 378.182L480.924 383.504L486.247 400.092L484.029 400.801L478.707 384.214L462.208 389.447L461.498 387.23L477.997 381.996L472.675 365.408L474.892 364.699Z" fill="black"/>
<path d="M469.57 299.324C475.868 299.235 480.747 300.92 484.118 304.202C487.577 307.573 489.263 312.274 489.351 318.484L489.529 336.402H487.755V334.628C487.755 333.12 487.4 332.056 486.779 331.435C486.158 330.814 485.093 330.548 483.408 330.548L455.289 330.725C453.692 330.725 452.539 331.08 451.918 331.701C451.297 332.322 451.031 333.386 451.031 334.894V336.668H449.257L449.079 318.218C448.991 311.742 450.676 307.041 454.047 303.936C457.506 301.009 462.651 299.412 469.57 299.324ZM468.772 302.872C456.797 302.961 450.854 308.017 450.942 317.952L451.031 324.427C451.031 326.733 452.45 327.886 455.2 327.886L483.674 327.709C486.424 327.709 487.755 326.467 487.755 324.161L487.666 318.395C487.488 307.928 481.19 302.783 468.772 302.872Z" fill="black"/>
<path d="M492.101 282.204L490.149 296.663L488.375 296.397L488.73 293.824C488.996 291.695 488.02 290.453 485.625 290.099L456.353 286.196C453.958 285.841 452.627 286.817 452.361 288.945L452.007 291.518L450.232 291.252L452.184 276.793L453.958 277.059L453.603 279.632C453.337 281.76 454.313 283.002 456.708 283.357L485.98 287.26C488.375 287.615 489.706 286.639 489.972 284.51L490.327 281.938L492.101 282.204Z" fill="black"/>
<path d="M503.366 239.537L499.375 252.843L497.778 252.399L498.221 250.98C498.931 248.674 498.488 247.254 497.068 246.811C496.713 246.722 495.738 246.722 494.23 246.811L486.779 247.432L481.9 263.842L486.512 267.302C488.198 268.543 489.351 269.342 489.972 269.519C490.859 269.785 491.657 269.608 492.278 268.81C492.899 268.1 493.52 266.681 494.141 264.463L495.738 264.907L491.923 277.68L490.327 277.236C490.593 275.285 490.593 273.866 490.149 272.979C489.795 272.269 488.908 271.293 487.311 270.14L458.748 248.319L459.28 246.545L496.27 243.618C499.02 243.44 500.794 241.843 501.592 239.005L503.366 239.537ZM484.916 247.521L462.828 249.206L480.392 262.6L484.916 247.521Z" fill="black"/>
<path d="M509.576 205.83C512.592 207.426 514.455 209.821 515.076 212.926C515.697 216.031 515.164 219.313 513.479 222.595C512.414 224.635 511.173 226.32 509.753 227.562C508.157 228.981 506.116 230.135 503.455 231.11L506.294 235.279L505.762 236.255L492.633 229.868L493.166 228.538C502.125 230.844 508.334 228.627 511.794 221.796C513.035 219.49 513.39 217.095 513.124 214.611C512.681 211.861 511.35 209.91 509.132 208.668C506.383 207.249 503.633 207.426 500.794 209.2C499.73 209.91 497.512 211.861 494.23 215.055C491.214 218.071 488.819 220.111 487.045 221.087C484.029 222.683 481.102 222.772 478.263 221.264C475.602 219.934 473.917 217.805 473.296 215.055C472.675 212.216 473.118 209.289 474.715 206.273C476.667 202.459 479.771 199.886 483.852 198.645L480.924 194.919L481.457 193.854L493.609 199.532L492.9 200.862C488.997 199.975 485.803 199.975 483.231 200.773C480.304 201.66 477.908 203.701 476.223 207.071C475.07 209.289 474.626 211.418 474.893 213.458C475.247 215.853 476.489 217.627 478.707 218.78C480.924 219.934 483.319 219.579 485.892 217.805C486.69 217.272 488.642 215.41 491.658 212.394C495.295 208.757 497.867 206.539 499.464 205.652C502.746 203.967 506.028 204.055 509.576 205.83Z" fill="black"/>
<path d="M517.559 163.34C523.502 167.953 523.236 174.428 516.76 183.032C515.962 184.097 514.277 186.403 511.704 189.863L521.196 197.136C522.437 198.112 523.502 198.556 524.212 198.378C525.01 198.29 525.897 197.58 526.873 196.249L528.026 194.741L529.445 195.806L520.309 207.692L518.889 206.628L520.042 205.12C521.018 203.789 521.462 202.813 521.373 202.015C521.284 201.306 520.663 200.418 519.333 199.443L496.891 182.057C495.649 181.081 494.584 180.637 493.697 180.815C492.81 180.904 491.923 181.524 490.947 182.766L489.794 184.274L488.375 183.21L498.931 169.372C505.495 160.856 511.704 158.816 517.559 163.34ZM515.341 166.09C512.414 163.872 509.575 163.251 506.914 164.405C505.051 165.203 503.011 166.977 500.882 169.727L497.866 173.718C496.092 176.025 496.447 177.976 498.753 179.75L510.196 188.532C512.591 185.694 514.365 183.565 515.341 182.323C517.47 179.573 518.712 176.823 518.978 174.162C519.244 170.88 518.091 168.219 515.341 166.09Z" fill="black"/>
<path d="M555.613 140.011C559.428 144.269 561.557 148.881 561.823 153.849C562.177 159.348 560.226 163.961 556.057 167.775C551.799 171.59 547.009 173.097 541.598 172.21C536.719 171.412 532.284 168.84 528.47 164.582C524.567 160.235 522.438 155.623 522.172 150.744C521.817 145.333 523.768 140.632 528.026 136.817C532.284 133.003 537.074 131.495 542.396 132.382C547.275 133.181 551.71 135.753 555.613 140.011ZM552.952 142.406C549.67 138.769 545.945 136.285 541.864 135.221C536.985 133.89 532.728 134.866 529.091 138.148C525.454 141.43 524.035 145.51 524.922 150.567C525.72 154.736 527.671 158.639 531.042 162.276C534.413 165.912 537.961 168.307 542.042 169.461C546.92 170.88 551.178 169.904 554.815 166.622C558.452 163.34 559.871 159.171 558.984 154.203C558.274 149.946 556.234 146.043 552.952 142.406Z" fill="black"/>
<path d="M598.103 127.681C601.03 132.826 601.03 136.285 597.926 138.148C595.531 139.568 592.692 138.414 589.233 134.689C587.459 132.737 586.305 131.584 585.773 131.052C584.265 129.633 582.935 128.568 581.782 128.036C578.943 126.617 575.661 126.971 572.113 129.189C571.137 129.81 569.629 130.786 567.5 132.205L574.951 144.535C575.75 145.866 576.548 146.575 577.346 146.664C578.145 146.841 579.209 146.486 580.54 145.688L582.225 144.624L583.112 146.132L570.25 153.938L569.363 152.43L571.048 151.454C573.355 150.035 573.887 148.172 572.556 145.954L557.831 121.649C557.033 120.319 556.146 119.52 555.259 119.254C554.372 119.077 553.307 119.343 552.066 120.053L550.38 121.117L549.493 119.609L566.702 109.231C570.073 107.19 573.266 106.215 576.282 106.392C579.475 106.57 581.782 107.989 583.378 110.561C586.217 115.263 584.443 120.23 578.056 125.375C582.314 124.665 586.394 126.528 590.386 130.874C592.249 132.826 593.579 134.068 594.466 134.6C595.442 135.132 596.24 135.132 597.039 134.689C597.837 134.245 598.192 133.358 598.103 132.205C598.103 130.963 597.748 129.721 597.039 128.391L598.103 127.681ZM580.274 112.601C577.435 107.9 573.089 107.368 567.323 110.827L561.557 114.287C559.162 115.706 558.718 117.658 560.226 120.053L566.436 130.254C568.831 129.012 570.605 128.036 571.935 127.238C575.838 124.843 578.588 122.714 580.007 120.762C581.87 118.19 582.048 115.44 580.274 112.601Z" fill="black"/>
<path d="M643.785 119.698L630.657 124.222L630.125 122.625L631.544 122.093C633.85 121.294 634.737 120.23 634.205 118.722C634.117 118.367 633.496 117.569 632.52 116.416L627.73 110.739L611.586 116.327L611.408 122.093C611.319 124.222 611.408 125.552 611.674 126.262C611.94 127.149 612.561 127.592 613.537 127.77C614.513 127.859 616.021 127.504 618.15 126.794L618.682 128.391L606.086 132.737L605.554 131.141C607.328 130.254 608.481 129.366 608.924 128.568C609.279 127.859 609.545 126.617 609.634 124.576L610.876 88.6512L612.561 88.0303L636.423 116.416C638.197 118.456 640.415 119.077 643.253 118.101L643.785 119.698ZM626.577 109.231L612.384 92.2881L611.674 114.375L626.577 109.231Z" fill="black"/>
<path d="M830.154 307.662C829.887 307.573 829.533 307.573 829.267 307.484C814.009 305.71 800.792 303.936 789.172 301.896C787.132 301.541 785.092 301.186 783.14 300.743C782.697 300.654 782.165 300.565 781.721 300.477C779.858 300.122 777.995 299.678 776.221 299.324C764.069 296.662 754.134 293.469 745.707 289.211C744.997 288.856 744.199 288.413 743.489 288.058C742.602 287.615 741.804 287.171 741.006 286.639C740.473 286.284 739.941 285.929 739.32 285.663C737.635 284.599 736.038 283.534 734.53 282.381C734.264 282.204 733.998 281.938 733.732 281.76C711.911 264.463 705.258 234.481 698.605 176.823C697.984 171.767 694.081 169.194 690.089 169.194C686.098 169.194 682.106 171.767 681.574 176.823C669.244 282.913 657.003 295.154 550.912 307.484C540.8 308.638 540.8 323.362 550.912 324.604C657.003 336.934 669.244 349.175 681.574 455.266C682.195 460.322 686.098 462.894 690.089 462.894C692.307 462.894 694.525 462.096 696.21 460.499C697.452 459.257 698.428 457.483 698.605 455.266C710.935 349.175 723.176 336.934 829.267 324.604C839.113 323.451 839.379 309.613 830.154 307.662ZM658.156 347.934C641.746 331.523 618.062 324.161 578.411 318.395C575.661 318.04 575.661 314.048 578.411 313.605C618.062 307.839 641.657 300.565 658.156 284.066C672.437 269.785 679.8 250.181 685.299 219.312C685.832 216.385 690.089 216.829 690.089 219.756V280.784C690.089 286.55 693.638 291.695 698.96 293.824C707.742 297.372 713.951 305.976 713.951 316C713.951 326.024 707.742 334.717 698.96 338.176C693.638 340.305 690.089 345.45 690.089 351.216V412.244C690.089 415.171 685.832 415.526 685.299 412.688C679.8 381.907 672.437 362.215 658.156 347.934Z" fill="black"/>
<path d="M677.049 316C677.049 310.146 680.863 305.267 686.186 303.67C688.492 302.961 690 300.832 690 298.437C690 294.8 686.541 292.139 682.992 293.203C673.235 296.219 666.05 305.267 666.05 316.089C666.05 326.911 673.146 335.959 682.992 338.975C686.452 340.039 690 337.378 690 333.741C690 331.346 688.403 329.217 686.186 328.507C680.952 326.733 677.049 321.855 677.049 316Z" fill="black"/>
<path d="M690 305.887V326.201C690 327.797 691.508 329.039 693.105 328.596C698.782 327.177 702.951 322.12 702.951 316C702.951 309.879 698.782 304.823 693.105 303.404C691.597 303.049 690 304.291 690 305.887Z" fill="black"/>
<path d="M690 137.172C714.128 137.172 737.546 141.873 759.633 151.187C780.922 160.235 800.082 173.097 816.493 189.508C832.903 205.918 845.854 225.078 854.813 246.367C864.127 268.454 868.828 291.872 868.828 316C868.828 340.128 864.127 363.545 854.813 385.633C845.765 406.922 832.903 426.082 816.493 442.492C800.082 458.903 780.922 471.853 759.633 480.813C737.546 490.127 714.128 494.828 690 494.828C665.873 494.828 642.455 490.127 620.368 480.813C599.079 471.765 579.918 458.903 563.508 442.492C547.098 426.082 534.147 406.922 525.188 385.633C515.874 363.545 511.173 340.128 511.173 316C511.173 291.872 515.874 268.454 525.188 246.367C534.236 225.078 547.098 205.918 563.508 189.508C579.918 173.097 599.079 160.146 620.368 151.187C642.455 141.873 665.873 137.172 690 137.172ZM690 132.737C588.789 132.737 506.737 214.788 506.737 316C506.737 417.212 588.789 499.352 690 499.352C791.212 499.352 873.352 417.3 873.352 316C873.352 214.7 791.301 132.737 690 132.737Z" fill="black"/>
<path d="M690 53.4352C725.482 53.4352 759.81 60.3542 792.187 74.1033C823.5 87.3203 851.531 106.303 875.658 130.342C899.786 154.469 918.68 182.589 931.897 213.813C945.557 246.19 952.565 280.607 952.565 316C952.565 351.393 945.646 385.81 931.897 418.187C918.68 449.5 899.697 477.531 875.658 501.658C851.531 525.786 823.411 544.68 792.187 557.897C759.81 571.557 725.393 578.565 690 578.565C654.607 578.565 620.19 571.646 587.813 557.897C556.5 544.68 528.469 525.697 504.342 501.658C480.214 477.531 461.32 449.411 448.103 418.187C434.354 385.899 427.435 351.482 427.435 316C427.435 280.518 434.354 246.19 448.103 213.813C461.32 182.5 480.303 154.469 504.342 130.342C528.469 106.214 556.589 87.3203 587.813 74.1033C620.19 60.3542 654.607 53.4352 690 53.4352ZM690 49C542.573 49 423 168.573 423 316C423 463.427 542.573 583 690 583C837.427 583 957 463.427 957 316C957 168.573 837.515 49 690 49Z" fill="black"/>
<path d="M689.291 78.0065C698.605 78.0065 706.145 85.5464 706.145 94.8603C706.145 104.174 698.605 111.714 689.291 111.714C679.977 111.714 672.437 104.174 672.437 94.8603C672.437 85.5464 679.977 78.0065 689.291 78.0065ZM689.291 73.5713C677.493 73.5713 668.002 83.1514 668.002 94.8603C668.002 106.658 677.582 116.149 689.291 116.149C701 116.149 710.58 106.569 710.58 94.8603C710.58 83.0627 701.089 73.5713 689.291 73.5713Z" fill="black"/>
</svg>
