<svg width="1104" height="234" viewBox="0 0 1104 234" fill="none" xmlns="http://www.w3.org/2000/svg">
<path d="M275.251 1.71448V230.996H245.629V1.71448H275.251Z" fill="#EEEFF3"/>
<path d="M516.22 19.069C534.193 32.4188 546.508 50.4409 552.832 73.1355H521.546C516.22 59.1183 507.234 48.1047 494.586 39.7611C481.939 31.4175 466.961 27.0788 449.654 27.0788C434.011 27.0788 420.032 30.75 407.718 38.0924C395.403 45.4348 385.751 55.7808 378.761 69.1306C371.772 82.4803 368.111 98.5 368.111 116.522C368.111 135.212 371.772 151.232 378.761 164.915C385.751 178.599 395.736 188.945 408.383 196.287C421.031 203.629 435.675 207.3 451.984 207.3C465.963 207.3 478.943 204.297 490.592 198.289C502.241 192.282 511.894 183.271 519.216 171.924C526.538 160.243 531.198 146.559 532.529 131.207H442.665V109.18H557.491V136.547C555.494 154.903 549.836 171.256 540.517 185.941C531.198 200.626 518.55 212.307 502.907 220.984C487.264 229.661 469.291 234 448.989 234C427.022 234 407.385 228.994 390.743 219.315C373.769 209.303 360.788 195.619 351.469 177.931C342.15 160.243 337.49 139.884 337.49 117.19C337.49 94.4951 342.15 74.1367 351.469 56.4483C360.788 38.7599 374.102 25.0764 390.743 15.0641C407.718 5.05176 427.022 0.045605 448.656 0.045605C475.948 -0.621883 498.248 6.05299 516.22 19.069Z" fill="#EEEFF3"/>
<path d="M849.717 5.71924V231.33H820.095V51.1084L748.537 230.996H722.243L650.351 51.7759V230.996H620.729V5.71924H656.01L735.889 194.952L814.437 5.71924H849.717Z" fill="#EEEFF3"/>
<path d="M1053.74 177.931H953.228L933.923 230.996H901.972L986.511 5.71924H1019.79L1104 230.996H1072.05L1053.74 177.931ZM1045.09 154.903L1003.15 39.0936L961.216 154.903H1045.09Z" fill="#EEEFF3"/>
<path d="M171.075 1.71448C109.501 1.71448 78.5481 40.7625 78.5481 117.524C78.5481 194.285 46.2635 204.964 14.3117 204.964H0V233.333H14.3117C75.8854 233.333 106.839 194.285 106.839 117.524C106.839 40.7625 139.456 30.0827 171.075 30.0827H185.387V1.71448H171.075Z" fill="#EEEFF3"/>
</svg>
