<svg width="1380" height="666" viewBox="0 0 1380 666" fill="none" xmlns="http://www.w3.org/2000/svg">
<path d="M1380 0H0V666H1380V0Z" fill="#3A72F2"/>
<path d="M50.3604 486.739H56.7821C57.4581 494.175 62.4152 499.02 70.7522 499.02C78.1879 499.02 83.4831 496.203 83.4831 489.668C83.4831 475.922 52.1629 483.471 52.1629 464.317C52.1629 455.867 59.5987 450.121 70.3016 450.121C81.0045 450.121 88.4402 456.318 89.2288 466.007H82.8071C82.2438 459.923 77.512 456.092 70.3016 456.092C62.9785 456.092 58.6974 459.36 58.6974 464.43C58.6974 478.176 90.2428 469.613 90.2428 489.781C90.2428 499.471 81.7931 504.992 70.6396 504.992C58.6974 504.879 51.149 497.781 50.3604 486.739Z" fill="#EEEFF3"/>
<path d="M98.8047 450.797H105.339V504.316H98.8047V450.797Z" fill="#EEEFF3"/>
<path d="M114.24 477.5C114.24 459.247 126.746 450.121 140.153 450.121C152.433 450.121 162.009 457.444 163.136 467.698H156.263C155.024 460.937 148.264 456.092 140.04 456.092C128.999 456.092 120.887 463.641 120.887 477.613C120.887 491.471 128.999 499.246 140.04 499.246C148.828 499.246 156.601 494.288 156.601 486.514C156.601 484.035 155.024 482.458 152.433 482.458H140.378V476.824H153.672C157.615 476.824 163.136 479.866 163.136 486.063V504.429H157.052V495.077C154.573 500.936 147.814 504.992 140.04 504.992C126.746 504.879 114.24 495.865 114.24 477.5Z" fill="#EEEFF3"/>
<path d="M172.486 450.797H180.936L198.624 495.527L216.199 450.797H224.649V504.316H218.34V461.613L201.441 504.316H195.695L178.795 461.613V504.316H172.486V450.797Z" fill="#EEEFF3"/>
<path d="M252.814 476.599C254.73 463.191 256.758 456.881 262.729 456.881C268.7 456.881 270.615 463.191 272.643 476.599C273.882 485.162 277.15 496.316 285.374 501.612C289.993 504.541 294.049 504.316 294.725 504.316V498.231C290.669 498.119 287.064 496.203 284.811 493.049C281.881 489.105 279.853 483.246 278.727 475.697C277.037 464.543 275.009 450.684 262.841 450.684C250.674 450.684 248.533 464.543 246.956 475.697C245.829 483.246 243.802 488.992 240.872 493.049C238.619 496.203 235.014 498.006 230.958 498.231V504.316C231.634 504.316 235.802 504.541 240.309 501.612C248.308 496.316 251.575 485.049 252.814 476.599Z" fill="#EEEFF3"/>
<path d="M800.805 504.428V499.809C800.805 499.358 801.03 499.02 801.593 499.02H813.986V458.008H802.382C801.931 458.008 801.593 457.782 801.593 457.219V452.6C801.593 452.149 801.819 451.811 802.382 451.811H832.012C832.463 451.811 832.801 452.036 832.801 452.6V457.219C832.801 457.67 832.575 458.008 832.012 458.008H820.408V499.02H832.801C833.251 499.02 833.589 499.245 833.589 499.809V504.428C833.589 504.879 833.364 505.217 832.801 505.217H801.706C801.03 505.217 800.805 504.879 800.805 504.428Z" fill="#EEEFF3"/>
<path d="M834.94 478.514C834.94 469.726 836.968 462.965 841.024 458.233C845.08 453.501 850.15 451.135 856.121 451.135C861.191 451.135 865.359 452.599 868.626 455.529C871.894 458.458 873.696 462.402 874.372 467.359C874.372 467.81 874.034 468.148 873.471 468.148H868.626C868.063 468.148 867.725 467.923 867.725 467.359C867.049 463.979 865.697 461.388 863.895 459.698C862.092 458.008 859.501 457.106 856.234 457.106C851.727 457.106 848.122 458.909 845.531 462.627C842.939 466.345 841.7 471.528 841.7 478.401C841.7 485.387 843.052 490.57 845.643 494.288C848.235 497.893 852.065 499.696 857.022 499.696C862.655 499.696 866.599 497.33 868.739 492.598V484.148H855.896C855.445 484.148 855.107 483.922 855.107 483.359V478.739C855.107 478.289 855.332 477.951 855.896 477.951H874.26C874.71 477.951 875.048 478.176 875.048 478.739V492.373C875.048 493.387 874.823 494.401 874.26 495.302C872.682 498.569 870.316 501.161 867.387 502.964C864.458 504.879 860.965 505.78 856.91 505.78C850.488 505.78 845.193 503.414 841.137 498.569C836.968 493.95 834.94 487.19 834.94 478.514Z" fill="#EEEFF3"/>
<path d="M880.006 504.428V452.712C880.006 452.262 880.231 451.924 880.795 451.924H888.23C888.906 451.924 889.357 452.149 889.47 452.6L898.595 477.725L907.721 452.6C907.833 452.149 908.171 452.036 908.96 451.924H916.396C916.846 451.924 917.184 452.149 917.184 452.712V504.428C917.184 504.879 916.959 505.217 916.396 505.217H911.551C911.101 505.217 910.763 504.992 910.763 504.428V461.275L901.637 485.162C901.524 485.387 901.186 485.5 900.623 485.612H896.68C896.117 485.612 895.779 485.5 895.666 485.162L886.54 461.275V504.428C886.54 504.879 886.315 505.217 885.752 505.217H880.907C880.344 505.217 880.006 504.879 880.006 504.428Z" fill="#EEEFF3"/>
<path d="M920.227 504.428C920.227 504.315 920.227 504.09 920.339 503.977L938.14 452.825C938.253 452.374 938.591 452.036 938.929 452.036H945.125C945.463 452.036 945.688 452.261 945.914 452.825L963.714 503.977C963.714 504.09 963.827 504.315 963.827 504.428C963.827 504.879 963.602 505.217 963.038 505.217H957.63C957.18 505.217 956.842 504.991 956.729 504.428L951.772 489.781H931.943L927.099 504.428C926.986 504.879 926.648 505.217 926.198 505.217H921.015C920.452 505.217 920.227 504.879 920.227 504.428ZM933.971 483.584H949.857L941.97 459.81L933.971 483.584Z" fill="#EEEFF3"/>
<path d="M793.031 482.232V492.147C793.031 499.02 789.538 499.02 788.299 499.02C787.059 499.02 786.158 498.682 785.482 498.119C788.299 494.738 789.313 491.922 789.425 487.978C789.651 480.767 785.707 476.035 777.483 473.669C773.089 472.43 770.047 471.077 770.047 466.12C770.047 461.162 774.329 457.67 780.638 457.67C787.172 457.67 791.453 461.5 791.453 467.134V469.5H797.875V467.134C797.875 457.895 790.777 451.473 780.525 451.473C770.723 451.473 763.626 457.67 763.626 466.12C763.626 475.922 771.512 478.288 775.793 479.528C781.877 481.331 783.004 484.035 783.004 487.866C783.004 489.105 782.778 490.344 782.102 491.696C780.525 488.091 777.821 484.373 771.737 484.373C765.428 484.373 761.26 488.429 761.26 494.738C761.26 500.823 765.541 505.104 771.737 505.104C775.793 505.104 778.948 503.64 780.863 502.287C782.44 503.865 784.806 505.104 788.186 505.104C795.171 505.104 799.227 500.259 799.227 492.034V482.119H793.031V482.232ZM771.737 490.57C774.779 490.57 775.793 492.485 777.032 495.64C777.145 495.978 777.37 496.316 777.483 496.654C777.596 496.767 777.596 496.992 777.708 497.105C776.131 498.119 774.216 499.02 771.85 498.907C769.259 498.907 767.682 497.33 767.682 494.738C767.569 491.02 769.935 490.57 771.737 490.57Z" fill="#EEEFF3"/>
<path d="M1235.57 427.474C1231.06 427.474 1227.01 429.615 1224.53 432.882C1221.94 429.615 1217.99 427.474 1213.49 427.474C1205.82 427.474 1199.52 433.784 1199.52 441.445V524.71C1199.52 526.287 1200.87 527.639 1202.44 527.639C1204.02 527.639 1205.37 526.287 1205.37 524.71V441.445C1205.37 436.939 1208.98 433.333 1213.49 433.333C1217.99 433.333 1221.6 436.939 1221.6 441.445V524.71C1221.6 526.287 1222.95 527.639 1224.53 527.639C1226.1 527.639 1227.46 526.287 1227.46 524.71V441.445C1227.46 436.939 1231.06 433.333 1235.57 433.333C1240.07 433.333 1243.68 436.939 1243.68 441.445V524.71C1243.68 526.287 1245.03 527.639 1246.61 527.639C1248.19 527.639 1249.54 526.287 1249.54 524.71V441.445C1249.54 433.784 1243.34 427.474 1235.57 427.474Z" fill="#EEEFF3"/>
<path d="M1156.37 448.994C1154.79 448.994 1153.44 450.346 1153.44 451.924V471.754C1153.44 473.331 1154.79 474.683 1156.37 474.683C1157.94 474.683 1159.29 473.331 1159.29 471.754V451.924C1159.18 450.234 1157.94 448.994 1156.37 448.994Z" fill="#EEEFF3"/>
<path d="M1145.21 427.474C1137.55 427.474 1131.24 433.784 1131.24 441.445V513.668C1131.24 518.175 1127.64 521.78 1123.13 521.78C1118.62 521.78 1115.02 518.175 1115.02 513.668V477.613C1115.02 476.036 1113.67 474.683 1112.09 474.683C1110.51 474.683 1109.16 476.036 1109.16 477.613V513.668C1109.16 521.329 1115.47 527.639 1123.13 527.639C1130.79 527.639 1137.1 521.329 1137.1 513.668V441.445C1137.1 436.939 1140.71 433.333 1145.21 433.333C1149.72 433.333 1153.32 436.939 1153.32 441.445C1153.32 443.023 1154.68 444.375 1156.25 444.375C1157.83 444.375 1159.18 443.023 1159.18 441.445C1159.18 433.784 1152.99 427.474 1145.21 427.474Z" fill="#EEEFF3"/>
<path d="M1302.94 474.571C1301.36 474.571 1300.01 475.923 1300.01 477.5V513.555C1300.01 518.062 1296.41 521.667 1291.9 521.667C1287.39 521.667 1283.79 518.062 1283.79 513.555V441.333C1283.79 433.671 1277.48 427.361 1269.82 427.361C1262.16 427.361 1255.85 433.671 1255.85 441.333V472.655C1255.85 474.233 1257.2 475.585 1258.78 475.585C1260.35 475.585 1261.71 474.233 1261.71 472.655V441.445C1261.71 436.938 1265.31 433.333 1269.82 433.333C1274.32 433.333 1277.93 436.938 1277.93 441.445V474.571H1269.82C1262.16 474.571 1255.85 480.88 1255.85 488.542V513.555C1255.85 521.217 1262.16 527.526 1269.82 527.526C1271.39 527.526 1272.75 526.174 1272.75 524.597C1272.75 523.019 1271.39 521.667 1269.82 521.667C1265.31 521.667 1261.71 518.062 1261.71 513.555V488.542C1261.71 484.035 1265.31 480.43 1269.82 480.43H1277.93V513.555C1277.93 521.217 1284.24 527.526 1291.9 527.526C1299.56 527.526 1305.87 521.217 1305.87 513.555V477.5C1305.87 475.923 1304.52 474.571 1302.94 474.571Z" fill="#EEEFF3"/>
<path d="M1156.37 479.528C1154.79 479.528 1153.44 480.88 1153.44 482.458V524.709C1153.44 526.287 1154.79 527.639 1156.37 527.639C1157.94 527.639 1159.29 526.287 1159.29 524.709V482.458C1159.18 480.767 1157.94 479.528 1156.37 479.528Z" fill="#EEEFF3"/>
<path d="M1179.35 427.474C1171.69 427.474 1165.38 433.784 1165.38 441.445V464.318C1165.38 468.599 1167.29 472.43 1170.34 475.021L1169.32 479.979C1168.2 485.387 1170.11 490.908 1173.94 493.5C1176.65 495.415 1179.91 495.415 1182.73 493.612C1183.4 493.162 1184.08 493.162 1184.87 493.5C1186.22 494.176 1187.46 496.316 1187.46 499.359V515.809C1187.46 519.414 1185.55 521.893 1183.86 521.893H1175.97C1173.38 521.893 1171.24 519.752 1171.24 517.161V503.753C1171.24 502.175 1169.89 500.823 1168.31 500.823C1166.73 500.823 1165.38 502.175 1165.38 503.753V517.161C1165.38 523.02 1170.11 527.752 1175.97 527.752H1183.86C1189.15 527.752 1193.21 522.569 1193.21 515.921V499.471C1193.21 494.739 1190.95 490.457 1187.57 488.542C1184.98 487.077 1182.05 487.19 1179.46 488.88C1178.67 489.443 1177.88 489.443 1177.1 488.88C1175.52 487.753 1174.17 484.824 1174.96 481.331L1175.63 478.064C1176.76 478.402 1178 478.514 1179.24 478.514C1186.9 478.514 1193.21 472.205 1193.21 464.543V441.671C1193.32 433.784 1187.01 427.474 1179.35 427.474ZM1187.46 464.318C1187.46 468.825 1183.86 472.43 1179.35 472.43C1174.84 472.43 1171.24 468.825 1171.24 464.318V441.445C1171.24 436.939 1174.84 433.333 1179.35 433.333C1183.86 433.333 1187.46 436.939 1187.46 441.445V464.318Z" fill="#EEEFF3"/>
<path d="M445.918 481.556V491.133C445.918 496.203 443.89 498.682 439.834 498.682C437.919 498.682 436.68 498.119 435.778 497.33C439.045 493.837 440.285 491.02 440.285 486.964C440.51 479.866 436.229 475.246 427.441 472.88C422.597 471.528 418.541 470.064 418.541 464.655C418.541 459.36 423.836 455.416 431.046 455.416C438.707 455.416 443.89 459.472 443.89 465.669V467.472H449.523V465.669C449.523 456.543 441.975 450.233 431.046 450.233C420.569 450.233 413.02 456.318 413.02 464.655C413.02 474.232 421.132 476.486 426.089 477.838C433.976 479.979 434.652 483.584 434.652 486.852C434.652 488.654 434.088 490.344 432.849 492.26C431.046 488.204 428.568 483.809 421.357 483.809C414.372 483.809 409.641 487.866 409.641 493.837C409.641 499.583 414.71 503.865 421.357 503.865C426.089 503.865 429.582 502.175 431.61 500.71C433.3 502.513 435.778 503.865 439.721 503.865C446.932 503.865 451.326 499.133 451.326 491.02V481.443H445.918V481.556ZM421.47 488.88C425.301 488.88 426.653 491.133 428.117 494.513C428.23 494.851 428.455 495.302 428.568 495.527C428.681 495.753 428.793 496.091 428.906 496.316C426.991 497.555 424.512 498.569 421.47 498.569C417.978 498.569 415.274 496.429 415.274 493.725C415.274 490.795 417.64 488.88 421.47 488.88Z" fill="#EEEFF3"/>
<path d="M462.704 451.248H457.409V502.851H462.704V451.248Z" fill="#EEEFF3"/>
<path d="M493.574 475.81V480.43H510.811V483.021C510.811 493.613 502.361 498.795 493.236 498.795C481.857 498.795 474.083 489.331 474.083 477.05C474.083 464.543 481.744 455.304 493.686 455.304C503.037 455.304 508.445 460.374 510.135 466.346H515.655C513.515 457.445 505.854 450.347 493.686 450.347C478.815 450.347 468.562 461.614 468.562 476.937C468.562 492.035 478.702 503.528 493.236 503.528C501.235 503.528 507.206 500.711 510.811 494.401V502.626H512.163H515.655V475.698H510.811H493.574V475.81Z" fill="#EEEFF3"/>
<path d="M550.468 495.528H550.356L530.302 451.248H523.88V502.739H529.175L528.724 460.262H528.95L548.215 502.739H552.383L571.649 459.585H571.874L571.423 502.739H576.718V451.248H570.297L550.468 495.528Z" fill="#EEEFF3"/>
<path d="M605.785 451.248H599.589L580.211 502.851H585.506L591.026 487.979H614.235L619.755 502.851H625.276L605.785 451.248ZM592.604 483.359L602.405 456.769H602.743L612.432 483.359H592.604Z" fill="#EEEFF3"/>
<path d="M493.766 158.81H500.295C500.551 161.509 502.344 162.538 505.417 162.538C507.593 162.538 509.642 161.766 509.642 159.71C509.642 157.653 507.465 157.139 503.88 156.239C499.271 155.21 494.406 153.796 494.406 148.14C494.406 142.484 499.015 139.913 504.905 139.913C510.666 139.913 515.019 142.484 515.275 148.14H508.874C508.618 146.084 507.081 144.927 504.648 144.927C502.344 144.927 500.807 145.955 500.807 147.369C500.807 149.169 502.856 149.683 506.825 150.583C511.69 151.74 516.171 153.282 516.171 158.938C516.171 164.466 511.434 167.551 505.289 167.551C498.503 167.808 493.894 164.594 493.766 158.81Z" fill="#EEEFF3"/>
<path d="M517.964 140.555H523.981V145.44H517.964V140.555ZM517.964 148.14H523.981V167.165H517.964V148.14Z" fill="#EEEFF3"/>
<path d="M525.646 167.551H531.535C531.919 168.579 532.816 169.35 534.864 169.35C537.425 169.35 538.449 168.065 538.449 165.751V163.823H538.321C537.169 165.108 535.76 166.008 533.456 166.008C529.231 166.008 525.262 162.794 525.262 157.01C525.262 151.482 528.463 147.497 533.2 147.497C535.76 147.497 537.425 148.526 538.577 150.068H538.705V148.14H544.467V165.365C544.467 168.193 543.442 170.25 541.906 171.664C540.242 173.207 537.809 173.721 534.992 173.721C529.743 173.721 526.286 171.536 525.646 167.551ZM538.705 156.881C538.705 154.31 537.425 152.125 534.864 152.125C532.56 152.125 531.151 153.925 531.151 156.881C531.151 159.709 532.688 161.638 534.864 161.638C537.553 161.638 538.705 159.452 538.705 156.881Z" fill="#EEEFF3"/>
<path d="M546.516 148.14H552.277V150.84H552.405C553.557 148.911 555.35 147.626 558.167 147.626C560.599 147.626 562.52 148.911 563.544 150.968H563.672C565.209 148.654 567.129 147.626 569.69 147.626C574.043 147.626 576.091 150.583 576.091 154.825V167.165H569.946V155.853C569.946 153.796 569.05 152.639 567.257 152.639C565.337 152.639 564.312 154.182 564.312 156.496V167.165H558.295V155.853C558.295 153.796 557.398 152.639 555.606 152.639C553.686 152.639 552.661 154.182 552.661 156.496V167.165H546.644V148.14H546.516Z" fill="#EEEFF3"/>
<path d="M577.115 161.766C577.115 157.524 580.444 156.367 584.413 155.724C587.998 155.339 589.278 154.953 589.278 153.668C589.278 152.382 588.51 151.611 586.718 151.611C584.797 151.611 583.773 152.511 583.645 154.053H578.139C578.268 150.582 580.956 147.497 586.718 147.497C589.534 147.497 591.455 148.012 592.863 149.04C594.528 150.197 595.296 152.125 595.296 154.439V164.08C595.296 165.623 595.424 166.394 595.936 166.779V167.037H590.047C589.791 166.651 589.534 165.88 589.406 164.98H589.15C587.998 166.522 586.334 167.551 583.517 167.551C579.804 167.551 577.115 165.623 577.115 161.766ZM589.278 160.352V158.038C588.51 158.424 587.358 158.681 586.206 159.067C583.901 159.581 582.877 160.224 582.877 161.638C582.877 163.18 584.029 163.694 585.437 163.694C587.742 163.694 589.278 162.409 589.278 160.352Z" fill="#EEEFF3"/>
<path d="M493.766 193.132H500.295C500.551 195.832 502.344 196.86 505.417 196.86C507.593 196.86 509.642 196.089 509.642 194.032C509.642 191.975 507.465 191.461 503.88 190.561C499.271 189.533 494.406 188.119 494.406 182.463C494.406 176.807 499.015 174.236 504.905 174.236C510.666 174.236 515.019 176.807 515.275 182.463H508.874C508.618 180.406 507.081 179.249 504.648 179.249C502.344 179.249 500.807 180.277 500.807 181.691C500.807 183.491 502.856 184.005 506.825 184.905C511.69 186.062 516.171 187.605 516.171 193.261C516.171 198.788 511.434 201.873 505.289 201.873C498.503 202.13 493.894 199.045 493.766 193.132Z" fill="#EEEFF3"/>
<path d="M517.836 194.932V182.463H523.854V193.646C523.854 195.703 524.75 196.86 526.67 196.86C528.719 196.86 529.999 195.317 529.999 193.003V182.334H536.017V201.359H530.255V199.045H530.127C528.719 200.845 527.054 202.002 524.494 202.002C520.141 202.13 517.836 199.174 517.836 194.932Z" fill="#EEEFF3"/>
<path d="M538.193 182.462H543.955V185.419H544.083C545.363 183.105 547.028 182.205 549.204 182.205C549.716 182.205 550.1 182.205 550.357 182.334V187.476H550.229C546.516 186.962 544.211 188.761 544.211 192.875V201.359H538.193V182.462Z" fill="#EEEFF3"/>
<path d="M550.741 202.002H556.63C557.014 203.03 557.91 203.802 559.959 203.802C562.52 203.802 563.544 202.516 563.544 200.202V198.274H563.416C562.264 199.56 560.855 200.459 558.551 200.459C554.325 200.459 550.356 197.246 550.356 191.461C550.356 185.933 553.557 181.948 558.295 181.948C560.855 181.948 562.52 182.977 563.672 184.519H563.8V182.463H569.561V199.688C569.561 202.516 568.537 204.573 567.001 205.987C565.336 207.529 562.904 208.044 560.087 208.044C554.838 208.044 551.381 205.987 550.741 202.002ZM563.8 191.204C563.8 188.633 562.52 186.448 559.959 186.448C557.654 186.448 556.246 188.247 556.246 191.204C556.246 194.032 557.782 195.96 559.959 195.96C562.648 195.96 563.8 193.903 563.8 191.204Z" fill="#EEEFF3"/>
<path d="M571.609 175.006H577.627V179.891H571.609V175.006ZM571.609 182.462H577.627V201.487H571.609V182.462Z" fill="#EEEFF3"/>
<path d="M579.036 192.103C579.036 186.319 583.005 182.077 588.895 182.077C594.016 182.077 597.345 185.033 597.857 189.404H592.096C591.711 187.733 590.687 186.576 589.023 186.576C586.462 186.576 585.182 188.761 585.182 192.232C585.182 195.574 586.462 197.759 589.023 197.759C590.943 197.759 592.096 196.603 592.352 194.546H598.113C597.985 198.916 594.528 202.387 589.151 202.387C582.877 202.13 579.036 197.759 579.036 192.103Z" fill="#EEEFF3"/>
<path d="M598.753 196.217C598.753 191.975 602.082 190.818 606.051 190.176C609.636 189.79 610.916 189.404 610.916 188.119C610.916 186.833 610.148 186.062 608.355 186.062C606.435 186.062 605.411 186.962 605.283 188.504H599.777C599.905 185.034 602.594 181.948 608.355 181.948C611.172 181.948 613.093 182.463 614.501 183.491C616.165 184.648 616.934 186.576 616.934 188.89V198.531C616.934 200.074 617.062 200.845 617.574 201.231V201.488H611.684C611.428 201.102 611.172 200.331 611.044 199.431H610.916C609.764 200.974 608.099 202.002 605.283 202.002C601.442 202.002 598.753 199.945 598.753 196.217ZM610.916 194.675V192.361C610.148 192.746 608.996 193.004 607.843 193.389C605.539 193.903 604.514 194.546 604.514 195.96C604.514 197.503 605.667 198.017 607.075 198.017C609.38 198.145 610.916 196.731 610.916 194.675Z" fill="#EEEFF3"/>
<path d="M618.854 175.006H625V201.615H618.854V175.006Z" fill="#EEEFF3"/>
<path d="M413.104 189.79C415.665 184.519 423.347 181.691 428.981 181.691C432.31 181.691 437.559 183.105 439.607 184.005C447.802 178.092 457.788 170.379 457.788 160.738C457.788 155.982 452.923 153.925 448.186 149.555C442.808 144.798 440.504 140.428 440.76 135.671C440.76 135.157 440.888 134.514 441.016 134C422.835 137.214 409.007 153.154 409.007 172.307C408.879 178.606 410.416 184.519 413.104 189.79Z" fill="#EEEFF3"/>
<path d="M454.587 134C453.947 135.543 453.563 137.085 453.435 139.013C453.051 143.77 455.483 147.626 457.66 149.94C460.989 153.411 464.83 157.01 464.958 160.866C465.214 168.451 450.49 179.377 441.399 184.519C443.064 185.033 445.369 186.062 448.569 187.733C451.13 189.147 454.971 190.047 456.763 190.047C463.165 190.047 468.799 187.99 474.944 176.164C475.328 175.264 475.84 174.621 476.225 175.264C476.609 175.907 475.584 177.963 475.328 178.477C467.902 193.518 463.037 200.845 455.739 200.845C452.154 200.845 448.953 199.045 444.6 196.346C440.375 193.646 437.174 191.075 435.382 190.175C429.236 194.803 423.987 198.402 419.634 198.917C426.676 206.372 436.662 211 447.673 211C469.055 211 486.339 193.646 486.339 172.179C486.339 153.154 472.64 137.342 454.587 134Z" fill="#EEEFF3"/>
<path d="M433.719 189.275C430.902 187.733 426.549 185.419 423.732 185.419C420.403 185.419 417.074 188.375 417.074 191.975C417.074 194.546 418.355 195.831 420.147 195.831C422.836 195.831 428.853 192.874 433.719 189.275Z" fill="#EEEFF3"/>
<path d="M103.076 184.443C103.076 192.104 109.16 196.273 118.398 196.273C127.975 196.273 133.382 191.766 133.382 184.555C133.382 167.317 99.9217 180.048 99.9217 159.768C99.9217 151.655 107.132 145.684 118.06 145.684C128.651 145.684 136.086 150.528 136.086 159.655H132.368C132.368 152.557 126.285 148.838 118.06 148.838C109.836 148.838 103.752 153.007 103.752 159.43C103.752 176.105 137.326 163.26 137.326 184.33C137.326 193.231 130.453 199.315 118.398 199.315C106.681 199.315 99.3584 194.02 99.3584 184.33H103.076V184.443Z" fill="#EEEFF3"/>
<path d="M145.888 146.472H149.718V198.639H145.888V146.472Z" fill="#EEEFF3"/>
<path d="M200.98 188.499C197.374 196.048 190.502 199.428 181.827 199.428C167.181 199.428 157.267 187.485 157.267 172.612C157.267 157.176 167.632 145.796 182.278 145.796C194.445 145.796 201.881 152.894 204.021 161.683H200.078C198.388 155.035 192.53 149.289 182.278 149.289C169.659 149.289 161.21 159.204 161.21 172.612C161.21 185.456 169.547 195.935 181.827 195.935C191.741 195.935 200.642 190.301 200.642 178.584V174.865H182.165V171.598H204.134V198.639H201.543L200.98 188.499Z" fill="#EEEFF3"/>
<path d="M214.049 146.472H218.555L239.849 193.569H239.961L261.142 146.472H265.648V198.639H261.818L262.156 152.557L241.313 198.639H238.384L217.654 153.007H217.541L217.879 198.639H214.049V146.472Z" fill="#EEEFF3"/>
<path d="M290.772 146.472H295.165L314.994 198.639H311.051L304.854 182.302H280.745L274.548 198.639H270.718L290.772 146.472ZM292.8 150.416L281.984 179.147H303.728L292.912 150.416H292.8Z" fill="#EEEFF3"/>
<path d="M91.8106 181.401L90.4587 198.752H41L61.1665 172.725L42.8026 146.472H89.4448L91.4727 161.232H89.6701L87.9801 153.571C87.0788 149.627 85.1636 147.937 82.2344 147.937H50.1256L65.7857 170.133L46.8584 194.358H82.4597C85.5016 194.358 88.3181 192.78 88.8815 188.724L90.0081 181.175H91.8106V181.401Z" fill="#EEEFF3"/>
<path d="M882.596 134.417V150.867C882.596 161.571 877.526 161.571 875.273 161.571C873.583 161.571 872.344 161.233 871.33 160.557C875.724 155.149 877.414 150.529 877.526 144.219C877.864 132.276 871.33 124.615 857.81 120.671C849.811 118.305 845.981 115.939 845.981 108.953C845.981 101.066 852.853 95.658 862.655 95.658C872.907 95.658 879.779 101.63 879.779 110.531V114.699H891.046V110.531C891.046 95.4327 879.329 84.8416 862.655 84.8416C846.657 84.8416 834.94 94.982 834.94 108.953C834.94 125.065 847.896 129.009 854.881 131.037C865.359 134.192 866.26 139.262 866.26 144.107C866.26 145.797 865.922 147.487 865.246 149.177C862.542 143.543 858.148 138.022 848.459 138.022C837.982 138.022 831.109 144.783 831.109 155.261C831.109 165.402 838.207 172.5 848.459 172.5C854.881 172.5 859.951 170.247 863.218 167.993C865.922 170.585 869.64 172.5 875.16 172.5C886.652 172.5 893.524 164.388 893.524 150.98V134.53H882.596V134.417ZM848.572 148.839C852.966 148.839 854.543 151.43 856.796 156.839C857.022 157.402 857.247 157.965 857.472 158.529C857.585 158.641 857.585 158.754 857.698 158.979C855.219 160.557 852.403 161.683 848.685 161.683C844.629 161.571 842.376 159.317 842.376 155.261C842.376 149.515 845.755 148.839 848.572 148.839Z" fill="#EEEFF3"/>
<path d="M815.112 185.457L814.323 185.232C813.309 185.006 812.182 184.781 811.056 184.443C806.775 183.316 806.324 181.401 806.324 180.049C806.324 177.683 808.126 176.218 810.943 176.218C813.647 176.218 815.788 178.021 815.788 180.387V181.739H824.125V180.387C824.125 173.739 818.379 168.556 810.943 168.556C803.733 168.556 798.212 173.401 798.212 179.936C798.212 185.908 801.817 190.302 808.239 192.217C809.478 192.668 811.056 193.006 812.408 193.344C816.576 194.133 817.027 196.161 817.027 197.513C817.027 200.329 814.886 202.02 811.394 202.02C809.704 202.02 808.126 201.344 807 200.217C805.873 198.977 805.197 197.4 805.31 195.597V193.569L797.198 196.611V197.625C797.311 204.16 803.958 209.907 811.394 209.907C820.294 209.907 825.139 203.597 825.139 197.513C825.251 191.316 821.646 187.034 815.112 185.457Z" fill="#EEEFF3"/>
<path d="M834.377 182.414H826.716V208.779H834.377V182.414Z" fill="#EEEFF3"/>
<path d="M834.49 172.387H826.716V180.724H834.49V172.387Z" fill="#EEEFF3"/>
<path d="M836.518 209.005C836.518 215.765 842.489 219.371 848.234 219.371C853.98 219.371 859.951 215.765 859.951 209.005C859.951 206.076 858.712 203.371 856.459 201.569C858.712 199.541 859.951 196.724 859.951 193.569V182.415H853.98L853.755 183.541C852.29 182.527 850.375 181.964 848.347 181.964C841.813 181.964 836.63 187.147 836.63 193.682C836.63 196.836 837.87 199.653 840.123 201.681C837.757 203.484 836.518 206.076 836.518 209.005ZM848.234 189.288C850.713 189.288 852.403 191.09 852.403 193.682C852.403 196.273 850.713 198.076 848.234 198.076C845.756 198.076 844.066 196.273 844.066 193.682C844.179 191.09 845.869 189.288 848.234 189.288ZM848.234 205.625C850.713 205.625 852.403 206.977 852.403 209.005C852.403 210.92 850.713 212.272 848.234 212.272C845.756 212.272 844.066 210.92 844.066 209.005C844.179 206.977 845.756 205.625 848.234 205.625Z" fill="#EEEFF3"/>
<path d="M889.243 181.964C886.764 181.964 883.835 183.203 882.371 185.006L882.258 185.119C880.455 183.091 877.751 181.964 874.597 181.964C873.02 181.964 870.992 182.527 869.415 183.541L869.189 182.415H862.204V208.78H869.978V193.118C870.09 190.978 871.893 189.175 874.146 189.175C875.386 189.175 876.738 189.513 876.738 192.33V208.78H884.511V193.118C884.624 190.978 886.426 189.175 888.68 189.175C889.919 189.175 891.271 189.513 891.271 192.33V208.78H899.045V191.766C899.157 185.907 895.214 181.964 889.243 181.964Z" fill="#EEEFF3"/>
<path d="M914.254 209.343C916.395 209.343 918.648 208.667 920.338 207.54L920.676 208.78H927.661V182.414H920.676L920.338 183.654C918.648 182.527 916.395 181.851 914.254 181.851C906.593 181.851 900.847 187.71 900.847 195.597C900.735 203.484 906.593 209.343 914.254 209.343ZM914.479 189.287C917.859 189.287 920.338 191.992 920.338 195.71C920.338 199.428 917.859 202.132 914.479 202.132C911.776 202.132 908.508 200.442 908.508 195.71C908.508 190.977 911.776 189.287 914.479 189.287Z" fill="#EEEFF3"/>
<path d="M797.085 226.357L796.297 226.132C795.283 225.906 794.156 225.681 793.029 225.343C788.748 224.216 788.298 222.301 788.298 220.949C788.298 218.583 790.1 217.118 792.917 217.118C795.621 217.118 797.761 218.921 797.761 221.287V222.639H806.098V221.287C806.098 214.639 800.352 209.456 792.917 209.456C785.706 209.456 780.186 214.301 780.186 220.836C780.186 226.808 783.791 231.202 790.213 233.117C791.452 233.568 793.029 233.906 794.381 234.244C798.55 235.033 799 237.061 799 238.413C799 241.23 796.86 242.92 793.367 242.92C791.677 242.92 790.1 242.244 788.974 241.117C787.847 239.878 787.171 238.3 787.284 236.497V234.469L779.172 237.512V238.526C779.285 245.06 785.932 250.807 793.367 250.807C802.268 250.807 807.112 244.497 807.112 238.413C807.225 232.216 803.62 227.934 797.085 226.357Z" fill="#EEEFF3"/>
<path d="M823.787 239.089C823.674 241.23 821.759 243.032 819.618 243.032C817.14 243.032 816.126 242.018 816.013 239.427V223.427H808.239V239.427C808.239 245.962 812.633 250.356 819.167 250.356C820.745 250.356 822.773 249.793 824.35 248.779L824.575 249.905H831.56V223.54H823.787V239.089Z" fill="#EEEFF3"/>
<path d="M864.908 224.442C863.443 223.428 861.528 222.864 859.5 222.864C852.966 222.864 847.783 228.047 847.783 234.582C847.783 237.737 849.022 240.554 851.276 242.582C849.022 244.385 847.783 246.976 847.783 250.018C847.783 256.778 853.754 260.384 859.5 260.384C865.246 260.384 871.217 256.778 871.217 250.018C871.217 247.089 869.978 244.385 867.724 242.582C869.978 240.554 871.217 237.737 871.217 234.582V223.428H865.246L864.908 224.442ZM859.5 253.173C857.022 253.173 855.332 251.821 855.332 249.905C855.332 247.877 857.022 246.525 859.5 246.525C861.979 246.525 863.669 247.877 863.669 249.905C863.669 251.821 861.979 253.173 859.5 253.173ZM859.5 238.976C857.022 238.976 855.332 237.174 855.332 234.582C855.332 231.991 857.022 230.188 859.5 230.188C861.979 230.188 863.669 231.991 863.669 234.582C863.669 237.174 861.979 238.976 859.5 238.976Z" fill="#EEEFF3"/>
<path d="M880.681 223.315H873.02V249.68H880.681V223.315Z" fill="#EEEFF3"/>
<path d="M880.681 213.287H872.907V221.625H880.681V213.287Z" fill="#EEEFF3"/>
<path d="M900.847 239.765C900.171 241.342 898.369 242.92 896.003 242.92C891.609 242.92 890.032 239.427 890.032 236.497C890.032 233.568 891.609 230.075 896.003 230.075C898.369 230.075 900.171 231.653 900.734 233.23L901.41 234.807L907.832 230.638L907.156 229.512C904.79 225.23 900.622 222.751 895.665 222.751C888.116 222.751 882.258 228.723 882.258 236.497C882.258 244.159 888.116 250.243 895.665 250.243C900.622 250.243 904.79 247.765 907.156 243.483L907.832 242.356L901.41 238.187L900.847 239.765Z" fill="#EEEFF3"/>
<path d="M927.436 224.667C925.746 223.54 923.493 222.864 921.352 222.864C913.691 222.864 907.945 228.723 907.945 236.61C907.945 244.385 913.691 250.356 921.352 250.356C923.493 250.356 925.746 249.68 927.436 248.553L927.774 249.793H934.759V223.428H927.774L927.436 224.667ZM921.577 242.92C918.874 242.92 915.606 241.23 915.606 236.497C915.606 231.765 918.761 230.075 921.577 230.075C924.957 230.075 927.436 232.779 927.436 236.497C927.436 240.216 924.845 242.92 921.577 242.92Z" fill="#EEEFF3"/>
<path d="M945.011 243.821V208.78H937.237V243.821L937.913 249.793H945.687L945.011 243.821Z" fill="#EEEFF3"/>
<path d="M847.333 222.864C847.108 222.864 846.77 222.864 846.545 222.864C844.742 222.864 842.939 223.54 841.475 224.78L841.137 223.315H834.039V249.68H841.813V234.582C841.925 232.441 843.728 230.639 845.981 230.639H847.333L848.685 223.09C848.347 222.977 847.333 222.864 847.333 222.864Z" fill="#EEEFF3"/>
<path d="M1135.75 160.895C1135.75 160.557 1135.97 160.332 1136.31 160.332H1139.8C1140.14 160.332 1140.37 160.557 1140.37 160.895C1140.37 163.036 1141.16 164.726 1142.85 166.191C1144.54 167.543 1146.68 168.332 1149.38 168.332C1152.08 168.332 1154.34 167.768 1155.91 166.529C1157.6 165.29 1158.39 163.487 1158.39 161.121C1158.39 160.219 1158.17 159.431 1157.72 158.755C1157.27 158.079 1156.48 157.403 1155.46 156.952C1154.45 156.501 1153.44 156.051 1152.53 155.713C1151.63 155.374 1150.39 155.036 1148.93 154.586C1144.87 153.459 1141.72 152.22 1139.69 150.755C1137.55 149.29 1136.54 147.037 1136.54 144.107C1136.54 140.953 1137.78 138.361 1140.14 136.558C1142.51 134.756 1145.55 133.854 1149.04 133.854C1152.87 133.854 1155.91 134.868 1158.28 136.896C1160.65 138.924 1161.77 141.403 1161.77 144.333C1161.77 144.671 1161.55 144.896 1161.21 144.896H1157.72C1157.38 144.896 1157.15 144.671 1157.15 144.333C1157.15 142.643 1156.37 141.178 1154.79 139.938C1153.21 138.699 1151.3 138.136 1149.04 138.136C1146.68 138.136 1144.76 138.699 1143.3 139.713C1141.83 140.727 1141.04 142.079 1141.04 143.882C1141.04 144.671 1141.16 145.234 1141.38 145.797C1141.61 146.361 1141.94 146.924 1142.62 147.375C1143.18 147.826 1143.75 148.276 1144.09 148.502C1144.42 148.727 1145.21 149.178 1146.23 149.516L1148.48 150.192C1148.93 150.304 1149.72 150.642 1150.96 150.98C1152.87 151.544 1154.45 152.107 1155.69 152.558C1156.93 153.008 1158.17 153.572 1159.41 154.36C1160.65 155.149 1161.55 156.051 1162.11 157.177C1162.67 158.304 1163.01 159.543 1163.01 160.895C1163.01 164.839 1161.77 167.768 1159.18 169.796C1156.7 171.825 1153.44 172.839 1149.38 172.839C1145.32 172.839 1142.17 171.825 1139.58 169.684C1137.1 167.205 1135.75 164.388 1135.75 160.895Z" fill="#EEEFF3"/>
<path d="M1164.59 171.486V168.219C1164.59 167.881 1164.82 167.656 1165.15 167.656H1173.94V138.586H1165.72C1165.38 138.586 1165.15 138.361 1165.15 138.023V134.755C1165.15 134.417 1165.38 134.192 1165.72 134.192H1186.78C1187.12 134.192 1187.35 134.417 1187.35 134.755V138.023C1187.35 138.361 1187.12 138.586 1186.78 138.586H1178.56V167.768H1187.35C1187.69 167.768 1187.91 167.994 1187.91 168.332V171.599C1187.91 171.937 1187.69 172.162 1187.35 172.162H1165.27C1164.82 172.05 1164.59 171.937 1164.59 171.486Z" fill="#EEEFF3"/>
<path d="M1188.81 153.121C1188.81 146.924 1190.28 142.079 1193.09 138.699C1196.02 135.319 1199.52 133.629 1203.8 133.629C1207.4 133.629 1210.33 134.643 1212.7 136.783C1214.95 138.812 1216.3 141.628 1216.75 145.234C1216.75 145.572 1216.53 145.797 1216.19 145.797H1212.7C1212.25 145.797 1212.13 145.572 1212.02 145.234C1211.46 142.868 1210.56 141.065 1209.32 139.826C1207.97 138.586 1206.16 138.023 1203.8 138.023C1200.53 138.023 1198.05 139.375 1196.25 141.966C1194.45 144.558 1193.54 148.276 1193.54 153.121C1193.54 158.078 1194.45 161.797 1196.36 164.388C1198.16 166.979 1200.87 168.219 1204.47 168.219C1208.42 168.219 1211.23 166.529 1212.81 163.149V157.177H1203.68C1203.35 157.177 1203.12 156.952 1203.12 156.614V153.346C1203.12 153.008 1203.35 152.783 1203.68 152.783H1216.87C1217.2 152.783 1217.43 153.008 1217.43 153.346V163.036C1217.43 163.712 1217.2 164.388 1216.87 165.064C1215.74 167.317 1214.05 169.233 1211.91 170.585C1209.77 171.937 1207.29 172.613 1204.47 172.613C1199.85 172.613 1196.14 170.923 1193.21 167.543C1190.28 164.05 1188.81 159.318 1188.81 153.121Z" fill="#EEEFF3"/>
<path d="M1220.92 171.486V134.755C1220.92 134.417 1221.15 134.192 1221.48 134.192H1226.78C1227.34 134.192 1227.57 134.305 1227.68 134.643L1234.1 152.558L1240.64 134.643C1240.75 134.417 1240.97 134.192 1241.54 134.192H1246.83C1247.17 134.192 1247.4 134.417 1247.4 134.755V171.486C1247.4 171.824 1247.17 172.05 1246.83 172.05H1243.34C1243 172.05 1242.78 171.824 1242.78 171.486V140.84L1236.24 157.853C1236.13 158.078 1235.9 158.078 1235.57 158.191H1232.75C1232.3 158.191 1232.07 158.078 1232.07 157.853L1225.54 140.84V171.486C1225.54 171.824 1225.31 172.05 1224.98 172.05H1221.48C1221.03 172.05 1220.92 171.937 1220.92 171.486Z" fill="#EEEFF3"/>
<path d="M1249.42 171.486C1249.42 171.374 1249.42 171.261 1249.42 171.148L1262.04 134.755C1262.16 134.417 1262.27 134.192 1262.61 134.192H1267C1267.23 134.192 1267.45 134.417 1267.56 134.755L1280.18 171.148C1280.18 171.261 1280.18 171.374 1280.18 171.486C1280.18 171.824 1279.96 172.05 1279.62 172.05H1275.9C1275.56 172.05 1275.34 171.824 1275.22 171.486L1271.73 161.008H1257.65L1254.16 171.486C1254.04 171.824 1253.82 172.05 1253.48 172.05H1249.76C1249.65 172.05 1249.42 171.937 1249.42 171.486ZM1259.23 156.726H1270.49L1264.86 139.826L1259.23 156.726Z" fill="#EEEFF3"/>
<path d="M1092.6 210.02C1092.6 209.682 1092.82 209.456 1093.16 209.456H1096.65C1096.99 209.456 1097.22 209.682 1097.22 210.02C1097.22 212.16 1098.01 213.851 1099.7 215.315C1101.39 216.667 1103.53 217.456 1106.23 217.456C1108.93 217.456 1111.19 216.893 1112.77 215.653C1114.46 214.414 1115.24 212.611 1115.24 210.245C1115.24 209.344 1115.02 208.555 1114.57 207.879C1114.12 207.203 1113.33 206.527 1112.31 206.076C1111.3 205.625 1110.29 205.175 1109.39 204.837C1108.48 204.499 1107.24 204.161 1105.78 203.71C1101.72 202.583 1098.57 201.344 1096.54 199.879C1094.4 198.415 1093.39 196.161 1093.39 193.232C1093.39 190.077 1094.63 187.485 1096.99 185.683C1099.36 183.88 1102.4 182.979 1105.89 182.979C1109.72 182.979 1112.77 183.993 1115.13 186.021C1117.5 188.049 1118.62 190.528 1118.62 193.457C1118.62 193.795 1118.4 194.02 1118.06 194.02H1114.57C1114.23 194.02 1114 193.795 1114 193.457C1114 191.767 1113.22 190.302 1111.64 189.063C1110.06 187.823 1108.15 187.26 1105.89 187.26C1103.53 187.26 1101.61 187.823 1100.15 188.837C1098.68 189.851 1097.89 191.204 1097.89 193.006C1097.89 193.795 1098.01 194.358 1098.23 194.922C1098.46 195.485 1098.8 196.048 1099.47 196.499C1100.03 196.95 1100.6 197.4 1100.94 197.626C1101.39 197.964 1102.06 198.302 1103.08 198.64L1105.33 199.316C1105.78 199.429 1106.57 199.767 1107.81 200.105C1109.72 200.668 1111.3 201.231 1112.54 201.682C1113.78 202.133 1115.02 202.696 1116.26 203.485C1117.5 204.273 1118.4 205.175 1118.96 206.302C1119.52 207.428 1119.86 208.668 1119.86 210.02C1119.86 213.963 1118.62 216.893 1116.03 218.921C1113.55 220.949 1110.29 221.963 1106.23 221.963C1102.17 221.963 1099.02 220.949 1096.43 218.808C1093.95 216.442 1092.6 213.625 1092.6 210.02Z" fill="#EEEFF3"/>
<path d="M1123.24 208.443V183.993C1123.24 183.655 1123.47 183.43 1123.81 183.43H1127.3C1127.64 183.43 1127.86 183.655 1127.86 183.993V207.879C1127.86 214.302 1130.57 217.456 1135.97 217.456C1141.38 217.456 1144.09 214.302 1144.09 207.879V183.993C1144.09 183.655 1144.31 183.43 1144.65 183.43H1148.14C1148.48 183.43 1148.7 183.655 1148.7 183.993V208.443C1148.7 212.499 1147.47 215.766 1145.1 218.132C1142.73 220.499 1139.69 221.738 1135.97 221.738C1132.26 221.738 1129.21 220.499 1126.85 218.132C1124.48 215.766 1123.24 212.612 1123.24 208.443Z" fill="#EEEFF3"/>
<path d="M1154 220.724V183.993C1154 183.655 1154.23 183.43 1154.56 183.43H1167.52C1175.18 183.43 1179.01 186.81 1179.01 193.457C1179.01 198.19 1176.65 201.344 1171.91 202.922L1180.48 220.724C1180.48 220.837 1180.48 220.837 1180.48 220.949C1180.48 221.175 1180.36 221.287 1180.02 221.287H1175.97C1175.63 221.287 1175.41 221.062 1175.18 220.724L1166.84 203.485H1158.51V220.724C1158.51 221.062 1158.28 221.287 1157.94 221.287H1154.45C1154.11 221.287 1154 221.062 1154 220.724ZM1158.51 199.091H1167.97C1172.25 199.091 1174.39 197.176 1174.39 193.457C1174.39 189.627 1172.25 187.824 1167.97 187.824H1158.51V199.091Z" fill="#EEEFF3"/>
<path d="M1181.26 202.358C1181.26 196.161 1182.73 191.317 1185.54 187.936C1188.47 184.556 1191.97 182.866 1196.25 182.866C1199.85 182.866 1202.78 183.88 1205.15 186.021C1207.4 188.049 1208.75 190.866 1209.2 194.471C1209.2 194.809 1208.98 195.035 1208.64 195.035H1205.15C1204.7 195.035 1204.58 194.809 1204.47 194.471C1203.91 192.105 1203.01 190.303 1201.77 189.063C1200.42 187.824 1198.61 187.26 1196.25 187.26C1192.98 187.26 1190.5 188.612 1188.7 191.204C1186.9 193.795 1186 197.514 1186 202.358C1186 207.316 1186.9 211.034 1188.81 213.626C1190.61 216.217 1193.32 217.456 1196.92 217.456C1200.87 217.456 1203.68 215.766 1205.26 212.386V206.415H1196.14C1195.8 206.415 1195.57 206.189 1195.57 205.851V202.584C1195.57 202.246 1195.8 202.02 1196.14 202.02H1209.32C1209.65 202.02 1209.88 202.246 1209.88 202.584V212.273C1209.88 212.949 1209.65 213.626 1209.32 214.302C1208.19 216.555 1206.5 218.47 1204.36 219.822C1202.22 221.175 1199.74 221.851 1196.92 221.851C1192.3 221.851 1188.59 220.16 1185.66 216.78C1182.73 213.4 1181.26 208.555 1181.26 202.358Z" fill="#EEEFF3"/>
<path d="M1211.91 220.724V217.456C1211.91 217.118 1212.13 216.893 1212.47 216.893H1221.26V187.711H1213.03C1212.7 187.711 1212.47 187.486 1212.47 187.148V183.88C1212.47 183.542 1212.7 183.317 1213.03 183.317H1234.1C1234.44 183.317 1234.67 183.542 1234.67 183.88V187.148C1234.67 187.486 1234.44 187.711 1234.1 187.711H1225.88V216.893H1234.67C1235 216.893 1235.23 217.118 1235.23 217.456V220.724C1235.23 221.062 1235 221.287 1234.67 221.287H1212.58C1212.13 221.287 1211.91 221.062 1211.91 220.724Z" fill="#EEEFF3"/>
<path d="M1240.64 216.78C1237.82 213.4 1236.47 208.668 1236.47 202.358C1236.47 196.049 1237.82 191.317 1240.64 187.936C1243.45 184.556 1246.95 182.866 1251.23 182.866C1254.95 182.866 1257.99 183.993 1260.47 186.134C1262.83 188.387 1264.41 191.542 1264.86 195.598C1264.86 195.936 1264.63 196.161 1264.3 196.161H1261.03C1260.58 196.161 1260.35 195.936 1260.35 195.598C1259.79 192.669 1258.78 190.528 1257.42 189.176C1256.07 187.824 1254.04 187.148 1251.34 187.148C1248.19 187.148 1245.71 188.387 1243.9 190.979C1242.1 193.57 1241.2 197.288 1241.2 202.246C1241.2 207.091 1242.1 210.921 1243.9 213.513C1245.71 216.104 1248.19 217.344 1251.34 217.344C1254.16 217.344 1256.18 216.668 1257.54 215.316C1258.89 213.964 1259.79 211.823 1260.47 208.893C1260.47 208.555 1260.69 208.33 1261.14 208.33H1264.41C1264.86 208.33 1264.97 208.555 1264.97 208.893C1264.41 213.062 1262.94 216.217 1260.58 218.358C1258.21 220.498 1255.06 221.625 1251.45 221.625C1246.95 221.738 1243.34 220.16 1240.64 216.78Z" fill="#EEEFF3"/>
<path d="M1264.41 220.724C1264.41 220.611 1264.41 220.499 1264.41 220.386L1277.03 183.993C1277.14 183.655 1277.25 183.43 1277.59 183.43H1281.98C1282.21 183.43 1282.43 183.655 1282.55 183.993L1295.16 220.386C1295.16 220.499 1295.16 220.611 1295.16 220.724C1295.16 221.062 1294.94 221.287 1294.6 221.287H1290.88C1290.55 221.287 1290.32 221.062 1290.21 220.724L1286.72 210.245H1272.63L1269.14 220.724C1269.03 221.062 1268.8 221.287 1268.46 221.287H1264.75C1264.63 221.287 1264.41 221.062 1264.41 220.724ZM1274.21 205.964H1285.48L1279.84 189.063L1274.21 205.964Z" fill="#EEEFF3"/>
<path d="M1298.32 220.724V183.993C1298.32 183.655 1298.55 183.43 1298.88 183.43H1302.38C1302.71 183.43 1302.94 183.655 1302.94 183.993V216.893H1321.87C1322.2 216.893 1322.43 217.118 1322.43 217.456V220.724C1322.43 221.062 1322.2 221.287 1321.87 221.287H1299C1298.55 221.287 1298.32 221.062 1298.32 220.724Z" fill="#EEEFF3"/>
<path d="M1127.3 139.375V144.445C1127.3 148.051 1125.5 148.051 1124.82 148.051C1124.14 148.051 1123.69 147.938 1123.35 147.6C1124.82 145.797 1125.38 144.445 1125.38 142.417C1125.5 138.699 1123.47 136.22 1119.19 134.981C1116.93 134.305 1115.36 133.629 1115.36 131.15C1115.36 128.559 1117.61 126.756 1120.76 126.756C1124.14 126.756 1126.4 128.671 1126.4 131.601V132.84H1129.78V131.601C1129.78 126.868 1126.06 123.488 1120.88 123.488C1115.81 123.488 1112.2 126.643 1112.2 131.037C1112.2 136.107 1116.26 137.347 1118.51 138.023C1121.66 138.924 1122.23 140.389 1122.23 142.304C1122.23 142.98 1122.12 143.544 1121.78 144.22C1120.99 142.304 1119.52 140.389 1116.37 140.389C1113.1 140.389 1110.96 142.53 1110.96 145.797C1110.96 148.952 1113.22 151.205 1116.37 151.205C1118.51 151.205 1120.09 150.417 1121.1 149.741C1121.89 150.529 1123.13 151.205 1124.93 151.205C1128.54 151.205 1130.68 148.727 1130.68 144.445V139.375H1127.3ZM1116.26 143.656C1117.83 143.656 1118.29 144.671 1118.96 146.248C1119.07 146.473 1119.07 146.586 1119.19 146.811C1119.19 146.924 1119.3 146.924 1119.3 147.037C1118.51 147.6 1117.5 147.938 1116.26 147.938C1114.91 147.938 1114.12 147.149 1114.12 145.797C1114.12 143.882 1115.36 143.656 1116.26 143.656Z" fill="#EEEFF3" stroke="white" stroke-width="0.5" stroke-miterlimit="10"/>
</svg>
