<svg width="1380" height="627" viewBox="0 0 1380 627" fill="none" xmlns="http://www.w3.org/2000/svg">
<rect width="1380" height="627" fill="#3A72F2"/>
<path d="M413.251 198.714V427.996H383.629V198.714H413.251Z" fill="#EEEFF3"/>
<path d="M654.22 216.069C672.193 229.419 684.508 247.441 690.832 270.135H659.546C654.22 256.118 645.234 245.105 632.586 236.761C619.939 228.418 604.961 224.079 587.654 224.079C572.011 224.079 558.032 227.75 545.718 235.092C533.403 242.435 523.751 252.781 516.761 266.131C509.772 279.48 506.111 295.5 506.111 313.522C506.111 332.212 509.772 348.232 516.761 361.915C523.751 375.599 533.736 385.945 546.383 393.287C559.031 400.629 573.675 404.3 589.984 404.3C603.963 404.3 616.943 401.297 628.592 395.289C640.241 389.282 649.894 380.271 657.216 368.924C664.538 357.243 669.198 343.559 670.529 328.207H580.665V306.18H695.491V333.547C693.494 351.903 687.836 368.256 678.517 382.941C669.198 397.626 656.55 409.307 640.907 417.984C625.264 426.661 607.291 431 586.989 431C565.022 431 545.385 425.994 528.743 416.315C511.769 406.303 498.788 392.619 489.469 374.931C480.15 357.243 475.49 336.884 475.49 314.19C475.49 291.495 480.15 271.137 489.469 253.448C498.788 235.76 512.102 222.076 528.743 212.064C545.718 202.052 565.022 197.046 586.656 197.046C613.948 196.378 636.248 203.053 654.22 216.069Z" fill="#EEEFF3"/>
<path d="M987.717 202.719V428.33H958.095V248.108L886.537 427.996H860.243L788.351 248.776V427.996H758.729V202.719H794.01L873.889 391.952L952.437 202.719H987.717V202.719Z" fill="#EEEFF3"/>
<path d="M1191.74 374.931H1091.23L1071.92 427.996H1039.97L1124.51 202.719H1157.79L1242 427.996H1210.05L1191.74 374.931ZM1183.09 351.903L1141.15 236.094L1099.22 351.903H1183.09Z" fill="#EEEFF3"/>
<path d="M309.075 198.714C247.501 198.714 216.548 237.762 216.548 314.523C216.548 391.284 184.263 401.964 152.312 401.964H138V430.333H152.312C213.885 430.333 244.839 391.284 244.839 314.523C244.839 237.762 277.456 227.083 309.075 227.083H323.387V198.714H309.075Z" fill="#EEEFF3"/>
</svg>
