<svg width="1380" height="516" viewBox="0 0 1380 516" fill="none" xmlns="http://www.w3.org/2000/svg">
<path d="M1380 0H0V516H1380V0Z" fill="#3A72F2"/>
<path d="M364.909 295.3C370.39 284.073 386.388 277.95 398.246 277.95C405.294 277.95 416.369 280.898 420.62 282.826C437.848 270.238 458.991 253.682 458.991 233.383C458.991 223.177 448.811 218.868 438.743 209.569C427.444 199.362 422.522 190.177 422.969 179.971C423.081 178.723 423.193 177.589 423.417 176.342C385.157 183.146 355.959 216.94 355.959 257.764C356.071 271.372 359.315 284.073 364.909 295.3Z" fill="#EEEFF3"/>
<path d="M452.391 176.568C451.049 179.743 450.154 183.259 449.93 187.341C449.259 197.547 454.181 205.826 458.88 210.589C465.927 217.846 473.982 225.671 474.206 233.836C474.653 249.825 443.553 273.186 424.535 284.299C428.115 285.32 432.814 287.701 439.638 291.104C445.008 294.052 453.062 295.98 456.866 295.98C470.29 295.98 482.372 291.557 495.237 266.382C496.132 264.454 497.139 262.98 497.81 264.454C498.482 265.928 496.356 270.238 495.909 271.258C480.359 303.237 469.955 318.773 454.628 318.773C447.133 318.773 440.309 314.918 431.024 309.021C422.074 303.237 415.25 297.908 411.67 295.866C398.693 305.619 387.618 313.33 378.333 314.578C393.212 330.454 414.243 340.433 437.512 340.433C482.596 340.433 519.066 303.464 519.066 257.764C519.289 217.279 490.427 183.599 452.391 176.568Z" fill="#EEEFF3"/>
<path d="M408.427 294.053C402.497 290.651 393.324 285.774 387.507 285.774C380.459 285.774 373.411 292.125 373.411 299.836C373.411 305.166 376.208 308.114 379.788 308.114C385.381 308.114 398.134 301.764 408.427 294.053Z" fill="#EEEFF3"/>
<path d="M257.737 286.227L253.486 340.659H100L162.759 259.01L105.594 176.568H250.354L256.506 222.949H250.801L245.431 199.021C242.523 186.547 236.594 181.444 227.756 181.444H128.303L176.743 251.299L118.011 327.391H228.427C237.824 327.391 246.55 322.515 248.452 309.814L251.92 286.227H257.737Z" fill="#EEEFF3"/>
<path d="M992.501 269.557V300.289C992.501 320.361 983.104 320.361 978.964 320.361C975.944 320.361 973.595 319.68 971.693 318.433C979.747 308.34 982.88 299.608 983.104 287.928C983.663 265.701 971.805 251.186 946.746 243.815C931.979 239.392 924.931 235.083 924.931 221.929C924.931 207.3 937.572 196.98 955.584 196.98C974.49 196.98 987.243 208.207 987.243 224.764V232.588H1008.05V224.764C1008.05 196.413 986.46 176.681 955.584 176.681C925.938 176.681 904.459 195.733 904.459 221.929C904.459 252.207 928.399 259.464 941.376 263.32C960.841 269.217 962.408 278.629 962.408 287.815C962.408 290.99 961.848 294.052 960.618 297.227C955.584 286.567 947.529 276.248 929.63 276.248C910.164 276.248 897.635 288.949 897.635 308.454C897.635 327.392 910.835 340.66 929.63 340.66C941.6 340.66 950.773 336.464 956.814 332.381C961.736 337.144 968.672 340.66 978.853 340.66C1000.11 340.66 1012.75 325.577 1012.75 300.289V269.557H992.501ZM929.63 296.433C937.796 296.433 940.593 301.196 944.732 311.289C945.18 312.423 945.627 313.443 946.075 314.464C946.186 314.691 946.298 315.031 946.41 315.258C941.935 318.093 936.566 320.361 929.853 320.247C922.47 320.134 918.107 315.825 918.107 308.34C918.107 297.794 924.26 296.433 929.63 296.433Z" fill="#EEEFF3"/>
<path d="M743.923 276.589C743.14 276.589 742.581 277.156 742.581 277.95V303.352C742.581 321.836 735.645 331.135 721.885 331.135C713.942 331.135 709.132 327.846 705.776 322.97C716.291 311.29 719.871 302.558 720.095 289.857C720.543 268.878 709.579 255.723 685.415 248.466C670.76 244.156 657.56 238.6 657.56 218.868C657.56 199.703 674.005 185.868 696.714 185.868C720.766 185.868 736.876 200.383 736.876 222.043V222.837C736.876 223.631 737.435 224.198 738.218 224.198H745.601C746.385 224.198 746.944 223.631 746.944 222.837V222.043C746.944 208.662 742.022 197.208 732.736 188.93C723.675 180.765 711.145 176.456 696.602 176.456C668.299 176.456 647.715 194.26 647.715 218.868C647.715 246.765 669.753 253.455 682.954 257.424C696.938 261.62 710.027 268.538 710.027 289.744C710.027 297.909 707.342 305.28 700.965 314.012C695.707 300.177 690.226 283.62 668.523 283.62C650.847 283.62 640.22 294.28 640.22 312.084C640.22 329.094 651.63 340.547 668.523 340.547C683.29 340.547 693.806 333.517 698.728 329.434C703.426 335.898 710.25 340.547 721.661 340.547C740.903 340.547 751.978 326.939 751.978 303.352V277.95C751.978 277.156 751.419 276.589 750.636 276.589H743.923ZM650.288 312.197C650.288 299.95 656.888 293.146 668.859 293.146C682.73 293.146 686.981 303.692 690.785 313.104C691.233 314.238 691.68 315.372 692.128 316.393C692.911 318.207 693.694 320.022 694.477 321.836C688.324 326.599 679.934 331.475 668.859 331.249C657.672 331.022 650.288 323.537 650.288 312.197Z" fill="#EEEFF3"/>
<path d="M1269.04 176.456C1225.86 176.456 1204.05 204.126 1204.05 258.558C1204.05 313.104 1181.34 320.475 1158.96 320.475H1149.01V340.661H1158.96C1202.14 340.661 1223.96 312.991 1223.96 258.558C1223.96 204.012 1246.78 196.641 1269.04 196.641H1279V176.456H1269.04Z" fill="#EEEFF3"/>
<path d="M295.213 260.372H303.156H311.882L304.722 267.63H309.756L318.706 258.558L309.756 249.599H304.722L311.882 256.744H303.156H295.213V260.372Z" fill="#EEEFF3"/>
<path d="M568.177 260.372H576.12H584.845L577.798 267.63H582.72L591.67 258.558L582.72 249.599H577.798L584.845 256.743H576.12H568.177V260.372Z" fill="#EEEFF3"/>
<path d="M813.284 260.372H821.227H829.953L822.793 267.63H827.827L836.665 258.558L827.827 249.599H822.793L829.953 256.743H821.227H813.284V260.372Z" fill="#EEEFF3"/>
<path d="M1069.24 260.372H1077.19H1085.91L1078.75 267.63H1083.79L1092.74 258.558L1083.79 249.599H1078.75L1085.91 256.743H1077.19H1069.24V260.372Z" fill="#EEEFF3"/>
</svg>
