<svg width="1380" height="631" viewBox="0 0 1380 631" fill="none" xmlns="http://www.w3.org/2000/svg">
<rect width="1380" height="631" fill="#FFD919"/>
<path d="M540.384 276.682C547.197 276.682 552.193 275.773 555.827 274.182C559.234 272.364 562.186 269.409 564.684 264.864C565.593 263.046 566.728 260.773 567.864 257.591C569.453 253.273 571.27 251 573.087 251C574.45 251 575.585 251.682 576.494 253.273C577.402 254.864 577.856 257.137 577.856 259.864C577.856 267.364 576.494 274.409 573.995 280.546C571.497 286.909 568.772 290.091 566.274 290.091C566.047 290.091 565.138 289.864 564.003 289.637C559.688 288.5 555.6 287.818 551.285 287.818H494.736C489.058 287.818 484.97 287.364 482.699 286.455C480.428 285.546 479.065 283.955 479.065 281.909C479.065 280.091 480.882 278.727 484.516 277.364C488.15 276 490.194 275.318 490.648 274.637C491.556 273.5 492.238 268.955 492.692 261C493.146 253.273 493.373 238.955 493.373 218.046C493.373 197.364 493.146 183.273 492.692 175.546C492.238 167.818 491.556 163.273 490.648 162.137C490.194 161.455 488.15 160.546 484.516 159.409C480.882 158.273 479.065 156.682 479.065 155.091C479.065 152.591 480.882 151 484.289 149.864C487.695 148.727 493.373 148.273 501.095 148.273C508.816 148.273 514.494 148.727 517.9 149.864C521.307 151 523.124 152.818 523.124 155.091C523.124 156.909 521.307 158.273 517.673 159.409C514.04 160.546 511.996 161.455 511.542 162.364C510.633 163.727 509.725 168.727 509.498 177.591C509.043 186.455 508.816 200.091 508.816 218.273C508.816 236.455 509.043 249.182 509.27 256.682C509.498 264.182 510.179 268.955 511.087 271.227C511.996 273.273 514.04 274.637 517.219 275.546C520.399 276.455 525.622 276.909 532.889 276.909H540.384V276.682Z" fill="#FF1E46"/>
<path d="M650.303 231C650.303 230.319 650.303 229.41 650.531 228.728C650.531 227.819 650.531 226.682 650.531 225.091C650.531 215.546 648.941 208.728 645.988 204.637C643.036 200.546 638.267 198.5 631.454 198.5C628.047 198.5 624.868 199.182 622.142 200.546C619.417 201.91 616.919 203.955 614.421 206.682C613.967 207.364 613.285 208.273 612.15 209.637C608.97 213.955 606.018 216.228 602.838 216.228C601.022 216.228 599.432 215.546 598.069 214.41C596.934 213.273 596.252 211.682 596.252 209.637C596.252 205.091 599.886 200.773 606.926 196.682C613.967 192.591 622.142 190.546 631.454 190.546C643.036 190.546 651.439 193.5 656.89 199.182C662.34 204.864 665.065 213.728 665.065 225.773C665.065 229.182 665.065 233.955 664.838 239.637C664.611 245.319 664.611 249.41 664.611 251.682C664.611 263.046 664.838 270.091 665.52 273.273C666.201 276.455 667.109 277.819 668.699 277.819C669.38 277.819 670.062 277.819 670.97 277.591C671.878 277.364 672.56 277.364 672.787 277.364C673.695 277.364 674.377 277.591 674.831 278.046C675.285 278.5 675.512 279.182 675.512 280.091C675.512 282.364 674.15 284.41 671.197 286.682C668.245 288.955 665.292 290.091 662.34 290.091C658.706 290.091 654.618 286 650.303 278.273C649.849 277.591 649.622 277.137 649.395 276.682H648.032C643.717 281 639.175 284.182 634.406 286.228C629.637 288.273 624.413 289.41 618.509 289.41C609.425 289.41 601.93 286.91 596.479 281.91C591.029 276.91 588.304 270.319 588.304 261.91C588.304 251.91 591.937 244.182 599.205 238.5C606.472 232.819 616.692 230.091 629.864 230.091C633.043 230.091 636.45 230.091 639.857 230.319C643.49 230.319 646.897 230.546 650.303 231ZM650.303 239.182C647.124 238.728 643.945 238.273 641.219 238.046C638.494 237.819 635.996 237.591 633.498 237.591C623.959 237.591 616.919 239.41 611.923 243.273C607.153 247.137 604.655 252.819 604.655 260.091C604.655 266.228 606.472 271 609.879 274.41C613.285 277.819 618.055 279.637 624.186 279.637C631.908 279.637 638.267 277.137 643.036 272.364C647.805 267.591 650.303 261.228 650.303 253.273V239.182V239.182Z" fill="#FF1E46"/>
<path d="M757.497 176.227C757.497 171 757.27 167.136 756.588 165.091C755.907 162.818 754.999 161.682 753.636 161.227C752.955 161 751.819 160.773 750.457 160.773C746.823 160.318 745.006 158.955 745.006 156.682C745.006 155.318 745.687 154.182 746.823 153.273C747.958 152.364 749.775 151.227 752.501 150.318C756.134 148.955 759.314 148.045 762.493 147.136C765.673 146.227 767.717 146 769.306 146C771.123 146 772.259 146.455 772.94 147.364C773.621 148.273 773.848 150.318 773.848 152.818C773.848 155.318 773.621 164.409 772.94 180.091C772.259 195.545 772.032 209.864 772.032 223.045C772.032 241.227 772.259 253.955 772.486 261.227C772.713 268.5 773.621 272.818 774.53 274.182C774.984 275.091 777.028 275.545 780.207 276C783.387 276.455 785.204 277.818 785.204 279.864C785.204 281.909 782.478 284.409 777.255 286.682C772.032 289.182 767.035 290.318 762.266 290.318C760.449 290.318 759.314 289.864 758.632 288.955C757.951 288.045 757.497 286.227 757.497 283.5V280.318C757.497 279.409 757.497 278.727 757.27 278.273C757.043 277.818 756.816 277.818 756.588 277.818C755.68 277.818 754.317 278.5 752.273 280.091C751.365 280.773 750.911 281.227 750.457 281.455C746.369 284.409 742.508 286.227 738.647 287.591C734.786 288.727 730.471 289.409 725.475 289.409C712.984 289.409 702.992 285.091 695.043 276.227C687.094 267.364 683.233 256 683.233 241.909C683.233 227.136 687.775 214.864 696.633 204.864C705.49 195.091 716.618 190.091 729.79 190.091C738.193 190.091 746.142 192.136 753.636 196.227C754.772 196.909 755.453 197.136 755.68 197.136C756.134 197.136 756.588 196.682 757.043 195.773C757.27 194.864 757.497 193.5 757.497 191.682V176.227V176.227ZM757.497 224.409C757.497 216.227 755.453 210.091 751.138 205.773C746.823 201.455 740.691 199.409 732.515 199.409C722.977 199.409 715.482 203.273 709.578 210.773C703.673 218.273 700.721 228.273 700.721 240.545C700.721 251.909 703.446 261 708.896 268.045C714.347 275.091 721.387 278.5 730.244 278.5C734.332 278.5 738.42 277.591 742.508 276C746.596 274.409 750.229 272.136 753.409 269.409C754.999 268.045 756.134 266.455 756.816 264.864C757.497 263.273 757.724 260.545 757.724 256.909V254.409V224.409H757.497Z" fill="#FF1E46"/>
<path d="M864.236 176.227C864.236 171 864.009 167.136 863.328 165.091C862.646 162.818 861.738 161.682 860.375 161.227C859.694 161 858.558 160.773 857.196 160.773C853.562 160.318 851.745 158.955 851.745 156.682C851.745 155.318 852.427 154.182 853.562 153.273C854.698 152.364 856.515 151.227 859.24 150.318C862.873 148.955 866.053 148.045 869.232 147.136C872.412 146.227 874.456 146 876.046 146C877.862 146 878.998 146.455 879.679 147.364C880.361 148.273 880.588 150.318 880.588 152.818C880.588 155.318 880.361 164.409 879.679 180.091C878.998 195.545 878.771 209.864 878.771 223.045C878.771 241.227 878.998 253.955 879.225 261.227C879.452 268.5 880.361 272.818 881.269 274.182C881.723 275.091 883.767 275.545 886.947 276C890.126 276.455 891.943 277.818 891.943 279.864C891.943 281.909 889.218 284.409 883.994 286.682C878.771 289.182 873.775 290.318 869.005 290.318C867.188 290.318 866.053 289.864 865.372 288.955C864.69 288.045 864.236 286.227 864.236 283.5V280.318C864.236 279.409 864.236 278.727 864.009 278.273C863.782 277.818 863.555 277.818 863.328 277.818C862.419 277.818 861.057 278.5 859.013 280.091C858.104 280.773 857.65 281.227 857.196 281.455C853.108 284.409 849.247 286.227 845.386 287.591C841.526 288.727 837.211 289.409 832.214 289.409C819.723 289.409 809.731 285.091 801.782 276.227C793.833 267.364 789.973 256 789.973 241.909C789.973 227.136 794.515 214.864 803.372 204.864C812.229 195.091 823.357 190.091 836.529 190.091C844.932 190.091 852.881 192.136 860.375 196.227C861.511 196.909 862.192 197.136 862.419 197.136C862.873 197.136 863.328 196.682 863.782 195.773C864.009 194.864 864.236 193.5 864.236 191.682V176.227V176.227ZM864.236 224.409C864.236 216.227 862.192 210.091 857.877 205.773C853.562 201.455 847.43 199.409 839.254 199.409C829.716 199.409 822.222 203.273 816.317 210.773C810.412 218.273 807.46 228.273 807.46 240.545C807.46 251.909 810.185 261 815.636 268.045C821.086 275.091 828.126 278.5 836.983 278.5C841.071 278.5 845.159 277.591 849.247 276C853.335 274.409 856.969 272.136 860.148 269.409C861.738 268.045 862.873 266.455 863.555 264.864C864.236 263.273 864.463 260.545 864.463 256.909V254.409V224.409H864.236Z" fill="#FF1E46"/>
<path d="M976.653 236H917.833C916.698 236 915.789 236.227 915.335 236.682C914.881 237.136 914.654 238.045 914.654 239.636C914.654 251.227 917.833 260.773 923.965 268.273C930.097 275.773 938.045 279.409 947.584 279.409C951.218 279.409 954.851 278.727 958.485 277.591C961.891 276.454 965.071 274.636 968.023 272.136C969.613 271 971.657 268.954 974.155 266C976.88 263.045 978.924 261.454 980.741 261.454C981.877 261.454 982.558 261.682 983.239 262.364C983.921 263.045 984.375 263.727 984.375 264.863C984.375 266.227 983.921 267.818 983.012 269.409C982.104 271 980.968 272.818 979.379 274.409C974.609 279.636 969.386 283.5 963.254 286.227C957.122 288.954 950.536 290.318 943.496 290.318C930.097 290.318 919.196 285.773 910.566 276.454C901.936 267.136 897.394 255.545 897.394 241.454C897.394 226.454 901.936 214.182 911.02 204.409C920.104 194.636 931.686 189.636 945.313 189.636C957.122 189.636 966.661 193.045 973.701 199.636C980.741 206.454 984.148 215.318 984.148 226.909C984.148 230.545 983.694 233.045 983.012 234.182C982.558 235.318 980.287 236 976.653 236ZM918.287 228.045H965.525C966.888 228.045 968.023 227.818 968.478 227.363C968.932 226.909 969.159 225.773 969.159 224.409C969.159 217.136 966.661 211 961.891 206.227C956.895 201.454 950.763 198.954 943.269 198.954C939.181 198.954 935.547 199.864 931.914 201.454C928.28 203.273 925.1 205.773 922.375 208.954C920.104 211.454 918.514 214.409 917.152 217.364C915.789 220.318 915.108 223.045 915.108 225.318C915.108 226.227 915.335 226.909 915.789 227.363C916.243 227.818 917.152 228.045 918.287 228.045Z" fill="#FF1E46"/>
<path d="M1020.71 208.273C1024.57 202.136 1028.89 197.591 1033.43 194.182C1037.97 191 1042.29 189.182 1046.37 189.182C1049.78 189.182 1052.73 190.318 1054.78 192.363C1056.82 194.409 1057.96 197.363 1057.96 201C1057.96 204.182 1057.05 206.682 1055 208.727C1052.96 210.773 1050.69 211.682 1047.51 211.682C1044.79 211.682 1042.74 210.773 1040.92 209.182C1039.11 207.591 1038.2 205.091 1037.75 202.136C1031.16 204.182 1026.62 207.591 1024.12 212.136C1021.62 216.682 1020.26 226.682 1020.26 241.909C1020.26 253.273 1020.49 261.682 1020.71 266.682C1020.94 271.682 1021.62 274.636 1022.3 275.773C1023.21 277.136 1025.48 278.273 1028.89 278.727C1030.02 278.954 1030.93 278.954 1031.61 279.182C1032.98 279.409 1034.11 279.863 1034.79 280.545C1035.7 281.227 1035.93 281.909 1035.93 282.818C1035.93 284.863 1034.11 286.227 1030.7 287.136C1027.3 288.045 1021.62 288.5 1014.13 288.5C1007.31 288.5 1002.54 288.045 999.591 287.136C996.639 286.227 995.276 284.863 995.276 282.818C995.276 281.227 996.639 280.091 999.137 279.182C1001.64 278.273 1003.45 277.591 1003.91 277.136C1004.81 276.227 1005.5 274.182 1005.95 271C1006.4 267.818 1006.63 262.363 1006.63 254.409C1006.63 243.727 1006.4 234.863 1006.18 227.818C1005.95 220.773 1005.5 215.545 1004.81 212.136C1004.36 209.636 1003.91 207.818 1003 206.682C1002.09 205.773 1000.27 205.318 997.32 205.318H995.503C994.595 205.318 993.687 204.863 992.778 204.182C992.097 203.5 991.643 202.591 991.643 201.454C991.643 200.318 992.097 199.182 993.005 198.273C993.914 197.363 995.73 196.227 998.229 195.091C1001.41 193.5 1004.36 192.136 1007.31 191C1010.27 189.863 1012.31 189.409 1013.44 189.409C1015.03 189.409 1016.4 190.773 1017.31 193.5C1018.21 196.227 1019.12 201 1019.58 207.818L1020.71 208.273Z" fill="#FF1E46"/>
<path d="M587.168 435.773C593.981 435.773 598.978 434.864 602.611 433.273C606.018 431.455 608.97 428.5 611.468 423.955C612.377 422.137 613.512 419.864 614.648 416.682C616.238 412.364 618.054 410.091 619.871 410.091C621.234 410.091 622.369 410.773 623.278 412.364C624.186 413.955 624.64 416.227 624.64 418.955C624.64 426.455 623.278 433.5 620.78 439.636C618.281 446 615.556 449.182 613.058 449.182C612.831 449.182 611.923 448.955 610.787 448.727C606.472 447.591 602.384 446.909 598.069 446.909H541.52C535.842 446.909 531.754 446.455 529.483 445.546C527.212 444.637 525.85 443.046 525.85 441C525.85 439.182 527.666 437.818 531.3 436.455C534.934 435.091 536.978 434.409 537.432 433.727C538.34 432.591 539.022 428.046 539.476 420.091C539.93 412.364 540.157 398.046 540.157 377.136C540.157 356.455 539.93 342.364 539.476 334.636C539.022 326.909 538.34 322.364 537.432 321.227C536.978 320.546 534.934 319.637 531.3 318.5C527.666 317.364 525.85 315.773 525.85 314.182C525.85 311.682 527.666 310.091 531.073 308.955C534.48 307.818 540.157 307.364 547.879 307.364C555.6 307.364 561.278 307.818 564.685 308.955C568.091 310.091 569.908 311.909 569.908 314.182C569.908 316 568.091 317.364 564.458 318.5C560.824 319.637 558.78 320.546 558.326 321.455C557.417 322.818 556.509 327.818 556.282 336.682C555.828 345.546 555.6 359.182 555.6 377.364C555.6 395.546 555.828 408.273 556.055 415.773C556.282 423.273 556.963 428.046 557.871 430.318C558.78 432.364 560.824 433.727 564.003 434.636C567.183 435.546 572.406 436 579.674 436H587.168V435.773Z" fill="#FF1E46"/>
<path d="M711.849 395.091H653.028C651.893 395.091 650.984 395.318 650.53 395.773C650.076 396.227 649.849 397.136 649.849 398.727C649.849 410.318 653.028 419.863 659.16 427.363C665.292 434.863 673.241 438.5 682.779 438.5C686.413 438.5 690.047 437.818 693.68 436.682C697.087 435.545 700.266 433.727 703.219 431.227C704.808 430.091 706.852 428.045 709.35 425.091C712.076 422.136 714.12 420.545 715.937 420.545C717.072 420.545 717.753 420.773 718.435 421.454C719.116 422.136 719.57 422.818 719.57 423.954C719.57 425.318 719.116 426.909 718.208 428.5C717.299 430.091 716.164 431.909 714.574 433.5C709.805 438.727 704.581 442.591 698.449 445.318C692.318 448.045 685.732 449.409 678.691 449.409C665.292 449.409 654.391 444.863 645.761 435.545C637.131 426.227 632.589 414.636 632.589 400.545C632.589 385.545 637.131 373.273 646.215 363.5C655.299 353.727 666.882 348.727 680.508 348.727C692.318 348.727 701.856 352.136 708.896 358.727C715.937 365.545 719.343 374.409 719.343 386C719.343 389.636 718.889 392.136 718.208 393.273C717.526 394.409 715.482 395.091 711.849 395.091ZM653.483 387.136H700.72C702.083 387.136 703.219 386.909 703.673 386.454C704.127 386 704.354 384.863 704.354 383.5C704.354 376.227 701.856 370.091 697.087 365.318C692.09 360.545 685.959 358.045 678.464 358.045C674.376 358.045 670.743 358.954 667.109 360.545C663.475 362.363 660.296 364.863 657.57 368.045C655.299 370.545 653.71 373.5 652.347 376.454C650.984 379.409 650.303 382.136 650.303 384.409C650.303 385.318 650.53 386 650.984 386.454C651.439 386.909 652.12 387.136 653.483 387.136Z" fill="#FF1E46"/>
<path d="M752.728 363.727C752.728 364.863 752.728 365.545 752.955 366C753.182 366.454 753.409 366.454 753.864 366.454C754.772 366.454 755.908 365.318 757.724 363.045C759.087 361.227 760.223 359.636 761.131 358.727C764.083 355.318 767.49 352.818 771.351 351.227C775.212 349.636 779.527 348.727 784.523 348.727C793.38 348.727 800.42 351 805.871 355.545C811.321 360.091 814.955 367.136 816.999 376.454C817.453 378.045 817.68 380.318 817.907 382.818C818.134 385.318 818.134 388.727 818.134 393.045C818.134 394.409 818.134 396.682 818.134 399.636C818.134 402.591 818.134 405.091 818.134 406.909C818.134 410.091 818.134 413.5 818.362 417.136C818.589 420.773 818.589 424.409 818.816 428.5C819.043 431.454 819.27 433.273 819.724 434.409C820.178 435.545 821.087 436.454 822.222 437.363C822.677 437.591 823.585 438.045 825.175 438.5C828.127 439.409 829.717 440.545 829.717 442.136C829.717 444.182 828.354 445.545 825.402 446.454C822.45 447.363 817.68 447.818 811.094 447.818C804.508 447.818 799.739 447.363 796.787 446.454C793.834 445.545 792.472 444.182 792.472 442.136C792.472 440.545 793.834 439.182 796.787 438.273C799.739 437.363 801.556 436.227 802.237 435.091C802.918 434.182 803.373 431.227 803.6 426.682C803.827 422.136 804.054 411.454 804.054 394.409C804.054 382.591 802.464 374.182 799.058 369.182C795.651 364.182 790.201 361.682 782.706 361.682C777.71 361.682 773.168 362.818 769.08 364.863C764.765 367.136 761.131 370.318 757.724 374.636C756.135 376.454 755.226 378.5 754.545 380.773C753.864 383.045 753.637 386.227 753.637 390.773V397.591C753.637 411.682 753.864 421 754.091 426C754.318 431 754.772 433.954 755.453 435.091C756.135 436.227 757.952 437.363 760.904 438.273C763.856 439.182 765.219 440.545 765.219 442.136C765.219 444.182 763.856 445.545 760.904 446.454C757.952 447.363 753.182 447.818 746.596 447.818C740.01 447.818 735.241 447.363 732.062 446.454C728.882 445.545 727.519 444.182 727.519 442.136C727.519 440.545 728.882 439.182 731.834 438.273C734.787 437.363 736.604 436.227 737.285 435.091C737.966 433.954 738.42 430.545 738.648 424.863C738.875 419.182 739.102 410.091 739.102 397.591C739.102 388.045 738.875 380.545 738.42 375.318C737.966 370.091 737.512 366.909 736.604 365.545C736.149 364.636 734.106 363.954 730.926 363.5C727.747 363.045 725.93 361.682 725.93 359.636C725.93 357.363 728.655 355.091 733.878 352.591C739.102 350.091 744.098 348.954 748.867 348.954C750.457 348.954 751.82 349.409 752.501 350.545C753.182 351.454 753.637 353.5 753.637 356.227V363.727H752.728Z" fill="#FF1E46"/>
<path d="M908.522 335.318C908.522 330.091 908.295 326.227 907.613 324.182C906.932 321.909 906.024 320.773 904.661 320.318C903.98 320.091 902.844 319.864 901.481 319.864C897.848 319.409 896.031 318.045 896.031 315.773C896.031 314.409 896.712 313.273 897.848 312.364C898.983 311.454 900.8 310.318 903.525 309.409C907.159 308.045 910.339 307.136 913.518 306.227C916.697 305.318 918.969 305.091 920.558 305.091C922.375 305.091 923.511 305.545 924.192 306.454C924.873 307.364 925.1 309.182 925.1 311.909C925.1 314.409 924.873 323.5 924.192 339.182C923.511 354.636 923.283 368.954 923.283 382.136C923.283 400.318 923.511 413.045 923.738 420.318C923.965 427.591 924.873 431.909 925.782 433.273C926.236 434.182 928.28 434.636 931.459 435.091C934.639 435.545 936.456 436.909 936.456 438.954C936.456 441 933.73 443.5 928.507 445.773C923.284 448.273 918.287 449.409 913.518 449.409C911.701 449.409 910.566 448.954 909.884 448.045C909.203 447.136 908.749 445.318 908.749 442.591V439.409C908.749 438.5 908.749 437.818 908.522 437.364C908.295 436.909 908.067 436.909 907.84 436.909C906.932 436.909 905.569 437.591 903.525 439.182C902.617 439.864 902.163 440.318 901.708 440.545C897.621 443.5 893.76 445.318 889.899 446.682C886.038 447.818 881.723 448.5 876.727 448.5C864.236 448.5 854.243 444.182 846.295 435.318C838.346 426.454 834.485 415.091 834.485 401C834.485 386.227 839.027 373.954 847.885 363.954C856.742 354.182 867.87 349.182 881.042 349.182C889.445 349.182 897.394 351.227 904.888 355.318C906.024 356 906.705 356.227 906.932 356.227C907.386 356.227 907.84 355.773 908.295 354.864C908.522 353.954 908.749 352.591 908.749 350.773V335.318H908.522ZM908.522 383.5C908.522 375.318 906.478 369.182 902.163 364.864C897.848 360.545 891.716 358.5 883.54 358.5C874.002 358.5 866.507 362.364 860.602 369.864C854.698 377.364 851.745 387.364 851.745 399.636C851.745 411 854.471 420.091 859.921 427.136C865.372 434.182 872.412 437.591 881.269 437.591C885.357 437.591 889.445 436.682 893.533 435.091C897.621 433.5 901.254 431.227 904.434 428.5C906.024 427.136 907.159 425.545 907.84 423.954C908.522 422.364 908.749 419.636 908.749 416V413.5V383.5H908.522Z" fill="#FF1E46"/>
<path d="M951.444 410.546C951.444 395.546 951.217 384.636 950.99 377.591C950.763 370.546 950.081 366.455 949.173 365.318C948.719 364.409 946.675 363.727 943.495 363.273C940.316 362.818 938.499 361.455 938.499 359.409C938.499 358.273 938.953 357.136 940.089 356C941.224 354.864 942.814 353.955 945.539 353.046C948.719 351.909 951.671 350.773 954.851 350.091C958.03 349.409 960.301 348.955 962.118 348.955C963.708 348.955 965.07 349.409 965.752 350.318C966.433 351.227 966.887 353.046 966.887 355.773C966.887 356.455 966.887 358.273 966.887 361.227C966.433 378.5 966.206 395.773 966.206 413.5C966.206 421.909 966.433 427.591 966.66 430.546C966.887 433.5 967.569 435.318 968.477 436.227C969.158 436.909 970.748 437.591 973.473 438.273C976.198 438.955 977.334 440.318 977.334 441.909C977.334 443.727 975.971 445.318 973.019 446.227C970.067 447.137 965.525 447.591 959.166 447.591C952.58 447.591 947.81 447.137 944.858 446.227C941.906 445.318 940.543 443.955 940.543 441.909C940.543 440.318 941.906 439.182 944.404 438.273C946.902 437.364 948.719 436.682 949.4 436.227C950.308 435.318 950.99 433.046 951.444 429.637C951.444 425.773 951.444 419.636 951.444 410.546ZM947.81 317.818C947.81 314.864 948.719 312.364 950.763 310.318C952.807 308.273 955.305 307.364 958.03 307.364C960.982 307.364 963.254 308.273 965.07 309.864C966.887 311.682 967.796 313.955 967.796 316.682C967.796 319.409 966.887 321.909 964.843 323.955C962.799 326 960.528 326.909 957.576 326.909C954.851 326.909 952.352 326 950.536 324.409C948.946 322.364 947.81 320.318 947.81 317.818Z" fill="#FF1E46"/>
<path d="M1008.22 363.727C1008.22 364.863 1008.22 365.545 1008.45 366C1008.68 366.454 1008.9 366.454 1009.36 366.454C1010.27 366.454 1011.4 365.318 1013.22 363.045C1014.58 361.227 1015.72 359.636 1016.62 358.727C1019.58 355.318 1022.98 352.818 1026.84 351.227C1030.7 349.636 1035.02 348.727 1040.02 348.727C1048.87 348.727 1055.91 351 1061.36 355.545C1066.81 360.091 1070.45 367.136 1072.49 376.454C1072.95 378.045 1073.17 380.318 1073.4 382.818C1073.63 385.318 1073.63 388.727 1073.63 393.045C1073.63 394.409 1073.63 396.682 1073.63 399.636C1073.63 402.591 1073.63 405.091 1073.63 406.909C1073.63 410.091 1073.63 413.5 1073.85 417.136C1074.08 420.773 1074.08 424.409 1074.31 428.5C1074.54 431.454 1074.76 433.273 1075.22 434.409C1075.67 435.545 1076.58 436.454 1077.72 437.363C1078.17 437.591 1079.08 438.045 1080.67 438.5C1083.62 439.409 1085.21 440.545 1085.21 442.136C1085.21 444.182 1083.85 445.545 1080.9 446.454C1077.94 447.363 1073.17 447.818 1066.59 447.818C1060 447.818 1055.23 447.363 1052.28 446.454C1049.33 445.545 1047.96 444.182 1047.96 442.136C1047.96 440.545 1049.33 439.182 1052.28 438.273C1055.23 437.363 1057.05 436.227 1057.73 435.091C1058.41 434.182 1058.87 431.227 1059.09 426.682C1059.32 422.136 1059.55 411.454 1059.55 394.409C1059.55 382.591 1057.96 374.182 1054.55 369.182C1051.14 364.182 1045.69 361.682 1038.2 361.682C1033.2 361.682 1028.66 362.818 1024.57 364.863C1020.26 367.136 1016.62 370.318 1013.22 374.636C1011.63 376.454 1010.72 378.5 1010.04 380.773C1009.36 383.045 1009.13 386.227 1009.13 390.773V397.591C1009.13 411.682 1009.36 421 1009.58 426C1009.81 431 1010.27 433.954 1010.95 435.091C1011.63 436.227 1013.44 437.363 1016.4 438.273C1019.35 439.182 1020.71 440.545 1020.71 442.136C1020.71 444.182 1019.35 445.545 1016.4 446.454C1013.44 447.363 1008.68 447.818 1002.09 447.818C995.503 447.818 990.734 447.363 987.555 446.454C984.375 445.545 983.013 444.182 983.013 442.136C983.013 440.545 984.375 439.182 987.328 438.273C990.28 437.363 992.097 436.227 992.778 435.091C993.459 433.954 993.914 430.545 994.141 424.863C994.368 419.182 994.595 410.091 994.595 397.591C994.595 388.045 994.368 380.545 993.914 375.318C993.459 370.091 993.005 366.909 992.097 365.545C991.643 364.636 989.599 363.954 986.419 363.5C983.24 363.045 981.423 361.682 981.423 359.636C981.423 357.363 984.148 355.091 989.372 352.591C994.595 350.091 999.591 348.954 1004.36 348.954C1005.95 348.954 1007.31 349.409 1007.99 350.545C1008.68 351.454 1009.13 353.5 1009.13 356.227V363.727H1008.22Z" fill="#FF1E46"/>
<path d="M1108.83 408.273C1104.51 405.545 1101.11 401.909 1098.84 397.818C1096.56 393.727 1095.43 388.954 1095.43 383.5C1095.43 373.273 1099.06 365.091 1106.56 358.5C1114.05 351.909 1123.36 348.727 1134.95 348.727C1138.58 348.727 1143.12 349.182 1148.57 350.318C1154.02 351.454 1157.66 351.909 1159.47 351.909C1162.2 351.909 1164.92 351.227 1167.88 350.091C1170.6 348.727 1173.1 346.909 1175.37 344.636C1176.51 345.091 1177.64 345.773 1178.32 346.682C1179 347.591 1179.23 348.954 1179.23 350.318C1179.23 352.818 1178.32 355.091 1176.28 357.363C1174.23 359.636 1171.51 361.454 1167.65 363.273C1169.24 366 1170.37 368.727 1171.28 371.227C1172.19 373.727 1172.42 376.682 1172.42 379.636C1172.42 389.864 1168.56 398.273 1160.84 404.864C1153.11 411.454 1143.35 414.864 1131.54 414.864C1128.81 414.864 1126.09 414.636 1123.14 413.954C1120.41 413.5 1117.69 412.591 1115.19 411.454C1112.46 412.591 1110.19 414.182 1108.6 416.227C1107.01 418.273 1106.1 420.545 1106.1 423.045C1106.1 425.773 1107.24 428.045 1109.74 429.864C1112.23 431.682 1115.19 432.591 1119.05 432.591C1123.14 432.591 1129.72 432.136 1138.81 431C1147.89 429.864 1154.93 429.409 1159.93 429.409C1167.42 429.409 1173.33 431.227 1177.64 435.091C1181.96 438.954 1184 443.954 1184 450.545C1184 460.545 1179 468.954 1169.01 475.773C1159.02 482.591 1146.3 486 1130.63 486C1118.59 486 1109.06 483.5 1101.79 478.727C1094.52 473.954 1090.89 467.591 1090.89 459.636C1090.89 455.773 1091.8 452.591 1093.84 449.636C1095.66 446.682 1098.84 444.182 1103.15 441.454C1099.52 439.863 1097.02 438.045 1095.2 435.773C1093.38 433.5 1092.7 430.773 1092.7 427.591C1092.7 423.5 1094.07 419.863 1096.79 416.682C1099.29 413.5 1103.38 410.773 1108.83 408.273ZM1110.42 444.636C1108.6 446.454 1107.01 448.727 1106.1 451C1105.19 453.273 1104.51 455.773 1104.51 458.273C1104.51 464.182 1107.24 468.954 1112.46 472.591C1117.69 476.227 1124.95 478.045 1134.04 478.045C1144.26 478.045 1152.89 475.773 1159.47 471.454C1166.06 467.136 1169.47 461.682 1169.47 455.318C1169.47 451.454 1168.33 448.5 1165.83 446.454C1163.33 444.409 1159.7 443.273 1154.93 443.273C1153.34 443.273 1149.03 443.727 1142.21 444.636C1135.4 445.545 1129.27 446 1123.82 446C1121.32 446 1118.82 446 1116.55 445.773C1114.51 445.318 1112.46 445.091 1110.42 444.636ZM1110.42 381.682C1110.42 389.409 1112.46 395.545 1116.55 400.318C1120.64 405.091 1126.09 407.591 1132.67 407.591C1139.71 407.591 1145.39 405.091 1149.71 400.318C1154.02 395.545 1156.52 389.409 1156.52 381.909C1156.52 374.182 1154.25 367.818 1149.93 363.045C1145.62 358.273 1139.94 355.773 1132.9 355.773C1126.54 355.773 1121.09 358.273 1116.78 363.045C1112.46 368.273 1110.42 374.409 1110.42 381.682Z" fill="#FF1E46"/>
<path d="M466.574 431H464.757L430.691 294.864L398.215 164.864H400.486C404.801 164.864 408.435 161.227 408.435 156.909C408.435 152.591 404.801 148.955 400.486 148.955H387.541H378.684H298.289H293.974H292.838H282.846H275.124H262.406C258.091 148.955 254.458 152.591 254.458 156.909C254.458 161.227 258.091 164.864 262.406 164.864H264.677L207.22 431H204.949C200.634 431 197 434.636 197 438.955C197 443.273 200.634 446.909 204.949 446.909H225.388C229.703 446.909 233.337 443.273 233.337 438.955C233.337 434.636 229.703 431 225.388 431H224.934L237.198 374.409H309.417L296.245 431H293.974C289.659 431 286.025 434.636 286.025 438.955C286.025 443.273 289.659 446.909 293.974 446.909H314.413C318.728 446.909 322.362 443.273 322.362 438.955C322.362 434.636 318.728 431 314.413 431H313.959L330.992 356.909L333.49 367.136C333.49 367.591 333.717 367.818 333.717 368.273L348.479 431H347.571C343.256 431 339.622 434.636 339.622 438.955C339.622 443.273 343.256 446.909 347.571 446.909H368.01C372.325 446.909 375.959 443.273 375.959 438.955C375.959 434.636 372.325 431 368.01 431H366.194L352.794 374.409H432.508L446.589 431H445.907C441.592 431 437.959 434.636 437.959 438.955C437.959 443.273 441.592 446.909 445.907 446.909H466.347C470.662 446.909 474.296 443.273 474.296 438.955C474.523 434.636 470.889 431 466.574 431ZM332.355 287.818L320.091 235.773H397.988L410.933 287.818H332.355ZM380.728 166.227L393.673 218.273H316.003L303.74 166.227H380.728ZM298.289 218.5H270.809L282.165 166.455H286.025L298.289 218.5ZM267.176 235.773H302.604L314.868 287.818H255.82L267.176 235.773ZM313.278 357.136H240.831L252.187 305.091H318.956L322.362 319.182L313.278 357.136ZM348.934 357.364L336.443 305.091H415.248L428.193 357.136H348.934V357.364Z" fill="#FF1E46"/>
</svg>
