<svg width="1380" height="666" viewBox="0 0 1380 666" fill="none" xmlns="http://www.w3.org/2000/svg">
<rect x="460.001" width="460" height="333" fill="#FF007A"/>
<path d="M520.257 220.541L525.502 195.428H552.381L547.042 219.093C546.668 220.831 547.698 222.666 549.477 223.053C549.758 223.149 549.946 223.149 550.226 223.149C551.725 223.149 553.036 222.087 553.317 220.541L563.432 175.338C563.806 173.599 562.776 171.764 560.997 171.378C559.311 170.992 557.531 172.054 557.157 173.889L553.785 188.86H526.813L531.027 168.867H558.281C560.06 168.867 561.465 167.418 561.465 165.583C561.465 163.747 560.06 162.299 558.281 162.299H532.432L536.647 142.305H552.381C554.16 142.305 555.565 140.856 555.565 139.021C555.565 137.186 554.16 135.737 552.381 135.737H538.051L542.266 115.743H546.668C548.447 115.743 549.852 114.294 549.852 112.459C549.852 110.624 548.447 108.982 546.668 108.982H539.644C538.145 108.982 536.834 110.044 536.459 111.59L513.982 219.093C513.608 220.928 514.732 222.666 516.417 223.053C516.605 223.149 516.886 223.149 517.073 223.149C518.571 223.149 519.883 222.087 520.257 220.541Z" fill="#FFCE00"/>
<path d="M604.265 220.445C604.733 222.184 606.419 223.246 608.198 222.86C609.884 222.377 611.008 220.638 610.54 218.803L597.428 164.81L584.504 111.493C584.504 111.493 584.504 111.493 584.504 111.397C584.41 111.107 584.317 110.721 584.129 110.527C583.942 110.238 583.755 110.044 583.474 109.851L583.38 109.755C583.099 109.562 582.912 109.368 582.537 109.272C582.444 109.272 582.444 109.272 582.35 109.272C582.069 109.175 581.694 109.079 581.413 109.079H548.166H546.199C545.263 109.079 544.326 109.562 543.671 110.334C543.015 111.107 542.828 112.169 543.109 113.135L561.371 192.724C561.371 192.917 561.465 193.014 561.465 193.207L567.927 221.507C568.302 223.053 569.613 224.019 571.018 224.019C571.299 224.019 571.486 224.019 571.767 223.922C573.453 223.536 574.577 221.701 574.108 219.962L568.489 195.525H598.177L604.265 220.445ZM556.314 142.208H585.347L590.217 162.202H560.997L556.314 142.208ZM578.885 115.647L583.755 135.64H554.816L550.227 115.647H578.885ZM567.084 188.764L562.495 168.77H591.809L596.679 188.764H567.084Z" fill="#FFCE00"/>
<path d="M616.822 162.903C615.812 162.903 615.139 162.131 615.139 161.187V111.504C615.139 110.474 615.896 109.702 616.822 109.702H619.094C620.019 109.702 620.777 110.474 620.777 111.504V157.411H645.096C646.106 157.411 646.779 158.184 646.779 159.127V161.187C646.779 162.131 646.022 162.903 645.096 162.903H616.822Z" fill="#FFCE00"/>
<path d="M662.852 125.833C670.678 125.833 676.821 131.067 676.821 139.39V155.179C676.821 156.724 677.83 157.753 679.345 157.753C680.355 157.753 681.028 158.44 681.028 159.384V161.357C681.028 162.301 680.271 162.988 679.345 162.988H678.251C675.811 162.988 673.37 161.615 672.361 159.041C670.089 162.044 666.218 163.245 663.861 163.331C662.347 163.417 661.505 163.417 659.906 163.331C652.501 162.988 648.041 158.697 648.041 152.605C648.041 146.083 653.258 142.48 659.906 142.308C661.842 142.222 664.114 142.308 665.629 142.222C668.321 142.051 670.425 141.879 671.603 139.991V139.305C671.603 134.156 668.321 130.552 662.767 130.552C657.802 130.552 655.026 133.47 654.184 136.816C653.932 137.932 653.006 138.618 651.828 138.618H650.145C649.051 138.618 648.378 137.674 648.63 136.645C650.229 130.295 655.446 125.833 662.852 125.833ZM663.946 158.268C667.985 158.011 670.93 155.694 671.519 152.09V144.796C669.752 146.341 667.985 146.598 665.629 146.856C663.777 147.027 661.842 146.942 659.822 147.027C655.699 147.199 653.174 148.744 653.174 152.433C653.174 155.951 655.867 158.011 659.906 158.182C661.589 158.354 662.431 158.354 663.946 158.268Z" fill="#FFCE00"/>
<path d="M708.967 158.355C706.948 161.101 702.993 163.503 698.869 163.503C689.024 163.503 683.049 155.523 682.965 144.711C682.881 133.985 689.024 125.834 698.953 125.834C702.656 125.834 706.19 127.636 708.799 130.296V111.418C708.799 110.388 709.556 109.702 710.482 109.702H712.417C713.343 109.702 714.1 110.474 714.1 111.418V161.272C714.1 162.13 713.427 162.989 712.502 162.989H710.566C709.556 162.989 708.883 162.216 708.883 161.358L708.967 158.355ZM708.967 136.903C707.284 133.9 703.497 130.639 699.29 130.639C692.642 130.639 688.519 136.817 688.519 144.626C688.519 152.606 692.39 158.441 699.29 158.441C704.002 158.441 707.873 154.236 708.967 151.233V136.903Z" fill="#FFCE00"/>
<path d="M747.76 158.355C745.741 161.101 741.786 163.503 737.662 163.503C727.817 163.503 721.842 155.523 721.758 144.711C721.674 133.985 727.817 125.834 737.746 125.834C741.449 125.834 744.983 127.636 747.592 130.296V111.418C747.592 110.388 748.349 109.702 749.275 109.702H751.21C752.136 109.702 752.893 110.474 752.893 111.418V161.272C752.893 162.13 752.22 162.989 751.295 162.989H749.359C748.349 162.989 747.676 162.216 747.676 161.358L747.76 158.355ZM747.676 136.903C745.993 133.9 742.206 130.639 737.999 130.639C731.351 130.639 727.227 136.817 727.227 144.626C727.227 152.606 731.098 158.441 737.999 158.441C742.711 158.441 746.582 154.236 747.676 151.233V136.903Z" fill="#FFCE00"/>
<path d="M787.9 151.49H790.004C791.098 151.49 791.603 152.348 791.266 153.378C789.246 159.385 783.608 163.418 776.792 163.418C766.778 163.418 760.467 155.866 760.467 144.54C760.467 134.329 766.526 125.748 776.624 125.748C785.544 125.748 791.434 132.87 791.434 141.022V143.596C791.434 144.711 790.677 145.312 789.751 145.312H765.684C765.6 152.777 769.471 158.441 776.876 158.441C781.084 158.441 784.281 156.381 785.964 152.692C786.301 151.919 787.058 151.49 787.9 151.49ZM786.301 140.85C786.469 134.929 782.514 130.467 776.455 130.467C770.144 130.467 766.357 135.702 765.852 140.85H786.301Z" fill="#FFCE00"/>
<path d="M799.261 128.065C799.261 127.207 800.018 126.348 800.944 126.348H802.795C803.889 126.348 804.478 127.121 804.478 128.065L804.647 131.411C806.33 129.18 810.705 125.919 814.913 125.919H816.175C817.185 125.919 817.858 126.606 817.858 127.636V129.867C817.858 130.725 817.101 131.497 816.091 131.497H814.745C810.285 131.497 806.414 133.814 804.647 137.933V161.187C804.647 162.13 804.057 162.903 802.964 162.903H800.776C799.85 162.903 799.177 162.13 799.177 161.187V128.065H799.261Z" fill="#FFCE00"/>
<path d="M633.49 222.969C632.48 222.969 631.807 222.196 631.807 221.252V171.57C631.807 170.54 632.564 169.768 633.49 169.768H635.678C636.603 169.768 637.361 170.54 637.361 171.57V217.477H661.68C662.69 217.477 663.363 218.249 663.363 219.193V221.252C663.363 222.196 662.606 222.969 661.68 222.969H633.49Z" fill="#FFCE00"/>
<path d="M692.648 211.555H694.752C695.846 211.555 696.351 212.414 696.014 213.443C693.994 219.45 688.356 223.483 681.54 223.483C671.526 223.483 665.215 215.932 665.215 204.605C665.215 194.394 671.274 185.813 681.372 185.813C690.292 185.813 696.182 192.935 696.182 201.087V203.661C696.182 204.777 695.425 205.377 694.499 205.377H670.348C670.264 212.843 674.135 218.506 681.54 218.506C685.748 218.506 688.945 216.447 690.628 212.757C691.049 211.984 691.806 211.555 692.648 211.555ZM691.049 200.915C691.217 194.994 687.262 190.532 681.203 190.532C674.892 190.532 671.105 195.767 670.6 200.915H691.049Z" fill="#FFCE00"/>
<path d="M709.31 190.532C711.498 188.13 715.369 185.813 720.082 185.813C728.244 185.813 733.798 191.391 733.798 200.057V221.166C733.798 222.024 733.041 222.882 732.115 222.882H730.096C729.254 222.882 728.413 222.11 728.413 221.166V200.057C728.413 194.136 725.131 190.618 719.324 190.618C714.612 190.618 710.489 194.394 709.226 197.912V221.166C709.226 222.024 708.469 222.882 707.543 222.882H705.524C704.598 222.882 703.925 222.11 703.925 221.166V188.044C703.925 187.186 704.598 186.328 705.524 186.328H707.543C708.469 186.328 709.142 187.1 709.226 187.958L709.31 190.532Z" fill="#FFCE00"/>
<path d="M767.289 218.421C765.269 221.167 761.314 223.569 757.19 223.569C747.345 223.569 741.37 215.589 741.286 204.777C741.202 194.051 747.345 185.9 757.275 185.9C760.977 185.9 764.512 187.701 767.12 190.362V171.484C767.12 170.454 767.878 169.768 768.803 169.768H770.739C771.664 169.768 772.422 170.54 772.422 171.484V221.338C772.422 222.196 771.749 223.054 770.823 223.054H768.887C767.878 223.054 767.204 222.282 767.204 221.424L767.289 218.421ZM767.204 196.969C765.521 193.966 761.735 190.705 757.527 190.705C750.879 190.705 746.756 196.883 746.756 204.692C746.756 212.672 750.627 218.507 757.527 218.507C762.24 218.507 766.11 214.302 767.204 211.299V196.969Z" fill="#FFCE00"/>
<path d="M786.645 170.11C789.169 170.11 791.189 172.084 791.189 174.744C791.189 177.404 789.169 179.292 786.645 179.292C784.12 179.292 782.185 177.404 782.185 174.744C782.185 172.084 784.12 170.11 786.645 170.11ZM783.952 188.13C783.952 187.272 784.625 186.414 785.635 186.414H787.654C788.664 186.414 789.337 187.186 789.337 188.13V221.252C789.337 222.11 788.58 222.968 787.654 222.968H785.635C784.709 222.968 783.952 222.196 783.952 221.252V188.13Z" fill="#FFCE00"/>
<path d="M806.083 190.532C808.271 188.13 812.142 185.813 816.854 185.813C825.017 185.813 830.571 191.391 830.571 200.057V221.166C830.571 222.024 829.813 222.882 828.888 222.882H826.868C826.027 222.882 825.185 222.11 825.185 221.166V200.057C825.185 194.136 821.903 190.618 816.097 190.618C811.384 190.618 807.261 194.394 805.999 197.912V221.166C805.999 222.024 805.241 222.882 804.316 222.882H802.296C801.37 222.882 800.697 222.11 800.697 221.166V188.044C800.697 187.186 801.37 186.328 802.296 186.328H804.232C805.157 186.328 805.83 187.1 805.915 187.958L806.083 190.532Z" fill="#FFCE00"/>
<path d="M864.062 188.044C864.146 187.186 864.819 186.414 865.745 186.414H867.428C868.438 186.414 869.111 187.186 869.111 188.13V222.796C869.111 231.978 861.706 237.641 852.87 237.641C844.791 237.641 839.995 233.007 839.574 227.344C839.49 226.4 840.163 225.628 841.173 225.628H842.94C844.034 225.628 844.707 226.314 844.96 227.258C845.633 230.347 848.158 232.578 852.87 232.578C858.929 232.578 863.894 229.232 863.894 222.882V218.42C861.958 221.166 857.751 223.397 854.216 223.397C844.287 223.397 838.144 215.674 838.144 204.605C838.144 193.879 844.287 185.813 854.216 185.813C857.498 185.813 861.369 187.529 863.978 190.361L864.062 188.044ZM863.894 196.968C862.211 193.965 858.424 190.704 854.216 190.704C847.568 190.704 843.445 196.968 843.445 204.777C843.445 212.499 847.232 218.592 854.132 218.592C859.097 218.592 862.716 214.73 863.894 211.298V196.968Z" fill="#FFCE00"/>
<rect width="459.496" height="333" fill="#00DD8D"/>
<path d="M181.394 117.365V152.408H203.991V162.432H169.105V117.365H181.394Z" fill="#0013FF"/>
<path d="M237.638 153.06C237.638 154.69 238.381 155.424 239.618 155.424C240.525 155.424 241.267 155.261 242.257 154.935V161.128C240.607 162.269 238.298 163.166 234.917 163.166C230.958 163.166 227.824 161.128 226.752 157.543C224.855 161.291 221.144 163.166 216.031 163.166C209.763 163.166 205.64 159.906 205.64 154.527C205.64 148.334 210.093 145.726 217.186 144.503L226.257 143.037V142.548C226.257 139.94 225.02 138.31 222.216 138.31C219.577 138.31 218.34 139.94 217.763 142.303L206.877 141.57C207.866 134.561 213.144 129.671 222.876 129.671C231.453 129.671 237.721 133.339 237.721 142.222V153.06H237.638ZM226.092 148.66L221.309 149.556C218.505 150.127 216.856 151.023 216.856 153.06C216.856 154.69 218.175 155.75 220.154 155.75C223.453 155.75 226.175 153.305 226.175 149.149V148.66H226.092Z" fill="#0013FF"/>
<path d="M266.503 156.971C265.018 160.72 261.307 163.246 255.947 163.246C246.38 163.246 241.597 155.912 241.597 146.459C241.597 137.087 246.38 129.671 255.947 129.671C261.307 129.671 265.018 132.279 266.503 136.027V117.365H278.214V162.432H266.503V156.971ZM266.503 146.296C266.503 141.732 263.946 138.717 260.07 138.717C255.452 138.717 253.39 141.976 253.39 146.54C253.39 151.185 255.452 154.445 260.07 154.445C263.946 154.445 266.503 151.43 266.503 146.785V146.296Z" fill="#0013FF"/>
<path d="M305.926 156.971C304.441 160.72 300.73 163.246 295.369 163.246C285.803 163.246 281.02 155.912 281.02 146.459C281.02 137.087 285.803 129.671 295.369 129.671C300.73 129.671 304.441 132.279 305.926 136.027V117.365H317.637V162.432H305.926V156.971ZM305.926 146.296C305.926 141.732 303.369 138.717 299.493 138.717C294.875 138.717 292.813 141.976 292.813 146.54C292.813 151.185 294.875 154.445 299.493 154.445C303.369 154.445 305.926 151.43 305.926 146.785V146.296Z" fill="#0013FF"/>
<path d="M354.335 151.919C352.685 159.254 346.748 163.329 338.171 163.329C327.779 163.329 320.439 157.135 320.439 147.03C320.439 136.924 327.944 129.671 338.006 129.671C348.809 129.671 354.5 137.006 354.5 145.644V148.904H331.82C332.15 152.816 335.037 154.69 338.583 154.69C341.799 154.69 343.779 153.631 344.851 151.104L354.335 151.919ZM343.366 143.281C343.201 140.429 341.305 137.984 337.841 137.984C334.047 137.984 332.398 140.266 331.985 143.281H343.366Z" fill="#0013FF"/>
<path d="M381.797 141.813C380.23 140.916 378.498 140.427 376.189 140.427C371.818 140.427 369.179 142.465 369.179 147.762V162.349H357.468V130.485H369.179V136.108C370.333 132.522 373.715 129.589 378.003 129.589C379.982 129.589 381.714 130.159 382.456 130.811L381.797 141.813Z" fill="#0013FF"/>
<path d="M181.394 172.7V207.743H203.991V217.767H169.105V172.7H181.394Z" fill="#0013FF"/>
<path d="M239.205 207.254C237.556 214.588 231.618 218.663 223.041 218.663C212.649 218.663 205.31 212.469 205.31 202.364C205.31 192.259 212.814 185.006 222.876 185.006C233.679 185.006 239.37 192.34 239.37 200.979V204.238H216.691C217.02 208.15 219.907 210.024 223.453 210.024C226.669 210.024 228.649 208.965 229.721 206.439L239.205 207.254ZM228.319 198.615C228.154 195.763 226.257 193.318 222.793 193.318C219 193.318 217.35 195.6 216.938 198.615H228.319Z" fill="#0013FF"/>
<path d="M254.05 217.766H242.339V185.821H254.05V190.629C255.782 187.124 259.658 185.006 264.441 185.006C273.265 185.006 276.069 191.118 276.069 197.719V217.766H264.359V200.816C264.359 196.415 263.121 194.133 259.575 194.133C255.617 194.133 253.967 197.311 253.967 202.038V217.766H254.05Z" fill="#0013FF"/>
<path d="M303.45 212.306C301.966 216.055 298.254 218.581 292.894 218.581C283.327 218.581 278.544 211.247 278.544 201.794C278.544 192.422 283.327 185.006 292.894 185.006C298.254 185.006 301.966 187.613 303.45 191.362V172.7H315.161V217.767H303.45V212.306ZM303.45 201.549C303.45 196.985 300.893 193.97 297.017 193.97C292.399 193.97 290.337 197.23 290.337 201.794C290.337 206.439 292.399 209.699 297.017 209.699C300.893 209.699 303.45 206.683 303.45 202.038V201.549Z" fill="#0013FF"/>
<path d="M319.615 172.7H331.491V182.887H319.615V172.7ZM331.409 185.821V217.767H319.698V185.821H331.409Z" fill="#0013FF"/>
<path d="M347.654 217.766H335.943V185.821H347.654V190.629C349.386 187.124 353.262 185.006 358.045 185.006C366.87 185.006 369.674 191.118 369.674 197.719V217.766H358.045V200.816C358.045 196.415 356.808 194.133 353.262 194.133C349.304 194.133 347.654 197.311 347.654 202.038V217.766Z" fill="#0013FF"/>
<path d="M388.642 206.847C386.003 206.847 383.694 206.521 381.632 205.951C381.22 206.277 380.972 206.847 380.972 207.418C380.972 208.477 381.797 209.374 383.694 209.374H397.054C404.394 209.374 408.023 213.204 408.023 218.501C408.023 226.406 398.209 230.073 387.735 230.073C378.498 230.073 370.581 228.281 370.581 222.25C370.581 219.479 373.138 217.279 376.766 216.953C373.88 216.056 372.148 213.449 372.148 210.759C372.148 207.662 374.21 205.299 377.674 203.995C374.787 202.121 373.055 199.431 373.055 195.927C373.055 189.163 379.57 185.007 388.642 185.007C392.518 185.007 396.229 185.903 399.033 187.615C401.013 185.007 404.559 182.644 408.105 182.644V191.363C406.703 191.363 404.971 191.526 403.404 191.852C404.064 193.075 404.394 194.46 404.394 195.927C404.394 202.691 397.796 206.847 388.642 206.847ZM387.9 224.043C393.343 224.043 397.302 222.983 397.302 221.028C397.302 219.642 396.312 219.153 394.333 219.153H382.457C381.137 219.153 380.313 219.887 380.313 221.109C380.313 223.391 383.529 224.043 387.9 224.043ZM388.807 191.363C386.828 191.363 385.426 193.156 385.426 195.927C385.426 198.78 386.91 200.572 388.807 200.572C390.704 200.572 392.188 198.78 392.188 195.927C392.188 193.156 390.704 191.363 388.807 191.363Z" fill="#0013FF"/>
<path d="M52.9023 157.46V211.654L104.776 159.416V116.55H93.4779L52.9023 157.46Z" fill="#0013FF"/>
<path d="M126.796 217.684H153.681V190.546L126.796 217.684Z" fill="#0013FF"/>
<path d="M59.3359 217.684H114.344L153.682 177.996V166.424H110.303L59.3359 217.684Z" fill="#0013FF"/>
<path d="M81.0248 116.55H52.9023V144.91L81.0248 116.55Z" fill="#0013FF"/>
<rect x="460.001" y="333" width="460" height="333" fill="#CD00FF"/>
<path d="M632.837 453.987V486.822H654.082V496.215H621.292V453.987H632.837Z" fill="#FFD919"/>
<path d="M686.07 487.372C686.07 488.951 686.711 489.582 687.914 489.582C688.796 489.582 689.517 489.425 690.399 489.109V494.871C688.796 495.976 686.631 496.844 683.504 496.844C679.736 496.844 676.85 494.95 675.808 491.556C674.044 495.029 670.597 496.844 665.707 496.844C659.774 496.844 655.926 493.845 655.926 488.714C655.926 482.952 660.175 480.505 666.749 479.321L675.247 477.9V477.427C675.247 474.98 674.124 473.48 671.399 473.48C668.913 473.48 667.711 475.059 667.23 477.269L657.048 476.637C658.01 470.086 662.981 465.508 672.12 465.508C680.137 465.508 686.07 468.902 686.07 477.269V487.372ZM675.247 483.189L670.757 483.978C668.112 484.531 666.508 485.32 666.508 487.293C666.508 488.872 667.711 489.819 669.555 489.819C672.681 489.819 675.167 487.53 675.167 483.662V483.189H675.247Z" fill="#FFD919"/>
<path d="M714.37 491.083C712.927 494.556 709.479 497.002 704.429 497.002C695.45 497.002 690.96 490.135 690.96 481.295C690.96 472.533 695.45 465.587 704.429 465.587C709.479 465.587 712.927 468.034 714.37 471.586V453.984H725.433V496.213H714.37V491.083ZM714.37 480.979C714.37 476.717 711.965 473.875 708.277 473.875C703.948 473.875 702.023 476.875 702.023 481.216C702.023 485.557 703.948 488.557 708.277 488.557C711.965 488.557 714.37 485.715 714.37 481.374V480.979Z" fill="#FFD919"/>
<path d="M751.729 491.083C750.286 494.556 746.839 497.002 741.788 497.002C732.809 497.002 728.319 490.135 728.319 481.295C728.319 472.533 732.809 465.587 741.788 465.587C746.839 465.587 750.286 468.034 751.729 471.586V453.984H762.793V496.213H751.729V491.083ZM751.729 480.979C751.729 476.717 749.324 473.875 745.636 473.875C741.307 473.875 739.383 476.875 739.383 481.216C739.383 485.557 741.307 488.557 745.636 488.557C749.324 488.557 751.729 485.715 751.729 481.374V480.979Z" fill="#FFD919"/>
<path d="M797.667 486.346C796.064 493.213 790.532 497.002 782.515 497.002C772.815 497.002 765.84 491.24 765.84 481.689C765.84 472.217 772.895 465.508 782.355 465.508C792.456 465.508 797.908 472.375 797.908 480.426V483.426H776.583C776.823 487.135 779.549 488.872 782.916 488.872C785.882 488.872 787.807 487.846 788.849 485.557L797.667 486.346ZM787.325 478.216C787.165 475.532 785.401 473.243 782.114 473.243C778.587 473.243 776.984 475.375 776.583 478.216H787.325Z" fill="#FFD919"/>
<path d="M823.803 476.874C822.279 476.006 820.676 475.611 818.592 475.611C814.503 475.611 812.018 477.506 812.018 482.478V496.134H800.954V466.297H812.018V471.586C813.14 468.271 816.267 465.508 820.355 465.508C822.199 465.508 823.803 466.061 824.604 466.613L823.803 476.874Z" fill="#FFD919"/>
<path d="M632.837 505.764V538.599H654.082V547.992H621.292V505.764H632.837Z" fill="#FFD919"/>
<path d="M687.593 538.127C685.99 544.994 680.458 548.783 672.441 548.783C662.74 548.783 655.766 543.021 655.766 533.47C655.766 523.998 662.821 517.289 672.281 517.289C682.382 517.289 687.834 524.156 687.834 532.207V535.206H666.508C666.749 538.916 669.475 540.653 672.842 540.653C675.808 540.653 677.732 539.627 678.775 537.338L687.593 538.127ZM677.331 529.997C677.171 527.313 675.407 525.024 672.12 525.024C668.593 525.024 666.989 527.155 666.589 529.997H677.331Z" fill="#FFD919"/>
<path d="M701.942 547.913H690.879V517.998H701.942V522.497C703.546 519.182 707.153 517.208 711.723 517.208C720.061 517.208 722.707 522.891 722.707 529.127V547.913H711.643V532.048C711.643 527.943 710.521 525.812 707.153 525.812C703.385 525.812 701.942 528.732 701.942 533.231V547.913Z" fill="#FFD919"/>
<path d="M748.763 542.863C747.32 546.336 743.873 548.783 738.822 548.783C729.843 548.783 725.354 541.916 725.354 533.075C725.354 524.314 729.843 517.368 738.822 517.368C743.873 517.368 747.32 519.815 748.763 523.366V505.844H759.827V548.072H748.763V542.863ZM748.763 532.838C748.763 528.576 746.358 525.734 742.67 525.734C738.341 525.734 736.417 528.734 736.417 533.075C736.417 537.416 738.341 540.416 742.67 540.416C746.358 540.416 748.763 537.574 748.763 533.233V532.838Z" fill="#FFD919"/>
<path d="M764.396 505.764H775.54V515.314H764.396V505.764ZM775.46 518.077V547.992H764.396V518.077H775.46Z" fill="#FFD919"/>
<path d="M791.094 547.913H780.11V517.998H791.174V522.497C792.777 519.182 796.385 517.208 800.955 517.208C809.292 517.208 811.938 522.891 811.938 529.127V547.913H800.874V532.048C800.874 527.943 799.752 525.812 796.385 525.812C792.617 525.812 791.174 528.732 791.174 533.231V547.913H791.094Z" fill="#FFD919"/>
<path d="M830.057 537.732C827.571 537.732 825.407 537.495 823.483 536.863C823.082 537.179 822.841 537.653 822.841 538.284C822.841 539.31 823.563 540.1 825.407 540.1H837.993C844.888 540.1 848.335 543.652 848.335 548.703C848.335 556.123 839.116 559.596 829.255 559.596C820.596 559.596 813.141 557.938 813.141 552.255C813.141 549.65 815.546 547.598 818.913 547.282C816.187 546.414 814.584 543.967 814.584 541.441C814.584 538.521 816.508 536.311 819.795 535.127C817.069 533.39 815.466 530.865 815.466 527.549C815.466 521.156 821.558 517.288 830.137 517.288C833.825 517.288 837.272 518.156 839.837 519.735C841.681 517.288 845.048 515.078 848.335 515.078V523.287C847.053 523.287 845.369 523.445 843.926 523.761C844.567 524.866 844.888 526.208 844.888 527.549C844.808 533.785 838.635 537.732 830.057 537.732ZM829.335 553.834C834.466 553.834 838.154 552.808 838.154 550.992C838.154 549.729 837.192 549.256 835.348 549.256H824.204C823.002 549.256 822.2 549.887 822.2 551.071C822.2 553.281 825.246 553.834 829.335 553.834ZM830.137 523.208C828.293 523.208 826.93 524.866 826.93 527.47C826.93 530.154 828.293 531.812 830.137 531.812C831.981 531.812 833.344 530.154 833.344 527.47C833.344 524.866 831.981 523.208 830.137 523.208Z" fill="#FFD919"/>
<path d="M610.629 572.621C602.131 551.388 593.633 530.155 585.215 508.923C584.814 507.818 583.612 503.003 582.409 500.95C583.051 499.609 583.451 498.109 584.013 496.767C588.983 484.375 593.874 472.061 598.844 459.669C602.772 449.802 606.781 439.857 610.709 429.99C613.114 423.834 603.013 421.15 600.528 427.307C598.684 431.964 596.76 436.7 594.916 441.357C584.894 441.357 574.793 441.357 564.772 441.357C566.295 437.568 567.738 433.858 569.261 430.069C571.747 423.834 561.565 421.15 559.08 427.307C550.501 448.776 542.003 470.246 533.425 491.636C532.383 494.241 530.699 497.162 530.138 499.924C529.497 502.766 531.26 505.528 532.223 508.133C537.113 520.368 542.003 532.602 546.894 544.758C550.982 554.94 555.071 565.201 559.16 575.383C561.645 581.54 571.827 578.856 569.341 572.621C567.818 568.832 566.375 565.122 564.852 561.334C574.873 561.334 584.975 561.334 594.996 561.334C596.84 565.991 598.764 570.726 600.608 575.383C602.933 581.54 613.114 578.856 610.629 572.621ZM543.767 508.923C543.607 508.528 543.366 507.581 543.046 506.555C552.987 506.555 563.008 506.555 572.949 506.555C573.19 507.107 573.43 507.581 573.59 508.133C575.675 513.264 577.679 518.473 579.764 523.604C569.742 523.604 559.641 523.604 549.619 523.604C547.695 518.71 545.771 513.816 543.767 508.923ZM549.619 479.086C559.641 479.086 569.742 479.086 579.764 479.086C578.08 483.27 576.396 487.453 574.713 491.636C574.152 493.057 573.35 494.636 572.709 496.136C562.687 496.136 552.746 496.136 542.725 496.136C545.13 490.452 547.375 484.769 549.619 479.086ZM590.747 451.697C588.502 457.38 586.177 463.063 583.932 468.746C573.911 468.746 563.81 468.746 553.788 468.746C554.991 465.747 556.193 462.747 557.396 459.748C558.438 457.064 559.561 454.38 560.603 451.697C570.624 451.697 580.726 451.697 590.747 451.697ZM560.603 550.993C558.358 545.31 556.033 539.627 553.788 533.944C563.81 533.944 573.911 533.944 583.932 533.944C585.375 537.575 586.819 541.127 588.262 544.758C589.063 546.81 589.945 548.862 590.747 550.993C580.726 550.993 570.624 550.993 560.603 550.993Z" fill="#FFD919"/>
<rect y="333" width="460" height="333" fill="#00DB1E"/>
<path d="M143.857 445.009H151.242V489.09H174.82V496.104H143.857V445.009Z" fill="white"/>
<path d="M190.172 445.009H200.73L214.074 496.039H206.754L204.033 485.55H186.803L184.148 496.039H176.828L190.172 445.009ZM188.617 478.665H202.22L195.483 451.573L188.617 478.665Z" fill="white"/>
<path d="M216.34 496.039V489.089H223.012V452.023H216.34V445.009H230.072C245.229 445.009 256.5 455.498 256.5 470.556C256.5 485.614 245.229 496.039 230.072 496.039H216.34ZM230.461 452.023V489.089C242.055 489.089 249.116 482.075 249.116 470.556C249.116 458.973 242.055 452.023 230.461 452.023Z" fill="white"/>
<path d="M260.128 496.039V489.089H266.8V452.023H260.128V445.009H273.86C289.017 445.009 300.288 455.498 300.288 470.556C300.288 485.614 289.017 496.039 273.86 496.039H260.128ZM274.249 452.023V489.089C285.843 489.089 292.904 482.075 292.904 470.556C292.904 458.973 285.843 452.023 274.249 452.023Z" fill="white"/>
<path d="M306.053 445.009H334.942V452.023H313.502V466.695H334.942V473.709H313.502V489.089H334.942V496.104H306.053V445.009Z" fill="white"/>
<path d="M359.687 473.709L376.593 487.674V496.039H375.168L349.453 473.645H347.315V496.039H339.931V445.009H361.371C369.792 445.009 377.241 450.286 377.241 459.359C377.241 468.111 369.468 473.709 361.047 473.709H359.687ZM361.76 466.695C365.97 466.695 369.857 463.928 369.857 459.359C369.857 454.79 365.97 452.023 361.76 452.023H347.315V466.695H361.76Z" fill="white"/>
<path d="M143.857 500.93H151.242V545.011H174.82V552.025H143.857V500.93Z" fill="white"/>
<path d="M178.512 500.93H207.401V507.944H185.961V522.616H207.401V529.631H185.961V545.011H207.401V552.025H178.512V500.93Z" fill="white"/>
<path d="M235.383 500.93H241.99V551.961H232.145L219.06 512.449V552.025H212.453V500.93H222.299L235.383 540.506V500.93Z" fill="white"/>
<path d="M248.469 552.025V545.011H255.141V507.944H248.469V500.93H262.201C277.358 500.93 288.629 511.419 288.629 526.477C288.629 541.536 277.358 552.025 262.201 552.025H248.469ZM262.525 507.944V545.011C274.12 545.011 281.18 537.996 281.18 526.477C281.18 514.959 274.12 507.944 262.525 507.944Z" fill="white"/>
<path d="M290.831 545.011H299.446V507.944H290.831V500.93H315.445V507.944H306.83V545.011H315.445V552.025H290.831V545.011Z" fill="white"/>
<path d="M343.493 500.93H350.1V551.961H340.254L327.17 512.384V551.961H320.562V500.93H330.408L343.493 540.506V500.93Z" fill="white"/>
<path d="M398.034 514.315C394.665 509.488 389.159 506.528 382.293 506.528C370.699 506.528 363.379 514.894 363.379 526.541C363.379 537.996 370.699 546.426 382.293 546.426C392.592 546.426 400.365 539.798 401.078 530.338H384.755V523.324H408.333V529.952C407.62 542.565 396.026 553.376 382.293 553.376C367.136 553.376 355.865 541.471 355.865 526.477C355.865 511.483 367.136 499.578 382.617 499.578C391.038 499.578 398.163 503.375 403.086 509.295L398.034 514.315Z" fill="white"/>
<path d="M118.855 445.009V465.087H57.5786V445.009H50V465.087V530.983V551.06H57.5786V530.983H118.855V551.06H126.434V530.983V465.087V445.009H118.855ZM118.855 472.616V494.238H57.5786V472.616H118.855ZM57.5786 523.389V501.767H118.855V523.389H57.5786Z" fill="white"/>
<rect x="919.999" y="333" width="460" height="333" fill="#0013FF"/>
<path d="M1131.6 470.288L1130.84 469.527C1131.6 463.597 1137.53 458.426 1146.33 458.426C1153.7 458.426 1161.82 462.532 1161.82 471.732V493.174L1161.06 493.934H1155.9L1155.14 493.174L1154.76 490.589L1154.38 490.209L1154 490.589C1151.42 492.794 1147.32 494.695 1142.92 494.695C1135.86 494.695 1130.01 490.969 1130.01 483.594C1130.01 476.903 1135.02 473.557 1142.92 472.873C1154.46 471.884 1154.69 471.732 1154.69 471.732V470.972C1154.69 466.562 1150.66 464.661 1146.26 464.661C1141.85 464.661 1138.51 466.866 1138.13 469.451L1137.37 470.212H1131.6V470.288ZM1155.22 477.587C1155.22 477.587 1154.61 477.739 1143.75 478.803C1139.42 479.26 1137.15 480.628 1137.15 483.594C1137.15 486.559 1139.8 488.232 1143.37 488.232C1148.91 488.232 1154.46 485.038 1155.22 479.868V477.587Z" fill="#FFCE00"/>
<path d="M1202.52 493.174L1201.76 493.934H1196.6L1195.84 493.174L1195.08 490.969L1194.7 490.589L1194.32 490.969C1192.12 493.174 1188.78 494.695 1185.06 494.695C1175.41 494.695 1167.67 487.319 1167.67 476.523C1167.67 465.802 1175.41 458.35 1185.06 458.35C1188.7 458.35 1192.04 459.795 1194.32 462.076L1194.7 462.456L1195.08 462.076V438.43L1195.84 437.669H1201.76L1202.52 438.43V493.174ZM1185.51 465.041C1178.53 465.041 1175.19 470.212 1175.19 476.523C1175.19 482.833 1178.53 488.004 1185.51 488.004C1191.81 488.004 1195.84 482.833 1195.84 476.523C1195.91 470.288 1191.81 465.041 1185.51 465.041Z" fill="#FFCE00"/>
<path d="M1241.7 493.174L1240.94 493.934H1235.78L1235.02 493.174L1234.26 490.969L1233.88 490.589L1233.5 490.969C1231.3 493.174 1227.96 494.695 1224.24 494.695C1214.59 494.695 1206.85 487.319 1206.85 476.523C1206.85 465.802 1214.59 458.35 1224.24 458.35C1227.88 458.35 1231.22 459.795 1233.5 462.076L1233.88 462.456L1234.26 462.076V438.43L1235.02 437.669H1240.94L1241.7 438.43V493.174ZM1224.69 465.041C1217.71 465.041 1214.37 470.212 1214.37 476.523C1214.37 482.833 1217.71 488.004 1224.69 488.004C1230.99 488.004 1235.02 482.833 1235.02 476.523C1235.09 470.288 1230.99 465.041 1224.69 465.041Z" fill="#FFCE00"/>
<path d="M1254.99 478.423C1254.99 483.594 1259.09 488.08 1265.31 488.08C1269.72 488.08 1273.06 485.494 1274.2 482.529H1274.96L1280.04 485.875V486.635C1276.85 491.425 1271.99 494.771 1265.31 494.771C1256.05 494.771 1247.55 487.395 1247.55 476.598C1247.55 465.878 1255.29 458.426 1264.93 458.426C1273.82 458.426 1281.94 465.421 1281.56 476.218L1280.8 478.423H1254.99ZM1255.37 471.884H1273.82C1273.44 468.007 1269.72 465.041 1264.93 465.041C1259.47 465.041 1256.51 468.007 1255.37 471.884Z" fill="#FFCE00"/>
<path d="M1288.24 459.871L1289 459.111H1294.17L1294.92 459.871L1295.68 462.076L1296.06 462.456L1296.44 462.076C1298.27 459.871 1301.99 458.35 1304.95 458.35C1313.83 458.35 1318.61 463.521 1318.61 471.656L1317.85 472.417L1311.93 473.177L1311.17 472.417C1311.17 467.246 1308.21 465.041 1303.81 465.041C1299.48 465.041 1295.84 468.615 1295.68 472.873V493.174L1294.92 493.934H1289L1288.24 493.174V459.871Z" fill="#FFCE00"/>
<path d="M1112.32 480.4L1112.4 487.091H1122.04L1122.8 487.852V492.946L1122.04 493.706H1093.94L1093.19 492.946V487.775L1093.94 487.015H1105.03L1104.95 480.324V444.132H1096.83L1096.07 443.372V438.201L1096.83 437.441H1111.56L1112.32 438.201V480.4Z" fill="#FFCE00"/>
<path d="M1098.35 543.128C1098.35 548.299 1102.45 552.785 1108.67 552.785C1113.08 552.785 1116.42 550.199 1117.56 547.234H1118.32L1123.4 550.58V551.34C1120.22 556.13 1115.36 559.476 1108.67 559.476C1099.41 559.476 1090.91 552.1 1090.91 541.304C1090.91 530.583 1098.65 523.131 1108.29 523.131C1117.18 523.131 1125.3 530.126 1124.92 540.923L1124.16 543.128H1098.35ZM1098.65 536.589H1117.1C1116.72 532.712 1113 529.746 1108.22 529.746C1102.75 529.746 1099.79 532.712 1098.65 536.589Z" fill="#FFCE00"/>
<path d="M1131.6 523.816H1137.15L1137.91 524.576L1138.29 526.781L1138.67 527.161L1139.04 526.781C1140.87 524.576 1144.59 523.055 1147.93 523.055C1156.81 523.055 1162.73 527.845 1162.73 537.882V557.879L1161.98 558.639H1156.05L1155.29 557.879V538.642C1155.29 532.712 1152.33 529.746 1147.17 529.746C1142.46 529.746 1138.44 533.32 1138.29 537.578V557.879L1137.53 558.639H1131.6L1130.84 557.879V524.576L1131.6 523.816Z" fill="#FFCE00"/>
<path d="M1202.52 557.878L1201.76 558.639H1196.6L1195.84 557.878L1195.08 555.673L1194.7 555.293L1194.32 555.673C1192.12 557.878 1188.78 559.399 1185.06 559.399C1175.41 559.399 1167.67 552.024 1167.67 541.227C1167.67 530.506 1175.41 523.055 1185.06 523.055C1188.7 523.055 1192.04 524.499 1194.32 526.78L1194.7 527.161L1195.08 526.78V503.134L1195.84 502.374H1201.76L1202.52 503.134V557.878ZM1185.51 529.746C1178.53 529.746 1175.19 534.916 1175.19 541.227C1175.19 547.538 1178.53 552.708 1185.51 552.708C1191.81 552.708 1195.84 547.538 1195.84 541.227C1195.91 534.916 1191.81 529.746 1185.51 529.746Z" fill="#FFCE00"/>
<path d="M1209.96 552.708L1210.72 551.947H1221.81V530.506H1213.68L1212.92 529.745V524.575L1213.68 523.815H1228.49L1229.25 524.575V551.947H1239.57L1240.33 552.708V557.878L1239.57 558.638H1210.72L1209.96 557.878V552.708ZM1221.05 517.2L1221.81 517.96H1229.93L1230.69 517.2V508.304L1229.93 507.543H1221.81L1221.05 508.304V517.2Z" fill="#FFCE00"/>
<path d="M1249.06 523.816H1254.61L1255.37 524.576L1255.75 526.781L1256.13 527.161L1256.51 526.781C1258.33 524.576 1262.05 523.055 1265.39 523.055C1274.27 523.055 1280.2 527.845 1280.2 537.882V557.879L1279.44 558.639H1273.51L1272.75 557.879V538.642C1272.75 532.712 1269.79 529.746 1264.63 529.746C1259.92 529.746 1255.9 533.32 1255.75 537.578V557.879L1254.99 558.639H1249.06L1248.31 557.879V524.576L1249.06 523.816Z" fill="#FFCE00"/>
<path d="M1294.24 550.123C1290.14 547.614 1287.48 543.432 1287.48 538.262C1287.48 529.746 1294.17 523.055 1303.35 523.055C1307.07 523.055 1310.03 524.5 1312.24 526.781L1312.62 527.161L1313 526.781L1313.37 524.576L1314.13 523.816H1318.54L1319.3 524.576V538.262C1319.3 543.432 1316.56 547.614 1312.46 550.123C1316.49 552.328 1319.3 555.978 1319.3 560.844C1319.3 569.36 1311.55 574.15 1303.43 574.15C1295.3 574.15 1287.56 569.36 1287.56 560.844C1287.56 556.054 1290.29 552.252 1294.24 550.123ZM1303.43 546.778C1308.59 546.778 1312.31 543.052 1312.31 538.262C1312.31 533.472 1308.59 529.746 1303.43 529.746C1298.27 529.746 1294.54 533.472 1294.54 538.262C1294.54 543.128 1298.27 546.778 1303.43 546.778ZM1303.43 567.763C1308.21 567.763 1312.31 565.33 1312.31 560.844C1312.31 556.434 1308.21 553.849 1303.43 553.849C1298.64 553.849 1294.54 556.434 1294.54 560.844C1294.54 565.33 1298.64 567.763 1303.43 567.763Z" fill="#FFCE00"/>
<path d="M1075.19 545.333L1075.27 552.024H1084.91L1085.67 552.784V557.955L1084.91 558.715H1056.82L1056.06 557.955V552.784L1056.82 552.024H1067.9L1067.83 545.333V509.065H1059.7L1058.94 508.304V503.134L1059.7 502.374H1074.51L1075.27 503.134V545.333H1075.19Z" fill="#FFCE00"/>
<path d="M1082.18 437.441H1075.19L1068.2 449.074H1054.16L1061.14 437.441H1053.32L980.964 558.64H988.784L997.44 544.117H1011.49L1002.83 558.64H1010.58L1075.27 450.291L1082.18 437.441ZM1042.47 492.338H1028.34L1032.82 484.886H1046.87L1042.47 492.338ZM1019.54 507.088L1023.94 499.713H1037.99L1033.58 507.088H1019.54ZM1029.18 514.54L1024.77 521.915H1010.65L1015.06 514.54H1029.18ZM1001.84 536.742L1006.25 529.366H1020.29L1015.89 536.742H1001.84ZM1051.27 477.435H1037.23L1041.25 470.668H1055.37L1051.27 477.435ZM1059.78 463.293H1045.73L1049.75 456.526H1063.8L1059.78 463.293Z" fill="#FF007A"/>
<rect x="920.504" width="459.496" height="333" fill="#FFD919"/>
<path d="M1094.09 157.269C1096.61 157.269 1098.45 156.933 1099.79 156.345C1101.05 155.674 1102.14 154.582 1103.06 152.902C1103.4 152.23 1103.81 151.391 1104.23 150.215C1104.82 148.619 1105.49 147.78 1106.16 147.78C1106.66 147.78 1107.08 148.032 1107.42 148.619C1107.75 149.207 1107.92 150.047 1107.92 151.055C1107.92 153.826 1107.42 156.429 1106.5 158.697C1105.57 161.048 1104.57 162.224 1103.65 162.224C1103.56 162.224 1103.23 162.14 1102.81 162.056C1101.22 161.636 1099.71 161.384 1098.11 161.384H1077.24C1075.15 161.384 1073.64 161.216 1072.8 160.88C1071.96 160.544 1071.46 159.956 1071.46 159.201C1071.46 158.529 1072.13 158.025 1073.47 157.521C1074.81 157.017 1075.57 156.765 1075.74 156.513C1076.07 156.093 1076.32 154.414 1076.49 151.475C1076.66 148.619 1076.74 143.329 1076.74 135.603C1076.74 127.961 1076.66 122.754 1076.49 119.899C1076.32 117.043 1076.07 115.364 1075.74 114.944C1075.57 114.692 1074.81 114.356 1073.47 113.936C1072.13 113.516 1071.46 112.928 1071.46 112.341C1071.46 111.417 1072.13 110.829 1073.39 110.409C1074.65 109.989 1076.74 109.821 1079.59 109.821C1082.44 109.821 1084.54 109.989 1085.79 110.409C1087.05 110.829 1087.72 111.501 1087.72 112.341C1087.72 113.012 1087.05 113.516 1085.71 113.936C1084.37 114.356 1083.61 114.692 1083.45 115.028C1083.11 115.532 1082.78 117.379 1082.69 120.655C1082.52 123.93 1082.44 128.968 1082.44 135.687C1082.44 142.405 1082.52 147.108 1082.61 149.879C1082.69 152.65 1082.94 154.414 1083.28 155.254C1083.61 156.009 1084.37 156.513 1085.54 156.849C1086.72 157.185 1088.64 157.353 1091.33 157.353H1094.09V157.269Z" fill="#FF1E46"/>
<path d="M1134.66 140.39C1134.66 140.138 1134.66 139.802 1134.74 139.55C1134.74 139.214 1134.74 138.794 1134.74 138.206C1134.74 134.679 1134.16 132.16 1133.07 130.648C1131.98 129.137 1130.22 128.381 1127.7 128.381C1126.45 128.381 1125.27 128.633 1124.27 129.137C1123.26 129.641 1122.34 130.396 1121.42 131.404C1121.25 131.656 1121 131.992 1120.58 132.496C1119.4 134.091 1118.32 134.931 1117.14 134.931C1116.47 134.931 1115.88 134.679 1115.38 134.259C1114.96 133.84 1114.71 133.252 1114.71 132.496C1114.71 130.816 1116.05 129.221 1118.65 127.709C1121.25 126.197 1124.27 125.442 1127.7 125.442C1131.98 125.442 1135.08 126.533 1137.09 128.633C1139.1 130.732 1140.11 134.007 1140.11 138.458C1140.11 139.718 1140.11 141.482 1140.02 143.581C1139.94 145.68 1139.94 147.192 1139.94 148.032C1139.94 152.231 1140.02 154.834 1140.28 156.01C1140.53 157.186 1140.86 157.689 1141.45 157.689C1141.7 157.689 1141.95 157.689 1142.29 157.605C1142.62 157.521 1142.87 157.521 1142.96 157.521C1143.29 157.521 1143.54 157.605 1143.71 157.773C1143.88 157.941 1143.96 158.193 1143.96 158.529C1143.96 159.369 1143.46 160.125 1142.37 160.965C1141.28 161.804 1140.19 162.224 1139.1 162.224C1137.76 162.224 1136.25 160.713 1134.66 157.857C1134.49 157.605 1134.41 157.437 1134.32 157.27H1133.82C1132.23 158.865 1130.55 160.041 1128.79 160.797C1127.03 161.552 1125.1 161.972 1122.93 161.972C1119.57 161.972 1116.81 161.049 1114.79 159.201C1112.78 157.353 1111.78 154.918 1111.78 151.811C1111.78 148.116 1113.12 145.261 1115.8 143.161C1118.48 141.062 1122.25 140.054 1127.12 140.054C1128.29 140.054 1129.55 140.054 1130.8 140.138C1132.15 140.138 1133.4 140.222 1134.66 140.39ZM1134.66 143.413C1133.49 143.245 1132.31 143.077 1131.31 142.993C1130.3 142.909 1129.38 142.825 1128.46 142.825C1124.94 142.825 1122.34 143.497 1120.49 144.925C1118.73 146.352 1117.81 148.452 1117.81 151.139C1117.81 153.407 1118.48 155.17 1119.74 156.43C1121 157.689 1122.76 158.361 1125.02 158.361C1127.87 158.361 1130.22 157.437 1131.98 155.674C1133.74 153.91 1134.66 151.559 1134.66 148.62V143.413Z" fill="#FF1E46"/>
<path d="M1174.22 120.151C1174.22 118.219 1174.14 116.792 1173.89 116.036C1173.63 115.196 1173.3 114.776 1172.8 114.608C1172.54 114.524 1172.13 114.44 1171.62 114.44C1170.28 114.272 1169.61 113.768 1169.61 112.929C1169.61 112.425 1169.86 112.005 1170.28 111.669C1170.7 111.333 1171.37 110.913 1172.38 110.577C1173.72 110.073 1174.89 109.737 1176.06 109.402C1177.24 109.066 1177.99 108.982 1178.58 108.982C1179.25 108.982 1179.67 109.15 1179.92 109.486C1180.17 109.821 1180.26 110.577 1180.26 111.501C1180.26 112.425 1180.17 115.784 1179.92 121.578C1179.67 127.289 1179.59 132.58 1179.59 137.45C1179.59 144.169 1179.67 148.871 1179.75 151.559C1179.84 154.246 1180.17 155.842 1180.51 156.346C1180.67 156.681 1181.43 156.849 1182.6 157.017C1183.78 157.185 1184.45 157.689 1184.45 158.445C1184.45 159.201 1183.44 160.125 1181.51 160.964C1179.59 161.888 1177.74 162.308 1175.98 162.308C1175.31 162.308 1174.89 162.14 1174.64 161.804C1174.39 161.468 1174.22 160.796 1174.22 159.789V158.613C1174.22 158.277 1174.22 158.025 1174.14 157.857C1174.05 157.689 1173.97 157.689 1173.89 157.689C1173.55 157.689 1173.05 157.941 1172.29 158.529C1171.96 158.781 1171.79 158.949 1171.62 159.033C1170.11 160.125 1168.69 160.796 1167.26 161.3C1165.84 161.72 1164.25 161.972 1162.4 161.972C1157.79 161.972 1154.1 160.377 1151.17 157.101C1148.24 153.826 1146.81 149.627 1146.81 144.421C1146.81 138.962 1148.49 134.427 1151.76 130.732C1155.03 127.121 1159.13 125.274 1164 125.274C1167.1 125.274 1170.03 126.029 1172.8 127.541C1173.22 127.793 1173.47 127.877 1173.55 127.877C1173.72 127.877 1173.89 127.709 1174.05 127.373C1174.14 127.037 1174.22 126.533 1174.22 125.861V120.151ZM1174.22 137.954C1174.22 134.931 1173.47 132.664 1171.87 131.068C1170.28 129.472 1168.02 128.717 1165 128.717C1161.48 128.717 1158.71 130.144 1156.54 132.916C1154.36 135.687 1153.27 139.382 1153.27 143.917C1153.27 148.116 1154.27 151.475 1156.28 154.078C1158.3 156.681 1160.89 157.941 1164.16 157.941C1165.67 157.941 1167.18 157.605 1168.69 157.017C1170.2 156.43 1171.54 155.59 1172.71 154.582C1173.3 154.078 1173.72 153.49 1173.97 152.902C1174.22 152.315 1174.3 151.307 1174.3 149.963V149.039V137.954H1174.22Z" fill="#FF1E46"/>
<path d="M1213.62 120.151C1213.62 118.219 1213.53 116.792 1213.28 116.036C1213.03 115.196 1212.69 114.776 1212.19 114.608C1211.94 114.524 1211.52 114.44 1211.02 114.44C1209.68 114.272 1209.01 113.768 1209.01 112.929C1209.01 112.425 1209.26 112.005 1209.68 111.669C1210.1 111.333 1210.77 110.913 1211.77 110.577C1213.11 110.073 1214.29 109.737 1215.46 109.402C1216.63 109.066 1217.39 108.982 1217.97 108.982C1218.65 108.982 1219.06 109.15 1219.32 109.486C1219.57 109.821 1219.65 110.577 1219.65 111.501C1219.65 112.425 1219.57 115.784 1219.32 121.578C1219.06 127.289 1218.98 132.58 1218.98 137.45C1218.98 144.169 1219.06 148.871 1219.15 151.559C1219.23 154.246 1219.57 155.842 1219.9 156.346C1220.07 156.681 1220.82 156.849 1222 157.017C1223.17 157.185 1223.84 157.689 1223.84 158.445C1223.84 159.201 1222.84 160.125 1220.91 160.964C1218.98 161.888 1217.14 162.308 1215.38 162.308C1214.71 162.308 1214.29 162.14 1214.04 161.804C1213.78 161.468 1213.62 160.796 1213.62 159.789V158.613C1213.62 158.277 1213.62 158.025 1213.53 157.857C1213.45 157.689 1213.36 157.689 1213.28 157.689C1212.95 157.689 1212.44 157.941 1211.69 158.529C1211.35 158.781 1211.19 158.949 1211.02 159.033C1209.51 160.125 1208.08 160.796 1206.66 161.3C1205.23 161.72 1203.64 161.972 1201.8 161.972C1197.19 161.972 1193.5 160.377 1190.57 157.101C1187.63 153.826 1186.21 149.627 1186.21 144.421C1186.21 138.962 1187.88 134.427 1191.15 130.732C1194.42 127.121 1198.53 125.274 1203.39 125.274C1206.49 125.274 1209.43 126.029 1212.19 127.541C1212.61 127.793 1212.86 127.877 1212.95 127.877C1213.11 127.877 1213.28 127.709 1213.45 127.373C1213.53 127.037 1213.62 126.533 1213.62 125.861V120.151ZM1213.62 137.954C1213.62 134.931 1212.86 132.664 1211.27 131.068C1209.68 129.472 1207.41 128.717 1204.4 128.717C1200.88 128.717 1198.11 130.144 1195.93 132.916C1193.75 135.687 1192.66 139.382 1192.66 143.917C1192.66 148.116 1193.67 151.475 1195.68 154.078C1197.69 156.681 1200.29 157.941 1203.56 157.941C1205.07 157.941 1206.58 157.605 1208.08 157.017C1209.59 156.43 1210.93 155.59 1212.11 154.582C1212.69 154.078 1213.11 153.49 1213.36 152.902C1213.62 152.315 1213.7 151.307 1213.7 149.963V149.039V137.954H1213.62Z" fill="#FF1E46"/>
<path d="M1255.11 142.238H1233.4C1232.98 142.238 1232.64 142.322 1232.48 142.49C1232.31 142.658 1232.22 142.994 1232.22 143.581C1232.22 147.864 1233.4 151.391 1235.66 154.163C1237.92 156.934 1240.86 158.278 1244.38 158.278C1245.72 158.278 1247.06 158.026 1248.4 157.606C1249.66 157.186 1250.83 156.514 1251.92 155.59C1252.51 155.171 1253.26 154.415 1254.18 153.323C1255.19 152.231 1255.94 151.643 1256.61 151.643C1257.03 151.643 1257.29 151.727 1257.54 151.979C1257.79 152.231 1257.96 152.483 1257.96 152.903C1257.96 153.407 1257.79 153.995 1257.45 154.583C1257.12 155.171 1256.7 155.842 1256.11 156.43C1254.35 158.362 1252.42 159.789 1250.16 160.797C1247.9 161.805 1245.47 162.309 1242.87 162.309C1237.92 162.309 1233.9 160.629 1230.71 157.186C1227.53 153.743 1225.85 149.46 1225.85 144.253C1225.85 138.711 1227.53 134.176 1230.88 130.565C1234.24 126.954 1238.51 125.106 1243.54 125.106C1247.9 125.106 1251.42 126.366 1254.02 128.801C1256.61 131.321 1257.87 134.596 1257.87 138.879C1257.87 140.222 1257.7 141.146 1257.45 141.566C1257.29 141.986 1256.45 142.238 1255.11 142.238ZM1233.56 139.299H1251C1251.5 139.299 1251.92 139.215 1252.09 139.047C1252.26 138.879 1252.34 138.459 1252.34 137.955C1252.34 135.268 1251.42 133 1249.66 131.237C1247.81 129.473 1245.55 128.549 1242.78 128.549C1241.28 128.549 1239.93 128.885 1238.59 129.473C1237.25 130.145 1236.08 131.069 1235.07 132.244C1234.24 133.168 1233.65 134.26 1233.15 135.352C1232.64 136.443 1232.39 137.451 1232.39 138.291C1232.39 138.627 1232.48 138.879 1232.64 139.047C1232.81 139.215 1233.15 139.299 1233.56 139.299Z" fill="#FF1E46"/>
<path d="M1271.37 131.991C1272.79 129.724 1274.38 128.044 1276.06 126.785C1277.74 125.609 1279.33 124.937 1280.84 124.937C1282.09 124.937 1283.18 125.357 1283.94 126.113C1284.69 126.869 1285.11 127.96 1285.11 129.304C1285.11 130.48 1284.78 131.403 1284.02 132.159C1283.27 132.915 1282.43 133.251 1281.26 133.251C1280.25 133.251 1279.5 132.915 1278.83 132.327C1278.15 131.739 1277.82 130.816 1277.65 129.724C1275.22 130.48 1273.54 131.739 1272.62 133.419C1271.7 135.098 1271.2 138.793 1271.2 144.42C1271.2 148.619 1271.28 151.726 1271.37 153.574C1271.45 155.421 1271.7 156.513 1271.95 156.933C1272.29 157.437 1273.13 157.857 1274.38 158.025C1274.8 158.109 1275.14 158.109 1275.39 158.193C1275.89 158.276 1276.31 158.444 1276.56 158.696C1276.9 158.948 1276.98 159.2 1276.98 159.536C1276.98 160.292 1276.31 160.796 1275.05 161.132C1273.8 161.468 1271.7 161.636 1268.93 161.636C1266.42 161.636 1264.66 161.468 1263.57 161.132C1262.48 160.796 1261.98 160.292 1261.98 159.536C1261.98 158.948 1262.48 158.528 1263.4 158.193C1264.32 157.857 1265 157.605 1265.16 157.437C1265.5 157.101 1265.75 156.345 1265.92 155.169C1266.08 153.994 1266.17 151.978 1266.17 149.039C1266.17 145.092 1266.08 141.817 1266 139.213C1265.92 136.61 1265.75 134.679 1265.5 133.419C1265.33 132.495 1265.16 131.823 1264.83 131.403C1264.49 131.067 1263.82 130.899 1262.73 130.899H1262.06C1261.73 130.899 1261.39 130.732 1261.06 130.48C1260.8 130.228 1260.64 129.892 1260.64 129.472C1260.64 129.052 1260.8 128.632 1261.14 128.296C1261.47 127.96 1262.15 127.54 1263.07 127.12C1264.24 126.533 1265.33 126.029 1266.42 125.609C1267.51 125.189 1268.26 125.021 1268.68 125.021C1269.27 125.021 1269.77 125.525 1270.11 126.533C1270.44 127.54 1270.78 129.304 1270.95 131.823L1271.37 131.991Z" fill="#FF1E46"/>
<path d="M1111.36 216.055C1113.87 216.055 1115.72 215.719 1117.06 215.131C1118.32 214.459 1119.4 213.367 1120.33 211.688C1120.66 211.016 1121.08 210.176 1121.5 209.001C1122.09 207.405 1122.76 206.565 1123.43 206.565C1123.93 206.565 1124.35 206.817 1124.69 207.405C1125.02 207.993 1125.19 208.833 1125.19 209.84C1125.19 212.612 1124.69 215.215 1123.76 217.482C1122.84 219.834 1121.84 221.01 1120.91 221.01C1120.83 221.01 1120.49 220.926 1120.08 220.842C1118.48 220.422 1116.97 220.17 1115.38 220.17H1094.51C1092.42 220.17 1090.91 220.002 1090.07 219.666C1089.23 219.33 1088.73 218.742 1088.73 217.986C1088.73 217.314 1089.4 216.811 1090.74 216.307C1092.08 215.803 1092.83 215.551 1093 215.299C1093.34 214.879 1093.59 213.2 1093.76 210.26C1093.92 207.405 1094.01 202.114 1094.01 194.388C1094.01 186.746 1093.92 181.54 1093.76 178.684C1093.59 175.829 1093.34 174.15 1093 173.73C1092.83 173.478 1092.08 173.142 1090.74 172.722C1089.4 172.302 1088.73 171.714 1088.73 171.126C1088.73 170.203 1089.4 169.615 1090.66 169.195C1091.91 168.775 1094.01 168.607 1096.86 168.607C1099.71 168.607 1101.8 168.775 1103.06 169.195C1104.32 169.615 1104.99 170.287 1104.99 171.126C1104.99 171.798 1104.32 172.302 1102.98 172.722C1101.64 173.142 1100.88 173.478 1100.71 173.814C1100.38 174.317 1100.04 176.165 1099.96 179.44C1099.79 182.715 1099.71 187.754 1099.71 194.472C1099.71 201.191 1099.79 205.893 1099.88 208.665C1099.96 211.436 1100.21 213.2 1100.55 214.039C1100.88 214.795 1101.64 215.299 1102.81 215.635C1103.98 215.971 1105.91 216.139 1108.59 216.139H1111.36V216.055Z" fill="#FF1E46"/>
<path d="M1157.37 201.022H1135.66C1135.25 201.022 1134.91 201.106 1134.74 201.274C1134.58 201.442 1134.49 201.778 1134.49 202.366C1134.49 206.649 1135.66 210.176 1137.93 212.947C1140.19 215.718 1143.12 217.062 1146.64 217.062C1147.99 217.062 1149.33 216.81 1150.67 216.39C1151.93 215.97 1153.1 215.298 1154.19 214.375C1154.78 213.955 1155.53 213.199 1156.45 212.107C1157.46 211.015 1158.21 210.428 1158.88 210.428C1159.3 210.428 1159.55 210.512 1159.8 210.764C1160.06 211.015 1160.22 211.267 1160.22 211.687C1160.22 212.191 1160.06 212.779 1159.72 213.367C1159.39 213.955 1158.97 214.627 1158.38 215.214C1156.62 217.146 1154.69 218.574 1152.43 219.581C1150.17 220.589 1147.73 221.093 1145.14 221.093C1140.19 221.093 1136.17 219.413 1132.98 215.97C1129.8 212.527 1128.12 208.244 1128.12 203.037C1128.12 197.495 1129.8 192.96 1133.15 189.349C1136.5 185.738 1140.78 183.89 1145.81 183.89C1150.17 183.89 1153.69 185.15 1156.28 187.585C1158.88 190.105 1160.14 193.38 1160.14 197.663C1160.14 199.007 1159.97 199.93 1159.72 200.35C1159.47 200.77 1158.71 201.022 1157.37 201.022ZM1135.83 198.083H1153.27C1153.77 198.083 1154.19 197.999 1154.36 197.831C1154.52 197.663 1154.61 197.243 1154.61 196.739C1154.61 194.052 1153.69 191.784 1151.93 190.021C1150.08 188.257 1147.82 187.334 1145.05 187.334C1143.54 187.334 1142.2 187.669 1140.86 188.257C1139.52 188.929 1138.35 189.853 1137.34 191.029C1136.5 191.952 1135.92 193.044 1135.41 194.136C1134.91 195.227 1134.66 196.235 1134.66 197.075C1134.66 197.411 1134.74 197.663 1134.91 197.831C1135.08 197.999 1135.33 198.083 1135.83 198.083Z" fill="#FF1E46"/>
<path d="M1172.46 189.433C1172.46 189.853 1172.46 190.105 1172.55 190.273C1172.63 190.441 1172.71 190.441 1172.88 190.441C1173.22 190.441 1173.64 190.021 1174.31 189.181C1174.81 188.509 1175.23 187.921 1175.56 187.585C1176.65 186.326 1177.91 185.402 1179.33 184.814C1180.76 184.226 1182.35 183.89 1184.2 183.89C1187.47 183.89 1190.06 184.73 1192.08 186.41C1194.09 188.089 1195.43 190.693 1196.18 194.136C1196.35 194.724 1196.43 195.563 1196.52 196.487C1196.6 197.411 1196.6 198.671 1196.6 200.266C1196.6 200.77 1196.6 201.61 1196.6 202.702C1196.6 203.793 1196.6 204.717 1196.6 205.389C1196.6 206.565 1196.6 207.824 1196.69 209.168C1196.77 210.512 1196.77 211.855 1196.85 213.367C1196.94 214.459 1197.02 215.13 1197.19 215.55C1197.36 215.97 1197.69 216.306 1198.11 216.642C1198.28 216.726 1198.61 216.894 1199.2 217.062C1200.29 217.398 1200.88 217.818 1200.88 218.406C1200.88 219.161 1200.37 219.665 1199.28 220.001C1198.19 220.337 1196.43 220.505 1194 220.505C1191.57 220.505 1189.81 220.337 1188.72 220.001C1187.63 219.665 1187.13 219.161 1187.13 218.406C1187.13 217.818 1187.63 217.314 1188.72 216.978C1189.81 216.642 1190.48 216.222 1190.73 215.802C1190.99 215.466 1191.15 214.375 1191.24 212.695C1191.32 211.015 1191.4 207.068 1191.4 200.77C1191.4 196.403 1190.82 193.296 1189.56 191.448C1188.3 189.601 1186.29 188.677 1183.53 188.677C1181.68 188.677 1180.01 189.097 1178.5 189.853C1176.9 190.693 1175.56 191.868 1174.31 193.464C1173.72 194.136 1173.38 194.892 1173.13 195.731C1172.88 196.571 1172.8 197.747 1172.8 199.426V201.946C1172.8 207.152 1172.88 210.596 1172.96 212.443C1173.05 214.291 1173.22 215.382 1173.47 215.802C1173.72 216.222 1174.39 216.642 1175.48 216.978C1176.57 217.314 1177.07 217.818 1177.07 218.406C1177.07 219.161 1176.57 219.665 1175.48 220.001C1174.39 220.337 1172.63 220.505 1170.2 220.505C1167.77 220.505 1166.01 220.337 1164.83 220.001C1163.66 219.665 1163.16 219.161 1163.16 218.406C1163.16 217.818 1163.66 217.314 1164.75 216.978C1165.84 216.642 1166.51 216.222 1166.76 215.802C1167.01 215.382 1167.18 214.123 1167.27 212.023C1167.35 209.924 1167.43 206.565 1167.43 201.946C1167.43 198.419 1167.35 195.647 1167.18 193.716C1167.01 191.784 1166.85 190.609 1166.51 190.105C1166.34 189.769 1165.59 189.517 1164.42 189.349C1163.24 189.181 1162.57 188.677 1162.57 187.921C1162.57 187.082 1163.58 186.242 1165.5 185.318C1167.43 184.394 1169.28 183.974 1171.04 183.974C1171.62 183.974 1172.13 184.142 1172.38 184.562C1172.63 184.898 1172.8 185.654 1172.8 186.662V189.433H1172.46Z" fill="#FF1E46"/>
<path d="M1229.96 178.936C1229.96 177.004 1229.88 175.577 1229.62 174.821C1229.37 173.981 1229.04 173.561 1228.54 173.393C1228.28 173.309 1227.86 173.225 1227.36 173.225C1226.02 173.057 1225.35 172.553 1225.35 171.714C1225.35 171.21 1225.6 170.79 1226.02 170.454C1226.44 170.118 1227.11 169.698 1228.12 169.362C1229.46 168.858 1230.63 168.522 1231.8 168.186C1232.98 167.851 1233.82 167.767 1234.4 167.767C1235.07 167.767 1235.49 167.935 1235.74 168.27C1236 168.606 1236.08 169.278 1236.08 170.286C1236.08 171.21 1236 174.569 1235.74 180.363C1235.49 186.074 1235.41 191.365 1235.41 196.235C1235.41 202.954 1235.49 207.656 1235.58 210.344C1235.66 213.031 1236 214.627 1236.33 215.131C1236.5 215.466 1237.25 215.634 1238.43 215.802C1239.6 215.97 1240.27 216.474 1240.27 217.23C1240.27 217.986 1239.26 218.91 1237.34 219.749C1235.41 220.673 1233.56 221.093 1231.8 221.093C1231.13 221.093 1230.71 220.925 1230.46 220.589C1230.21 220.253 1230.04 219.581 1230.04 218.574V217.398C1230.04 217.062 1230.04 216.81 1229.96 216.642C1229.88 216.474 1229.79 216.474 1229.71 216.474C1229.37 216.474 1228.87 216.726 1228.12 217.314C1227.78 217.566 1227.61 217.734 1227.45 217.818C1225.94 218.91 1224.51 219.581 1223.09 220.085C1221.66 220.505 1220.07 220.757 1218.23 220.757C1213.62 220.757 1209.93 219.161 1206.99 215.886C1204.06 212.611 1202.64 208.412 1202.64 203.206C1202.64 197.747 1204.31 193.212 1207.58 189.517C1210.85 185.906 1214.96 184.058 1219.82 184.058C1222.92 184.058 1225.85 184.814 1228.62 186.326C1229.04 186.578 1229.29 186.662 1229.37 186.662C1229.54 186.662 1229.71 186.494 1229.88 186.158C1229.96 185.822 1230.04 185.318 1230.04 184.646V178.936H1229.96ZM1229.96 196.739C1229.96 193.716 1229.21 191.449 1227.61 189.853C1226.02 188.257 1223.76 187.502 1220.74 187.502C1217.22 187.502 1214.45 188.929 1212.27 191.7C1210.1 194.472 1209.01 198.167 1209.01 202.702C1209.01 206.901 1210.01 210.26 1212.02 212.863C1214.03 215.466 1216.63 216.726 1219.9 216.726C1221.41 216.726 1222.92 216.39 1224.43 215.802C1225.94 215.214 1227.28 214.375 1228.45 213.367C1229.04 212.863 1229.46 212.275 1229.71 211.687C1229.96 211.1 1230.04 210.092 1230.04 208.748V207.824V196.739H1229.96Z" fill="#FF1E46"/>
<path d="M1245.8 206.733C1245.8 201.191 1245.72 197.16 1245.63 194.556C1245.55 191.953 1245.3 190.441 1244.96 190.021C1244.8 189.686 1244.04 189.434 1242.87 189.266C1241.69 189.098 1241.02 188.594 1241.02 187.838C1241.02 187.418 1241.19 186.998 1241.61 186.578C1242.03 186.158 1242.62 185.823 1243.62 185.487C1244.8 185.067 1245.88 184.647 1247.06 184.395C1248.23 184.143 1249.07 183.975 1249.74 183.975C1250.33 183.975 1250.83 184.143 1251.08 184.479C1251.33 184.815 1251.5 185.487 1251.5 186.494C1251.5 186.746 1251.5 187.418 1251.5 188.51C1251.33 194.892 1251.25 201.275 1251.25 207.825C1251.25 210.932 1251.33 213.032 1251.42 214.123C1251.5 215.215 1251.75 215.887 1252.09 216.223C1252.34 216.475 1252.93 216.727 1253.93 216.979C1254.94 217.231 1255.36 217.734 1255.36 218.322C1255.36 218.994 1254.85 219.582 1253.76 219.918C1252.67 220.254 1251 220.422 1248.65 220.422C1246.22 220.422 1244.46 220.254 1243.37 219.918C1242.28 219.582 1241.78 219.078 1241.78 218.322C1241.78 217.734 1242.28 217.314 1243.2 216.979C1244.12 216.643 1244.8 216.391 1245.05 216.223C1245.38 215.887 1245.63 215.047 1245.8 213.787C1245.8 212.36 1245.8 210.092 1245.8 206.733ZM1244.46 172.47C1244.46 171.378 1244.8 170.454 1245.55 169.699C1246.3 168.943 1247.23 168.607 1248.23 168.607C1249.32 168.607 1250.16 168.943 1250.83 169.531C1251.5 170.203 1251.84 171.042 1251.84 172.05C1251.84 173.058 1251.5 173.982 1250.75 174.737C1249.99 175.493 1249.15 175.829 1248.06 175.829C1247.06 175.829 1246.14 175.493 1245.47 174.905C1244.88 174.15 1244.46 173.394 1244.46 172.47Z" fill="#FF1E46"/>
<path d="M1266.76 189.433C1266.76 189.853 1266.76 190.105 1266.84 190.273C1266.92 190.441 1267.01 190.441 1267.18 190.441C1267.51 190.441 1267.93 190.021 1268.6 189.181C1269.1 188.509 1269.52 187.921 1269.86 187.585C1270.95 186.326 1272.2 185.402 1273.63 184.814C1275.05 184.226 1276.65 183.89 1278.49 183.89C1281.76 183.89 1284.36 184.73 1286.37 186.41C1288.38 188.089 1289.72 190.693 1290.48 194.136C1290.64 194.724 1290.73 195.563 1290.81 196.487C1290.9 197.411 1290.9 198.671 1290.9 200.266C1290.9 200.77 1290.9 201.61 1290.9 202.702C1290.9 203.793 1290.9 204.717 1290.9 205.389C1290.9 206.565 1290.9 207.824 1290.98 209.168C1291.06 210.512 1291.06 211.855 1291.15 213.367C1291.23 214.459 1291.32 215.13 1291.48 215.55C1291.65 215.97 1291.99 216.306 1292.4 216.642C1292.57 216.726 1292.91 216.894 1293.49 217.062C1294.58 217.398 1295.17 217.818 1295.17 218.406C1295.17 219.161 1294.67 219.665 1293.58 220.001C1292.49 220.337 1290.73 220.505 1288.3 220.505C1285.87 220.505 1284.11 220.337 1283.02 220.001C1281.93 219.665 1281.42 219.161 1281.42 218.406C1281.42 217.818 1281.93 217.314 1283.02 216.978C1284.11 216.642 1284.78 216.222 1285.03 215.802C1285.28 215.466 1285.45 214.375 1285.53 212.695C1285.62 211.015 1285.7 207.068 1285.7 200.77C1285.7 196.403 1285.11 193.296 1283.86 191.448C1282.6 189.601 1280.59 188.677 1277.82 188.677C1275.98 188.677 1274.3 189.097 1272.79 189.853C1271.2 190.693 1269.86 191.868 1268.6 193.464C1268.01 194.136 1267.68 194.892 1267.43 195.731C1267.18 196.571 1267.09 197.747 1267.09 199.426V201.946C1267.09 207.152 1267.18 210.596 1267.26 212.443C1267.34 214.291 1267.51 215.382 1267.76 215.802C1268.01 216.222 1268.68 216.642 1269.77 216.978C1270.86 217.314 1271.37 217.818 1271.37 218.406C1271.37 219.161 1270.86 219.665 1269.77 220.001C1268.68 220.337 1266.92 220.505 1264.49 220.505C1262.06 220.505 1260.3 220.337 1259.13 220.001C1257.96 219.665 1257.45 219.161 1257.45 218.406C1257.45 217.818 1257.96 217.314 1259.05 216.978C1260.14 216.642 1260.81 216.222 1261.06 215.802C1261.31 215.382 1261.48 214.123 1261.56 212.023C1261.64 209.924 1261.73 206.565 1261.73 201.946C1261.73 198.419 1261.64 195.647 1261.48 193.716C1261.31 191.784 1261.14 190.609 1260.81 190.105C1260.64 189.769 1259.88 189.517 1258.71 189.349C1257.54 189.181 1256.87 188.677 1256.87 187.921C1256.87 187.082 1257.87 186.242 1259.8 185.318C1261.73 184.394 1263.57 183.974 1265.33 183.974C1265.92 183.974 1266.42 184.142 1266.67 184.562C1266.92 184.898 1267.09 185.654 1267.09 186.662V189.433H1266.76Z" fill="#FF1E46"/>
<path d="M1303.89 205.893C1302.29 204.885 1301.04 203.542 1300.2 202.03C1299.36 200.518 1298.94 198.755 1298.94 196.739C1298.94 192.96 1300.28 189.937 1303.05 187.502C1305.82 185.066 1309.25 183.891 1313.53 183.891C1314.87 183.891 1316.54 184.058 1318.56 184.478C1320.57 184.898 1321.91 185.066 1322.58 185.066C1323.58 185.066 1324.59 184.814 1325.68 184.394C1326.69 183.891 1327.61 183.219 1328.45 182.379C1328.86 182.547 1329.28 182.799 1329.54 183.135C1329.79 183.471 1329.87 183.974 1329.87 184.478C1329.87 185.402 1329.54 186.242 1328.78 187.082C1328.03 187.921 1327.02 188.593 1325.6 189.265C1326.18 190.273 1326.6 191.281 1326.94 192.204C1327.27 193.128 1327.36 194.22 1327.36 195.312C1327.36 199.091 1325.93 202.198 1323.08 204.633C1320.23 207.069 1316.63 208.328 1312.27 208.328C1311.26 208.328 1310.26 208.244 1309.17 207.992C1308.16 207.824 1307.16 207.488 1306.23 207.069C1305.23 207.488 1304.39 208.076 1303.8 208.832C1303.22 209.588 1302.88 210.428 1302.88 211.352C1302.88 212.359 1303.3 213.199 1304.22 213.871C1305.14 214.543 1306.23 214.879 1307.66 214.879C1309.17 214.879 1311.6 214.711 1314.95 214.291C1318.3 213.871 1320.9 213.703 1322.75 213.703C1325.51 213.703 1327.69 214.375 1329.28 215.802C1330.88 217.23 1331.63 219.078 1331.63 221.513C1331.63 225.208 1329.79 228.315 1326.1 230.835C1322.41 233.354 1317.72 234.614 1311.93 234.614C1307.49 234.614 1303.97 233.69 1301.29 231.926C1298.61 230.163 1297.27 227.811 1297.27 224.872C1297.27 223.444 1297.6 222.269 1298.36 221.177C1299.03 220.085 1300.2 219.162 1301.79 218.154C1300.45 217.566 1299.53 216.894 1298.86 216.054C1298.19 215.215 1297.94 214.207 1297.94 213.031C1297.94 211.519 1298.44 210.176 1299.44 209C1300.37 207.824 1301.88 206.817 1303.89 205.893ZM1304.47 219.329C1303.8 220.001 1303.22 220.841 1302.88 221.681C1302.55 222.521 1302.29 223.444 1302.29 224.368C1302.29 226.552 1303.3 228.315 1305.23 229.659C1307.16 231.002 1309.84 231.674 1313.19 231.674C1316.96 231.674 1320.15 230.835 1322.58 229.239C1325.01 227.643 1326.27 225.628 1326.27 223.276C1326.27 221.849 1325.85 220.757 1324.93 220.001C1324 219.245 1322.66 218.826 1320.9 218.826C1320.32 218.826 1318.72 218.994 1316.21 219.329C1313.69 219.665 1311.43 219.833 1309.42 219.833C1308.5 219.833 1307.58 219.833 1306.74 219.749C1305.98 219.581 1305.23 219.497 1304.47 219.329ZM1304.47 196.067C1304.47 198.923 1305.23 201.19 1306.74 202.954C1308.25 204.717 1310.26 205.641 1312.69 205.641C1315.29 205.641 1317.38 204.717 1318.97 202.954C1320.57 201.19 1321.49 198.923 1321.49 196.151C1321.49 193.296 1320.65 190.945 1319.06 189.181C1317.47 187.418 1315.37 186.494 1312.77 186.494C1310.42 186.494 1308.41 187.418 1306.82 189.181C1305.23 191.113 1304.47 193.38 1304.47 196.067Z" fill="#FF1E46"/>
<path d="M1066.85 214.292H1066.18L1053.61 163.988L1041.62 115.953H1042.46C1044.05 115.953 1045.39 114.609 1045.39 113.013C1045.39 111.418 1044.05 110.074 1042.46 110.074H1037.68H1034.41H1004.74H1003.15H1002.73H999.043H996.194H991.5C989.907 110.074 988.566 111.418 988.566 113.013C988.566 114.609 989.907 115.953 991.5 115.953H992.338L971.132 214.292H970.294C968.701 214.292 967.36 215.635 967.36 217.231C967.36 218.826 968.701 220.17 970.294 220.17H977.838C979.43 220.17 980.771 218.826 980.771 217.231C980.771 215.635 979.43 214.292 977.838 214.292H977.67L982.196 193.381H1008.85L1003.99 214.292H1003.15C1001.56 214.292 1000.22 215.635 1000.22 217.231C1000.22 218.826 1001.56 220.17 1003.15 220.17H1010.69C1012.29 220.17 1013.63 218.826 1013.63 217.231C1013.63 215.635 1012.29 214.292 1010.69 214.292H1010.53L1016.81 186.915L1017.73 190.694C1017.73 190.862 1017.82 190.946 1017.82 191.114L1023.27 214.292H1022.93C1021.34 214.292 1020 215.635 1020 217.231C1020 218.826 1021.34 220.17 1022.93 220.17H1030.47C1032.07 220.17 1033.41 218.826 1033.41 217.231C1033.41 215.635 1032.07 214.292 1030.47 214.292H1029.8L1024.86 193.381H1054.28L1059.48 214.292H1059.22C1057.63 214.292 1056.29 215.635 1056.29 217.231C1056.29 218.826 1057.63 220.17 1059.22 220.17H1066.77C1068.36 220.17 1069.7 218.826 1069.7 217.231C1069.79 215.635 1068.44 214.292 1066.85 214.292ZM1017.32 161.385L1012.79 142.154H1041.54L1046.32 161.385H1017.32ZM1035.17 116.457L1039.95 135.688H1011.28L1006.75 116.457H1035.17ZM1004.74 135.772H994.601L998.792 116.541H1000.22L1004.74 135.772ZM993.26 142.154H1006.34L1010.86 161.385H989.069L993.26 142.154ZM1010.27 186.999H983.537L987.728 167.767H1012.37L1013.63 172.974L1010.27 186.999ZM1023.43 187.083L1018.82 167.767H1047.91L1052.69 186.999H1023.43V187.083Z" fill="#FF1E46"/>
</svg>
