<svg width="987" height="340" viewBox="0 0 987 340" fill="none" xmlns="http://www.w3.org/2000/svg">
<path d="M343.384 130.682C350.197 130.682 355.193 129.773 358.827 128.182C362.234 126.364 365.186 123.409 367.684 118.864C368.593 117.045 369.728 114.773 370.864 111.591C372.453 107.273 374.27 105 376.087 105C377.45 105 378.585 105.682 379.494 107.273C380.402 108.864 380.856 111.136 380.856 113.864C380.856 121.364 379.494 128.409 376.995 134.545C374.497 140.909 371.772 144.091 369.274 144.091C369.047 144.091 368.138 143.864 367.003 143.636C362.688 142.5 358.6 141.818 354.285 141.818H297.736C292.058 141.818 287.97 141.364 285.699 140.455C283.428 139.545 282.065 137.955 282.065 135.909C282.065 134.091 283.882 132.727 287.516 131.364C291.15 130 293.194 129.318 293.648 128.636C294.556 127.5 295.238 122.955 295.692 115C296.146 107.273 296.373 92.9545 296.373 72.0454C296.373 51.3636 296.146 37.2727 295.692 29.5455C295.238 21.8182 294.556 17.2727 293.648 16.1364C293.194 15.4545 291.15 14.5455 287.516 13.4091C283.882 12.2727 282.065 10.6818 282.065 9.09091C282.065 6.59091 283.882 5 287.289 3.86364C290.695 2.72727 296.373 2.27273 304.095 2.27273C311.816 2.27273 317.494 2.72727 320.9 3.86364C324.307 5 326.124 6.81818 326.124 9.09091C326.124 10.9091 324.307 12.2727 320.673 13.4091C317.04 14.5455 314.996 15.4545 314.542 16.3636C313.633 17.7273 312.725 22.7273 312.498 31.5909C312.043 40.4545 311.816 54.0909 311.816 72.2727C311.816 90.4545 312.043 103.182 312.27 110.682C312.498 118.182 313.179 122.955 314.087 125.227C314.996 127.273 317.04 128.636 320.219 129.545C323.399 130.455 328.622 130.909 335.889 130.909H343.384V130.682Z" fill="#FF1E46"/>
<path d="M453.303 85.0002C453.303 84.3184 453.303 83.4093 453.531 82.7275C453.531 81.8184 453.531 80.682 453.531 79.0911C453.531 69.5457 451.941 62.7275 448.988 58.6366C446.036 54.5457 441.267 52.5002 434.454 52.5002C431.047 52.5002 427.868 53.182 425.142 54.5457C422.417 55.9093 419.919 57.9548 417.421 60.682C416.967 61.3639 416.285 62.2729 415.15 63.6366C411.97 67.9548 409.018 70.2275 405.838 70.2275C404.022 70.2275 402.432 69.5457 401.069 68.4093C399.934 67.2729 399.252 65.682 399.252 63.6366C399.252 59.0911 402.886 54.7729 409.926 50.682C416.967 46.5911 425.142 44.5457 434.454 44.5457C446.036 44.5457 454.439 47.5002 459.89 53.182C465.34 58.8639 468.065 67.7275 468.065 79.7729C468.065 83.182 468.065 87.9548 467.838 93.6366C467.611 99.3184 467.611 103.409 467.611 105.682C467.611 117.046 467.838 124.091 468.52 127.273C469.201 130.455 470.109 131.818 471.699 131.818C472.38 131.818 473.062 131.818 473.97 131.591C474.878 131.364 475.56 131.364 475.787 131.364C476.695 131.364 477.377 131.591 477.831 132.046C478.285 132.5 478.512 133.182 478.512 134.091C478.512 136.364 477.15 138.409 474.197 140.682C471.245 142.955 468.292 144.091 465.34 144.091C461.706 144.091 457.618 140 453.303 132.273C452.849 131.591 452.622 131.137 452.395 130.682H451.032C446.717 135 442.175 138.182 437.406 140.227C432.637 142.273 427.413 143.409 421.509 143.409C412.425 143.409 404.93 140.909 399.479 135.909C394.029 130.909 391.304 124.318 391.304 115.909C391.304 105.909 394.937 98.182 402.205 92.5002C409.472 86.8184 419.692 84.0911 432.864 84.0911C436.043 84.0911 439.45 84.0911 442.857 84.3184C446.49 84.3184 449.897 84.5457 453.303 85.0002ZM453.303 93.182C450.124 92.7275 446.945 92.2729 444.219 92.0457C441.494 91.8184 438.996 91.5911 436.498 91.5911C426.959 91.5911 419.919 93.4093 414.923 97.2729C410.153 101.137 407.655 106.818 407.655 114.091C407.655 120.227 409.472 125 412.879 128.409C416.285 131.818 421.055 133.637 427.186 133.637C434.908 133.637 441.267 131.137 446.036 126.364C450.805 121.591 453.303 115.227 453.303 107.273V93.182Z" fill="#FF1E46"/>
<path d="M560.497 30.2273C560.497 25 560.27 21.1364 559.588 19.0909C558.907 16.8182 557.999 15.6818 556.636 15.2273C555.955 15 554.819 14.7727 553.457 14.7727C549.823 14.3182 548.006 12.9545 548.006 10.6818C548.006 9.31818 548.687 8.18182 549.823 7.27273C550.958 6.36364 552.775 5.22727 555.501 4.31818C559.134 2.95455 562.314 2.04545 565.493 1.13636C568.673 0.227273 570.717 0 572.306 0C574.123 0 575.259 0.454545 575.94 1.36364C576.621 2.27273 576.848 4.31818 576.848 6.81818C576.848 9.31818 576.621 18.4091 575.94 34.0909C575.259 49.5455 575.032 63.8636 575.032 77.0455C575.032 95.2273 575.259 107.955 575.486 115.227C575.713 122.5 576.621 126.818 577.53 128.182C577.984 129.091 580.028 129.545 583.207 130C586.387 130.455 588.204 131.818 588.204 133.864C588.204 135.909 585.478 138.409 580.255 140.682C575.032 143.182 570.035 144.318 565.266 144.318C563.449 144.318 562.314 143.864 561.632 142.955C560.951 142.045 560.497 140.227 560.497 137.5V134.318C560.497 133.409 560.497 132.727 560.27 132.273C560.043 131.818 559.816 131.818 559.588 131.818C558.68 131.818 557.317 132.5 555.273 134.091C554.365 134.773 553.911 135.227 553.457 135.455C549.369 138.409 545.508 140.227 541.647 141.591C537.786 142.727 533.471 143.409 528.475 143.409C515.984 143.409 505.992 139.091 498.043 130.227C490.094 121.364 486.233 110 486.233 95.9091C486.233 81.1364 490.775 68.8636 499.633 58.8636C508.49 49.0909 519.618 44.0909 532.79 44.0909C541.193 44.0909 549.142 46.1364 556.636 50.2273C557.772 50.9091 558.453 51.1364 558.68 51.1364C559.134 51.1364 559.588 50.6818 560.043 49.7727C560.27 48.8636 560.497 47.5 560.497 45.6818V30.2273ZM560.497 78.4091C560.497 70.2273 558.453 64.0909 554.138 59.7727C549.823 55.4545 543.691 53.4091 535.515 53.4091C525.977 53.4091 518.482 57.2727 512.578 64.7727C506.673 72.2727 503.721 82.2727 503.721 94.5454C503.721 105.909 506.446 115 511.896 122.045C517.347 129.091 524.387 132.5 533.244 132.5C537.332 132.5 541.42 131.591 545.508 130C549.596 128.409 553.229 126.136 556.409 123.409C557.999 122.045 559.134 120.455 559.816 118.864C560.497 117.273 560.724 114.545 560.724 110.909V108.409V78.4091H560.497Z" fill="#FF1E46"/>
<path d="M667.236 30.2273C667.236 25 667.009 21.1364 666.328 19.0909C665.646 16.8182 664.738 15.6818 663.375 15.2273C662.694 15 661.558 14.7727 660.196 14.7727C656.562 14.3182 654.745 12.9545 654.745 10.6818C654.745 9.31818 655.427 8.18182 656.562 7.27273C657.698 6.36364 659.515 5.22727 662.24 4.31818C665.873 2.95455 669.053 2.04545 672.232 1.13636C675.412 0.227273 677.456 0 679.046 0C680.862 0 681.998 0.454545 682.679 1.36364C683.361 2.27273 683.588 4.31818 683.588 6.81818C683.588 9.31818 683.361 18.4091 682.679 34.0909C681.998 49.5455 681.771 63.8636 681.771 77.0455C681.771 95.2273 681.998 107.955 682.225 115.227C682.452 122.5 683.361 126.818 684.269 128.182C684.723 129.091 686.767 129.545 689.947 130C693.126 130.455 694.943 131.818 694.943 133.864C694.943 135.909 692.218 138.409 686.994 140.682C681.771 143.182 676.775 144.318 672.005 144.318C670.188 144.318 669.053 143.864 668.372 142.955C667.69 142.045 667.236 140.227 667.236 137.5V134.318C667.236 133.409 667.236 132.727 667.009 132.273C666.782 131.818 666.555 131.818 666.328 131.818C665.419 131.818 664.057 132.5 662.013 134.091C661.104 134.773 660.65 135.227 660.196 135.455C656.108 138.409 652.247 140.227 648.386 141.591C644.526 142.727 640.211 143.409 635.214 143.409C622.723 143.409 612.731 139.091 604.782 130.227C596.833 121.364 592.973 110 592.973 95.9091C592.973 81.1364 597.515 68.8636 606.372 58.8636C615.229 49.0909 626.357 44.0909 639.529 44.0909C647.932 44.0909 655.881 46.1364 663.375 50.2273C664.511 50.9091 665.192 51.1364 665.419 51.1364C665.873 51.1364 666.328 50.6818 666.782 49.7727C667.009 48.8636 667.236 47.5 667.236 45.6818V30.2273ZM667.236 78.4091C667.236 70.2273 665.192 64.0909 660.877 59.7727C656.562 55.4545 650.43 53.4091 642.254 53.4091C632.716 53.4091 625.222 57.2727 619.317 64.7727C613.412 72.2727 610.46 82.2727 610.46 94.5454C610.46 105.909 613.185 115 618.636 122.045C624.086 129.091 631.126 132.5 639.983 132.5C644.071 132.5 648.159 131.591 652.247 130C656.335 128.409 659.969 126.136 663.148 123.409C664.738 122.045 665.873 120.455 666.555 118.864C667.236 117.273 667.463 114.545 667.463 110.909V108.409V78.4091H667.236Z" fill="#FF1E46"/>
<path d="M779.653 89.9999H720.833C719.698 89.9999 718.789 90.2272 718.335 90.6817C717.881 91.1362 717.654 92.0453 717.654 93.6362C717.654 105.227 720.833 114.773 726.965 122.273C733.097 129.773 741.045 133.409 750.584 133.409C754.218 133.409 757.851 132.727 761.485 131.591C764.891 130.454 768.071 128.636 771.023 126.136C772.613 125 774.657 122.954 777.155 120C779.88 117.045 781.924 115.454 783.741 115.454C784.877 115.454 785.558 115.682 786.239 116.364C786.921 117.045 787.375 117.727 787.375 118.864C787.375 120.227 786.921 121.818 786.012 123.409C785.104 125 783.968 126.818 782.379 128.409C777.609 133.636 772.386 137.5 766.254 140.227C760.122 142.954 753.536 144.318 746.496 144.318C733.097 144.318 722.196 139.773 713.566 130.454C704.936 121.136 700.394 109.545 700.394 95.4544C700.394 80.4544 704.936 68.1817 714.02 58.409C723.104 48.6362 734.686 43.6362 748.313 43.6362C760.122 43.6362 769.661 47.0453 776.701 53.6362C783.741 60.4544 787.148 69.3181 787.148 80.909C787.148 84.5453 786.694 87.0453 786.012 88.1817C785.558 89.3181 783.287 89.9999 779.653 89.9999ZM721.287 82.0453H768.525C769.888 82.0453 771.023 81.8181 771.478 81.3635C771.932 80.909 772.159 79.7726 772.159 78.409C772.159 71.1362 769.661 64.9999 764.891 60.2272C759.895 55.4544 753.763 52.9544 746.269 52.9544C742.181 52.9544 738.547 53.8635 734.914 55.4544C731.28 57.2726 728.1 59.7726 725.375 62.9544C723.104 65.4544 721.514 68.409 720.152 71.3635C718.789 74.3181 718.108 77.0453 718.108 79.3181C718.108 80.2272 718.335 80.909 718.789 81.3635C719.243 81.8181 720.152 82.0453 721.287 82.0453Z" fill="#FF1E46"/>
<path d="M823.712 62.2727C827.573 56.1364 831.888 51.5909 836.43 48.1818C840.972 45 845.287 43.1818 849.375 43.1818C852.782 43.1818 855.734 44.3182 857.778 46.3636C859.822 48.4091 860.957 51.3636 860.957 55C860.957 58.1818 860.049 60.6818 858.005 62.7273C855.961 64.7727 853.69 65.6818 850.511 65.6818C847.785 65.6818 845.741 64.7727 843.924 63.1818C842.108 61.5909 841.199 59.0909 840.745 56.1364C834.159 58.1818 829.617 61.5909 827.119 66.1364C824.621 70.6818 823.258 80.6818 823.258 95.9091C823.258 107.273 823.485 115.682 823.712 120.682C823.939 125.682 824.62 128.636 825.302 129.773C826.21 131.136 828.481 132.273 831.888 132.727C833.023 132.955 833.932 132.955 834.613 133.182C835.976 133.409 837.111 133.864 837.793 134.545C838.701 135.227 838.928 135.909 838.928 136.818C838.928 138.864 837.111 140.227 833.705 141.136C830.298 142.045 824.62 142.5 817.126 142.5C810.313 142.5 805.544 142.045 802.591 141.136C799.639 140.227 798.276 138.864 798.276 136.818C798.276 135.227 799.639 134.091 802.137 133.182C804.635 132.273 806.452 131.591 806.906 131.136C807.815 130.227 808.496 128.182 808.95 125C809.404 121.818 809.632 116.364 809.632 108.409C809.632 97.7273 809.404 88.8636 809.177 81.8182C808.95 74.7727 808.496 69.5455 807.815 66.1364C807.361 63.6364 806.906 61.8182 805.998 60.6818C805.089 59.7727 803.273 59.3182 800.32 59.3182H798.503C797.595 59.3182 796.687 58.8636 795.778 58.1818C795.097 57.5 794.643 56.5909 794.643 55.4545C794.643 54.3182 795.097 53.1818 796.005 52.2727C796.914 51.3636 798.73 50.2273 801.229 49.0909C804.408 47.5 807.36 46.1364 810.313 45C813.265 43.8636 815.309 43.4091 816.445 43.4091C818.034 43.4091 819.397 44.7727 820.306 47.5C821.214 50.2273 822.122 55 822.577 61.8182L823.712 62.2727Z" fill="#FF1E46"/>
<path d="M390.168 289.773C396.981 289.773 401.978 288.864 405.611 287.273C409.018 285.455 411.97 282.5 414.468 277.955C415.377 276.136 416.512 273.864 417.648 270.682C419.238 266.364 421.054 264.091 422.871 264.091C424.234 264.091 425.369 264.773 426.278 266.364C427.186 267.955 427.64 270.227 427.64 272.955C427.64 280.455 426.278 287.5 423.78 293.636C421.281 300 418.556 303.182 416.058 303.182C415.831 303.182 414.923 302.955 413.787 302.727C409.472 301.591 405.384 300.909 401.069 300.909H344.52C338.842 300.909 334.754 300.455 332.483 299.545C330.212 298.636 328.85 297.045 328.85 295C328.85 293.182 330.666 291.818 334.3 290.455C337.934 289.091 339.978 288.409 340.432 287.727C341.34 286.591 342.022 282.045 342.476 274.091C342.93 266.364 343.157 252.045 343.157 231.136C343.157 210.455 342.93 196.364 342.476 188.636C342.022 180.909 341.34 176.364 340.432 175.227C339.978 174.545 337.934 173.636 334.3 172.5C330.666 171.364 328.85 169.773 328.85 168.182C328.85 165.682 330.666 164.091 334.073 162.955C337.48 161.818 343.157 161.364 350.879 161.364C358.6 161.364 364.278 161.818 367.685 162.955C371.091 164.091 372.908 165.909 372.908 168.182C372.908 170 371.091 171.364 367.458 172.5C363.824 173.636 361.78 174.545 361.326 175.455C360.417 176.818 359.509 181.818 359.282 190.682C358.828 199.545 358.6 213.182 358.6 231.364C358.6 249.545 358.828 262.273 359.055 269.773C359.282 277.273 359.963 282.045 360.871 284.318C361.78 286.364 363.824 287.727 367.003 288.636C370.183 289.545 375.406 290 382.674 290H390.168V289.773Z" fill="#FF1E46"/>
<path d="M514.849 249.091H456.028C454.893 249.091 453.984 249.318 453.53 249.773C453.076 250.227 452.849 251.136 452.849 252.727C452.849 264.318 456.028 273.864 462.16 281.364C468.292 288.864 476.241 292.5 485.779 292.5C489.413 292.5 493.047 291.818 496.68 290.682C500.087 289.545 503.266 287.727 506.219 285.227C507.808 284.091 509.852 282.045 512.35 279.091C515.076 276.136 517.12 274.545 518.937 274.545C520.072 274.545 520.753 274.773 521.435 275.454C522.116 276.136 522.57 276.818 522.57 277.954C522.57 279.318 522.116 280.909 521.208 282.5C520.299 284.091 519.164 285.909 517.574 287.5C512.805 292.727 507.581 296.591 501.449 299.318C495.318 302.045 488.732 303.409 481.691 303.409C468.292 303.409 457.391 298.864 448.761 289.545C440.131 280.227 435.589 268.636 435.589 254.545C435.589 239.545 440.131 227.273 449.215 217.5C458.299 207.727 469.882 202.727 483.508 202.727C495.318 202.727 504.856 206.136 511.896 212.727C518.937 219.545 522.343 228.409 522.343 240C522.343 243.636 521.889 246.136 521.208 247.273C520.526 248.409 518.482 249.091 514.849 249.091ZM456.483 241.136H503.72C505.083 241.136 506.219 240.909 506.673 240.454C507.127 240 507.354 238.864 507.354 237.5C507.354 230.227 504.856 224.091 500.087 219.318C495.09 214.545 488.959 212.045 481.464 212.045C477.376 212.045 473.743 212.954 470.109 214.545C466.475 216.364 463.296 218.864 460.57 222.045C458.299 224.545 456.71 227.5 455.347 230.454C453.984 233.409 453.303 236.136 453.303 238.409C453.303 239.318 453.53 240 453.984 240.454C454.439 240.909 455.12 241.136 456.483 241.136Z" fill="#FF1E46"/>
<path d="M555.728 217.727C555.728 218.864 555.728 219.545 555.955 220C556.182 220.454 556.409 220.454 556.864 220.454C557.772 220.454 558.908 219.318 560.724 217.045C562.087 215.227 563.223 213.636 564.131 212.727C567.083 209.318 570.49 206.818 574.351 205.227C578.212 203.636 582.527 202.727 587.523 202.727C596.38 202.727 603.42 205 608.871 209.545C614.321 214.091 617.955 221.136 619.999 230.454C620.453 232.045 620.68 234.318 620.907 236.818C621.134 239.318 621.134 242.727 621.134 247.045C621.134 248.409 621.134 250.682 621.134 253.636C621.134 256.591 621.134 259.091 621.134 260.909C621.134 264.091 621.134 267.5 621.362 271.136C621.589 274.773 621.589 278.409 621.816 282.5C622.043 285.454 622.27 287.273 622.724 288.409C623.178 289.545 624.087 290.454 625.222 291.364C625.677 291.591 626.585 292.045 628.175 292.5C631.127 293.409 632.717 294.545 632.717 296.136C632.717 298.182 631.354 299.545 628.402 300.454C625.45 301.364 620.68 301.818 614.094 301.818C607.508 301.818 602.739 301.364 599.787 300.454C596.834 299.545 595.472 298.182 595.472 296.136C595.472 294.545 596.834 293.182 599.787 292.273C602.739 291.364 604.556 290.227 605.237 289.091C605.918 288.182 606.373 285.227 606.6 280.682C606.827 276.136 607.054 265.454 607.054 248.409C607.054 236.591 605.464 228.182 602.058 223.182C598.651 218.182 593.201 215.682 585.706 215.682C580.71 215.682 576.168 216.818 572.08 218.864C567.765 221.136 564.131 224.318 560.724 228.636C559.135 230.454 558.226 232.5 557.545 234.773C556.864 237.045 556.637 240.227 556.637 244.773V251.591C556.637 265.682 556.864 275 557.091 280C557.318 285 557.772 287.954 558.453 289.091C559.135 290.227 560.952 291.364 563.904 292.273C566.856 293.182 568.219 294.545 568.219 296.136C568.219 298.182 566.856 299.545 563.904 300.454C560.952 301.364 556.182 301.818 549.596 301.818C543.01 301.818 538.241 301.364 535.062 300.454C531.882 299.545 530.519 298.182 530.519 296.136C530.519 294.545 531.882 293.182 534.834 292.273C537.787 291.364 539.604 290.227 540.285 289.091C540.966 287.954 541.42 284.545 541.648 278.864C541.875 273.182 542.102 264.091 542.102 251.591C542.102 242.045 541.875 234.545 541.42 229.318C540.966 224.091 540.512 220.909 539.604 219.545C539.149 218.636 537.106 217.954 533.926 217.5C530.747 217.045 528.93 215.682 528.93 213.636C528.93 211.364 531.655 209.091 536.878 206.591C542.102 204.091 547.098 202.954 551.867 202.954C553.457 202.954 554.82 203.409 555.501 204.545C556.182 205.454 556.637 207.5 556.637 210.227V217.727H555.728Z" fill="#FF1E46"/>
<path d="M711.522 189.318C711.522 184.091 711.295 180.227 710.613 178.182C709.932 175.909 709.024 174.773 707.661 174.318C706.98 174.091 705.844 173.864 704.481 173.864C700.848 173.409 699.031 172.045 699.031 169.773C699.031 168.409 699.712 167.273 700.848 166.364C701.983 165.455 703.8 164.318 706.525 163.409C710.159 162.045 713.339 161.136 716.518 160.227C719.697 159.318 721.969 159.091 723.558 159.091C725.375 159.091 726.511 159.545 727.192 160.455C727.873 161.364 728.1 163.182 728.1 165.909C728.1 168.409 727.873 177.5 727.192 193.182C726.511 208.636 726.284 222.955 726.284 236.136C726.284 254.318 726.511 267.045 726.738 274.318C726.965 281.591 727.873 285.909 728.782 287.273C729.236 288.182 731.28 288.636 734.459 289.091C737.639 289.545 739.456 290.909 739.456 292.955C739.456 295 736.73 297.5 731.507 299.773C726.284 302.273 721.287 303.409 716.518 303.409C714.701 303.409 713.566 302.955 712.884 302.045C712.203 301.136 711.749 299.318 711.749 296.591V293.409C711.749 292.5 711.749 291.818 711.522 291.364C711.295 290.909 711.067 290.909 710.84 290.909C709.932 290.909 708.569 291.591 706.525 293.182C705.617 293.864 705.163 294.318 704.708 294.545C700.621 297.5 696.76 299.318 692.899 300.682C689.038 301.818 684.723 302.5 679.727 302.5C667.236 302.5 657.243 298.182 649.295 289.318C641.346 280.455 637.485 269.091 637.485 255C637.485 240.227 642.027 227.955 650.885 217.955C659.742 208.182 670.87 203.182 684.042 203.182C692.445 203.182 700.394 205.227 707.888 209.318C709.024 210 709.705 210.227 709.932 210.227C710.386 210.227 710.84 209.773 711.295 208.864C711.522 207.955 711.749 206.591 711.749 204.773V189.318H711.522ZM711.522 237.5C711.522 229.318 709.478 223.182 705.163 218.864C700.848 214.545 694.716 212.5 686.54 212.5C677.002 212.5 669.507 216.364 663.602 223.864C657.698 231.364 654.745 241.364 654.745 253.636C654.745 265 657.471 274.091 662.921 281.136C668.372 288.182 675.412 291.591 684.269 291.591C688.357 291.591 692.445 290.682 696.533 289.091C700.621 287.5 704.254 285.227 707.434 282.5C709.024 281.136 710.159 279.545 710.84 277.955C711.522 276.364 711.749 273.636 711.749 270V267.5V237.5H711.522Z" fill="#FF1E46"/>
<path d="M754.444 264.545C754.444 249.545 754.217 238.636 753.99 231.591C753.763 224.545 753.081 220.455 752.173 219.318C751.719 218.409 749.675 217.727 746.495 217.273C743.316 216.818 741.499 215.455 741.499 213.409C741.499 212.273 741.953 211.136 743.089 210C744.224 208.864 745.814 207.955 748.539 207.045C751.719 205.909 754.671 204.773 757.851 204.091C761.03 203.409 763.301 202.955 765.118 202.955C766.708 202.955 768.07 203.409 768.752 204.318C769.433 205.227 769.887 207.045 769.887 209.773C769.887 210.455 769.887 212.273 769.887 215.227C769.433 232.5 769.206 249.773 769.206 267.5C769.206 275.909 769.433 281.591 769.66 284.545C769.887 287.5 770.569 289.318 771.477 290.227C772.158 290.909 773.748 291.591 776.473 292.273C779.198 292.955 780.334 294.318 780.334 295.909C780.334 297.727 778.971 299.318 776.019 300.227C773.067 301.136 768.525 301.591 762.166 301.591C755.58 301.591 750.81 301.136 747.858 300.227C744.906 299.318 743.543 297.955 743.543 295.909C743.543 294.318 744.906 293.182 747.404 292.273C749.902 291.364 751.719 290.682 752.4 290.227C753.308 289.318 753.99 287.045 754.444 283.636C754.444 279.773 754.444 273.636 754.444 264.545ZM750.81 171.818C750.81 168.864 751.719 166.364 753.763 164.318C755.807 162.273 758.305 161.364 761.03 161.364C763.982 161.364 766.254 162.273 768.07 163.864C769.887 165.682 770.796 167.955 770.796 170.682C770.796 173.409 769.887 175.909 767.843 177.955C765.799 180 763.528 180.909 760.576 180.909C757.851 180.909 755.352 180 753.536 178.409C751.946 176.364 750.81 174.318 750.81 171.818Z" fill="#FF1E46"/>
<path d="M811.221 217.727C811.221 218.864 811.221 219.545 811.448 220C811.675 220.454 811.903 220.454 812.357 220.454C813.265 220.454 814.401 219.318 816.218 217.045C817.58 215.227 818.716 213.636 819.624 212.727C822.577 209.318 825.983 206.818 829.844 205.227C833.705 203.636 838.02 202.727 843.016 202.727C851.873 202.727 858.913 205 864.364 209.545C869.814 214.091 873.448 221.136 875.492 230.454C875.946 232.045 876.173 234.318 876.401 236.818C876.628 239.318 876.628 242.727 876.628 247.045C876.628 248.409 876.628 250.682 876.628 253.636C876.628 256.591 876.628 259.091 876.628 260.909C876.628 264.091 876.628 267.5 876.855 271.136C877.082 274.773 877.082 278.409 877.309 282.5C877.536 285.454 877.763 287.273 878.217 288.409C878.672 289.545 879.58 290.454 880.716 291.364C881.17 291.591 882.078 292.045 883.668 292.5C886.62 293.409 888.21 294.545 888.21 296.136C888.21 298.182 886.847 299.545 883.895 300.454C880.943 301.364 876.173 301.818 869.587 301.818C863.001 301.818 858.232 301.364 855.28 300.454C852.327 299.545 850.965 298.182 850.965 296.136C850.965 294.545 852.327 293.182 855.28 292.273C858.232 291.364 860.049 290.227 860.73 289.091C861.412 288.182 861.866 285.227 862.093 280.682C862.32 276.136 862.547 265.454 862.547 248.409C862.547 236.591 860.957 228.182 857.551 223.182C854.144 218.182 848.694 215.682 841.199 215.682C836.203 215.682 831.661 216.818 827.573 218.864C823.258 221.136 819.624 224.318 816.218 228.636C814.628 230.454 813.719 232.5 813.038 234.773C812.357 237.045 812.13 240.227 812.13 244.773V251.591C812.13 265.682 812.357 275 812.584 280C812.811 285 813.265 287.954 813.947 289.091C814.628 290.227 816.445 291.364 819.397 292.273C822.349 293.182 823.712 294.545 823.712 296.136C823.712 298.182 822.349 299.545 819.397 300.454C816.445 301.364 811.676 301.818 805.089 301.818C798.503 301.818 793.734 301.364 790.555 300.454C787.375 299.545 786.013 298.182 786.013 296.136C786.013 294.545 787.375 293.182 790.328 292.273C793.28 291.364 795.097 290.227 795.778 289.091C796.459 287.954 796.914 284.545 797.141 278.864C797.368 273.182 797.595 264.091 797.595 251.591C797.595 242.045 797.368 234.545 796.914 229.318C796.459 224.091 796.005 220.909 795.097 219.545C794.643 218.636 792.599 217.954 789.419 217.5C786.24 217.045 784.423 215.682 784.423 213.636C784.423 211.364 787.148 209.091 792.372 206.591C797.595 204.091 802.591 202.954 807.361 202.954C808.95 202.954 810.313 203.409 810.994 204.545C811.676 205.454 812.13 207.5 812.13 210.227V217.727H811.221Z" fill="#FF1E46"/>
<path d="M911.828 262.273C907.513 259.545 904.106 255.909 901.835 251.818C899.564 247.727 898.429 242.954 898.429 237.5C898.429 227.272 902.062 219.091 909.557 212.5C917.051 205.909 926.363 202.727 937.945 202.727C941.579 202.727 946.121 203.182 951.571 204.318C957.022 205.454 960.656 205.909 962.472 205.909C965.198 205.909 967.923 205.227 970.875 204.091C973.601 202.727 976.099 200.909 978.37 198.636C979.505 199.091 980.641 199.773 981.322 200.682C982.004 201.591 982.231 202.954 982.231 204.318C982.231 206.818 981.322 209.091 979.278 211.363C977.234 213.636 974.509 215.454 970.648 217.272C972.238 220 973.374 222.727 974.282 225.227C975.19 227.727 975.418 230.682 975.418 233.636C975.418 243.863 971.557 252.273 963.835 258.863C956.114 265.454 946.348 268.863 934.539 268.863C931.813 268.863 929.088 268.636 926.136 267.954C923.41 267.5 920.685 266.591 918.187 265.454C915.462 266.591 913.191 268.182 911.601 270.227C910.011 272.272 909.103 274.545 909.103 277.045C909.103 279.772 910.238 282.045 912.736 283.863C915.235 285.682 918.187 286.591 922.048 286.591C926.136 286.591 932.722 286.136 941.806 285C950.89 283.863 957.93 283.409 962.927 283.409C970.421 283.409 976.326 285.227 980.641 289.091C984.956 292.954 987 297.954 987 304.545C987 314.545 982.004 322.954 972.011 329.773C962.018 336.591 949.3 340 933.63 340C921.594 340 912.055 337.5 904.788 332.727C897.52 327.954 893.887 321.591 893.887 313.636C893.887 309.772 894.795 306.591 896.839 303.636C898.656 300.682 901.835 298.182 906.15 295.454C902.517 293.863 900.019 292.045 898.202 289.772C896.385 287.5 895.704 284.772 895.704 281.591C895.704 277.5 897.066 273.863 899.791 270.682C902.29 267.5 906.377 264.772 911.828 262.273ZM913.418 298.636C911.601 300.454 910.011 302.727 909.103 305C908.194 307.272 907.513 309.772 907.513 312.272C907.513 318.182 910.238 322.954 915.462 326.591C920.685 330.227 927.953 332.045 937.037 332.045C947.256 332.045 955.886 329.772 962.472 325.454C969.059 321.136 972.465 315.682 972.465 309.318C972.465 305.454 971.33 302.5 968.831 300.454C966.333 298.409 962.7 297.273 957.93 297.273C956.341 297.273 952.026 297.727 945.213 298.636C938.399 299.545 932.268 300 926.817 300C924.319 300 921.821 300 919.55 299.772C917.506 299.318 915.462 299.091 913.418 298.636ZM913.418 235.682C913.418 243.409 915.462 249.545 919.55 254.318C923.637 259.091 929.088 261.591 935.674 261.591C942.714 261.591 948.392 259.091 952.707 254.318C957.022 249.545 959.52 243.409 959.52 235.909C959.52 228.182 957.249 221.818 952.934 217.045C948.619 212.272 942.941 209.773 935.901 209.773C929.542 209.773 924.092 212.272 919.777 217.045C915.462 222.272 913.418 228.409 913.418 235.682Z" fill="#FF1E46"/>
<path d="M269.574 285H267.757L233.691 148.864L201.215 18.8637H203.486C207.801 18.8637 211.435 15.2274 211.435 10.9092C211.435 6.59102 207.801 2.95466 203.486 2.95466H190.541H181.684H101.289H96.974H95.8385H85.8458H78.1243H65.4063C61.0913 2.95466 57.4577 6.59102 57.4577 10.9092C57.4577 15.2274 61.0913 18.8637 65.4063 18.8637H67.6774L10.2197 285H7.94869C3.63369 285 0 288.636 0 292.955C0 297.273 3.63369 300.909 7.94869 300.909H28.3882C32.7032 300.909 36.3369 297.273 36.3369 292.955C36.3369 288.636 32.7032 285 28.3882 285H27.934L40.1977 228.409H112.417L99.2451 285H96.974C92.659 285 89.0253 288.636 89.0253 292.955C89.0253 297.273 92.659 300.909 96.974 300.909H117.413C121.728 300.909 125.362 297.273 125.362 292.955C125.362 288.636 121.728 285 117.413 285H116.959L133.992 210.909L136.49 221.136C136.49 221.591 136.717 221.818 136.717 222.273L151.479 285H150.571C146.256 285 142.622 288.636 142.622 292.955C142.622 297.273 146.256 300.909 150.571 300.909H171.01C175.325 300.909 178.959 297.273 178.959 292.955C178.959 288.636 175.325 285 171.01 285H169.194L155.794 228.409H235.508L249.589 285H248.907C244.592 285 240.959 288.636 240.959 292.955C240.959 297.273 244.592 300.909 248.907 300.909H269.347C273.662 300.909 277.296 297.273 277.296 292.955C277.523 288.636 273.889 285 269.574 285ZM135.355 141.818L123.091 89.7728H200.988L213.933 141.818H135.355ZM183.728 20.2274L196.673 72.2728H119.003L106.74 20.2274H183.728ZM101.289 72.5001H73.8092L85.1645 20.4547H89.0253L101.289 72.5001ZM70.1756 89.7728H105.604L117.868 141.818H58.8203L70.1756 89.7728ZM116.278 211.136H43.8313L55.1866 159.091H121.956L125.362 173.182L116.278 211.136ZM151.934 211.364L139.443 159.091H218.248L231.193 211.136H151.934V211.364Z" fill="#FF1E46"/>
</svg>
