<svg width="211" height="52" viewBox="0 0 211 52" fill="none" xmlns="http://www.w3.org/2000/svg">
<path d="M41.256 34.32C39.272 43.6 32.552 50.064 21.608 50.064C8.296 50.064 1 40.016 1 26C1 11.792 8.552 2 21.8 2C32.296 2 39.08 8.336 41.064 17.744H36.584C34.728 10 28.648 6.096 21.672 6.096C12.52 6.096 5.544 13.2 5.544 26C5.544 38.352 12.136 45.968 21.672 45.968C30.568 45.968 35.496 40.336 36.776 34.32H41.256Z" fill="black"/>
<path d="M59.574 14.224C67.83 14.224 75.19 19.6 75.19 32.144C75.19 44.688 67.83 50.064 59.574 50.064C51.318 50.064 44.022 44.688 44.022 32.144C44.022 19.6 51.318 14.224 59.574 14.224ZM59.574 46.416C66.166 46.416 70.966 42 70.966 32.144C70.966 22.288 66.166 17.872 59.574 17.872C52.982 17.872 48.246 22.288 48.246 32.144C48.246 42 52.982 46.416 59.574 46.416Z" fill="black"/>
<path d="M84.773 20.624C86.437 17.36 89.829 14.224 96.229 14.224C104.357 14.224 107.813 19.088 107.813 27.536V49.232H103.845V28.624C103.845 22.16 102.181 17.808 95.205 17.808C89.253 17.808 84.773 22.8 84.773 30.096V49.232H80.805V14.8H84.773V20.624Z" fill="black"/>
<path d="M116.688 7.056H120.72V14.8H127.504V18.256H120.72V40.272C120.72 44.752 120.848 45.648 125.456 45.648H127.504V49.232H124.24C118.096 49.232 116.688 47.824 116.688 41.04V18.256H110.992V14.8H116.688V7.056Z" fill="black"/>
<path d="M154.689 43.984C152.449 47.632 148.162 50.064 141.762 50.064C135.362 50.064 130.37 46.352 130.37 40.656C130.37 32.848 138.05 29.968 154.626 28.304V27.088C154.626 19.28 150.018 17.552 145.026 17.552C139.202 17.552 135.682 20.816 135.362 25.296H131.202C132.098 18.512 137.602 14.032 145.282 14.032C153.282 14.032 158.594 17.36 158.594 27.6C158.594 32.336 158.53 35.472 158.53 38.224C158.53 42.128 158.722 45.52 158.914 49.232H154.882L154.689 43.984ZM142.658 46.544C149.058 46.544 154.818 43.28 154.818 33.488V31.824C140.802 33.36 134.786 35.216 134.786 40.592C134.786 44.24 138.114 46.544 142.658 46.544Z" fill="black"/>
<path d="M192.917 25.872H188.757C187.476 20.688 183.381 17.872 178.389 17.872C172.437 17.872 167.189 22.608 167.189 32.08C167.189 41.872 172.436 46.416 178.452 46.416C184.34 46.416 188.053 42.64 189.013 38.352H193.237C191.829 45.456 186.069 50.064 178.452 50.064C168.66 50.064 162.965 42.768 162.965 32.144C162.965 21.456 168.725 14.224 178.773 14.224C186.581 14.224 191.893 19.664 192.917 25.872Z" fill="black"/>
<path d="M199.973 7.056H204.005V14.8H210.789V18.256H204.005V40.272C204.005 44.752 204.133 45.648 208.741 45.648H210.789V49.232H207.525C201.381 49.232 199.973 47.824 199.973 41.04V18.256H194.277V14.8H199.973V7.056Z" fill="black"/>
</svg>
