<svg xmlns="http://www.w3.org/2000/svg" viewBox="0 0 908.21 337.26"><defs><style>.cls-1{fill:#fff;}</style></defs><title>merl_logo_3</title><g id="Layer_2" data-name="Layer 2"><g id="Layer_1-2" data-name="Layer 1"><polygon class="cls-1" points="877.43 307.35 877.43 0 804.54 43.81 840.49 43.81 840.49 306.93 806.87 337.26 908.21 337.26 877.43 307.35"/><path class="cls-1" d="M809.5,190.66h16.12V132.39l-3.07-1.83c-37.66-22.45-85.25-18.54-120.1,8.67V115.94h-29.8L640,157.53h29V307.16l-37.91,30.1H740.33L702.46,307.2V186.14c6.12-24.09,15.86-37,32.48-43a53.9,53.9,0,0,1,41.59,2.42c14.64,7.26,25.57,21.33,31.59,40.71Z"/><path class="cls-1" d="M605,226.67c6.66,36.67-6.23,70.05-32.32,82.22-30.89,14.39-71.19-4.27-94.1-42.66l160.78-75-2.19-5.51A110.72,110.72,0,1,0,645,226.6,111.74,111.74,0,0,0,643.34,208ZM495.93,144.31c30.88-14.41,71.19,4.26,94.1,42.65L468.12,243.82C453.44,201.59,465.05,158.72,495.93,144.31Z"/><path class="cls-1" d="M457.16,336.75,403.6,307.49V52.4L450,4.37H367.16L233,253.38,98.28,4.37H6.07l48,48V307.49L0,336.75H135.82L81.71,307.49V81.11L219.19,334.54l138-253.42V307.49l-53.56,29.26Z"/></g></g></svg>