<svg width="322" height="131" viewBox="0 0 322 131" fill="none" xmlns="http://www.w3.org/2000/svg">
<path d="M80.1165 130.793L136.455 27.6964V119.202L120.692 130.257H165.564L149.801 119.01V24.9038L163.991 10.5966H139.945L87.0197 108.07L34.0562 10.5966H3.37494L18.2554 24.9038V119.01L0 130.257H40.4609L23.778 119.202V29.2649L80.1165 130.793Z" fill="white"/>
<path d="M313.409 121.956V0L294.233 10.5966H303.898V121.841L294.502 130.793H322L313.409 121.956Z" fill="white"/>
<path d="M296.036 75.9357H298.337V57.5351L297.954 57.3056C283.342 48.8131 264.549 51.4144 252.162 63.6176V52.2943L232.756 63.5411H243.916V119.623L232.756 130.755H263.284L252.123 119.623V80.9853C252.123 76.5477 253.005 72.1102 254.961 68.17C257.454 63.1586 260.944 60.0217 265.7 58.262C271.222 56.2727 277.666 56.617 282.996 59.2566C288.903 62.164 293.351 67.7492 295.806 75.3618L296.036 75.9357Z" fill="white"/>
<path d="M236.015 85.1167L235.862 84.0838L225.469 89.1717L225.584 89.7838C228.882 105.009 223.513 119.202 212.506 124.29C199.351 130.41 182.17 122.109 173.272 105.43L233.829 77.2362L233.561 76.5476C227.463 61.8196 213.196 52.3324 197.203 52.3324C175.496 52.3324 157.855 69.9296 157.855 91.5817C157.855 113.234 175.496 130.831 197.203 130.831C218.91 130.831 236.552 113.234 236.552 91.5817C236.552 89.4012 236.36 87.2207 236.015 85.1167ZM221.135 77.6953L171.201 100.916C164.068 83.3952 168.785 64.9182 181.901 58.7974C184.816 57.4203 187.961 56.8082 191.144 56.8082C202.304 56.8082 214.232 64.7269 221.135 77.6953Z" fill="white"/>
</svg>
