<svg xmlns="http://www.w3.org/2000/svg" viewBox="0 0 730.52 229.08"><defs><style>.cls-1{fill:#fff;}</style></defs><g id="Layer_2" data-name="Layer 2"><g id="Layer_1-2" data-name="Layer 1"><path class="cls-1" d="M356.28,181.79c-1,.46-2,.92-3.09,1.35l1.8-.75a136.36,136.36,0,0,1-34.06,9.28l2-.27a90.73,90.73,0,0,1-13.29.49A120.26,120.26,0,0,1,296,191.1l2,.27a92.06,92.06,0,0,1-14.35-3.48c-4.09-1.27-8.17-2.6-12.12-4.25l1.79.76a57.39,57.39,0,0,1-6.11-3c-1-.56-1.93-1.14-2.85-1.77-.2-.13-1.4-.78-1.45-1,0,.08,1.42,1.14.59.45l-.76-.63a31.16,31.16,0,0,1-2.44-2.3c-.37-.39-.72-.78-1.07-1.19-.17-.2-.33-.42-.51-.62,1.39,1.52.65.85.32.41a32.59,32.59,0,0,1-3.43-6.09l.76,1.79a36.15,36.15,0,0,1-2.44-8.9l.27,2a39.23,39.23,0,0,1,0-10.27l-.27,2a47.37,47.37,0,0,1,3.27-11.69l-.75,1.79a57.73,57.73,0,0,1,5.88-10.49c.52-.73,1-1.45,1.58-2.16.77-1-1,1.3-.23.3l1-1.2c1.15-1.39,2.35-2.75,3.6-4.06a82.32,82.32,0,0,1,8.06-7.45c.35-.29.72-.57,1.08-.86.62-.5-.83.64-.74.57s.42-.32.63-.48c.73-.55,1.48-1.1,2.24-1.63q2.26-1.59,4.63-3a85.58,85.58,0,0,1,11.23-5.77l-1.79.75A76.71,76.71,0,0,1,313,104.49l-2,.26a62.31,62.31,0,0,1,16-.1l-2-.27a44.66,44.66,0,0,1,10.83,2.88L334,106.5a33.39,33.39,0,0,1,3.2,1.51c.43.24.84.49,1.25.75l.54.37c1,.65-1.25-1-.59-.46.35.3.69.59,1,.9s.69,1,1.05,1.13c-.1,0-1.09-1.53-.54-.7l.39.58a15.3,15.3,0,0,1,.82,1.55l-.76-1.79a12.19,12.19,0,0,1,.79,2.79l-.27-2a12.69,12.69,0,0,1,0,3.08l.27-2a12.29,12.29,0,0,1-.8,2.8l.75-1.79a14.29,14.29,0,0,1-.73,1.4c-.12.2-.25.4-.38.59-.73,1.06.2-.44.44-.55-.34.16-.79.88-1.05,1.14a10.11,10.11,0,0,0-1.14,1c.06-.08,1.53-1.12.72-.57l-.53.38c-.4.27-.81.52-1.22.76a35.77,35.77,0,0,1-3.68,1.8l1.79-.76a35.27,35.27,0,0,1-8.56,2.34l2-.27a37.85,37.85,0,0,1-10,0l2,.27a44.8,44.8,0,0,1-11.11-3.11l1.79.75a71.25,71.25,0,0,1-11.86-6.75c-1-.67-1.93-1.35-2.87-2.06-.24-.17-1.67-1.27-.65-.47s.12.09-.11-.09l-.86-.69q-2.66-2.13-5.18-4.41c-3.31-3-6.46-6.15-9.48-9.42-1.48-1.61-2.93-3.24-4.32-4.91-.68-.82-1.34-1.64-2-2.47s1,1.27.4.51l-.38-.51c-.38-.51-.76-1-1.12-1.54a67.67,67.67,0,0,1-7.36-13l.75,1.79A49.47,49.47,0,0,1,263,62l.26,2a43.53,43.53,0,0,1,0-10.7l-.27,2a36.84,36.84,0,0,1,2.38-9L264.54,48A38,38,0,0,1,269,40.38c.87-1.2-1.16,1.42-.21.28l.74-.91c.43-.49.86-1,1.3-1.46,1-1.1,2.08-2.15,3.19-3.15.54-.48,1.08-1,1.63-1.41l.76-.61c.6-.49-1.58,1.19-.28.22s2.34-1.67,3.56-2.43a56.61,56.61,0,0,1,7.84-4.08l-1.79.76A104.49,104.49,0,0,1,312,20.7L310,21a145.89,145.89,0,0,1,17.84-1.18,121.46,121.46,0,0,1,16.74.58l-2-.27a67,67,0,0,1,16.54,4.65L357.37,24a53.44,53.44,0,0,1,7.09,3.57c.5.31,1,.62,1.48,1l.63.44c1.08.78-.29-.13-.55-.45.68.82,1.7,1.45,2.44,2.25a7.57,7.57,0,0,0,10.61,0,7.67,7.67,0,0,0,0-10.61,35.72,35.72,0,0,0-10-7.17A77.91,77.91,0,0,0,356,7.73c-8.89-2.67-18-3-27.25-2.95A140.62,140.62,0,0,0,296.9,8.3c-9.84,2.34-19.81,5.82-28,11.85-8.65,6.35-16,14.72-19.14,25.13-3.1,10.12-2.25,21.51,1.47,31.34,3.86,10.18,10,19,17.31,27.08a133.07,133.07,0,0,0,23.64,21c9.17,6.28,19.51,10.83,30.77,11.12a40.88,40.88,0,0,0,16-2.77c5.58-2.23,10.41-5.15,13.93-10.14a18.29,18.29,0,0,0,1.62-17.47,22.15,22.15,0,0,0-10.8-11c-10.13-4.93-21.57-6.18-32.68-4.74a90.46,90.46,0,0,0-52,26,73.35,73.35,0,0,0-17.15,26.07c-3.65,9.92-4.23,21.53-.42,31.49a39.13,39.13,0,0,0,9.08,14.28,46.46,46.46,0,0,0,12.47,8.52,111,111,0,0,0,14.4,5.52A105.1,105.1,0,0,0,293,205.7a127.27,127.27,0,0,0,26,1.05c10-.57,20.14-3,29.66-6.1a139.81,139.81,0,0,0,15.13-5.91A7.51,7.51,0,0,0,362.06,181a8.53,8.53,0,0,0-5.78.76Z"/><path class="cls-1" d="M415.42,193.91c3.82-16.53,5.24-33.54,6.17-50.45.88-16,1.92-32,2.39-48.05a260,260,0,0,1,1.66-26l-.26,2a88.67,88.67,0,0,1,5.82-22.49l-.76,1.79a66,66,0,0,1,6.08-11.21c.54-.81,1.11-1.6,1.69-2.37.16-.23.33-.45.5-.67-.74,1-.88,1.13-.39.52l.79-1q2-2.48,4.28-4.77t4.7-4.41c.75-.65,1.52-1.28,2.3-1.91q.92-.72-.51.39l.67-.51c.34-.25.68-.5,1-.74a53.78,53.78,0,0,1,10.16-5.87l-1.79.75a42.79,42.79,0,0,1,10.43-2.74l-2,.27a51,51,0,0,1,13.24,0l-2-.27a38.85,38.85,0,0,1,9.72,2.57l-1.79-.75a27.28,27.28,0,0,1,3.9,2l1,.68c1.15.82-.43-.14-.55-.44.1.25.7.59.91.78s.64.61,1,.93c.62.63,1.19,1.29,1.76,2,.37.45.17.19-.59-.78l.45.61c.26.36.5.73.74,1.1a30.66,30.66,0,0,1,2.54,4.85L498,27.88a36.53,36.53,0,0,1,2.35,8.84l-.27-2a40.54,40.54,0,0,1,0,10.44l.26-2a52.11,52.11,0,0,1-3.64,12.89l.76-1.8a81.64,81.64,0,0,1-8.84,15.39c-.71,1-1.45,2-2.18,2.94-.59.79,1.22-1.56.35-.45l-.48.6c-.48.61-1,1.2-1.45,1.79q-2.44,3-5.07,5.74a118.3,118.3,0,0,1-11.46,10.58c-.44.36-.89.71-1.34,1.06-.76.61,1.59-1.21.47-.36l-.76.57c-1.06.8-2.13,1.58-3.22,2.34q-3.11,2.17-6.34,4.14a119.51,119.51,0,0,1-15.49,7.92l1.8-.76a117.91,117.91,0,0,1-29.6,8.09l2-.27q-4.75.65-9.54.9a54,54,0,0,1-9.43-.09l2,.27a19.1,19.1,0,0,1-4.51-1.18l1.79.76a13.36,13.36,0,0,1-1.88-1c-.57-.36-1.17-1.09.37.35-.27-.25-.55-.47-.81-.72s-.68-.55-.75-.82l.7.92c-.14-.19-.28-.39-.41-.59a14.09,14.09,0,0,1-1-1.84l.76,1.79a12.39,12.39,0,0,1-.79-2.86l.27,2a13.21,13.21,0,0,1,0-2.88l-.27,2a17.91,17.91,0,0,1,1.19-4.25l-.75,1.79a18.81,18.81,0,0,1,1.2-2.37c.2-.35.42-.69.65-1,1.07-1.54-.95,1.1-.13.15a22.62,22.62,0,0,1,1.64-1.75l.76-.7c.47-.4,1.89-1.33-.17.08a54,54,0,0,1,9.57-5.2l-1.8.76a53.12,53.12,0,0,1,13.42-3.46l-2,.27c6.39-.85,12.92-1.64,19.35-.85l-2-.27a24.12,24.12,0,0,1,6.09,1.55l-1.79-.76a31.58,31.58,0,0,1,4.86,2.69l1.27.88c.47.35,1.83,1.61,0,0,.68.61,1.42,1.16,2.11,1.76a69.07,69.07,0,0,1,7.66,7.83c.46.55.9,1.1,1.34,1.65-2-2.46.06.13.5.76,1.29,1.82,2.51,3.7,3.65,5.62a98.67,98.67,0,0,1,5.89,11.77l-.76-1.8c4.64,11,7.58,22.68,11.21,34.06a189.47,189.47,0,0,0,7.08,18.87,64.18,64.18,0,0,0,9.35,15.06,37.79,37.79,0,0,0,16.66,11.91c3.72,1.28,8.37-1.45,9.23-5.23a7.68,7.68,0,0,0-5.24-9.23c-.56-.19-1.12-.41-1.67-.64l1.79.76a25.33,25.33,0,0,1-3.37-1.8c-.52-.33-1-.68-1.53-1-1.14-.84.47.21.47.37a8.28,8.28,0,0,0-.88-.72,46.41,46.41,0,0,1-5.47-5.74c-.54-.66,1.18,1.59.34.43-.19-.27-.39-.53-.58-.79-.38-.53-.75-1.06-1.11-1.61-.75-1.12-1.46-2.27-2.12-3.44a74.55,74.55,0,0,1-3.64-7.53l.76,1.79c-8.37-19.82-11.61-41.56-22.05-60.55a77,77,0,0,0-18.1-22.39c-4.3-3.55-9-6.82-14.47-8.28a48.28,48.28,0,0,0-16-1.07,126.18,126.18,0,0,0-15.61,2,58.91,58.91,0,0,0-14.58,5.33,33,33,0,0,0-11.16,8.57c-4.32,5.42-6.81,12-5.51,19a18.9,18.9,0,0,0,10.62,13.32c5.23,2.32,10.74,2.57,16.38,2.35A124.84,124.84,0,0,0,434,124.93a126,126,0,0,0,50.52-28.31,121.66,121.66,0,0,0,19.19-22.55c6.32-9.57,11-20.49,11.64-32,.62-10.8-2.86-22-10.24-30-6.71-7.27-16.6-10.19-26.2-10.89a51.71,51.71,0,0,0-27.14,5.24A74.94,74.94,0,0,0,427.19,27a71.79,71.79,0,0,0-8.81,14.1,85.76,85.76,0,0,0-5.73,16.55c-2.5,10.84-3.16,22-3.53,33.1-.17,5.35-.29,10.7-.54,16s-.67,10.93-1,16.39c-.61,11.28-1,22.56-1.92,33.82-.43,5.53-1,11.05-1.72,16.56l.27-2c-.83,6.16-1.89,12.29-3.29,18.35-.88,3.82,1.18,8.3,5.24,9.23,3.83.87,8.28-1.15,9.22-5.24Z"/><path class="cls-1" d="M195,204c9.77-12.52,16.94-26.61,22.39-41.49a185.91,185.91,0,0,0,10.63-48,133,133,0,0,0-3.83-46c-4-14.76-10.41-29.34-19.73-41.51C195.52,15.32,184,5,169.41,1.41c-15.52-3.88-32.56.53-45.37,9.81a65.43,65.43,0,0,0-16.9,18A149.25,149.25,0,0,0,96.92,48.6,196.52,196.52,0,0,0,88,72.07a115.22,115.22,0,0,0-4,19.26c-1.43,11.42-1.58,23.16.6,34.49,1.07,5.57,3,11.41,6.29,16.05a25.53,25.53,0,0,0,16.29,10.72c7.1,1.29,14.5.29,20.4-4.11a39.75,39.75,0,0,0,11.67-14.33c5.79-11.56,8.88-24.46,10-37.28a107.3,107.3,0,0,0-.4-23.15,90.29,90.29,0,0,0-5.77-23.3,70.37,70.37,0,0,0-5.49-10.94,76.49,76.49,0,0,0-8-10.41,69.31,69.31,0,0,0-19.43-15C95.46,6.55,78.27,4.82,62.58,10.28,46.72,15.8,33.81,26.84,23.86,40.17A108,108,0,0,0,12,61,136.51,136.51,0,0,0,4,83C.37,97.37-.36,112.7.14,127.52a136.87,136.87,0,0,0,5.74,35.14A157.39,157.39,0,0,0,26,204.37,222,222,0,0,0,43.44,226.9c2.59,3,8,2.85,10.6,0a7.67,7.67,0,0,0,0-10.6c-2.8-3.21-5.53-6.48-8.14-9.83l-.43-.55s1,1.26.47.6l-.83-1.09c-.64-.84-1.27-1.69-1.89-2.54-1.12-1.54-2.23-3.1-3.3-4.67A166,166,0,0,1,29,180q-2.5-4.86-4.64-9.91l.76,1.79a131.64,131.64,0,0,1-9.2-33.44l.27,2a172,172,0,0,1-.78-32.4q.3-5.47,1-10.92l-.26,2a114.17,114.17,0,0,1,8.06-29l-.76,1.79A115.37,115.37,0,0,1,36.35,48.36l1-1.4c.55-.73-1,1.32-.46.6l.48-.61c.68-.86,1.38-1.7,2.09-2.53,1.41-1.65,2.89-3.24,4.42-4.78s3.17-3,4.85-4.48c.76-.64,1.54-1.27,2.31-1.89s-1.36,1-.63.49l.59-.44c.49-.37,1-.73,1.5-1.09A66.52,66.52,0,0,1,64.7,25.4l-1.79.76A56.37,56.37,0,0,1,77,22.22l-2,.27a52.56,52.56,0,0,1,13.84,0l-2-.27A55.32,55.32,0,0,1,100.53,26l-1.79-.76a60.39,60.39,0,0,1,10.43,5.72c.83.57,1.63,1.2,2.46,1.78-2-1.4-.46-.36,0,0l1.19,1c1.53,1.3,3,2.68,4.41,4.11s2.81,3,4.12,4.58c.34.41.65.85,1,1.26-1.57-1.81-.27-.35.06.09.59.8,1.17,1.62,1.73,2.45A60.17,60.17,0,0,1,129.34,56l-.75-1.79a84.48,84.48,0,0,1,5.52,21.1l-.27-2a108.45,108.45,0,0,1-.07,28.23l.26-2a99.78,99.78,0,0,1-6.87,25.32l.76-1.8a51.21,51.21,0,0,1-5.59,10c-.48.67,1.3-1.63.63-.82l-.48.59c-.3.36-.61.71-.92,1.05a26,26,0,0,1-2.08,2,3.44,3.44,0,0,0-.58.48c0-.07,1.76-1.29.82-.65-.37.26-.74.53-1.13.77a19.16,19.16,0,0,1-2.66,1.38l1.8-.76a18.16,18.16,0,0,1-4.23,1.16l2-.27a20.34,20.34,0,0,1-5.4,0l2,.27a23.39,23.39,0,0,1-5.46-1.44l1.79.75a19.82,19.82,0,0,1-3.18-1.79c-.92-.61,1.75,1.46.62.47l-.68-.6a17.69,17.69,0,0,1-1.28-1.32c-.2-.24-.39-.49-.6-.72,1.78,2,.87,1.15.47.58s-.72-1.06-1-1.6A29.62,29.62,0,0,1,101,129l.76,1.79a49.94,49.94,0,0,1-3.23-12.62l.27,2a114.05,114.05,0,0,1,.39-29.93l-.26,2C100.47,80.42,104.43,69,109.06,58l-.75,1.79A163.5,163.5,0,0,1,118.8,38.86q1.28-2.1,2.65-4.13.72-1,1.47-2.07c.29-.4.88-1-.5.63.16-.19.31-.39.46-.59.31-.38.63-.77,1-1.14A50.92,50.92,0,0,1,128,27.25c.63-.59,1.28-1.17,2-1.73l1.15-.94c.38-.31,1.11-.78-.64.48l.74-.56A56.2,56.2,0,0,1,142.53,18l-1.79.75a52.16,52.16,0,0,1,13.14-3.65l-2,.26a43.47,43.47,0,0,1,11.05-.07l-2-.27a42.33,42.33,0,0,1,10.76,3l-1.79-.75A49.94,49.94,0,0,1,179,22.29c.62.44,3,2.33.82.56.72.58,1.45,1.16,2.16,1.76,1.39,1.19,2.73,2.45,4,3.75s2.59,2.72,3.81,4.15c.57.66,1.12,1.33,1.67,2l.43.55c.71.89-.52-.68-.52-.69.34.48.71.94,1.06,1.41a98.75,98.75,0,0,1,6.45,10,117,117,0,0,1,6,12.32l-.76-1.79a125.94,125.94,0,0,1,8.64,31.53l-.27-2a138.06,138.06,0,0,1-.42,36.55l.27-2a181.91,181.91,0,0,1-12.6,46l.76-1.79a155.55,155.55,0,0,1-7.91,16.08c-1.41,2.47-2.89,4.9-4.46,7.27-.73,1.11-1.48,2.2-2.25,3.28-.39.55-.79,1.1-1.2,1.64l-.61.81c-1,1.28,1.07-1.37.26-.33a8.21,8.21,0,0,0-2.2,5.31,7.63,7.63,0,0,0,2.2,5.3,7.55,7.55,0,0,0,5.3,2.2c1.85-.09,4.11-.67,5.3-2.2Z"/><path class="cls-1" d="M716.65,181.33a38,38,0,0,1-3.07,5c-.7,1,1-1.26.45-.59l-.42.52c-.28.34-.57.67-.86,1-.66.72-1.34,1.41-2.06,2.07l-1,.85-.49.41c-1,.86.59-.53.64-.49s-2,1.43-2.21,1.53a34.11,34.11,0,0,1-4.87,2.54l1.79-.75a39.56,39.56,0,0,1-10,2.68l2-.26a47.28,47.28,0,0,1-12.12-.06l2,.26a52.83,52.83,0,0,1-13.32-3.74l1.79.75c-15.38-6.56-27.73-18.21-42.23-26.31-14.67-8.2-30.95-14.73-48-13.92a78,78,0,0,0-24.4,4.85c-7.07,2.78-14.13,6.69-19.16,12.52-5.54,6.41-8.74,15.16-5.45,23.45a28.53,28.53,0,0,0,19.92,16.73,75.27,75.27,0,0,0,18,1.67c7.58-.1,15.55-1,22.63-3.82,12.86-5.13,22.63-15.27,28.5-27.7a127.29,127.29,0,0,0,7.45-20.69c1.91-7,3.76-14,5-21.14,2.25-13,1.85-26,0-39a170.56,170.56,0,0,0-11.43-41.52A194.85,194.85,0,0,0,601.33,15c-2.79-3.7-5.66-7.33-8.68-10.84-2.56-3-8-2.83-10.6,0a7.68,7.68,0,0,0,0,10.6q2,2.29,3.84,4.63c.58.72,1.15,1.45,1.72,2.17s-.57-.74-.52-.68l.39.51,1,1.35q3.46,4.61,6.63,9.42a188.92,188.92,0,0,1,11.16,19.36q2.73,5.45,5.09,11.05l-.76-1.79a172.79,172.79,0,0,1,12.1,43.44l-.27-2a118.59,118.59,0,0,1,.36,31.49l.27-2a179.28,179.28,0,0,1-4.35,20,143.57,143.57,0,0,1-6.39,19.93l.76-1.79a70.72,70.72,0,0,1-4.28,8.58q-1.12,1.91-2.41,3.71l-.69.94c-1,1.38,1-1.3.29-.37-.46.56-.92,1.12-1.39,1.66-1,1.12-2,2.2-3.12,3.21-.49.46-1,.91-1.52,1.35l-.9.74c-1.36,1.09,1.33-1,.35-.27a43.14,43.14,0,0,1-8.43,4.93l1.79-.76a49.21,49.21,0,0,1-12.18,3.16l2-.27a79.68,79.68,0,0,1-20.87,0l2,.27a30.68,30.68,0,0,1-7.89-1.94l1.79.75a23.4,23.4,0,0,1-3.26-1.69c-.51-.31-1-.65-1.47-1-.73-.5,1.45,1.19.53.42-.27-.23-.54-.46-.8-.7q-.66-.59-1.26-1.23l-.58-.66c-.81-1,.31.28.41.56a12.13,12.13,0,0,0-1-1.6,15.77,15.77,0,0,1-.84-1.7l.75,1.79a15.62,15.62,0,0,1-.92-3.34l.27,2a14.78,14.78,0,0,1,0-3.7l-.27,2a16.21,16.21,0,0,1,1-3.74l-.75,1.79a18.76,18.76,0,0,1,1.26-2.44c.24-.4.52-.78.78-1.17s.69-.92-.12.12-.2.26,0,0a31.82,31.82,0,0,1,4.24-4.13c.76-.63-.64.49-.72.54.19-.12.37-.27.55-.41.41-.3.83-.59,1.25-.88.85-.58,1.71-1.12,2.6-1.64a50.21,50.21,0,0,1,5.54-2.77l-1.79.75a70.76,70.76,0,0,1,17.91-4.55l-2,.27a64.23,64.23,0,0,1,16.68-.05l-2-.27a76.73,76.73,0,0,1,19.11,5.5l-1.79-.76a146.19,146.19,0,0,1,25.21,13.88c7.71,5.26,15.17,11,23.33,15.51a83.67,83.67,0,0,0,13.93,6.26,57.59,57.59,0,0,0,12.13,2.5,47.1,47.1,0,0,0,22.58-2.85,43.19,43.19,0,0,0,12.81-7.8,38.76,38.76,0,0,0,8.66-11.39c1.77-3.49,1-8.29-2.69-10.26-3.41-1.8-8.37-1-10.26,2.69Z"/></g></g></svg>