<svg width="361" height="55" viewBox="0 0 361 55" fill="none" xmlns="http://www.w3.org/2000/svg">
<path d="M210.072 1.768C219.16 1.768 225.688 6.312 227.352 14.184H222.872C221.272 8.808 216.664 5.864 209.624 5.864C204.952 5.864 198.36 7.72 198.36 13.8C198.36 18.472 202.136 20.84 207.32 21.992L212.824 23.208C219.544 24.744 228.44 27.432 228.44 36.264C228.44 45.16 220.312 49.832 211.288 49.832C199.704 49.832 193.304 43.368 192.28 35.048H196.76C198.36 42.408 203.544 45.736 211.096 45.736C216.152 45.736 223.96 43.88 223.96 36.968C223.96 31.272 218.456 28.648 211.928 27.24L206.104 25.96C200.024 24.552 193.944 21.608 193.944 13.992C193.944 5.416 202.584 1.768 210.072 1.768Z" fill="black"/>
<path d="M234.745 6.824H238.777V14.568H245.561V18.024H238.777V40.04C238.777 44.52 238.905 45.416 243.513 45.416H245.561V49H242.297C236.153 49 234.745 47.592 234.745 40.808V18.024H229.049V14.568H234.745V6.824Z" fill="black"/>
<path d="M272.363 43.432C270.699 46.696 267.243 49.832 261.291 49.832C253.419 49.832 250.091 44.968 250.091 36.52V14.568H254.059V35.432C254.059 41.896 255.595 46.248 262.315 46.248C267.819 46.248 272.363 41.256 272.363 33.96V14.568H276.331V49H272.363V43.432Z" fill="black"/>
<path d="M296.296 13.992C301.352 13.992 305.512 16.36 307.944 20.52V2.6H311.911V49H307.944V43.368C305.512 47.464 301.352 49.832 296.296 49.832C288.36 49.832 281.896 43.368 281.896 31.912C281.896 20.52 288.36 13.992 296.296 13.992ZM297.128 17.576C290.728 17.576 286.184 22.76 286.184 31.912C286.184 41.064 290.728 46.248 297.128 46.248C302.312 46.248 308.199 42.088 308.199 31.912C308.199 21.736 302.312 17.576 297.128 17.576Z" fill="black"/>
<path d="M324.211 2.6V8.936H320.242V2.6H324.211ZM324.211 14.568V49H320.242V14.568H324.211Z" fill="black"/>
<path d="M345.389 13.992C353.645 13.992 361.005 19.368 361.005 31.912C361.005 44.456 353.645 49.832 345.389 49.832C337.133 49.832 329.837 44.456 329.837 31.912C329.837 19.368 337.133 13.992 345.389 13.992ZM345.389 46.184C351.981 46.184 356.781 41.768 356.781 31.912C356.781 22.056 351.981 17.64 345.389 17.64C338.797 17.64 334.061 22.056 334.061 31.912C334.061 41.768 338.797 46.184 345.389 46.184Z" fill="black"/>
<path d="M83.7679 28.1492C83.7497 28.0723 83.7287 27.9965 83.7046 27.9215C83.7243 27.9582 83.7432 27.9952 83.7615 28.0328C83.7644 28.0716 83.7665 28.1104 83.7679 28.1492Z" fill="black"/>
<path d="M83.7673 28.3864C83.7705 28.3071 83.7708 28.2282 83.7679 28.1492C83.7772 28.1883 83.7858 28.2277 83.7937 28.2674C83.7856 28.3074 83.7769 28.347 83.7673 28.3864Z" fill="black"/>
<path d="M83.7673 28.3864C83.7659 28.4231 83.7638 28.4598 83.7611 28.4967C83.743 28.5339 83.7243 28.5708 83.705 28.6075C83.7285 28.5346 83.7493 28.461 83.7673 28.3864Z" fill="black"/>
<path fill-rule="evenodd" clip-rule="evenodd" d="M87.1007 45.8444C87.2744 45.7692 87.4477 45.6925 87.6199 45.6136H87.6401C88.1268 45.3903 88.5732 45.305 89.0977 45.4229C89.5794 45.5333 89.9678 45.8896 90.2275 46.2886C90.4873 46.6875 90.5428 47.2872 90.4192 47.7388C90.3057 48.1503 89.9552 48.6773 89.5492 48.8629C88.3059 49.43 87.0323 49.9293 85.7335 50.3484C83.3326 51.1212 80.7805 51.7334 78.2535 51.8764C76.2284 51.9893 74.1655 51.9216 72.1505 51.6882C70.7382 51.5252 69.3158 51.3244 67.949 50.923C66.688 50.5516 65.4195 50.0573 64.2695 49.4702C63.1195 48.883 62.0351 48.1227 61.1045 47.2295C60.0503 46.2158 59.2862 45.0239 58.7389 43.679C57.7302 41.1975 57.8184 38.2969 58.6961 35.7953C59.5737 33.2937 61.102 31.0781 62.9556 29.1887C63.8853 28.24 64.9091 27.3611 66.0053 26.5721C65.8592 26.4167 65.7144 26.2601 65.5708 26.1024C63.7323 24.0851 62.1334 21.7917 61.1726 19.3277C60.2117 16.8637 59.9822 14.0184 60.7338 11.4666C61.5105 8.82441 63.3616 6.70167 65.5506 5.0908C67.6312 3.56021 70.1632 2.6795 72.6599 2.08734C75.2701 1.47009 77.9635 1.22168 80.6418 1.20663C82.9871 1.19408 85.3098 1.27187 87.5695 1.94683C88.7018 2.28556 89.819 2.72467 90.8706 3.26162C91.7785 3.72582 92.6662 4.28536 93.3825 5.06069C94.0987 5.83601 94.0987 6.94757 93.3825 7.7229C92.7091 8.45055 91.3801 8.44804 90.7067 7.7229C90.62 7.62965 90.5181 7.54561 90.4164 7.46173C90.313 7.37652 90.2099 7.29146 90.123 7.19707C90.1058 7.18515 90.0885 7.17313 90.0712 7.16085C89.9501 7.07804 89.8266 7.00026 89.7005 6.92248C89.219 6.62994 88.714 6.3768 88.1979 6.14945C86.999 5.66474 85.7409 5.28986 84.4601 5.08982C83.2093 4.94745 81.9219 4.95942 80.6637 4.97111C80.6 4.9717 80.5363 4.9723 80.4728 4.97287C79.0302 4.98489 77.5922 5.06602 76.161 5.24495C74.086 5.54393 72.015 6.04741 70.0707 6.83288C69.4652 7.10129 68.8769 7.40671 68.3146 7.75802C68.0111 7.94614 67.715 8.14646 67.4286 8.35898C67.3843 8.39388 67.3394 8.42914 67.2958 8.4656C67.1571 8.57852 67.0184 8.69645 66.8847 8.81688C66.6023 9.0678 66.3349 9.33126 66.0777 9.60727C65.9667 9.72771 65.8583 9.84815 65.7524 9.97361C65.7087 10.0221 65.6672 10.0729 65.6257 10.1236C65.6095 10.1434 65.5933 10.1633 65.5769 10.183C65.2076 10.6917 64.8768 11.2156 64.6102 11.7817C64.3885 12.359 64.2299 12.9545 64.1283 13.5645C64.0489 14.3231 64.0543 15.0847 64.1366 15.8433C64.2849 16.7537 64.5426 17.6383 64.8862 18.4957C65.3589 19.5462 65.9479 20.5395 66.6199 21.4756C66.7132 21.606 66.8065 21.734 66.9024 21.862C66.9305 21.9016 66.9608 21.9413 66.9913 21.9809C67.1248 22.1494 67.2604 22.3172 67.3992 22.4817C67.7523 22.9033 68.1179 23.3123 68.4912 23.7137C68.7625 24.006 69.0379 24.2947 69.3178 24.5793C71.3244 23.5896 73.4722 22.8984 75.6635 22.5971C77.0001 22.414 78.3367 22.3161 79.6834 22.4366C81.2874 22.5821 82.7803 22.9484 84.2456 23.6159C85.388 24.1378 86.4926 25.0135 87.0474 26.1601C87.7561 27.628 87.7485 29.3944 86.823 30.777C85.9756 32.0416 84.7449 32.7868 83.3604 33.3514C82.1095 33.8607 80.73 34.1016 79.3808 34.0891C76.5462 34.064 73.9183 32.9449 71.6007 31.3917C70.6139 30.7298 69.6727 30.0055 68.7735 29.232C68.5995 29.3466 68.4271 29.4636 68.2566 29.5826C68.065 29.7156 67.8784 29.8535 67.6919 29.9915C67.6886 29.994 67.6851 29.9966 67.6818 29.9991C67.649 30.0252 67.6161 30.051 67.5833 30.0769C67.5379 30.1127 67.4925 30.1484 67.4471 30.1848C66.7284 30.7644 66.05 31.3867 65.4144 32.0541C65.0992 32.3853 64.7966 32.7241 64.5066 33.0754C64.4277 33.1704 64.3511 33.2655 64.2747 33.3606C64.1541 33.5195 64.0358 33.6803 63.9215 33.8432C63.3855 34.5994 62.9215 35.3998 62.5391 36.2426C62.2196 37.0427 61.9807 37.8677 61.8405 38.7161C61.7672 39.3997 61.7637 40.086 61.835 40.7712C61.9384 41.3814 62.1 41.9754 62.3237 42.552C62.4295 42.7794 62.5444 43.0019 62.6706 43.2174C62.7463 43.3478 62.827 43.4758 62.9102 43.6013C62.9342 43.6352 62.9581 43.6697 62.9821 43.7042C62.9881 43.7128 62.9941 43.7214 63.0001 43.7301C63.0155 43.7523 63.0309 43.7744 63.0464 43.7963C63.0635 43.8175 63.0829 43.8414 63.0991 43.8616C63.1138 43.8798 63.1261 43.895 63.1321 43.9024C63.175 43.955 63.2204 44.0052 63.2658 44.0554C63.3793 44.1834 63.4953 44.3063 63.6163 44.4268C63.8307 44.6426 64.0551 44.8458 64.2871 45.0415C64.3502 45.0942 64.4158 45.1469 64.4813 45.1996C64.5511 45.2551 64.5787 45.2807 64.5809 45.2869C64.6014 45.2988 64.6218 45.3102 64.6411 45.321C64.6817 45.3439 64.7178 45.3641 64.7411 45.3802C65.0008 45.5609 65.2682 45.729 65.5431 45.8871C66.0112 46.1572 66.4957 46.3967 66.9904 46.6147C68.5434 47.2404 70.147 47.643 71.8049 47.8852C73.0253 48.037 74.2502 48.1144 75.4819 48.1428C76.6601 48.1691 77.8565 48.184 79.0278 48.047C81.7913 47.6435 84.5192 46.9038 87.1007 45.8444ZM64.3754 45.1193C64.3862 45.1467 64.445 45.197 64.4969 45.2356C64.4384 45.1971 64.3897 45.1567 64.3754 45.1193ZM67.5329 30.1121C67.5598 30.0893 67.5882 30.0679 67.6168 30.0469C67.5668 30.0856 67.5247 30.1184 67.5329 30.1121ZM72.3766 27.3341C72.3853 27.3408 72.394 27.3476 72.4027 27.3545C72.4199 27.3679 72.4498 27.3911 72.4772 27.4123C72.5422 27.4626 72.5935 27.5023 72.4304 27.3771C72.3243 27.2953 72.3233 27.2938 72.3631 27.3235C72.3676 27.327 72.3721 27.3305 72.3766 27.3341ZM72.3766 27.3341C72.3721 27.3305 72.3676 27.327 72.3631 27.3235ZM72.3766 27.3341C72.4098 27.3589 72.4598 27.3961 72.504 27.4295C72.5386 27.4556 72.5699 27.4792 72.5876 27.4925C72.5901 27.4944 72.5924 27.4961 72.5943 27.4975C72.8314 27.6732 73.0735 27.8438 73.3181 28.0119C74.2039 28.6182 75.1317 29.1783 76.1119 29.6201C76.0277 29.5868 75.9438 29.5526 75.8602 29.5174L76.3116 29.7081C76.2448 29.6793 76.1782 29.6499 76.1119 29.6201C76.8574 29.9145 77.6264 30.1329 78.4162 30.2628C78.3308 30.2538 78.2455 30.2437 78.1602 30.2325L78.6621 30.3002C78.5799 30.2887 78.4979 30.2762 78.4162 30.2628C79.0822 30.3331 79.7495 30.3369 80.4155 30.2694C80.3398 30.2823 80.2639 30.2942 80.1878 30.3053L80.6897 30.2375C80.5983 30.2495 80.5069 30.2601 80.4155 30.2694C81.0192 30.1666 81.6075 30.0053 82.1792 29.7854C82.0893 29.8264 81.9989 29.866 81.9082 29.9044L82.3491 29.7181C82.2926 29.7411 82.236 29.7635 82.1792 29.7854C82.3984 29.6853 82.6145 29.5768 82.8232 29.4572C82.9207 29.4018 83.0138 29.3442 83.1067 29.2826C83.0982 29.2921 83.0903 29.3018 83.083 29.3116C83.091 29.3009 83.2005 29.2223 83.27 29.1723C83.3308 29.1286 83.3611 29.1068 83.2671 29.1711C83.2217 29.2012 83.1763 29.2338 83.1309 29.2664C83.1228 29.2719 83.1147 29.2773 83.1067 29.2826C83.1487 29.2355 83.2037 29.1924 83.2575 29.1503C83.2978 29.1186 83.3375 29.0875 83.3705 29.0557C83.3949 29.0323 83.4249 28.994 83.4572 28.9527C83.5029 28.8943 83.5533 28.8298 83.5996 28.7927C83.5928 28.8034 83.586 28.8141 83.579 28.8248C83.4941 28.9279 83.3792 29.1173 83.5243 28.9077C83.5336 28.8934 83.543 28.8793 83.5522 28.8653C83.5612 28.8518 83.5702 28.8383 83.579 28.8248C83.6018 28.797 83.6224 28.7755 83.6353 28.7697C83.6238 28.775 83.6119 28.7829 83.5996 28.7927C83.6066 28.7818 83.6134 28.7708 83.6201 28.7596C83.6498 28.7094 83.678 28.6587 83.705 28.6075C83.678 28.6909 83.6473 28.7732 83.6126 28.855L83.7602 28.509C83.7566 28.5572 83.7519 28.6056 83.7462 28.6542L83.7688 28.4889L83.8042 28.4058C83.7931 28.4299 83.7818 28.454 83.7703 28.4779L83.7968 28.2833C83.8031 28.3156 83.8089 28.3481 83.8143 28.3807L83.7989 28.2678L83.8143 28.1549C83.8089 28.1875 83.8031 28.2198 83.7968 28.252L83.769 28.0483C83.7819 28.0752 83.7945 28.1024 83.8068 28.1298L83.7676 28.0381L83.7462 27.8814C83.7522 27.9283 83.757 27.9751 83.7607 28.0218L83.6151 27.6807C83.6488 27.7602 83.6785 27.8404 83.7046 27.9215C83.6741 27.8647 83.6419 27.8088 83.6077 27.7534C83.6178 27.7607 83.6278 27.7666 83.6378 27.771C83.618 27.7632 83.4589 27.5324 83.4589 27.5324C83.4589 27.5324 83.471 27.5502 83.5016 27.5954C83.5344 27.6431 83.5672 27.6907 83.6 27.7409C83.6026 27.7451 83.6051 27.7492 83.6077 27.7534C83.5591 27.7186 83.5093 27.6543 83.4627 27.5942C83.4308 27.553 83.4004 27.5138 83.373 27.4875C83.3157 27.4323 83.2546 27.3796 83.1933 27.3268C83.1952 27.3281 83.1971 27.3293 83.199 27.3306C83.2217 27.3463 83.2444 27.362 83.2671 27.3771C83.5117 27.5377 82.9518 27.1161 83.1183 27.2617C83.143 27.2834 83.1684 27.3053 83.1933 27.3268C83.1725 27.3124 83.1517 27.298 83.1309 27.2842C83.03 27.2165 82.9241 27.1538 82.8182 27.0961C82.6594 27.0086 82.4959 26.9297 82.33 26.8551C82.3743 26.8724 82.4185 26.89 82.4626 26.9079L82.0956 26.7528C82.0675 26.7409 82.0393 26.729 82.0112 26.7172L82.0956 26.7528C82.1741 26.7862 82.2523 26.8202 82.33 26.8551C81.5725 26.5594 80.7876 26.3539 79.9849 26.2256C80.0677 26.2348 80.1505 26.2448 80.2332 26.2555L79.7313 26.1877C79.816 26.1995 79.9006 26.2121 79.9849 26.2256C78.8 26.0939 77.6029 26.1151 76.4183 26.2543C76.5145 26.2397 76.611 26.2259 76.7076 26.2128L76.2057 26.2806C76.2765 26.2714 76.3474 26.2627 76.4183 26.2543C75.0337 26.4643 73.682 26.8336 72.3766 27.3341ZM87.9124 6.02671C87.9365 6.03682 87.9605 6.04697 87.9846 6.05718L87.9124 6.02671ZM90.2301 7.27125C90.4484 7.42812 90.2697 7.31256 90.1552 7.21916C90.1801 7.23632 90.2051 7.2535 90.2301 7.27125Z" fill="black"/>
<path d="M109.746 24.7028C109.807 24.7535 109.868 24.8084 109.884 24.8233C109.9 24.8381 109.87 24.8128 109.746 24.7028Z" fill="black"/>
<path d="M97.1613 28.4092C97.1522 28.4032 97.1432 28.3969 97.1344 28.3905C97.1098 28.3694 97.0854 28.348 97.062 28.3256C97.0528 28.3164 97.0416 28.3062 97.0293 28.2954C97.0467 28.308 97.0875 28.3422 97.1613 28.4092Z" fill="black"/>
<path fill-rule="evenodd" clip-rule="evenodd" d="M104.091 35.9961C103.856 40.239 103.5 44.5071 102.537 48.6547L102.542 48.6447C102.303 49.6709 101.18 50.1778 100.214 49.9595C99.1905 49.7261 98.671 48.5995 98.893 47.6435C99.2198 46.2358 99.4732 44.8129 99.6751 43.383C99.8491 42.0543 99.9815 40.7188 100.088 39.3834C100.249 37.3354 100.351 35.2821 100.452 33.2292C100.464 32.9748 100.477 32.7203 100.49 32.4658C100.286 32.4777 100.083 32.4877 99.879 32.4958C98.4567 32.551 97.0696 32.4883 95.7507 31.9061C94.414 31.3165 93.3372 29.9992 93.0699 28.564C92.742 26.8126 93.3725 25.149 94.462 23.789C95.1984 22.8682 96.2222 22.1606 97.2739 21.6387C98.4415 21.0591 99.6621 20.5598 100.951 20.3038C100.988 20.2964 101.026 20.289 101.063 20.2818C101.184 18.3222 101.398 16.3662 101.841 14.455C102.171 13.0223 102.691 11.5795 103.284 10.3024C103.876 9.02519 104.638 7.87349 105.505 6.76696C107.152 4.65927 109.293 2.79497 111.692 1.58054C113.785 0.521679 116.198 0.0951227 118.536 0.265745C120.957 0.443895 123.451 1.17406 125.144 3.00072C127.005 5.01055 127.882 7.82582 127.726 10.5357C127.56 13.4363 126.384 16.1763 124.788 18.5775C123.416 20.6426 121.784 22.5621 119.951 24.2357C118.902 25.193 117.789 26.079 116.622 26.8873C116.8 27.1769 116.971 27.4701 117.134 27.7661C118.673 30.5517 119.592 33.5722 120.511 36.5952C121.144 38.6777 121.778 40.7613 122.615 42.77C122.858 43.3254 123.117 43.8717 123.419 44.3992C123.585 44.6953 123.764 44.9838 123.953 45.2649C124.044 45.4029 124.137 45.5359 124.233 45.6688C124.264 45.7119 124.295 45.7539 124.326 45.7956C124.332 45.8031 124.337 45.8105 124.343 45.818L124.347 45.8229C124.757 46.3142 125.185 46.7833 125.673 47.1994C125.677 47.2022 125.69 47.2114 125.707 47.2244C125.658 47.1923 125.649 47.1925 125.777 47.2847C125.807 47.3074 125.838 47.3297 125.869 47.3517C125.885 47.3657 125.895 47.3762 125.895 47.3801C125.895 47.3762 125.892 47.3704 125.886 47.3634C125.977 47.4276 126.069 47.4892 126.162 47.5482C126.375 47.6813 126.593 47.8022 126.819 47.9096C126.873 47.9297 126.927 47.949 126.982 47.9672C127.986 48.311 128.543 49.2369 128.303 50.2832C128.084 51.2316 126.911 51.9166 125.976 51.598C124.314 51.0309 122.889 49.952 121.774 48.6096C120.813 47.4529 120.024 46.2033 119.416 44.8308C118.73 43.2852 118.143 41.7044 117.628 40.096C117.359 39.2587 117.106 38.4162 116.852 37.5737C116.26 35.608 115.669 33.6427 114.882 31.7443C114.477 30.8192 114.025 29.9146 113.507 29.0457C113.469 28.9816 113.431 28.9176 113.392 28.8538C111.428 29.8951 109.355 30.7318 107.21 31.3391C106.259 31.6087 105.293 31.8318 104.317 32.0088C104.292 32.4598 104.266 32.9107 104.24 33.3616C104.19 34.2398 104.139 35.118 104.091 35.9961ZM104.525 28.1336C106.2 27.7628 107.841 27.2475 109.429 26.5949C109.97 26.3607 110.504 26.1113 111.03 25.8464C110.76 25.5779 110.481 25.3181 110.194 25.0687C110.11 24.9949 110.023 24.9251 109.936 24.8555C109.843 24.7809 109.75 24.7063 109.662 24.6271C109.694 24.6559 109.722 24.681 109.746 24.7028C109.711 24.6732 109.676 24.645 109.651 24.6271C109.546 24.5493 109.44 24.4765 109.331 24.4038C109.016 24.1921 108.688 24.0019 108.346 23.8385C108.011 23.7183 107.667 23.6348 107.317 23.5753C106.449 23.4871 105.575 23.508 104.704 23.5788C104.701 23.6991 104.697 23.8193 104.693 23.9396C104.652 25.3376 104.594 26.7357 104.525 28.1336ZM104.875 19.8029C104.879 19.8026 104.883 19.8023 104.888 19.802C106.224 19.7067 107.619 19.7242 108.92 20.0705C110.3 20.4393 111.482 21.2598 112.569 22.1506C113.213 22.6782 113.816 23.2571 114.377 23.8754C114.462 23.8178 114.546 23.7597 114.63 23.7012C114.905 23.5105 115.174 23.3148 115.442 23.1141C115.482 23.0848 115.521 23.0556 115.56 23.0263C115.659 22.9501 115.757 22.8737 115.853 22.7954C116.874 21.9774 117.84 21.0892 118.743 20.1407C119.184 19.6765 119.61 19.1973 120.022 18.703C120.145 18.555 120.266 18.4045 120.387 18.2541L120.47 18.1514C120.639 17.9292 120.807 17.7049 120.97 17.4785C121.787 16.3401 122.518 15.1419 123.09 13.8652C123.454 12.9641 123.731 12.0349 123.888 11.0759C123.965 10.3658 123.97 9.65581 123.895 8.94579C123.793 8.33659 123.634 7.74247 123.412 7.1673C123.261 6.8426 123.089 6.5269 122.894 6.22498C122.833 6.13214 122.773 6.04181 122.707 5.95148L122.705 5.9487C122.702 5.94526 122.699 5.94181 122.696 5.93837C122.566 5.78811 122.436 5.6387 122.296 5.49733C122.218 5.41954 122.137 5.34176 122.054 5.26648C122.037 5.25105 122.01 5.23168 121.979 5.2104C121.926 5.17253 121.864 5.12864 121.836 5.09024C121.794 5.06225 121.753 5.03485 121.711 5.00804C121.466 4.8525 121.21 4.7155 120.946 4.59341C120.317 4.35199 119.664 4.18867 118.998 4.08208C118.048 3.97775 117.091 3.98266 116.142 4.08899C115.397 4.20684 114.663 4.38817 113.958 4.66021C113.146 5.03048 112.376 5.5055 111.649 6.02174L111.392 6.20992C111.37 6.2261 111.348 6.24228 111.326 6.25846C111.139 6.40808 110.953 6.56011 110.769 6.71677C110.36 7.06805 109.962 7.43941 109.586 7.82331C109.21 8.20721 108.849 8.60616 108.506 9.02017C108.472 9.06158 108.439 9.10298 108.406 9.14438C108.378 9.1786 108.35 9.21282 108.322 9.24705C108.307 9.26694 108.292 9.28673 108.277 9.30622C108.131 9.50193 107.989 9.70015 107.851 9.90089C107.298 10.7075 106.829 11.5665 106.431 12.4587C105.761 14.1093 105.345 15.839 105.088 17.5966C104.996 18.3304 104.927 19.066 104.875 19.8029ZM121.966 5.18117C122.227 5.36833 121.923 5.18385 121.842 5.09421C121.884 5.12259 121.925 5.15158 121.966 5.18117ZM109.124 26.7248L109.23 26.6802C109.195 26.6951 109.16 26.71 109.124 26.7248ZM100.906 24.2095C100.577 24.3064 100.252 24.4174 99.9298 24.5446C99.2226 24.8595 98.5598 25.2199 97.9146 25.6496C97.8879 25.6698 97.8628 25.6895 97.8438 25.706C97.7783 25.7637 97.7152 25.8215 97.6522 25.8817C97.5186 26.0077 97.3934 26.1421 97.2728 26.2811L97.2714 26.2831C97.2134 26.3659 97.1579 26.4513 97.1049 26.5391C97.0363 26.6518 96.9739 26.7672 96.9161 26.8852C96.8461 27.0772 96.7878 27.2725 96.7443 27.472C96.7404 27.5579 96.7401 27.6434 96.7433 27.7293C96.7628 27.811 96.7855 27.8918 96.8117 27.9718C96.8538 28.0512 96.8992 28.1288 96.9486 28.2052C96.9588 28.2208 96.9693 28.2365 96.9799 28.2521C96.9898 28.2609 96.9996 28.2694 97.0091 28.2777C97.016 28.2838 97.0228 28.2897 97.0293 28.2954C97.0182 28.2873 97.0166 28.288 97.022 28.2945C97.0341 28.3088 97.0804 28.3514 97.1344 28.3905C97.1443 28.399 97.1542 28.4075 97.1642 28.4159C97.1913 28.439 97.2185 28.4621 97.2447 28.4861C97.2131 28.4566 97.1855 28.4312 97.1613 28.4092C97.166 28.4124 97.1708 28.4154 97.1755 28.4184C97.2501 28.4654 97.3264 28.5081 97.4044 28.5477C97.629 28.6247 97.8576 28.6821 98.0905 28.725C98.792 28.7891 99.4949 28.7553 100.212 28.7195C100.377 28.7113 100.542 28.7015 100.706 28.6902C100.747 28.0493 100.786 27.4122 100.815 26.7875C100.853 25.9281 100.88 25.0688 100.906 24.2095ZM96.8729 28.1223L96.9584 28.2325C96.9182 28.1953 96.882 28.1561 96.8729 28.1223ZM98.0701 25.5386C98.0846 25.5293 98.0558 25.5506 97.9404 25.6303C97.9979 25.5878 98.0556 25.5479 98.0701 25.5386Z" fill="black"/>
<path d="M125.886 47.3634C125.88 47.3595 125.875 47.3556 125.869 47.3517C125.829 47.3162 125.752 47.2578 125.707 47.2244C125.759 47.2581 125.855 47.3276 125.886 47.3634Z" fill="black"/>
<path d="M25.2726 32.3026C25.2267 32.2545 25.1822 32.2052 25.1393 32.1544C25.1353 32.1498 25.1314 32.1452 25.1275 32.1406L25.1266 32.1394C25.114 32.1218 25.1015 32.104 25.0891 32.0862C25.2123 32.2238 25.2627 32.2859 25.2726 32.3026Z" fill="black"/>
<path fill-rule="evenodd" clip-rule="evenodd" d="M52.4516 39.017C51.1351 42.5875 49.4076 45.9623 47.0522 48.9658L47.0622 48.9607C46.7621 49.3446 46.1897 49.4927 45.7256 49.5127C45.2238 49.5353 44.737 49.2769 44.389 48.9607C44.041 48.6446 43.8342 48.0926 43.8342 47.6309C43.8342 47.1535 44.0125 46.8073 44.2741 46.4519C44.2464 46.4869 44.2423 46.4909 44.2982 46.4165C44.3511 46.3488 44.4015 46.2811 44.4519 46.2134C44.5553 46.0779 44.6563 45.9397 44.7547 45.8017C44.9413 45.5458 45.1204 45.2823 45.2969 45.0189C45.6752 44.4493 46.0333 43.8672 46.3738 43.2725C47.0318 42.1187 47.6207 40.9262 48.1505 39.7069C49.5656 36.3245 50.5487 32.7601 51.0689 29.1325C51.4217 26.3829 51.5089 23.5893 51.1639 20.8369C50.8056 18.395 50.1341 16.0042 49.1892 13.7229C48.7865 12.8034 48.3411 11.9034 47.8415 11.0324C47.3674 10.2069 46.8504 9.40647 46.2805 8.64369C46.2586 8.6142 46.2365 8.58494 46.2144 8.55579C46.1751 8.50473 46.1221 8.43624 46.0888 8.39528C45.9501 8.22466 45.8114 8.05654 45.6676 7.89094C45.3751 7.5522 45.0775 7.22852 44.7597 6.91237C44.442 6.59622 44.1141 6.2901 43.7711 6.00155C43.6879 5.93129 43.6022 5.86104 43.5164 5.79078C43.495 5.77322 43.4736 5.75628 43.4521 5.73934C43.4307 5.72241 43.4093 5.70547 43.3878 5.68791C43.2937 5.61168 43.3174 5.62997 43.3741 5.67448C43.3822 5.68084 43.391 5.68777 43.4003 5.695C43.4751 5.75378 43.5782 5.83472 43.577 5.83093C43.5332 5.74025 43.3564 5.63646 43.217 5.55461C43.1635 5.52323 43.1155 5.49507 43.0827 5.47212C42.4737 5.04887 41.8289 4.68099 41.1536 4.37551C40.4914 4.11681 39.8059 3.92255 39.1041 3.80543C38.3613 3.72823 37.6171 3.73689 36.8743 3.81721C35.9581 3.9641 35.0663 4.21667 34.2033 4.55944C33.3321 4.94823 32.5019 5.4266 31.7315 5.989C31.7228 5.99527 31.7061 6.00764 31.6867 6.02204C31.6075 6.08464 31.5285 6.14741 31.4516 6.21232C31.2918 6.34665 31.1341 6.48298 30.9801 6.62488C31.0825 6.7305 31.1833 6.83723 31.2826 6.94499C31.9963 7.72032 32.6596 8.55838 33.2321 9.4416C33.7692 10.2696 34.1854 11.1553 34.5662 12.0637C35.3227 13.8627 35.7288 15.7521 35.9784 17.6791C36.218 19.5259 36.2508 21.3952 36.0844 23.2495C35.8069 26.3407 35.063 29.4446 33.6608 32.2322C32.9799 33.5847 32.0543 34.779 30.8337 35.6873C29.3988 36.7562 27.5628 36.9896 25.8807 36.696C24.1986 36.4024 22.8645 35.4515 21.8784 34.094C21.0714 32.9799 20.6149 31.5798 20.3552 30.2425C19.8231 27.5175 19.8584 24.6897 20.2039 21.9422C20.4031 20.3564 20.7158 18.8108 21.1824 17.2777C21.77 15.3431 22.519 13.4587 23.3487 11.617C24.0359 10.0901 24.798 8.58635 25.6957 7.16863C25.1697 6.84778 24.6238 6.56115 24.06 6.31018C23.144 5.94518 22.1926 5.67986 21.219 5.52581C20.2799 5.42058 19.3345 5.41989 18.3956 5.52373C17.3935 5.68268 16.4185 5.95979 15.4769 6.33559C14.5405 6.75169 13.6489 7.26036 12.8096 7.84828C12.6835 7.9361 12.5574 8.02643 12.4338 8.11927C12.4217 8.12842 12.3997 8.14516 12.374 8.16464C12.3688 8.16861 12.3634 8.17268 12.358 8.17683C12.3397 8.1912 12.32 8.20677 12.3005 8.2221C12.2884 8.23163 12.2764 8.24107 12.2649 8.25008C12.2306 8.27708 12.2014 8.30016 12.1892 8.30997C12.0909 8.38775 11.995 8.46804 11.8992 8.54834C11.5033 8.88456 11.1124 9.24337 10.7492 9.60218C10.3861 9.96099 10.038 10.3349 9.70262 10.7213C9.52356 10.9295 9.34703 11.1403 9.17554 11.3536C9.14565 11.3926 9.11575 11.4303 9.08586 11.4676C9.03589 11.5335 8.98592 11.5999 8.93596 11.6672C7.71567 13.3168 6.77136 15.1271 5.957 17.0034C5.07747 19.111 4.43724 21.2882 4.10415 23.5476C3.8501 25.5635 3.7916 27.6041 3.80134 29.6353C3.80611 30.9279 3.88749 32.216 4.04974 33.4975C4.42747 36.0843 5.14296 38.6108 6.14689 41.0256C6.45023 41.7214 6.77494 42.4076 7.1227 43.0843C7.90449 44.6074 8.79473 46.0727 9.76567 47.4828C10.0279 47.8617 10.2953 48.2381 10.5676 48.6095C10.7138 48.8075 10.8603 49.006 11.009 49.2016C11.0771 49.2919 11.1477 49.3848 11.2183 49.4751C11.2197 49.477 11.2212 49.4789 11.2226 49.4807C11.8456 50.2668 12.4568 51.0042 13.1501 51.7911C13.8486 52.584 13.8814 53.6604 13.1501 54.4533C12.4893 55.1684 11.1275 55.196 10.4743 54.4533C8.95865 52.732 7.53377 50.9229 6.25264 49.0235C4.18215 45.9523 2.50255 42.59 1.41813 39.0471C0.583378 36.3171 0.129434 33.4567 0.033601 30.6038C-0.0874508 27.0333 0.0941271 23.3373 0.981841 19.8621C1.44839 18.048 2.11922 16.3518 2.90858 14.5954C3.69794 12.839 4.61592 11.1579 5.77852 9.61473C8.18443 6.42309 11.2939 3.78346 15.1197 2.46114C18.895 1.15638 23.0259 1.56788 26.5692 3.34938C27.0827 3.60738 27.5837 3.89732 28.069 4.21447C28.6399 3.6568 29.2565 3.14086 29.9233 2.66438C33.0202 0.451306 37.1234 -0.589992 40.8634 0.340903C44.3915 1.21911 47.1883 3.69815 49.3446 6.50338C51.5941 9.42905 53.1476 12.9343 54.1009 16.4798C55.0744 20.0929 55.3593 23.6635 55.0113 27.5677C54.6633 31.4719 53.768 35.4464 52.4516 39.017ZM5.81131 17.3429C5.83641 17.2837 5.86164 17.2246 5.88699 17.1656L5.81131 17.3429ZM28.6345 9.62185C27.7644 11.0779 27.0168 12.6071 26.344 14.1622C25.3009 16.6495 24.4036 19.2421 24.0074 21.9181C23.7268 24.1237 23.6412 26.3858 23.91 28.596C24.0431 29.4698 24.2429 30.3369 24.5658 31.1636C24.6604 31.3675 24.7639 31.567 24.8795 31.7605C24.9465 31.8701 25.0153 31.9798 25.0891 32.0862C25.065 32.0593 25.0381 32.0294 25.0081 31.9964C25.0336 32.0246 25.0576 32.0544 25.0817 32.0844C25.0968 32.1032 25.1119 32.122 25.1275 32.1406C25.1872 32.2263 25.2896 32.3312 25.2726 32.3026C25.3265 32.359 25.3822 32.4139 25.4394 32.4681C25.4724 32.4995 25.5064 32.53 25.5407 32.5601C25.6907 32.6581 25.8404 32.7496 25.9979 32.8305C26.2759 32.9277 26.5635 33.0002 26.8533 33.0529C27.1065 33.0738 27.3598 33.0764 27.613 33.0583C27.8151 33.0176 28.0133 32.9624 28.2075 32.8936C28.3346 32.8308 28.4583 32.7619 28.5791 32.6864C28.6504 32.6425 28.7195 32.5951 28.7885 32.5467C28.7927 32.5431 28.7969 32.5395 28.8011 32.5358C28.9776 32.3853 29.1441 32.2222 29.3004 32.0516C29.3735 31.9738 29.4442 31.8935 29.5122 31.8132C29.517 31.8076 29.5216 31.802 29.5263 31.7962C29.9897 31.1455 30.3726 30.4483 30.6981 29.7192C31.4279 27.9397 31.933 26.0686 32.2155 24.1689C32.4763 22.0628 32.4858 19.926 32.2255 17.8197C31.9931 16.2605 31.6061 14.7247 31.0139 13.2632C30.6875 12.5339 30.3087 11.8272 29.8628 11.1629C29.7317 10.9672 29.593 10.7765 29.4517 10.5858C29.4315 10.5582 29.4107 10.5312 29.3899 10.5042C29.3877 10.5014 29.3855 10.4985 29.3833 10.4957C29.3278 10.4254 29.272 10.3556 29.2147 10.2872C29.0266 10.0599 28.8341 9.83886 28.6345 9.62185ZM30.811 29.4596C30.8017 29.4817 30.7923 29.5038 30.7828 29.5258L30.811 29.4596ZM24.4457 30.8923L24.4728 30.9559C24.4637 30.9347 24.4547 30.9136 24.4457 30.8923ZM26.1959 14.5076C26.2214 14.4476 26.2469 14.3877 26.2726 14.3279L26.1959 14.5076ZM46.2649 8.62192C46.2668 8.62452 46.2568 8.61142 46.2287 8.57445C46.2488 8.60067 46.263 8.6193 46.2649 8.62192Z" fill="black"/>
<path fill-rule="evenodd" clip-rule="evenodd" d="M177.774 45.9851C178.047 45.6087 178.29 45.2122 178.502 44.7979V44.8179C178.981 43.882 180.227 43.6888 181.089 44.143C182.027 44.6373 182.217 45.8417 181.768 46.7174C181.226 47.7762 180.477 48.7724 179.579 49.5602C178.615 50.4058 177.566 51.013 176.381 51.4898C174.621 52.1974 172.603 52.4081 170.722 52.2024C169.695 52.0895 168.682 51.9113 167.701 51.5901C166.503 51.1962 165.34 50.6643 164.235 50.0596C162.712 49.2255 161.322 48.2575 159.892 47.261C159.394 46.9145 158.892 46.5645 158.377 46.2155C157.448 45.5857 156.497 44.9962 155.521 44.451C155.493 44.5107 155.465 44.5703 155.436 44.6298C153.954 47.7336 151.482 50.2703 148.239 51.5324C146.469 52.2199 144.486 52.4382 142.6 52.4633C141.109 52.4834 139.564 52.383 138.108 52.0518C135.897 51.545 133.925 49.9567 133.09 47.8917C132.255 45.8266 133.057 43.6386 134.447 42.0428C135.71 40.59 137.483 39.619 139.256 38.9265C141.18 38.1762 143.356 37.8099 145.414 37.717C148.193 37.5911 150.883 38.2308 153.436 39.2509C153.619 38.6323 153.788 38.0096 153.949 37.3858L153.981 37.2607C154.369 35.7576 154.761 34.2398 154.991 32.7032C155.288 30.2912 155.21 27.845 154.901 25.4376C154.388 21.8707 153.37 18.3854 151.976 15.0626C151.625 14.2522 151.251 13.4529 150.854 12.6632C150.014 10.9946 149.074 9.37618 148.04 7.81799C147.505 7.01507 146.948 6.22719 146.365 5.45939C146.322 5.40293 146.279 5.34647 146.235 5.29001L146.232 5.28601C146.236 5.29101 146.238 5.29309 146.236 5.29128C146.219 5.26688 146.2 5.2433 146.181 5.2196C146.156 5.18662 146.13 5.15364 146.105 5.12066C146.027 5.02046 146.102 5.11855 146.167 5.20224C146.157 5.19023 146.148 5.17813 146.138 5.16582C145.994 4.98265 145.851 4.80199 145.704 4.62134C145.387 4.22991 145.064 3.84601 144.733 3.46462C144.042 2.6642 143.997 1.60032 144.733 0.802406C145.389 0.0923162 146.761 0.054679 147.409 0.802406C148.171 1.68061 148.897 2.58892 149.601 3.5148C152.108 6.81182 154.117 10.425 155.704 14.2414C157.076 17.5384 158.074 21.0036 158.569 24.539C159.023 27.7833 159.126 31.0276 158.554 34.2645C158.241 36.0334 157.782 37.7798 157.295 39.5261C157.169 39.9787 157.036 40.4293 156.894 40.8772C157.064 40.9679 157.233 41.0595 157.401 41.1521C158.916 41.9858 160.338 42.9741 161.759 43.9621C163.684 45.3001 165.608 46.6374 167.761 47.5892C168.702 47.9656 169.666 48.2481 170.666 48.4077C171.531 48.5032 172.401 48.509 173.266 48.4159C173.953 48.3044 174.626 48.1278 175.275 47.8763C175.603 47.7265 175.922 47.5576 176.23 47.3672C176.395 47.2632 176.555 47.1536 176.714 47.04C176.727 47.0297 176.739 47.0192 176.752 47.0084C176.835 46.9407 176.916 46.8704 176.996 46.7977C177.178 46.6346 177.349 46.4614 177.516 46.2808C177.591 46.2005 177.665 46.1177 177.735 46.0324L177.774 45.9851ZM174.999 47.997L175.065 47.9693C175.043 47.9786 175.021 47.9879 174.999 47.997ZM152.133 15.4283L152.02 15.1639C152.058 15.2519 152.095 15.34 152.133 15.4283ZM152.137 42.7922C150.768 42.2437 149.353 41.8118 147.891 41.5864C146.629 41.4418 145.362 41.4595 144.103 41.6103C142.763 41.8081 141.414 42.1135 140.155 42.6138C139.774 42.7839 139.404 42.9716 139.041 43.1795C138.817 43.3074 138.598 43.4454 138.383 43.5885C138.275 43.6587 138.169 43.734 138.066 43.8093C138.064 43.8106 138.062 43.8119 138.06 43.8132C137.694 44.1116 137.359 44.4388 137.049 44.7929C136.993 44.8726 136.939 44.9544 136.888 45.0362C136.807 45.1634 136.735 45.2938 136.668 45.4274C136.614 45.5798 136.57 45.7348 136.536 45.8928C136.528 46.0252 136.528 46.1572 136.535 46.2896C136.564 46.4208 136.601 46.5498 136.644 46.6773C136.73 46.8422 136.826 46.9998 136.93 47.1546C136.942 47.1686 136.955 47.1826 136.967 47.1967C136.992 47.2243 137.016 47.2518 137.042 47.2794C137.145 47.3873 137.251 47.4902 137.362 47.5906C137.386 47.6113 137.41 47.6312 137.434 47.651C137.454 47.6677 137.474 47.6844 137.494 47.7013C137.598 47.773 137.703 47.8438 137.811 47.9092C137.993 48.0203 138.18 48.1198 138.371 48.2106C138.851 48.3862 139.344 48.493 139.848 48.5702C141.43 48.76 143.045 48.7656 144.628 48.5778C145.513 48.4428 146.389 48.235 147.225 47.9126C147.87 47.6161 148.481 47.2449 149.052 46.8279C149.069 46.8137 149.086 46.7996 149.103 46.7855C149.132 46.7622 149.161 46.7388 149.19 46.7149C149.341 46.5894 149.487 46.4614 149.631 46.3285C149.896 46.08 150.151 45.8191 150.393 45.5481C150.507 45.4214 150.617 45.2888 150.726 45.1555C150.759 45.1104 150.793 45.065 150.826 45.0187C151.043 44.7176 151.248 44.409 151.439 44.0903C151.694 43.6684 151.924 43.2344 152.137 42.7922Z" fill="black"/>
<path d="M146.167 5.20224C146.17 5.20653 146.174 5.21081 146.177 5.21509L146.181 5.2196C146.198 5.24174 146.215 5.26387 146.232 5.28601C146.222 5.27274 146.195 5.23887 146.167 5.20224Z" fill="black"/>
</svg>
