<svg xmlns="http://www.w3.org/2000/svg" viewBox="0 0 220.07 83.43"><defs><style>.cls-1{fill:#fff;}</style></defs><title>merl_logo</title><g id="Layer_2" data-name="Layer 2"><g id="Layer_1-2" data-name="Layer 1"><polygon class="cls-1" points="212.72 72.97 212.72 0 195.32 10.46 203.9 10.46 203.9 72.87 195.87 80.54 220.07 80.54 212.72 72.97"/><path class="cls-1" d="M196.26,45.53h3.85V31.62l-.73-.44a25.43,25.43,0,0,0-28.68,2.07V27.69h-7.12l-7.81,9.93h6.93V71.49l-9.05,9.05h26.09l-9-9v-27c1.46-5.75,3.79-8.83,7.76-10.27a12.87,12.87,0,0,1,9.93.58c3.5,1.73,6.11,5.09,7.54,9.72Z"/><polygon class="cls-1" points="100.64 12.27 110.77 1.04 91.2 1.04 55.73 62.92 20.25 1.04 0.68 1.04 10.81 12.27 10.81 71.13 0 80.49 31.19 80.49 20.32 71.23 20.32 19.3 55.73 83.43 91.13 19.3 91.13 71.23 80.26 80.49 111.45 80.49 100.64 71.13 100.64 12.27"/><path class="cls-1" d="M148.23,54.13c1.59,8.76-1.49,16.73-7.72,19.63-7.38,3.44-17-1-22.47-10.19l38.39-17.91-.52-1.32a26.44,26.44,0,1,0,1.86,9.76,26.68,26.68,0,0,0-.39-4.44Zm-26-19.67c7.37-3.44,17,1,22.47,10.19L115.55,58.23C112,48.14,114.81,37.9,122.19,34.46Z"/></g></g></svg>