<svg width="1020" height="71" viewBox="0 0 1020 71" fill="none" xmlns="http://www.w3.org/2000/svg">
<path d="M0 60.0676L9.13869 49.9247C12.916 54.0547 16.5715 56.4842 21.2018 56.4842C26.685 56.4842 30.0358 53.2044 30.0358 45.6125V3.21899H44.9014V46.2806C44.9014 54.0547 42.6472 59.8854 38.6871 63.8332C34.6052 67.9025 28.6955 69.9675 21.5064 69.9675C11.332 69.9675 4.50842 65.4731 0 60.0676Z" fill="white"/>
<path d="M68.1758 40.8144V3.21899H82.6758V40.45C82.6758 51.1394 88.0372 56.7271 96.9322 56.7271C105.827 56.7271 111.189 51.3824 111.189 40.9358V3.27973H125.689V40.3892C125.689 60.3105 114.478 70.089 96.7494 70.089C79.0204 70.0282 68.1758 60.1891 68.1758 40.8144Z" fill="white"/>
<path d="M145.365 59.4602L153.956 49.1959C159.865 54.0547 166.141 57.213 173.634 57.213C179.544 57.213 183.139 54.8443 183.139 51.0179V50.8357C183.139 47.1916 180.884 45.3088 169.857 42.4542C156.575 39.053 147.985 35.4089 147.985 22.3507V22.1685C147.985 10.2643 157.611 2.36865 171.075 2.36865C180.702 2.36865 188.865 5.40544 195.567 10.7502L188.012 21.6219C182.164 17.5526 176.437 15.1231 170.832 15.1231C165.288 15.1231 162.363 17.674 162.363 20.8323V21.0145C162.363 25.3267 165.166 26.7237 176.62 29.639C190.023 33.1009 197.578 37.899 197.578 49.3781V49.5603C197.578 62.6184 187.586 69.9675 173.33 69.9675C163.399 69.9675 153.285 66.5055 145.365 59.4602Z" fill="white"/>
<path d="M213.541 3.21899V16.5808H233.585V68.9957H248.146V16.5808H268.19V3.21899H213.541Z" fill="white"/>
<path d="M303.893 3.21899H289.393V68.9957H303.893V3.21899Z" fill="white"/>
<path d="M326.922 36.3199V36.1377C326.922 17.4311 341.056 2.12573 361.344 2.12573C373.773 2.12573 381.206 6.25576 387.359 12.2686L378.099 22.8973C372.981 18.2814 367.802 15.4876 361.222 15.4876C350.073 15.4876 342.092 24.7194 342.092 35.9555V36.1377C342.092 47.4345 349.89 56.7878 361.222 56.7878C368.777 56.7878 373.407 53.7511 378.586 49.0744L387.846 58.367C381.084 65.5945 373.529 70.089 360.796 70.089C341.361 70.1497 326.922 55.2087 326.922 36.3199Z" fill="white"/>
<path d="M408.865 3.21899V68.9957H459.128V56.1198H423.304V42.3328H454.376V29.4568H423.304V16.095H458.641V3.21899H408.865Z" fill="white"/>
<path d="M571.352 36.9273V36.7451C571.352 18.0385 585.973 2.73315 605.957 2.73315C617.837 2.73315 625.026 5.95214 631.911 11.7828L622.772 22.7759C617.654 18.5244 613.146 16.095 605.53 16.095C594.99 16.095 586.583 25.3876 586.583 36.5629V36.7451C586.583 48.7708 594.868 57.6382 606.566 57.6382C611.866 57.6382 616.558 56.302 620.213 53.6904V44.2764H605.591V31.7648H634.226V60.3106C627.463 66.0197 618.081 70.7571 606.018 70.7571C585.547 70.7571 571.352 56.4235 571.352 36.9273Z" fill="white"/>
<path d="M657.621 3.88696V69.6637H705.02V56.484H672.182V3.88696H657.621Z" fill="white"/>
<path d="M773.681 36.9273V36.7451C773.681 25.4483 765.395 16.095 753.697 16.095C742 16.095 733.897 25.3268 733.897 36.5629V36.7451C733.897 48.042 742.183 57.3953 753.88 57.3953C765.578 57.3953 773.681 48.2242 773.681 36.9273ZM718.727 36.9273V36.7451C718.727 18.0385 733.531 2.73315 753.88 2.73315C774.229 2.73315 788.851 17.8563 788.851 36.5629V36.7451C788.851 55.4517 774.046 70.7571 753.697 70.7571C733.348 70.7571 718.727 55.6339 718.727 36.9273Z" fill="white"/>
<path d="M842.1 42.4544H825.345V56.9094H842.587C848.984 56.9094 852.883 54.6622 852.883 49.7426V49.5604C852.883 45.1875 849.593 42.4544 842.1 42.4544ZM849.167 23.3226C849.167 19.0104 845.755 16.581 839.663 16.581H825.345V30.4894H838.749C845.146 30.4894 849.228 28.4244 849.228 23.5656V23.3226H849.167ZM811.211 3.88721H841.856C849.411 3.88721 855.32 5.95222 859.098 9.71783C862.144 12.7546 863.606 16.3988 863.606 20.8932V21.0754C863.606 28.4852 859.646 32.6152 854.955 35.2875C862.57 38.2029 867.322 42.6366 867.322 51.4432V51.6254C867.322 63.6511 857.514 69.6639 842.648 69.6639H811.272V3.88721H811.211Z" fill="white"/>
<path d="M917.829 20.7715L926.602 42.0897H909.056L917.829 20.7715ZM911.31 3.40112L883.041 69.6637H897.846L903.877 54.905H931.781L937.812 69.6637H952.982L924.713 3.40112H911.31Z" fill="white"/>
<path d="M972.602 3.88696V69.6637H1020V56.484H987.102V3.88696H972.602Z" fill="white"/>
<path d="M547.347 57.5166H485.752V70.9999H547.347V57.5166Z" fill="white"/>
<path d="M538.391 48.5885L528.825 40.6322C533.395 35.1052 536.319 29.3353 536.319 22.29C536.319 16.763 534.126 13.4226 530.531 13.4226H530.349C526.937 13.4226 525.17 15.5483 522.489 25.8127C519.26 38.142 515.849 46.1591 503.603 46.1591H503.42C492.271 46.1591 484.838 37.231 484.838 24.6587C484.838 15.7305 487.64 8.07784 492.697 1.88281L502.872 8.92814C499.094 14.3944 496.779 19.7391 496.779 24.9016C496.779 30.0642 499.155 32.7973 502.14 32.7973H502.323C506.344 32.7973 507.685 30.1856 510.426 19.5569C513.716 7.04534 518.225 0 528.947 0H529.13C541.376 0 548.199 9.29256 548.199 22.5329C548.26 31.8255 544.971 41.2395 538.391 48.5885Z" fill="white"/>
</svg>
