<svg width="917" height="214" viewBox="0 0 917 214" fill="none" xmlns="http://www.w3.org/2000/svg">
<path d="M570.949 173.205C575.997 177.67 581.605 181.019 587.774 183.809C596.748 187.158 605.721 188.274 615.255 187.158C640.493 184.368 655.636 165.392 660.683 149.764C662.366 144.183 662.927 139.16 663.488 133.579C663.488 131.347 664.048 129.114 665.17 126.882C667.414 121.301 673.583 117.952 680.313 119.068C686.482 120.184 690.969 125.765 690.408 131.905C690.408 158.136 679.752 179.345 659.562 195.53C647.784 205.018 634.324 210.599 619.742 212.273C594.504 215.064 571.51 208.925 552.441 191.623C539.542 179.903 531.129 165.392 527.764 148.09C524.399 127.998 526.643 108.464 537.299 90.6041C547.394 73.8607 561.415 61.5821 579.922 54.8847C591.7 50.4198 604.039 49.3036 616.377 50.4198C637.128 52.6523 653.953 61.024 668.535 76.0931C674.144 81.6743 678.63 88.9298 681.995 96.1853C681.995 96.7434 682.556 96.7434 682.556 97.3015C644.98 122.417 607.964 147.532 570.949 173.205ZM555.806 151.439C585.531 131.347 615.255 111.254 644.98 91.1623C627.594 73.8607 597.308 72.7444 578.801 85.023C553.563 101.208 547.394 128.556 555.806 151.439Z" fill="white"/>
<path d="M364.557 63.8147C371.287 66.0472 378.017 68.2796 384.747 70.5121C384.747 70.5121 384.747 70.5121 385.308 69.954C381.943 63.2566 378.017 56.5592 374.652 49.8618C375.213 50.4199 375.773 50.4199 375.773 50.4199C395.403 50.4199 415.032 50.4199 434.662 50.4199C449.804 50.4199 463.264 56.0011 475.042 65.4891C484.576 73.3027 492.428 82.7906 497.476 93.953C500.841 101.767 502.523 110.138 502.523 118.51C502.523 145.3 502.523 172.647 502.523 199.437C502.523 205.576 499.158 210.599 493.55 212.273C485.137 215.064 476.164 208.925 476.164 199.995C476.164 199.437 476.164 198.879 476.164 198.321C476.164 172.089 476.164 145.858 476.164 119.626C476.164 112.929 475.042 106.232 472.238 100.65C465.508 87.8137 455.413 79.4419 441.392 77.2095C413.911 72.7446 395.964 92.8367 392.599 109.022C392.038 112.371 391.477 115.719 391.477 118.51C391.477 144.741 391.477 170.973 391.477 197.762C391.477 198.879 391.477 200.553 391.477 201.669C390.355 208.367 384.747 213.39 378.017 212.832C371.287 212.832 365.678 207.25 365.117 200.553C365.117 199.437 365.117 198.879 365.117 197.762C365.117 188.833 365.117 179.903 365.117 170.973C365.117 135.812 365.117 101.208 365.117 66.0472C364.557 65.4891 364.557 64.9309 364.557 63.8147Z" fill="white"/>
<path d="M187.334 156.461C187.334 144.183 187.334 131.346 187.334 119.068C187.334 112.37 188.456 105.673 190.138 99.5337C192.942 90.6038 197.99 82.2321 204.159 74.9766C212.011 66.0467 220.984 58.7912 232.762 54.3263C256.317 45.9546 278.19 49.3032 297.819 64.3724C303.428 68.8373 308.475 73.8603 312.401 79.4415C320.814 91.1619 325.301 103.999 325.301 119.068C325.301 144.183 325.301 169.856 325.301 194.971C325.301 196.088 325.301 197.762 325.301 198.878C325.861 206.134 319.692 212.273 312.401 212.273C305.11 212.273 298.941 206.692 298.941 199.436C298.941 198.878 298.941 198.32 298.941 197.762C298.941 170.972 298.941 144.741 298.941 117.951C298.941 95.0687 280.994 80.5577 266.412 77.209C243.979 72.186 220.984 85.5808 215.376 107.905C214.254 111.254 214.254 115.161 214.254 118.51C214.254 144.741 214.254 170.972 214.254 197.204C214.254 198.878 214.254 201.111 213.693 202.785C212.572 208.924 206.403 213.389 200.233 212.831C194.064 212.273 188.456 207.808 187.895 201.669C187.895 200.553 187.895 199.436 187.895 198.32C187.334 184.367 187.334 170.414 187.334 156.461Z" fill="white"/>
<path d="M758.268 50.4197C780.141 50.4197 798.649 65.4888 803.696 82.7904C804.257 85.581 804.818 88.3715 804.257 91.1621C803.135 96.1852 798.649 100.65 793.601 101.208C787.993 102.324 782.945 99.5339 780.141 95.0689C779.58 93.9527 779.019 92.2784 778.459 90.604C777.898 89.4878 777.898 88.9297 777.337 87.8134C774.533 81.116 770.046 77.7673 762.755 76.6511C754.903 75.5349 748.734 78.3255 743.686 83.9066C738.639 90.0459 736.956 101.208 744.247 108.464C747.612 111.812 750.977 114.045 755.464 116.277C764.437 120.742 773.411 124.649 782.384 129.114C795.284 135.253 802.014 145.299 804.257 159.252C805.379 168.182 804.818 176.554 801.453 184.926C796.405 197.204 782.945 210.599 765.559 212.831C745.93 215.622 730.226 208.366 719.009 192.739C716.205 188.832 713.962 183.809 712.84 178.786C711.158 172.089 715.644 164.833 722.375 163.159C729.665 161.485 736.396 165.392 738.078 172.647C741.443 186.042 759.39 192.739 771.168 182.135C778.459 175.996 778.458 167.066 776.215 161.485C775.093 158.694 772.85 155.904 770.607 154.229C767.242 151.439 763.877 149.206 759.951 147.532C750.977 143.625 742.004 139.16 733.03 135.253C724.057 131.346 717.888 124.649 714.523 115.719C708.354 99.5339 709.475 84.4647 719.57 69.9537C726.3 61.0239 734.713 54.3265 745.93 52.094C751.538 50.9778 755.464 50.4197 758.268 50.4197Z" fill="white"/>
<path d="M26.3711 105.673C21.8844 105.673 17.3977 105.673 13.4718 105.673C8.98508 105.673 5.62004 103.999 2.81584 100.65C-3.3534 92.8367 1.13332 81.1162 11.2284 79.4419C12.3501 79.4419 14.0326 79.4419 15.1543 79.4419C19.0802 79.4419 22.4452 79.4419 26.3711 79.4419C26.3711 78.8838 26.3711 77.7675 26.3711 77.2094C26.3711 72.7445 26.3711 67.7215 26.932 63.2565C27.4928 52.0942 31.4187 42.0481 37.0271 33.1183C45.4397 20.8397 56.0956 10.7937 70.1166 5.21249C78.5292 1.8638 86.9418 0.189453 95.3544 0.189453C102.085 0.189453 107.132 4.65438 108.254 10.7937C109.375 19.1654 103.767 26.4209 95.3544 26.4209C90.3069 26.4209 85.8202 26.979 81.3334 28.6534C66.7516 34.7926 57.2173 45.3968 53.8523 61.0241C53.2914 63.8146 53.2914 66.0471 53.2914 68.8377C53.2914 72.1864 53.2914 75.5351 53.2914 78.8838C54.4131 78.8838 54.974 78.8838 55.5348 78.8838C63.3866 78.8838 71.7992 78.8838 79.6509 78.8838C85.8202 78.8838 91.4286 82.7906 92.5502 88.9298C94.2328 97.3016 88.6244 104.557 80.2118 105.115C77.4076 105.115 74.6034 105.115 71.7992 105.115C66.1908 105.115 61.1432 105.115 55.5348 105.115C54.974 105.115 54.4131 105.115 53.2914 105.115C53.2914 106.231 53.2914 106.79 53.2914 107.906C53.2914 138.044 53.2914 168.74 53.2914 198.879C53.2914 203.344 51.6089 207.25 47.683 210.041C43.1963 212.832 38.7096 213.39 34.2229 211.157C29.7362 208.925 26.932 205.018 26.932 199.995C26.932 199.437 26.932 198.321 26.932 197.762C26.932 167.624 26.932 137.486 26.932 107.906C26.3711 107.348 26.3711 106.79 26.3711 105.673Z" fill="white"/>
<path d="M877.163 49.8615C878.285 49.8615 878.846 49.8615 879.407 49.8615C886.697 49.8615 893.428 49.8615 900.719 49.8615C902.401 49.8615 904.644 49.8615 906.327 50.4196C910.814 51.5359 914.179 53.7683 915.861 58.2332C919.787 68.2793 913.057 76.6511 903.523 76.6511C895.671 76.6511 887.258 76.6511 879.407 76.6511C878.846 76.6511 878.285 76.6511 877.163 76.6511C877.163 77.7673 877.163 78.3254 877.163 78.8835C877.163 92.8364 877.163 106.789 877.163 120.742C877.163 146.974 877.163 173.763 877.163 199.995C877.163 206.134 873.237 211.157 867.068 212.831C859.216 215.064 851.365 209.483 850.804 201.669C850.804 199.437 850.243 197.762 850.243 195.53C850.243 157.02 850.243 118.51 850.243 79.4416C850.243 78.8835 850.243 77.7673 850.243 76.6511C849.682 76.6511 849.121 76.6511 848.56 76.6511C840.709 76.6511 832.296 76.6511 824.444 76.6511C817.153 76.6511 811.545 71.628 810.984 64.3725C810.423 57.117 816.032 51.5359 822.201 50.4196C823.883 50.4196 825.566 49.8615 827.248 49.8615C833.979 49.8615 841.269 49.8615 847.999 49.8615C848.56 49.8615 849.682 49.8615 850.804 49.8615C850.804 48.7453 850.804 48.1872 850.804 47.6291C850.804 37.0249 850.804 25.8625 850.804 15.2583C850.804 13.584 850.804 11.3515 851.365 9.67719C853.047 2.9798 859.216 -0.927011 865.386 0.18922C872.116 0.747336 877.163 6.32849 877.163 13.0259C877.163 24.1882 877.163 35.9086 877.163 47.0709C877.163 48.1872 877.163 48.7453 877.163 49.8615Z" fill="white"/>
<path d="M121.715 131.904C121.715 109.021 121.715 86.1387 121.715 63.8141C121.715 58.7911 124.519 53.768 130.127 51.5356C138.54 48.1869 147.513 54.3261 148.074 63.256C148.074 63.8141 148.074 64.9303 148.074 65.4885C148.074 110.138 148.074 154.229 148.074 198.878C148.074 200.552 148.074 202.227 147.513 203.901C145.831 210.599 139.662 214.505 132.932 213.947C126.202 213.389 121.715 207.808 121.715 201.111C121.715 177.112 121.715 154.787 121.715 131.904Z" fill="white"/>
<path d="M422.887 120.742C414.474 120.742 407.744 114.045 407.744 105.673C407.744 97.3013 414.474 90.6039 422.887 90.6039C431.299 90.6039 438.03 97.3013 438.03 105.673C437.469 113.487 431.299 120.742 422.887 120.742Z" fill="white"/>
<path d="M121.715 13.0261C121.715 5.77061 127.323 0.189453 134.614 0.189453C141.905 0.189453 148.074 6.32873 148.074 13.5842C148.074 20.8397 141.905 26.979 134.614 26.4209C126.762 26.4209 121.715 19.1654 121.715 13.0261Z" fill="white"/>
</svg>
