<svg width="931" height="561" viewBox="0 0 931 561" fill="none" xmlns="http://www.w3.org/2000/svg">
<path d="M108.461 81.8579H159.876V42.3221C159.876 28.5007 156.158 20.0363 149.253 18.8578L137.462 17.3578V0.64344H215.116V17.3578L205.343 18.8578C198.756 20.0363 195.038 28.5007 195.038 42.3221V143.894C195.038 157.394 197.588 165.858 205.343 167.358L215.116 168.858V185.572H137.462V168.858L149.253 167.358C157.433 165.858 159.876 157.394 159.876 143.894V99.7508H108.461V143.894C108.461 157.394 111.011 165.858 118.765 167.358L133.106 168.858V185.572L52.9028 185.465V168.751L62.9947 167.251C70.537 165.751 73.0865 157.287 73.0865 143.787V42.3221C73.0865 28.5007 69.3685 20.0363 62.9947 18.8578L52.9028 17.3578V0.64344H133.106V17.3578L118.765 18.8578C112.179 20.0363 108.461 28.5007 108.461 42.3221V81.8579Z" fill="#D40000" style="mix-blend-mode:screen"/>
<path d="M272.692 98.4645V146.572C272.692 158.358 277.153 166.822 292.451 166.822C313.378 166.822 333.561 171.643 342.272 137.893L351.408 107.036L369.148 106.822L345.141 185.572H219.683V168.858L229.244 167.358C236.467 166.179 238.804 157.393 238.804 143.893V42.3215C238.804 28.5001 235.193 20.0358 229.244 18.8572L219.683 17.3572V0.642859L399.53 0L378.497 74.7859H358.313L366.068 49.7144C367.874 44.0358 369.148 40.9287 370.423 33.9644C371.804 26.3572 365.855 19.1786 358.525 19.1786C339.51 19.1786 299.887 18.8572 292.344 18.8572C277.047 18.8572 272.586 25.9286 272.586 39.4287V65.6787C272.586 72.2145 278.003 77.5716 284.696 77.5716H307.323V98.4645H272.692V98.4645Z" fill="#D40000" style="mix-blend-mode:screen"/>
<path d="M368.935 125.465L405.054 0.750534H434.267L471.235 134.894C476.865 155.465 482.176 163.93 487.594 165.751L503.954 170.465L507.672 185.358L419.076 185.572V168.965L427.256 166.93C435.435 164.572 439.153 156.965 434.161 134.679L431.93 125.894H394.006L391.456 134.679C386.782 152.037 391.456 164.572 398.361 166.93L414.614 168.965V185.68H350.558C350.983 185.894 368.935 125.465 368.935 125.465ZM429.593 111.751L415.676 54.6435H414.402L399.742 111.751H429.593Z" fill="#D40000" style="mix-blend-mode:screen"/>
<path d="M512.664 185.786L467.729 26.3571C465.923 21 460.505 17.3571 454.556 17.3571H443.402L439.153 0.428474L528.386 0.64276V17.3571L508.733 18.8571C501.828 19.7142 499.279 26.5714 501.828 39.2143L533.06 139.179L561.636 39.6429C565.673 27 562.911 19.9285 554.731 18.7499L533.804 17.2499V0.428474L597.542 0.214188L552.925 185.572L512.664 185.786Z" fill="#D40000" style="mix-blend-mode:screen"/>
<path d="M762.091 143.893C762.091 157.393 764.641 165.643 772.396 167.357L805.539 170.357L810.851 185.25L721.937 185.572V168.857L732.028 167.357C739.571 165.857 742.12 157.393 742.12 143.893V42.3213C742.12 28.4999 738.402 20.0356 732.028 18.857L721.937 17.357V0.642654H792.261L833.69 106.071H834.009V42.3213C834.009 28.4999 830.291 20.0356 823.917 18.857L805.646 18.3213L799.272 0.428368L874.164 0.642654V17.357L864.391 18.857C857.805 20.0356 854.086 28.4999 854.086 42.3213V185.572H817.65L762.729 42.3213H762.091V143.893Z" fill="#D40000" style="mix-blend-mode:screen"/>
<path d="M602.959 0.320389L717.369 0.748961V74.9991H699.204V52.392C699.204 30.4276 703.559 17.249 669.141 17.5704C654.375 17.6776 633.129 13.6061 624.312 36.8562L618.257 65.2491C617.832 72.3206 622.824 75.5349 628.348 75.5349H661.917V96.4278H612.52L600.41 152.356C597.329 166.071 603.703 168.535 609.546 169.178C622.081 170.571 646.726 170.571 656.924 170.571C677.108 170.571 699.31 173.464 699.204 133.714V106.821H717.369V185.678L558.662 185.357L602.959 0.320389Z" fill="#D40000" style="mix-blend-mode:screen"/>
<path d="M109.735 450.644C109.735 421.608 103.043 389.894 69.793 389.894C47.8034 389.894 41.3234 406.287 41.3234 422.68V500.787C41.3234 523.93 53.0087 540.752 71.0678 540.752C89.0206 540.752 108.036 531.537 108.461 500.466C108.461 499.823 109.735 479.894 109.735 479.144H128.432C128.432 479.894 128.432 498.43 128.432 499.073C127.688 529.716 110.054 559.716 66.7123 559.716C18.3778 559.716 0 522.109 0 486.323V437.573C0 406.716 24.7515 370.93 63.313 370.93C72.1301 370.93 80.0973 372.644 88.0645 376.501C92.9511 379.18 99.1124 381.537 102.724 381.537C105.805 381.537 107.611 379.823 107.611 372.108H128.432L160.407 371.894L160.195 376.501C137.143 396.537 128.113 403.287 128.538 450.537H128.432H109.735V450.644Z" fill="#D40000" style="mix-blend-mode:screen"/>
<path d="M260.369 491.358C260.688 528.322 235.618 559.715 197.056 559.715C158.814 559.715 133.106 533.251 133.425 493.393L133.743 437.358C133.743 402.75 158.814 371.036 197.056 371.036C235.299 371.036 260.051 400.715 260.369 437.358V491.358ZM175.279 500.679C175.279 522.108 178.679 540.858 196.95 540.858C215.009 540.858 218.621 520.608 218.621 500.679V422.572C218.621 406.179 214.903 390 196.95 390C178.572 390 175.279 406.179 175.279 422.572V500.679Z" fill="#D40000" style="mix-blend-mode:screen"/>
<path d="M375.841 372.75L374.779 489.536C374.779 544.715 357.676 559.715 326.125 559.715C277.791 559.715 265.256 535.608 265.256 484.286L265.574 429.75C264.618 412.393 254.208 393.858 246.984 386.572L237.742 378.75V372.75L324.638 373.072V389.786L309.554 391.286C303.392 392.465 299.78 400.929 299.78 414.75V477.322C299.78 523.394 303.498 540.965 328.25 540.965C344.184 540.965 355.445 531.536 355.445 494.572V414.75C355.445 403.608 353.639 392.465 345.034 391.286L330.268 389.786V373.072L375.841 372.75Z" fill="#D40000" style="mix-blend-mode:screen"/>
<path d="M496.306 373.931H627.819V480.431H609.76V431.145C609.76 413.788 605.192 394.717 592.019 394.717C580.44 394.717 579.166 412.074 579.166 423.217V517.181C579.166 530.681 581.609 539.146 589.576 540.646L599.031 542.146V558.86H524.988V542.146L534.762 540.646C542.41 539.146 544.853 530.681 544.853 517.181V423.217C544.853 412.074 543.579 394.717 532 394.717C518.827 394.717 514.259 413.788 514.259 431.145V480.431H496.2V373.931H496.306Z" fill="#D40000" style="mix-blend-mode:screen"/>
<path d="M686.562 478.5V517.286C686.562 530.786 689.962 540.214 700.903 541.393L707.915 542.25V558.964H632.385V542.25L642.158 540.75C649.488 539.25 651.932 530.786 651.932 517.286V415.714C651.932 401.893 648.214 393.428 642.158 392.25L632.385 390.75V374.035H718.644C757.843 374.035 776.114 392.785 776.114 423.107C776.114 446.571 765.385 459.75 753.806 465.964V466.5C764.216 473.786 768.147 485.036 769.74 501.107C771.228 517.822 772.502 525.75 777.389 525.75C781.957 525.75 783.232 516.107 783.232 509.572V400.5L800.972 433.5V509.679C800.972 550.5 789.393 561 771.334 561C749.344 561 740.421 549.857 736.172 514.071C734.366 497.036 729.479 478.607 715.351 478.607H686.562V478.5ZM696.973 399.535C690.599 399.535 686.562 403.071 686.562 417.107V442.071C686.562 446.786 690.599 450.536 695.592 450.536H718.644C728.736 450.536 739.465 441.428 739.465 425.571C739.465 407.036 728.736 399.428 718.644 399.428H696.973V399.535Z" fill="#D40000" style="mix-blend-mode:screen"/>
<path d="M746.795 374.143L847.501 374.035V390.75L834.859 392.25C828.167 393.428 826.255 398.464 830.292 405.214L849.519 447.536L868.747 406.071C872.996 399 871.827 393.428 865.985 392.25L853.343 390.75V374.035H917.4V390.75L906.989 392.25C903.059 392.785 900.616 397.5 897.216 403.071L863.223 474.643V517.286C863.223 530.786 865.666 539.25 873.315 540.75L883.088 542.25V558.964H809.046V542.25L818.819 540.75C826.467 539.25 828.911 530.786 828.911 517.286V474.643L794.386 411.536C788.543 400.393 784.931 392.785 778.451 391.821L771.44 390.535L769.209 387.535C765.704 382.821 760.923 379.821 755.612 376.928C754.868 376.5 754.019 376.178 753.169 375.964L746.795 374.143Z" fill="#D40000" style="mix-blend-mode:screen"/>
<path d="M931 538.715C931 550.18 922.714 559.18 913.579 559.18C904.124 559.18 896.476 550.18 896.476 538.715C896.476 527.572 904.124 517.929 913.579 517.929C922.714 517.822 931 527.465 931 538.715Z" fill="#D40000" style="mix-blend-mode:screen"/>
<path d="M491.419 415.18V558.43H454.982L400.061 415.18H399.424V516.751C399.424 530.251 401.973 538.501 409.728 540.216L441.809 541.716L448.289 558.537L363.199 558.751L359.163 554.894C365.961 549.537 372.229 542.358 375.097 533.573C375.947 530.894 377.115 528.751 379.028 517.608C379.24 516.537 379.24 515.466 379.346 514.501L381.152 373.394H429.593L471.023 478.823H471.341V415.18C471.341 401.358 467.623 392.894 461.249 391.715L443.297 391.287L436.285 373.394L491.312 373.501C491.312 372.644 491.419 415.18 491.419 415.18Z" fill="#D40000" style="mix-blend-mode:screen"/>
<path d="M215.328 230.571C215.328 217.285 211.717 215.464 205.662 214.392L195.995 212.999V190.499H299.675L295.213 192.964C288.415 196.821 282.784 202.285 278.748 209.035L276.304 213.106L259.201 214.499C253.146 215.678 249.534 217.392 249.534 230.678V328.5C249.534 341.464 251.978 344.357 259.52 345.75L268.125 347.142V368.571H196.101V347.142L205.768 345.75C212.991 344.357 215.435 341.464 215.435 328.5V230.571H215.328Z" fill="#D40000" style="mix-blend-mode:screen"/>
<path d="M376.266 260.785C374.142 252.321 373.929 233.249 365.962 221.892C360.863 214.499 345.672 206.035 332.712 206.035C315.822 206.035 307.961 218.142 307.961 229.178C307.642 245.249 318.584 250.392 341.529 256.607C381.153 267.642 398.681 282.857 398.681 316.821C398.681 348.75 375.098 370.285 344.291 370.285C332.818 370.285 322.514 366.643 315.928 363.535C309.023 360.428 303.499 357.857 298.719 357.857C293.938 357.857 290.539 363.535 287.883 368.571H272.799L271.949 262.821H274.286C274.392 263.249 274.817 264.428 274.923 264.857C277.791 271.714 281.616 277.285 286.927 282.642L287.565 283.285C288.946 290.464 293.301 318.214 296.807 327.428C297.125 328.178 297.444 328.928 297.975 329.678C305.73 340.607 320.602 349.5 340.573 349.5C353.215 349.5 362.669 339.321 362.669 327.964C362.669 311.892 346.628 305.035 336.643 301.071L313.06 292.071C285.865 281.357 275.029 265.499 275.029 237.214C275.029 207.214 299.462 188.571 329.419 188.571C338.767 188.571 348.753 190.285 354.489 191.999C359.376 193.392 363.838 194.785 368.405 194.785C372.017 194.785 374.461 192.535 376.585 190.499H391.351V260.785H376.266V260.785Z" fill="#D40000" style="mix-blend-mode:screen"/>
<path d="M581.397 230.248V328.07C581.397 341.034 583.84 349.284 591.383 350.677L610.292 352.499V368.57H520.952L524.139 352.499L535.187 351.106C542.729 349.392 545.173 341.463 545.173 328.499V230.677H544.535L515.853 368.677H496.201L467.2 230.677H466.563V328.499C466.563 341.463 469.006 349.392 476.548 351.106L487.49 352.499L490.677 368.57H427.895V352.499L437.562 351.106C444.786 349.713 447.229 341.463 447.229 328.499V230.677C447.229 217.391 443.617 209.141 437.562 208.07L427.895 206.677V190.605H495.563L514.26 277.391L532.106 190.605H581.291V206.677C581.61 206.784 581.397 230.248 581.397 230.248Z" fill="#D40000" style="mix-blend-mode:screen"/>
<path d="M586.284 190.499H659.37V206.571L646.41 207.964C639.717 209.142 637.911 213.856 641.842 220.392L661.176 253.178L679.872 221.249C684.121 214.499 682.847 209.142 677.11 207.964L664.044 206.571V190.499H732.137V206.571L721.833 207.964C717.902 208.499 715.459 213.106 712.166 218.464L678.704 287.142V328.5C678.704 341.464 681.147 349.714 688.689 351.107L698.356 352.5V368.571H614.753V352.5L634.831 351.107C642.373 349.714 644.816 341.464 644.816 328.5V287.464L610.717 226.714C604.98 215.999 601.368 208.606 594.994 207.749L586.284 206.678V190.499V190.499Z" fill="#D40000" style="mix-blend-mode:screen"/>
</svg>
